<?xml version="1.0" encoding="utf-8"?>
<svg xmlns="http://www.w3.org/2000/svg" width="500" height="500" viewBox="0 0 50 50">
  <path d="M18.576172 1.765625C18.329922 1.780625 18.1375 1.8625 18 2C17 3 19 12 18 14C17 16 13 19 15 23 A 4.516 4.516 0 0 0 15.390625 23.630859L15.400391 23.640625C15.790391 23.870625 16.200781 24.100781 16.550781 24.300781C17.000781 24.550781 17.450625 24.800313 17.890625 25.070312 A 16.938 16.938 0 0 1 19.070312 18.269531L19.099609 18.210938 A 7.549 7.549 0 0 1 21.400391 15.199219C24.090391 13.179219 22.940156 6.5494531 22.160156 3.6894531C20.532656 2.2719531 19.314922 1.720625 18.576172 1.765625 z M 24.769531 6.359375 A 19.216 19.216 0 0 1 24.900391 12.480469C27.948803 16.236036 31.982706 30.259278 32.779297 33.103516 A 5.927 5.927 0 0 0 30.943359 34.080078 A 7.183 7.183 0 0 0 29.382812 35.71875 A 5.525 5.525 0 0 0 29.363281 35.748047 A 18.313 18.313 0 0 1 27.160156 35.900391 A 14.909 14.909 0 0 1 21.720703 34.900391 A 9.248 9.248 0 0 1 18.439453 36.519531 A 4.724 4.724 0 0 0 20.970703 38.349609C23.0953 38.971676 25.930055 38.132877 29.210938 35.992188 A 5.525 5.525 0 0 0 28.574219 37.476562 A 9.169 9.169 0 0 0 27.933594 37.900391 A 9.98 9.98 0 0 0 26.871094 38.890625 A 8.056 8.056 0 0 0 25.328125 41.458984 A 6.617 6.617 0 0 0 24.962891 44.537109 A 3.923 3.923 0 0 0 26.5625 47.242188 A 0.531 0.531 0 0 0 26.748047 47.324219 A 0.543 0.543 0 0 0 27.398438 46.917969L27.435547 46.757812 A 23.231 23.231 0 0 0 27.818359 44.402344 A 17.357 17.357 0 0 1 28.107422 42.308594 A 15.825 15.825 0 0 1 28.818359 40.162109C28.949359 39.784109 29.160688 39.439062 29.304688 39.039062 A 12.432 12.432 0 0 0 29.65625 38.277344 A 13.434 13.434 0 0 0 31.128906 37.507812C31.684906 37.177813 32.202125 36.843187 32.703125 36.492188C33.204125 36.141188 33.691109 35.802344 34.162109 35.402344 A 12.024 12.024 0 0 0 35.40625 34.207031 A 2 2 0 0 0 37 35 A 2 2 0 0 0 38.970703 32.677734C39.000555 32.615525 40.091873 30.345614 41.380859 28.822266C42.034206 28.050129 42.741488 27.542495 43.173828 27.513672C43.389998 27.499262 43.560499 27.548782 43.792969 27.78125C44.025438 28.01372 44.290543 28.453661 44.525391 29.158203 A 0.50028181 0.50028181 0 0 0 45.474609 28.841797C45.209457 28.04634 44.896437 27.470655 44.5 27.074219C44.103563 26.677782 43.594377 26.485114 43.107422 26.517578C43.068352 26.520178 43.038492 26.555797 43 26.560547 A 0.50005 0.50005 0 0 0 42.974609 26.341797C42.708798 25.544363 42.407763 24.994845 41.984375 24.648438C41.560987 24.302028 40.976388 24.252307 40.521484 24.447266C39.611677 24.837183 38.955826 25.849826 38.3125 27.007812C37.481212 28.504131 36.891912 29.989217 36.492188 31.068359 A 2 2 0 0 0 35.003906 32.929688 A 4.246 4.246 0 0 0 33.193359 32.984375C33.495245 28.796323 33.616073 18.92411 29 12 A 55.183 55.183 0 0 0 24.769531 6.359375 z M 24.130859 14.900391 A 5.235 5.235 0 0 1 22.599609 16.800781 A 5.437 5.437 0 0 0 21.070312 18.689453 A 36.98 36.98 0 0 0 29.960938 30.570312C28.420938 25.470312 26.010859 18.210391 24.130859 14.900391 z M 20.179688 21.449219 A 20.583 20.583 0 0 0 19.949219 26.449219C22.799219 28.609219 26.450469 30.929141 29.230469 32.619141 A 42.023 42.023 0 0 1 20.179688 21.449219 z M 41.142578 25.306641C41.204025 25.313364 41.262476 25.348985 41.351562 25.421875C41.529738 25.567654 41.791202 25.955637 42.025391 26.658203 A 0.50005 0.50005 0 0 0 42.179688 26.886719C41.616112 27.191455 41.090956 27.620134 40.619141 28.177734C39.530539 29.464263 38.794938 30.840592 38.414062 31.589844 A 2 2 0 0 0 37.556641 31.082031C37.963982 30.025335 38.516222 28.700488 39.1875 27.492188C39.794174 26.400174 40.513323 25.537817 40.916016 25.365234C41.016689 25.322089 41.081132 25.299917 41.142578 25.306641 z M 14.943359 26.478516C11.441582 26.354238 7 27.1525 7 32C7 35 8 35.88 8 40C8 42 5 46 9 47 A 3.144 3.144 0 0 0 9.4609375 47.080078C11.920938 43.810078 11.609531 41.009062 11.269531 37.789062 A 34.65 34.65 0 0 1 11 34C11 30.17 14.209141 27.770078 16.369141 26.580078C15.922891 26.533828 15.443613 26.49627 14.943359 26.478516 z M 18.419922 27.800781 A 16.7 16.7 0 0 0 16.730469 28.699219 A 12.75 12.75 0 0 0 21.779297 32.800781L21.869141 32.830078 A 13.078 13.078 0 0 0 27.470703 33.890625C24.650703 32.160625 21.139922 29.900781 18.419922 27.800781 z M 15.140625 29.880859 A 5.584 5.584 0 0 0 13 34C13 34.43 13.030547 34.859297 13.060547 35.279297 A 16.273 16.273 0 0 0 19.650391 33.890625 A 15.3 15.3 0 0 1 15.140625 29.880859 z M 16.359375 36.980469 A 25.231 25.231 0 0 1 13.220703 37.279297C13.240703 37.379297 13.24 37.480078 13.25 37.580078 A 29.165 29.165 0 0 1 13.490234 41.099609C13.810234 41.089609 14.969609 40.859844 17.849609 38.839844 A 7.409 7.409 0 0 1 16.359375 36.980469 z M 19.660156 40C16.830156 42.06 14.729922 43.119141 13.419922 43.119141C13.379922 43.119141 13.360078 43.099609 13.330078 43.099609 A 11.035 11.035 0 0 1 11.970703 46.880859C14.890703 46.230859 19.209922 44.170156 25.169922 40.160156 A 9.68 9.68 0 0 1 22.490234 40.560547 A 7.39 7.39 0 0 1 20.369141 40.259766C20.119141 40.179766 19.890156 40.09 19.660156 40 z" fill="#3b80c3" />
</svg>