<?xml version="1.0" encoding="utf-8"?>
<svg xmlns="http://www.w3.org/2000/svg" viewBox="0 0 50 50" width="500" height="500">
  <path d="M5 6C3.924 6 2.0021094 6.4100312 1.7871094 6.4570312C1.2511094 6.5730312 0.91148438 7.0997188 1.0214844 7.6367188C1.5454844 10.201719 4.4017031 23 9.0957031 23C9.5247031 23 9.9850312 22.976312 10.457031 22.945312C9.4880313 24.176313 8.7565469 25.74825 8.0605469 27.65625C7.9115469 28.06525 8.0436719 28.524016 8.3886719 28.791016C8.3936719 28.795016 8.9345156 29.249328 8.9785156 29.861328C9.0105156 30.305328 8.7752969 30.791641 8.2792969 31.306641C8.0562969 31.537641 7.958625 31.861734 8.015625 32.177734C8.072625 32.493734 8.2783594 32.764344 8.5683594 32.902344C9.5923594 33.391344 9.0489219 35.227187 9.0449219 35.242188C8.9589219 35.517187 8.9954844 35.8165 9.1464844 36.0625C9.2974844 36.3085 9.5460781 36.478344 9.8300781 36.527344C9.9820781 36.553344 10.643516 36.752547 10.853516 37.185547C11.027516 37.544547 10.908578 38.136516 10.517578 38.853516C10.494578 38.895516 10.492562 38.941375 10.476562 38.984375C9.6385625 39.653375 8.7505469 40.770297 8.0605469 42.654297C7.8705469 43.173297 8.13825 43.7475 8.65625 43.9375C8.77025 43.9795 8.886 44 9 44C9.408 44 9.7914531 43.74975 9.9394531 43.34375C11.164453 39.99975 12.865 40.006 13 40C13.841 40 14.0575 40.351562 14.0625 40.351562C14.1975 40.711562 14.529109 40.962094 14.912109 40.996094C15.301109 41.031094 15.664375 40.840766 15.859375 40.509766C16.434375 39.537766 17.345609 39.815969 17.599609 39.917969C17.908609 40.052969 18.265875 40.021937 18.546875 39.835938C18.829875 39.650938 19 39.337 19 39C19 36.841 20.463578 35.889469 20.517578 35.855469C20.817578 35.674469 21 35.35 21 35C21 28.507695 22.945454 24.982636 24 23.542969L24 30C24 30.55 24.45 31 25 31C25.55 31 26 30.55 26 30L26 23.542969C27.054148 24.982238 29 28.507695 29 35C29 35.35 29.182422 35.674469 29.482422 35.855469C29.536422 35.889469 31 36.841 31 39C31 39.337 31.169172 39.650938 31.451172 39.835938C31.733172 40.021937 32.089438 40.051969 32.398438 39.917969C32.652437 39.814969 33.563672 39.537766 34.138672 40.509766C34.333672 40.841766 34.698891 41.031094 35.087891 40.996094C35.470891 40.962094 35.800547 40.711562 35.935547 40.351562C35.941547 40.351562 36.16 40 37 40C37.135 40.006 38.835547 39.99875 40.060547 43.34375C40.209547 43.74875 40.593 44 41 44C41.114 44 41.22975 43.9795 41.34375 43.9375C41.86275 43.7475 42.129453 43.173297 41.939453 42.654297C41.249453 40.770297 40.361437 39.653375 39.523438 38.984375C39.507438 38.941375 39.504422 38.895516 39.482422 38.853516C39.091422 38.135516 38.972484 37.543547 39.146484 37.185547C39.356484 36.752547 40.017922 36.553344 40.169922 36.527344C40.453922 36.478344 40.703516 36.3085 40.853516 36.0625C41.003516 35.8165 41.041078 35.517188 40.955078 35.242188C40.951078 35.227187 40.407641 33.391344 41.431641 32.902344C41.721641 32.764344 41.927375 32.493734 41.984375 32.177734C42.042375 31.861734 41.943703 31.537641 41.720703 31.306641C41.224703 30.791641 40.989484 30.306328 41.021484 29.861328C41.065484 29.249328 41.606328 28.795016 41.611328 28.791016C41.955328 28.524016 42.088453 28.06525 41.939453 27.65625C41.243453 25.74825 40.511969 24.176312 39.542969 22.945312C40.014969 22.976312 40.474297 23 40.904297 23C45.597297 23 48.455469 10.201719 48.980469 7.6367188C49.090469 7.0997188 48.747891 6.5730313 48.212891 6.4570312C47.996891 6.4100313 46.077 6 45 6C36.431231 6 28.439427 14.567388 26 17.435547L26 16C26 15.45 25.55 15 25 15C24.45 15 24 15.45 24 16L24 17.435547C21.56077 14.567388 13.569621 6 5 6 z M 6.2832031 8.0859375C7.8299045 8.2624082 9.3603843 8.752262 10.835938 9.421875C10.584066 10.315251 10.180315 11.940024 10.003906 13.910156 A 1.0001376 1.0001376 0 1 0 11.996094 14.089844C12.145502 12.421252 12.428358 11.205321 12.658203 10.355469C13.089524 10.601273 13.513732 10.858129 13.929688 11.126953C13.691211 12.010497 13 14.751042 13 17 A 1.0001 1.0001 0 1 0 15 17C15 15.426458 15.43326 13.501666 15.708984 12.363281C16.312061 12.814789 16.860532 13.277529 17.410156 13.742188C17.364718 13.891744 16.936858 15.312465 16.560547 18.048828C16.843547 17.998828 17.125391 17.947484 17.400391 17.896484C17.821391 17.820484 18.232625 17.747781 18.640625 17.675781C18.803813 16.60562 18.968293 15.795318 19.095703 15.230469C20.815334 16.846018 22.130133 18.316291 22.765625 19.072266C21.565694 19.191993 20.038891 19.458705 18.373047 19.757812C18.37311 19.757239 18.372984 19.756433 18.373047 19.755859C18.167047 19.792859 17.968812 19.827234 17.757812 19.865234C16.576812 20.078234 12.363719 20.749359 11.761719 20.818359C9.0837188 17.515359 7.0342031 10.795937 6.2832031 8.0859375 z M 43.716797 8.0859375C42.965797 10.795937 40.916281 17.517312 38.238281 20.820312C37.646087 20.752436 33.597041 20.106744 32.339844 19.882812C32.307777 19.877028 32.274146 19.871002 32.242188 19.865234C32.031188 19.827234 31.832953 19.792859 31.626953 19.755859C31.627079 19.757007 31.626827 19.758617 31.626953 19.759766C29.961078 19.459943 28.434324 19.190928 27.234375 19.070312C27.869967 18.314568 29.184143 16.844221 30.904297 15.228516C31.031756 15.793413 31.196038 16.604637 31.359375 17.675781C31.767375 17.747781 32.178609 17.820484 32.599609 17.896484C32.874609 17.947484 33.156453 17.998828 33.439453 18.048828C33.063142 15.312465 32.635282 13.891744 32.589844 13.742188C33.139496 13.277558 33.68792 12.814769 34.291016 12.363281C34.56674 13.501666 35 15.426458 35 17 A 1.0001 1.0001 0 1 0 37 17C37 14.751042 36.308789 12.010497 36.070312 11.126953C36.486271 10.858137 36.910481 10.601268 37.341797 10.355469C37.571642 11.205321 37.854498 12.421252 38.003906 14.089844 A 1.0001376 1.0001376 0 1 0 39.996094 13.910156C39.819714 11.940345 39.417899 10.315365 39.166016 9.421875C40.641356 8.7523873 42.170474 8.2623886 43.716797 8.0859375 z M 24 21L24 21.009766C23.76628 21.009652 23.531219 21.07995 23.341797 21.246094C23.177797 21.390094 19.583406 24.644562 19.066406 32.976562C14.627406 32.748562 14 30.855 14 29C14 26.552 13.365031 24.099 13.082031 23.125L13 22.71875C13.817812 22.592361 15.0108 22.37635 16.167969 22.171875C16.072182 23.619367 16 25.182916 16 27C16 27.552 16.448 28 17 28C17.552 28 18 27.552 18 27C18 25.015841 18.089706 23.346401 18.205078 21.820312C20.545876 21.396929 22.75129 21 24 21 z M 26 21C27.248708 21 29.454127 21.395936 31.794922 21.818359C31.910379 23.344915 32 25.014975 32 27C32 27.552 32.448 28 33 28C33.552 28 34 27.552 34 27C34 25.182018 33.925948 23.617946 33.830078 22.169922C34.987829 22.374452 36.181666 22.59228 37 22.71875L36.917969 23.125C36.634969 24.099 36 26.552 36 29C36 30.855 35.373547 32.747563 30.935547 32.976562C30.418547 24.644562 26.822203 21.391047 26.658203 21.248047C26.468312 21.081436 26.233643 21.00955 26 21.009766L26 21 z" fill="#3b80c3" />
</svg>