<?xml version="1.0" encoding="utf-8"?>
<svg xmlns="http://www.w3.org/2000/svg" viewBox="0 0 50 50" width="500" height="500">
  <path d="M24.984375 2.984375C24.433594 2.996094 23.992188 3.449219 24 4L24 15L20 15C19.734375 15 19.480469 15.105469 19.292969 15.292969C19.292969 15.292969 14.375 20.210938 6.46875 25.152344C6.214844 25.3125 6.046875 25.578125 6.007813 25.875C6.007813 25.875 5.019531 33.792969 2.042969 43.714844C1.953125 44.015625 2.011719 44.34375 2.199219 44.597656C2.386719 44.851563 2.683594 45 3 45L47 45C47.316406 45 47.613281 44.851563 47.800781 44.597656C47.988281 44.34375 48.046875 44.015625 47.957031 43.714844C44.980469 33.792969 43.992188 25.875 43.992188 25.875C43.953125 25.5625 43.769531 25.285156 43.496094 25.128906C36.65625 21.222656 30.707031 15.292969 30.707031 15.292969C30.519531 15.105469 30.265625 15 30 15L26 15L26 12.65625C28.527344 11.570313 30.890625 11.75 33.625 11.75C36.558594 11.75 39.886719 11.453125 43.582031 8.8125L43 9L42.605469 7.078125C39.476563 8.421875 36.300781 7.542969 33.234375 6.355469C31.703125 5.761719 30.230469 5.09375 28.824219 4.640625C28.117188 4.417969 27.417969 4.234375 26.726563 4.164063C26.484375 4.140625 26.242188 4.132813 26 4.140625L26 4C26.003906 3.730469 25.898438 3.46875 25.707031 3.277344C25.515625 3.085938 25.253906 2.980469 24.984375 2.984375 Z M 26.984375 6.304688C27.339844 6.328125 27.734375 6.394531 28.207031 6.546875C29.457031 6.949219 30.921875 7.601563 32.515625 8.21875C33.867188 8.746094 35.382813 9.160156 36.921875 9.4375C35.816406 9.617188 34.726563 9.75 33.625 9.75C31.234375 9.75 28.699219 9.625 26 10.5625L26 6.320313C26.3125 6.296875 26.625 6.277344 26.984375 6.304688 Z M 20.378906 17L24.832031 17C24.941406 17.019531 25.050781 17.019531 25.15625 17L29.617188 17C30.042969 17.421875 34.601563 21.867188 40.519531 25.621094C39.65625 25.820313 38.710938 26 38 26C36.390625 26 33.632813 25.144531 33.4375 25.082031L32.980469 22.804688C32.886719 22.328125 32.460938 21.988281 31.972656 22C31.898438 22 31.828125 22.011719 31.757813 22.03125C31.757813 22.027344 27.777344 23 25 23C22.222656 23 18.242188 22.03125 18.242188 22.03125C18.175781 22.011719 18.113281 22.003906 18.046875 22C17.550781 21.976563 17.117188 22.320313 17.019531 22.804688L16.5625 25.082031C16.367188 25.144531 13.609375 26 12 26C11.261719 26 10.269531 25.808594 9.382813 25.597656C15.941406 21.257813 19.976563 17.398438 20.378906 17 Z M 18.78125 24.1875C19.953125 24.460938 22.460938 25 25 25C27.539063 25 30.046875 24.460938 31.21875 24.1875L31.78125 27L18.21875 27 Z M 7.804688 27.289063C8.882813 27.597656 10.53125 28 12 28C13.433594 28 15.039063 27.613281 16.121094 27.308594L16.019531 27.804688C15.914063 28.34375 16.261719 28.867188 16.796875 28.980469L14.171875 43L4.273438 43C6.542969 35.074219 7.542969 29.054688 7.804688 27.289063 Z M 42.191406 27.289063C42.453125 29.023438 43.449219 35.046875 45.726563 43L35.828125 43L33.203125 28.980469C33.738281 28.871094 34.089844 28.34375 33.980469 27.804688L33.878906 27.308594C34.960938 27.613281 36.566406 28 38 28C39.46875 28 41.117188 27.597656 42.191406 27.289063 Z M 18.828125 29L21 29L21 43L16.203125 43 Z M 29 29L31.171875 29L33.796875 43L29 43Z" fill="#FF2E31" />
</svg>