<?xml version="1.0" encoding="utf-8"?>
<svg xmlns="http://www.w3.org/2000/svg" viewBox="0 0 64 64" width="512" height="512">
  <path d="M12.535156 6C11.179688 6 9.988281 6.914063 9.640625 8.226563L2.171875 36.234375C2.058594 36.65625 2 37.089844 2 37.523438L2 53C2 54.652344 3.347656 56 5 56L59 56C60.652344 56 62 54.652344 62 53L62 37.523438C62 37.089844 61.941406 36.65625 61.828125 36.234375L54.359375 8.226563C54.011719 6.914063 52.820313 6 51.464844 6 Z M 12.535156 8L51.464844 8C51.917969 8 52.3125 8.304688 52.429688 8.742188L59.898438 36.75C59.964844 37.003906 60 37.261719 60 37.523438L60 38L42.828125 38C42.027344 38 41.273438 38.3125 40.707031 38.878906L37.878906 41.707031C37.691406 41.894531 37.4375 42 37.171875 42L26.828125 42C26.5625 42 26.308594 41.894531 26.121094 41.707031L23.292969 38.878906C22.726563 38.3125 21.972656 38 21.171875 38L4 38L4 37.523438C4 37.261719 4.035156 37.003906 4.101563 36.75L11.570313 8.742188C11.6875 8.304688 12.085938 8 12.535156 8 Z M 19 14C18.449219 14 18 14.445313 18 15C18 15.554688 18.449219 16 19 16L45 16C45.550781 16 46 15.554688 46 15C46 14.445313 45.550781 14 45 14 Z M 17 22C16.449219 22 16 22.445313 16 23C16 23.554688 16.449219 24 17 24L47 24C47.550781 24 48 23.554688 48 23C48 22.445313 47.550781 22 47 22 Z M 15 30C14.449219 30 14 30.445313 14 31C14 31.554688 14.449219 32 15 32L49 32C49.550781 32 50 31.554688 50 31C50 30.445313 49.550781 30 49 30 Z M 4 40L21.171875 40C21.4375 40 21.691406 40.105469 21.878906 40.292969L24.707031 43.121094C25.273438 43.6875 26.027344 44 26.828125 44L37.171875 44C37.972656 44 38.726563 43.6875 39.296875 43.121094L42.121094 40.292969C42.308594 40.105469 42.5625 40 42.828125 40L60 40L60 53C60 53.550781 59.550781 54 59 54L5 54C4.449219 54 4 53.550781 4 53 Z M 7 46C6.449219 46 6 46.445313 6 47L6 49C6 49.554688 6.449219 50 7 50C7.550781 50 8 49.554688 8 49L8 47C8 46.445313 7.550781 46 7 46 Z M 12 46C11.449219 46 11 46.445313 11 47L11 49C11 49.554688 11.449219 50 12 50C12.550781 50 13 49.554688 13 49L13 47C13 46.445313 12.550781 46 12 46 Z M 17 46C16.449219 46 16 46.445313 16 47L16 49C16 49.554688 16.449219 50 17 50C17.550781 50 18 49.554688 18 49L18 47C18 46.445313 17.550781 46 17 46 Z M 22 46C21.449219 46 21 46.445313 21 47L21 49C21 49.554688 21.449219 50 22 50C22.550781 50 23 49.554688 23 49L23 47C23 46.445313 22.550781 46 22 46 Z M 27 46C26.449219 46 26 46.445313 26 47L26 49C26 49.554688 26.449219 50 27 50C27.550781 50 28 49.554688 28 49L28 47C28 46.445313 27.550781 46 27 46 Z M 32 46C31.449219 46 31 46.445313 31 47L31 49C31 49.554688 31.449219 50 32 50C32.550781 50 33 49.554688 33 49L33 47C33 46.445313 32.550781 46 32 46 Z M 37 46C36.449219 46 36 46.445313 36 47L36 49C36 49.554688 36.449219 50 37 50C37.550781 50 38 49.554688 38 49L38 47C38 46.445313 37.550781 46 37 46 Z M 42 46C41.449219 46 41 46.445313 41 47L41 49C41 49.554688 41.449219 50 42 50C42.550781 50 43 49.554688 43 49L43 47C43 46.445313 42.550781 46 42 46 Z M 47 46C46.449219 46 46 46.445313 46 47L46 49C46 49.554688 46.449219 50 47 50C47.550781 50 48 49.554688 48 49L48 47C48 46.445313 47.550781 46 47 46 Z M 52 46C51.449219 46 51 46.445313 51 47L51 49C51 49.554688 51.449219 50 52 50C52.550781 50 53 49.554688 53 49L53 47C53 46.445313 52.550781 46 52 46 Z M 57 46C56.449219 46 56 46.445313 56 47L56 49C56 49.554688 56.449219 50 57 50C57.550781 50 58 49.554688 58 49L58 47C58 46.445313 57.550781 46 57 46Z" fill="#3b80c3" />
</svg>