<?xml version="1.0" encoding="utf-8"?>
<svg xmlns="http://www.w3.org/2000/svg" viewBox="0 0 50 50" width="500" height="500">
  <path d="M28.992188 8C23.873188 8 19.388844 10.76825 17.214844 15.15625C16.078844 14.40325 14.747469 14 13.355469 14C9.7104688 14 6.6083281 17.027891 6.3613281 20.712891C2.6863281 22.110891 -1.1842379e-15 26.103078 0 30.330078C0 35.661078 4.3379219 40 9.6699219 40L30 40L30 38L9.6699219 38C5.4399219 38 2 34.559078 2 30.330078C2 26.755078 4.4719531 23.271437 7.6269531 22.398438L8.3886719 22.189453L8.3476562 21.183594C8.3476562 18.372594 10.641422 15.998047 13.357422 15.998047C14.694422 15.998047 15.952391 16.520703 16.900391 17.470703L18.005859 18.574219L18.546875 17.109375C20.145875 12.789375 24.246141 9.9980469 28.994141 9.9980469C35.062141 9.9990469 40 15.00275 40 21.21875C40 21.68575 39.999219 22.466906 39.949219 22.878906L39.8125 24L40.941406 24L41.027344 23.996094C43.228344 24.005094 45.223719 25.114969 46.511719 26.792969C47.740719 27.195969 48.753594 27.731281 49.558594 28.363281C48.478594 25.028281 45.510141 22.466688 41.994141 22.054688C42.000141 21.740687 42 21.425391 42 21.150391C42 13.899391 36.164187 8 28.992188 8 z M 41 28C38.446754 28 36.307206 28.456516 34.716797 29.283203C33.126388 30.10989 32 31.421546 32 33L32 37L32 41L32 45C32 46.578454 33.126388 47.89011 34.716797 48.716797C36.307206 49.543484 38.446754 50 41 50C43.553246 50 45.692794 49.543484 47.283203 48.716797C48.873612 47.89011 50 46.578454 50 45L50 41L50 37L50 33C50 31.421546 48.873612 30.10989 47.283203 29.283203C45.692794 28.456516 43.553246 28 41 28 z M 41 30C43.307754 30 45.166987 30.437781 46.361328 31.058594C47.555669 31.679407 48 32.368454 48 33C48 33.631546 47.555669 34.320593 46.361328 34.941406C45.166987 35.562219 43.307754 36 41 36C38.692246 36 36.833013 35.562219 35.638672 34.941406C34.444331 34.320593 34 33.631546 34 33C34 32.368454 34.444331 31.679407 35.638672 31.058594C36.833013 30.437781 38.692246 30 41 30 z M 34 36.283203C34.226833 36.438365 34.463816 36.585299 34.716797 36.716797C36.307206 37.543484 38.446754 38 41 38C43.553246 38 45.692794 37.543484 47.283203 36.716797C47.536184 36.585299 47.773167 36.438365 48 36.283203L48 37C48 37.631546 47.555669 38.320593 46.361328 38.941406C45.166987 39.562219 43.307754 40 41 40C38.692246 40 36.833013 39.562219 35.638672 38.941406C34.444331 38.320593 34 37.631546 34 37L34 36.283203 z M 34 40.283203C34.226833 40.438365 34.463816 40.585299 34.716797 40.716797C36.307206 41.543484 38.446754 42 41 42C43.553246 42 45.692794 41.543484 47.283203 40.716797C47.536184 40.585299 47.773167 40.438365 48 40.283203L48 41C48 41.631546 47.555669 42.320593 46.361328 42.941406C45.166987 43.562219 43.307754 44 41 44C38.692246 44 36.833013 43.562219 35.638672 42.941406C34.444331 42.320593 34 41.631546 34 41L34 40.283203 z M 34 44.283203C34.226833 44.438365 34.463816 44.585299 34.716797 44.716797C36.307206 45.543484 38.446754 46 41 46C43.553246 46 45.692794 45.543484 47.283203 44.716797C47.536184 44.585299 47.773167 44.438365 48 44.283203L48 45C48 45.631546 47.555669 46.320593 46.361328 46.941406C45.166987 47.562219 43.307754 48 41 48C38.692246 48 36.833013 47.562219 35.638672 46.941406C34.444331 46.320593 34 45.631546 34 45L34 44.283203 z" fill="#0991FF" />
</svg>