<?xml version="1.0" encoding="utf-8"?>
<svg xmlns="http://www.w3.org/2000/svg" viewBox="0 0 50 50" width="500" height="500">
  <path d="M28.992188 8C23.926187 8 19.629328 10.6725 17.486328 15.0625C16.386328 14.3705 15.061625 14 13.640625 14C10.003625 14 7.2249531 16.766719 7.0019531 20.511719C2.5409531 22.019719 0 25.560078 0 30.330078C-1.1842379e-15 35.661078 4.3379219 40 9.6699219 40L11 40L11 38L9.6699219 38C5.4409219 38 2 34.559078 2 30.330078C2 24.774078 5.925625 22.860844 8.265625 22.214844L9.0273438 22.005859L8.9863281 21C8.9863281 18.149 10.987625 16 13.640625 16C15.048625 16 16.306594 16.484281 17.183594 17.363281L18.287109 18.46875L18.830078 17.003906C20.428078 12.684906 24.322187 10 28.992188 10C35.164187 10 40 14.832 40 21C40 21.415 39.969297 21.853859 39.904297 22.380859L39.824219 23.501953L40.955078 23.501953C44.642078 23.501953 48 27.122609 48 31.099609C48 33.952609 46.285813 36.472531 43.632812 37.519531C42.825812 37.838531 41.972656 38 41.097656 38L39 38L39 40L41.097656 40C42.224656 40 43.325188 39.792859 44.367188 39.380859C47.789187 38.030859 50 34.779609 50 31.099609C50 26.370609 46.384375 22.179125 41.984375 21.578125C41.994375 21.380125 42 21.188 42 21C42 13.71 36.286187 8 28.992188 8 z M 24.984375 24.986328 A 1.0001 1.0001 0 0 0 24 26L24 42.203125C23.203964 42.397281 22.485551 42.72939 22.001953 43.273438C21.318681 44.042119 21 45.027778 21 46C21 46.972222 21.318681 47.957881 22.001953 48.726562C22.685226 49.495244 23.75 50 25 50C26.25 50 27.314774 49.495245 27.998047 48.726562C28.681319 47.957881 29 46.972222 29 46C29 45.027778 28.681319 44.042119 27.998047 43.273438C27.514449 42.72939 26.796036 42.397281 26 42.203125L26 26 A 1.0001 1.0001 0 0 0 24.984375 24.986328 z M 18.988281 24.988281 A 1.0001 1.0001 0 0 0 18.232422 25.359375L14.853516 29.412109C13.655892 30.849668 13 32.662442 13 34.533203L13 42.203125C12.203964 42.397281 11.485551 42.72939 11.001953 43.273438C10.318681 44.042119 10 45.027778 10 46C10 46.972222 10.318681 47.957881 11.001953 48.726562C11.685226 49.495244 12.75 50 14 50C15.25 50 16.314774 49.495245 16.998047 48.726562C17.681319 47.957881 18 46.972222 18 46C18 45.027778 17.681319 44.042119 16.998047 43.273438C16.514449 42.72939 15.796036 42.397281 15 42.203125L15 34.533203C15 33.129964 15.492249 31.771753 16.390625 30.693359L19.767578 26.640625 A 1.0001 1.0001 0 0 0 18.988281 24.988281 z M 30.980469 24.988281 A 1.0001 1.0001 0 0 0 30.232422 26.640625L33.609375 30.693359C34.507918 31.771907 35 33.128821 35 34.533203L35 42.203125C34.203964 42.397281 33.485551 42.72939 33.001953 43.273438C32.318681 44.042119 32 45.027778 32 46C32 46.972222 32.318681 47.957881 33.001953 48.726562C33.685226 49.495244 34.75 50 36 50C37.25 50 38.314774 49.495245 38.998047 48.726562C39.681319 47.957881 40 46.972222 40 46C40 45.027778 39.681319 44.042119 38.998047 43.273438C38.514449 42.72939 37.796036 42.397281 37 42.203125L37 34.533203C37 32.661585 36.343942 30.849515 35.146484 29.412109L31.767578 25.359375 A 1.0001 1.0001 0 0 0 30.980469 24.988281 z M 13.970703 44.011719 A 1.0001 1.0001 0 0 0 14.03125 44.013672C14.75257 44.023742 15.1919 44.252753 15.501953 44.601562C15.818677 44.957834 16 45.472222 16 46C16 46.527778 15.81868 47.042119 15.501953 47.398438C15.185226 47.754756 14.749999 48 14 48C13.250001 48 12.814774 47.754755 12.498047 47.398438C12.18132 47.042119 12 46.527778 12 46C12 45.472222 12.18132 44.957881 12.498047 44.601562C12.808597 44.252193 13.247272 44.021059 13.970703 44.011719 z M 24.970703 44.011719 A 1.0001 1.0001 0 0 0 25.03125 44.013672C25.75257 44.023742 26.1919 44.252753 26.501953 44.601562C26.818677 44.957834 27 45.472222 27 46C27 46.527778 26.81868 47.042119 26.501953 47.398438C26.185226 47.754756 25.749999 48 25 48C24.250001 48 23.814774 47.754755 23.498047 47.398438C23.18132 47.042119 23 46.527778 23 46C23 45.472222 23.18132 44.957881 23.498047 44.601562C23.808597 44.252193 24.247272 44.021059 24.970703 44.011719 z M 35.970703 44.011719 A 1.0001 1.0001 0 0 0 36.03125 44.013672C36.75257 44.023742 37.1919 44.252753 37.501953 44.601562C37.818677 44.957834 38 45.472222 38 46C38 46.527778 37.81868 47.042119 37.501953 47.398438C37.185226 47.754756 36.749999 48 36 48C35.250001 48 34.814774 47.754755 34.498047 47.398438C34.18132 47.042119 34 46.527778 34 46C34 45.472222 34.18132 44.957881 34.498047 44.601562C34.808597 44.252193 35.247272 44.021059 35.970703 44.011719 z" fill="#0991FF" />
</svg>