<?xml version="1.0" encoding="utf-8"?>
<svg xmlns="http://www.w3.org/2000/svg" viewBox="0 0 64 64" width="512" height="512">
  <path d="M32 4C24.28125 4 18 10.28125 18 18L18 20C18 23.398438 19.292969 27.570313 21.503906 31.042969L8.253906 37.378906C4.453125 39.195313 2 43.089844 2 47.300781L2 55C2 56.652344 3.347656 58 5 58L59 58C60.652344 58 62 56.652344 62 55L62 47.300781C62 43.089844 59.546875 39.195313 55.746094 37.378906L42.496094 31.042969C44.707031 27.570313 46 23.398438 46 20L46 18C46 10.28125 39.71875 4 32 4 Z M 32 6C38.617188 6 44 11.382813 44 18L44 20C44 27.054688 38.351563 36 32 36C25.648438 36 20 27.054688 20 20L20 18C20 11.382813 25.382813 6 32 6 Z M 22.679688 32.695313C25.101563 35.785156 28.320313 38 32 38C35.679688 38 38.898438 35.789063 41.320313 32.699219L54.882813 39.183594C57.992188 40.667969 60 43.855469 60 47.300781L60 55C60 55.550781 59.550781 56 59 56L5 56C4.449219 56 4 55.550781 4 55L4 47.300781C4 43.855469 6.007813 40.667969 9.117188 39.183594 Z M 27 44C26.449219 44 26 44.449219 26 45C26 45.550781 26.449219 46 27 46L37 46C37.550781 46 38 45.550781 38 45C38 44.449219 37.550781 44 37 44 Z M 7 50C6.449219 50 6 50.449219 6 51L6 53C6 53.550781 6.449219 54 7 54C7.550781 54 8 53.550781 8 53L8 51C8 50.449219 7.550781 50 7 50 Z M 12 50C11.449219 50 11 50.449219 11 51L11 53C11 53.550781 11.449219 54 12 54C12.550781 54 13 53.550781 13 53L13 51C13 50.449219 12.550781 50 12 50 Z M 17 50C16.449219 50 16 50.449219 16 51L16 53C16 53.550781 16.449219 54 17 54C17.550781 54 18 53.550781 18 53L18 51C18 50.449219 17.550781 50 17 50 Z M 22 50C21.449219 50 21 50.449219 21 51L21 53C21 53.550781 21.449219 54 22 54C22.550781 54 23 53.550781 23 53L23 51C23 50.449219 22.550781 50 22 50 Z M 27 50C26.449219 50 26 50.449219 26 51L26 53C26 53.550781 26.449219 54 27 54C27.550781 54 28 53.550781 28 53L28 51C28 50.449219 27.550781 50 27 50 Z M 32 50C31.449219 50 31 50.449219 31 51L31 53C31 53.550781 31.449219 54 32 54C32.550781 54 33 53.550781 33 53L33 51C33 50.449219 32.550781 50 32 50 Z M 37 50C36.449219 50 36 50.449219 36 51L36 53C36 53.550781 36.449219 54 37 54C37.550781 54 38 53.550781 38 53L38 51C38 50.449219 37.550781 50 37 50 Z M 42 50C41.449219 50 41 50.449219 41 51L41 53C41 53.550781 41.449219 54 42 54C42.550781 54 43 53.550781 43 53L43 51C43 50.449219 42.550781 50 42 50 Z M 47 50C46.449219 50 46 50.449219 46 51L46 53C46 53.550781 46.449219 54 47 54C47.550781 54 48 53.550781 48 53L48 51C48 50.449219 47.550781 50 47 50 Z M 52 50C51.449219 50 51 50.449219 51 51L51 53C51 53.550781 51.449219 54 52 54C52.550781 54 53 53.550781 53 53L53 51C53 50.449219 52.550781 50 52 50 Z M 57 50C56.449219 50 56 50.449219 56 51L56 53C56 53.550781 56.449219 54 57 54C57.550781 54 58 53.550781 58 53L58 51C58 50.449219 57.550781 50 57 50Z" fill="#3b80c3" />
</svg>