<?xml version="1.0" encoding="utf-8"?>
<svg xmlns="http://www.w3.org/2000/svg" viewBox="0 0 50 50" width="500" height="500">
  <path d="M4.625 3C2.054688 3 0 5.175781 0 7.78125C0 8.972656 0.644531 9.898438 1.15625 10.90625C1.667969 11.914063 2.0625 12.933594 2.0625 13.4375C2.0625 13.941406 1.667969 14.773438 1.125 16C0.582031 17.226563 0 18.859375 0 21C0 23.140625 0.585938 24.726563 1.125 25.9375C1.664063 27.148438 2.0625 27.972656 2.0625 28.5625C2.0625 29.152344 1.667969 30.136719 1.15625 31.125C0.644531 32.113281 0 33.027344 0 34.21875C0 36.824219 2.054688 39 4.625 39C5.222656 39 5.746094 38.757813 6.125 38.5C6.503906 38.242188 6.792969 37.960938 7.09375 37.71875C7.695313 37.234375 8.21875 36.875 9.1875 36.875C9.496094 36.875 9.75 36.929688 10 37C9.875 37.582031 9.554688 38.351563 9.15625 39.125C8.644531 40.113281 8 41.027344 8 42.21875C8 44.824219 10.054688 47 12.625 47C13.222656 47 13.746094 46.757813 14.125 46.5C14.503906 46.242188 14.792969 45.960938 15.09375 45.71875C15.695313 45.234375 16.21875 44.875 17.1875 44.875C18.15625 44.875 18.75 45.261719 19.53125 45.78125C20.3125 46.300781 21.269531 47 22.625 47C23.980469 47 25.078125 46.335938 26.09375 45.8125C27.109375 45.289063 28.039063 44.875 29 44.875C29.960938 44.875 30.890625 45.289063 31.90625 45.8125C32.921875 46.335938 34.019531 47 35.375 47C36.730469 47 37.808594 46.351563 38.71875 45.8125C39.628906 45.273438 40.375 44.875 40.8125 44.875C41.25 44.875 41.917969 45.230469 42.65625 45.75C43.394531 46.269531 44.175781 47 45.375 47C47.945313 47 50 44.824219 50 42.21875C50 41.027344 49.355469 40.101563 48.84375 39.09375C48.332031 38.085938 47.9375 37.066406 47.9375 36.5625C47.9375 36.058594 48.335938 35.125 48.875 33.875C49.414063 32.625 50 31.03125 50 29C50 26.96875 49.410156 25.386719 48.875 24.15625C48.339844 22.925781 47.9375 22.027344 47.9375 21.4375C47.9375 20.847656 48.332031 19.863281 48.84375 18.875C49.355469 17.886719 50 16.972656 50 15.78125C50 13.175781 47.945313 11 45.375 11C44.773438 11 44.253906 11.238281 43.875 11.5C43.496094 11.761719 43.207031 12.066406 42.90625 12.3125C42.304688 12.804688 41.777344 13.15625 40.8125 13.15625C40.511719 13.15625 40.246094 13.097656 40 13.03125C40.121094 12.445313 40.4375 11.664063 40.84375 10.875C41.355469 9.886719 42 8.972656 42 7.78125C42 5.175781 39.945313 3 37.375 3C36.773438 3 36.253906 3.238281 35.875 3.5C35.496094 3.761719 35.207031 4.066406 34.90625 4.3125C34.304688 4.804688 33.777344 5.15625 32.8125 5.15625C31.847656 5.15625 31.25 4.773438 30.46875 4.25C29.6875 3.726563 28.738281 3 27.375 3C26.011719 3 24.921875 3.65625 23.90625 4.1875C22.890625 4.71875 21.957031 5.15625 21 5.15625C20.042969 5.15625 19.109375 4.71875 18.09375 4.1875C17.078125 3.65625 15.988281 3 14.625 3C13.261719 3 12.191406 3.675781 11.28125 4.21875C10.371094 4.761719 9.617188 5.15625 9.1875 5.15625C8.757813 5.15625 8.082031 4.777344 7.34375 4.25C6.605469 3.722656 5.832031 3 4.625 3 Z M 4.625 5C4.761719 5 5.417969 5.355469 6.1875 5.90625C6.957031 6.457031 7.914063 7.15625 9.1875 7.15625C10.460938 7.15625 11.421875 6.46875 12.3125 5.9375C13.203125 5.40625 13.976563 5 14.625 5C15.273438 5 16.144531 5.421875 17.1875 5.96875C18.230469 6.515625 19.46875 7.15625 21 7.15625C22.53125 7.15625 23.769531 6.515625 24.8125 5.96875C25.855469 5.421875 26.730469 5 27.375 5C28.019531 5 28.523438 5.355469 29.34375 5.90625C30.164063 6.457031 31.273438 7.15625 32.8125 7.15625C34.351563 7.15625 35.445313 6.429688 36.15625 5.84375C36.511719 5.550781 36.792969 5.296875 37 5.15625C37.207031 5.015625 37.308594 5 37.375 5C38.820313 5 40 6.214844 40 7.78125C40 7.984375 39.589844 8.949219 39.0625 9.96875C38.578125 10.910156 38.050781 11.9375 37.96875 13.125C37.96875 13.136719 37.96875 13.144531 37.96875 13.15625C37.957031 13.175781 37.945313 13.199219 37.9375 13.21875C37.777344 13.539063 37.800781 13.921875 38 14.21875C38.011719 14.230469 38.019531 14.238281 38.03125 14.25C38.207031 15.207031 38.640625 16.070313 39.03125 16.96875C39.53125 18.117188 40 19.34375 40 21C40 22.65625 39.53125 23.933594 39.03125 25.09375C38.53125 26.253906 37.9375 27.285156 37.9375 28.5625C37.9375 29.839844 38.539063 30.96875 39.0625 32C39.585938 33.03125 40 34.015625 40 34.21875C40 35.785156 38.820313 37 37.375 37C37.230469 37 36.582031 36.667969 35.8125 36.125C35.042969 35.582031 34.082031 34.875 32.8125 34.875C31.542969 34.875 30.578125 35.539063 29.6875 36.0625C28.796875 36.585938 28.027344 37 27.375 37C26.722656 37 25.855469 36.601563 24.8125 36.0625C23.769531 35.523438 22.53125 34.875 21 34.875C19.46875 34.875 18.230469 35.523438 17.1875 36.0625C16.144531 36.601563 15.277344 37 14.625 37C13.972656 37 13.476563 36.636719 12.65625 36.09375C12.386719 35.914063 12.058594 35.742188 11.71875 35.5625C11.707031 35.550781 11.699219 35.542969 11.6875 35.53125C11.605469 35.488281 11.523438 35.445313 11.4375 35.40625C11.40625 35.394531 11.375 35.382813 11.34375 35.375C10.730469 35.097656 10.035156 34.875 9.1875 34.875C7.652344 34.875 6.554688 35.578125 5.84375 36.15625C5.488281 36.445313 5.207031 36.703125 5 36.84375C4.792969 36.984375 4.695313 37 4.625 37C3.179688 37 2 35.785156 2 34.21875C2 34.019531 2.410156 33.050781 2.9375 32.03125C3.464844 31.011719 4.0625 29.878906 4.0625 28.5625C4.0625 27.246094 3.433594 26.234375 2.9375 25.125C2.441406 24.015625 2 22.789063 2 21C2 19.210938 2.441406 17.9375 2.9375 16.8125C3.433594 15.6875 4.0625 14.714844 4.0625 13.4375C4.0625 12.160156 3.460938 11.03125 2.9375 10C2.414063 8.96875 2 7.984375 2 7.78125C2 6.214844 3.179688 5 4.625 5 Z M 7.8125 10C7.335938 10.089844 6.992188 10.511719 7 11L7 31C7 31.550781 7.449219 32 8 32L34 32C34.550781 32 35 31.550781 35 31L35 11C35 10.449219 34.550781 10 34 10L8 10C7.96875 10 7.9375 10 7.90625 10C7.875 10 7.84375 10 7.8125 10 Z M 9 12L33 12L33 30L9 30 Z M 45.375 13C46.820313 13 48 14.214844 48 15.78125C48 15.984375 47.589844 16.949219 47.0625 17.96875C46.535156 18.988281 45.9375 20.121094 45.9375 21.4375C45.9375 22.753906 46.53125 23.820313 47.03125 24.96875C47.53125 26.117188 48 27.34375 48 29C48 30.65625 47.53125 31.933594 47.03125 33.09375C46.53125 34.253906 45.9375 35.285156 45.9375 36.5625C45.9375 37.839844 46.539063 38.96875 47.0625 40C47.585938 41.03125 48 42.015625 48 42.21875C48 43.785156 46.820313 45 45.375 45C45.230469 45 44.582031 44.667969 43.8125 44.125C43.042969 43.582031 42.082031 42.875 40.8125 42.875C39.542969 42.875 38.578125 43.539063 37.6875 44.0625C36.796875 44.585938 36.027344 45 35.375 45C34.722656 45 33.855469 44.601563 32.8125 44.0625C31.769531 43.523438 30.53125 42.875 29 42.875C27.46875 42.875 26.230469 43.523438 25.1875 44.0625C24.144531 44.601563 23.277344 45 22.625 45C21.972656 45 21.476563 44.636719 20.65625 44.09375C19.835938 43.550781 18.722656 42.875 17.1875 42.875C15.652344 42.875 14.554688 43.578125 13.84375 44.15625C13.488281 44.445313 13.207031 44.703125 13 44.84375C12.792969 44.984375 12.695313 45 12.625 45C11.179688 45 10 43.785156 10 42.21875C10 42.015625 10.410156 41.050781 10.9375 40.03125C11.265625 39.394531 11.589844 38.710938 11.8125 37.96875C12.542969 38.453125 13.421875 39 14.625 39C15.980469 39 17.078125 38.335938 18.09375 37.8125C19.109375 37.289063 20.039063 36.875 21 36.875C21.960938 36.875 22.890625 37.289063 23.90625 37.8125C24.921875 38.335938 26.019531 39 27.375 39C28.730469 39 29.808594 38.351563 30.71875 37.8125C31.628906 37.273438 32.375 36.875 32.8125 36.875C33.25 36.875 33.917969 37.230469 34.65625 37.75C35.394531 38.269531 36.175781 39 37.375 39C39.945313 39 42 36.824219 42 34.21875C42 33.027344 41.355469 32.101563 40.84375 31.09375C40.332031 30.085938 39.9375 29.066406 39.9375 28.5625C39.9375 28.058594 40.335938 27.125 40.875 25.875C41.414063 24.625 42 23.03125 42 21C42 18.96875 41.410156 17.386719 40.875 16.15625C40.703125 15.761719 40.605469 15.453125 40.46875 15.125C40.582031 15.132813 40.695313 15.15625 40.8125 15.15625C42.351563 15.15625 43.445313 14.429688 44.15625 13.84375C44.511719 13.550781 44.792969 13.296875 45 13.15625C45.207031 13.015625 45.308594 13 45.375 13Z" fill="#5B5B5B" />
</svg>