<?xml version="1.0" encoding="utf-8"?>
<svg xmlns="http://www.w3.org/2000/svg" viewBox="0 0 50 50" width="500" height="500">
  <path d="M14.816406 2.0175781C14.681906 2.0429531 14.551047 2.0953281 14.435547 2.1738281C14.255547 2.2968281 10 5.2452813 10 9.3632812L10 12.755859C9.8433755 13.036666 9.6893762 13.318482 9.5546875 13.607422C8.7628602 10.627772 7.1478377 9.2842623 7.0566406 9.2128906C6.8346406 9.0398906 6.5444375 8.9656719 6.2734375 9.0136719C5.9964375 9.0606719 5.7535625 9.2210312 5.6015625 9.4570312C4.6185625 10.980031 3.7220781 13.724484 4.0800781 16.146484C4.3555354 18.011271 5.7431742 19.581841 8.0292969 20.652344C8.0108839 21.099293 8 21.548025 8 22C8 22.030303 8.0037648 22.059575 8.0039062 22.089844C6.0145585 20.582527 3.3552769 20.049689 3.1855469 20.017578C2.8735469 19.958578 2.5435469 20.053391 2.3105469 20.275391C2.0775469 20.497391 1.9647656 20.817719 2.0097656 21.136719C2.0317656 21.303719 2.5938281 25.249453 4.1738281 27.564453C5.3278281 29.255453 7.000625 29.742188 8.390625 29.742188C8.8453842 29.742188 9.2439911 29.681187 9.6074219 29.601562C9.8705392 30.197953 10.163248 30.775107 10.484375 31.333984C9.8678301 31.134778 9.2419124 31 8.6308594 31C6.5818594 31 4.6005781 32.077047 4.5175781 32.123047C4.0665781 32.372047 3.8770781 32.921531 4.0800781 33.394531C4.1610781 33.582531 6.1074063 38 10.066406 38C12.428179 38 14.009857 37.057146 14.853516 36.373047C15.591221 36.945239 16.375802 37.498117 17.191406 38.027344C13.358769 38.273687 11.38097 40.204967 11.292969 40.292969C11.080969 40.504969 10.976859 40.800609 11.005859 41.099609C11.034859 41.397609 11.196313 41.666031 11.445312 41.832031C11.578313 41.920031 14.734 44 18 44C20.398234 44 21.789129 42.463413 22.486328 41.355469C22.85401 41.598459 23.204715 41.834936 23.492188 42.046875C22.303751 43.216202 21.538774 44.41745 21.066406 45.640625 A 1.000374 1.000374 0 1 0 22.933594 46.359375C23.335881 45.31767 23.934274 44.362622 25 43.353516C26.065726 44.362622 26.664119 45.31767 27.066406 46.359375 A 1.000374 1.000374 0 1 0 28.933594 45.640625C28.461225 44.417447 27.696249 43.216202 26.507812 42.046875C26.794909 41.835213 27.144608 41.598105 27.511719 41.355469C28.210549 42.463413 29.601766 44 32 44C35.266 44 38.421687 41.920031 38.554688 41.832031C38.803688 41.666031 38.965141 41.396609 38.994141 41.099609C39.023141 40.800609 38.919031 40.504969 38.707031 40.292969C38.61903 40.204967 36.641231 38.273687 32.808594 38.027344C33.624198 37.498117 34.408779 36.945239 35.146484 36.373047C35.989926 37.057146 37.571168 38 39.933594 38C43.892594 38 45.838922 33.582531 45.919922 33.394531C46.122922 32.921531 45.934422 32.372047 45.482422 32.123047C45.399422 32.077047 43.418141 31 41.369141 31C40.758592 31 40.133556 31.134093 39.517578 31.332031C39.838185 30.77387 40.129824 30.19713 40.392578 29.601562C40.756053 29.681087 41.155677 29.742188 41.609375 29.742188C42.999375 29.742188 44.672172 29.255453 45.826172 27.564453C47.406172 25.249453 47.968234 21.303719 47.990234 21.136719C48.035234 20.817719 47.923453 20.497391 47.689453 20.275391C47.455453 20.053391 47.1245 19.958578 46.8125 20.017578C46.642177 20.049677 43.984989 20.58184 41.996094 22.087891C41.996229 22.058278 42 22.029645 42 22C42 21.548724 41.99101 21.100563 41.972656 20.654297C44.24124 19.602114 45.645449 18.023013 45.921875 16.146484C46.278875 13.723484 45.382438 10.979031 44.398438 9.4570312C44.246437 9.2210312 44.002609 9.061625 43.724609 9.015625C43.451609 8.967625 43.164359 9.0398906 42.943359 9.2128906C42.852169 9.2842574 41.237201 10.628207 40.445312 13.607422C40.310624 13.318482 40.156624 13.036666 40 12.755859L40 9.3632812C40 5.2452812 35.7435 2.2968281 35.5625 2.1738281C35.3315 2.0168281 35.042437 1.9603906 34.773438 2.0253906C34.501438 2.0883906 34.268859 2.2628594 34.130859 2.5058594C34.054859 2.6388594 32.288266 5.80025 33.322266 8.78125C34.280589 11.544268 37.454803 13.317117 38.257812 13.732422C38.516738 14.197076 38.74211 14.679661 38.935547 15.179688C37.659513 14.097736 36.276898 13.474588 35.40625 13.087891C35.09625 12.949891 34.739078 12.977109 34.455078 13.162109C34.171078 13.345109 34 13.662 34 14C34 15.515 34.000531 17.589844 35.394531 19.714844C36.65736 21.641205 38.766838 22.459209 39.962891 22.787109C39.914626 23.843679 39.771948 24.869529 39.541016 25.861328C39.121523 24.91625 38.466445 24.036113 37.546875 23.242188C37.159875 22.907187 36.581937 22.921531 36.210938 23.269531C36.120938 23.354531 34 25.376203 34 28.908203C34 30.475075 34.885386 31.974008 35.839844 33.037109C35.758008 33.128537 35.685376 33.229026 35.601562 33.318359C35.017846 33.94036 34.22028 34.584102 33.337891 35.226562C33.888717 33.629295 33.991187 32.173593 33.998047 32.064453C34.017047 31.768453 33.9025 31.480391 33.6875 31.275391C33.4725 31.071391 33.175766 30.975812 32.884766 31.007812C32.737766 31.024812 29.266031 31.450219 27.207031 33.699219C25.530408 35.529979 25.987211 38.359211 26.339844 39.714844C25.844227 40.044832 25.399965 40.371735 25 40.697266C24.599665 40.371433 24.154354 40.045146 23.658203 39.714844C24.011267 38.359059 24.469592 35.529979 22.792969 33.699219C20.733969 31.450219 17.263234 31.024812 17.115234 31.007812C16.822234 30.975812 16.525547 31.071391 16.310547 31.275391C16.095547 31.479391 15.983953 31.768453 16.001953 32.064453C16.008771 32.174156 16.11337 33.62961 16.650391 35.216797C15.7732 34.577407 14.979359 33.937381 14.398438 33.318359C14.314624 33.229026 14.241992 33.128537 14.160156 33.037109C15.114614 31.974882 16 30.476032 16 28.908203C16 25.376203 13.878109 23.354531 13.787109 23.269531C13.415109 22.921531 12.837172 22.908187 12.451172 23.242188C11.531968 24.035798 10.876555 24.914728 10.457031 25.859375C10.226411 24.868285 10.085336 23.842863 10.037109 22.787109C11.233103 22.459209 13.344593 21.641205 14.607422 19.714844C16.000422 17.589844 16 15.515 16 14C16 13.662 15.828922 13.346109 15.544922 13.162109C15.259922 12.977109 14.90275 12.948938 14.59375 13.085938C13.723913 13.472618 12.340859 14.095874 11.064453 15.177734C11.257742 14.678309 11.483553 14.196553 11.742188 13.732422C12.545197 13.316566 15.719411 11.544268 16.677734 8.78125C17.711734 5.80025 15.945141 2.6388594 15.869141 2.5058594C15.731141 2.2628594 15.497609 2.0883906 15.224609 2.0253906C15.089109 1.9933906 14.950906 1.9922031 14.816406 2.0175781 z" fill="#FFD95F" />
</svg>