<?xml version="1.0" encoding="utf-8"?>
<svg xmlns="http://www.w3.org/2000/svg" viewBox="0 0 50 50" width="500" height="500">
  <path d="M12 0C11.449219 0 11 0.449219 11 1L11 4.78125C11 6.136719 11.988281 7.867188 13.28125 8.8125C13.308594 8.832031 13.316406 8.859375 13.34375 8.875L19.09375 12.21875C19.640625 11.476563 20.511719 11 21.5 11L28.5 11C29.488281 11 30.359375 11.480469 30.90625 12.21875L36.65625 8.875C36.683594 8.859375 36.691406 8.832031 36.71875 8.8125C38.011719 7.867188 39 6.136719 39 4.78125L39 1C39 0.449219 38.554688 0 38 0 Z M 21.5 13C20.949219 13 20.5 13.449219 20.5 14L20.5 15C20.5 16.652344 21.734375 18 23.25 18L26.75 18C28.265625 18 29.5 16.652344 29.5 15L29.5 14C29.5 13.449219 29.054688 13 28.5 13 Z M 23.15625 20L19.25 27.75L9.1875 29.1875C8.671875 29.261719 8.222656 29.609375 8.0625 30.09375C7.902344 30.585938 8.03125 31.140625 8.40625 31.5L15.71875 38.46875L14 48.34375C13.910156 48.851563 14.109375 49.386719 14.53125 49.6875C14.957031 49.992188 15.503906 50.019531 15.96875 49.78125L25 45.125L34.03125 49.78125C34.230469 49.886719 34.4375 49.9375 34.65625 49.9375C34.941406 49.9375 35.230469 49.859375 35.46875 49.6875C35.890625 49.386719 36.085938 48.847656 36 48.34375L34.28125 38.46875L41.59375 31.5C41.96875 31.144531 42.097656 30.585938 41.9375 30.09375C41.777344 29.605469 41.328125 29.261719 40.8125 29.1875L30.75 27.75L26.84375 20Z" fill="#FFB200" />
</svg>