<?xml version="1.0" encoding="utf-8"?>
<svg xmlns="http://www.w3.org/2000/svg" viewBox="0 0 50 50" width="500" height="500">
  <path d="M27.40625 9.59375C25.695313 9.59375 24.105469 9.914063 22.65625 10.6875L22.65625 10.71875C22.648438 10.722656 22.632813 10.714844 22.625 10.71875C21.265625 11.40625 19.773438 12.558594 18.90625 13.78125C18.898438 13.792969 18.882813 13.800781 18.875 13.8125C18.417969 14.414063 18.230469 14.625 18.15625 14.71875C16.183594 13.976563 13.859375 13.738281 11.875 14.4375C8.351563 15.574219 5.800781 18.945313 5.6875 22.78125C5.6875 22.792969 5.6875 22.800781 5.6875 22.8125C5.6875 23.023438 5.675781 23.203125 5.65625 23.375C5.597656 23.40625 5.625 23.390625 5.5625 23.40625C5.550781 23.417969 5.542969 23.425781 5.53125 23.4375C3.449219 23.984375 1.6875 25.316406 0.71875 27.21875L0.6875 27.21875C0.667969 27.246094 0.675781 27.285156 0.65625 27.3125C0.644531 27.339844 0.605469 27.347656 0.59375 27.375C0.351563 27.742188 0.140625 28.148438 0.0625 28.59375C-0.0234375 29.101563 0 29.605469 0 30.40625C0 31.257813 -0.0234375 31.769531 0.0625 32.28125C0.144531 32.769531 0.347656 33.171875 0.59375 33.625C0.601563 33.644531 0.613281 33.667969 0.625 33.6875C1.582031 35.671875 3.46875 37.285156 5.53125 37.78125C5.539063 37.785156 5.554688 37.777344 5.5625 37.78125C5.824219 37.851563 5.964844 37.855469 6.21875 37.875C6.484375 37.894531 6.824219 37.921875 7.1875 37.9375C7.910156 37.964844 8.796875 37.957031 9.65625 37.96875C11.378906 37.992188 13 38 13 38C13.011719 38 13.019531 38 13.03125 38C13.867188 38.875 14.941406 39.523438 16.21875 39.875C16.257813 39.886719 16.300781 39.898438 16.34375 39.90625C16.925781 39.988281 17.875 39.988281 20.21875 40C22.5625 40.011719 26.1875 40 31.6875 40L46 40C46.152344 40 46.300781 39.96875 46.4375 39.90625L47.0625 39.59375C48.839844 38.703125 49.777344 36.84375 50 34.71875C50 34.699219 50 34.675781 50 34.65625C50.109375 33.054688 49.832031 31.636719 49.09375 30.46875C48.355469 29.300781 47.179688 28.445313 45.71875 27.9375L45.4375 27.84375L45.40625 27.3125C45.082031 23.671875 42.335938 21.046875 38.96875 20.46875C38.878906 19.4375 38.585938 18.480469 38.25 17.46875C36.617188 12.789063 32.339844 9.59375 27.40625 9.59375 Z M 27.40625 11.59375C31.472656 11.59375 34.976563 14.207031 36.34375 18.125C36.636719 19 36.84375 19.699219 36.9375 20.375C36.191406 20.429688 35.441406 20.578125 34.6875 20.84375C34.675781 20.847656 34.667969 20.839844 34.65625 20.84375L34.375 20.9375L33.71875 20.3125C33.710938 20.304688 33.695313 20.320313 33.6875 20.3125C31.695313 18.222656 29.839844 17.40625 27 17.40625C25.027344 17.40625 23.910156 17.667969 22.25 18.5C22.238281 18.5 22.230469 18.5 22.21875 18.5C20.402344 19.46875 18.929688 21.460938 18.0625 23.9375C18.058594 23.945313 18.066406 23.960938 18.0625 23.96875C17.847656 24.511719 17.738281 24.90625 17.71875 25.375C17.65625 25.40625 17.425781 25.503906 17 25.625C16.96875 25.632813 16.972656 25.617188 16.9375 25.625L16.9375 25.65625C14.4375 26.21875 12.363281 27.632813 11.5 29.6875C11.496094 29.699219 11.472656 29.707031 11.46875 29.71875C11.140625 30.496094 11 31.257813 11 32.40625C11 33.738281 11.25 34.941406 11.71875 36C11.09375 35.996094 10.730469 35.984375 9.6875 35.96875C8.835938 35.957031 7.941406 35.933594 7.25 35.90625C6.902344 35.890625 6.597656 35.890625 6.375 35.875C6.152344 35.859375 5.953125 35.8125 6.0625 35.84375C6.050781 35.832031 6.042969 35.824219 6.03125 35.8125C4.722656 35.503906 3.054688 34.160156 2.40625 32.78125C2.398438 32.761719 2.386719 32.738281 2.375 32.71875C2.140625 32.296875 2.101563 32.175781 2.0625 31.9375C2.023438 31.699219 2 31.257813 2 30.40625C2 29.605469 2.023438 29.15625 2.0625 28.9375C2.101563 28.71875 2.101563 28.667969 2.3125 28.375C2.347656 28.324219 2.378906 28.273438 2.40625 28.21875C3.058594 26.832031 4.394531 25.8125 6.03125 25.375C6.042969 25.371094 6.050781 25.378906 6.0625 25.375C6.632813 25.230469 6.980469 25.050781 7.3125 24.71875C7.476563 24.550781 7.574219 24.328125 7.59375 24.09375C7.601563 24.085938 7.621094 24.035156 7.625 24C7.632813 23.933594 7.640625 23.835938 7.65625 23.71875C7.683594 23.492188 7.71875 23.183594 7.71875 22.84375C7.71875 22.832031 7.71875 22.824219 7.71875 22.8125C7.820313 19.863281 9.832031 17.234375 12.5 16.375C12.511719 16.363281 12.519531 16.355469 12.53125 16.34375C13.882813 15.867188 15.851563 16 17.4375 16.59375C17.46875 16.605469 17.5 16.613281 17.53125 16.625C17.667969 16.695313 17.804688 16.796875 18.09375 16.84375C18.429688 16.898438 18.898438 16.78125 19.15625 16.59375C19.671875 16.21875 19.898438 15.800781 20.5 15C20.511719 14.988281 20.519531 14.980469 20.53125 14.96875C21.058594 14.210938 22.542969 13.007813 23.5625 12.5C23.574219 12.5 23.582031 12.5 23.59375 12.5C24.734375 11.886719 25.933594 11.59375 27.40625 11.59375 Z M 27 19.40625C29.550781 19.40625 30.480469 19.792969 32.28125 21.6875C32.28125 21.699219 32.28125 21.707031 32.28125 21.71875L33.375 22.8125C33.644531 23.085938 34.042969 23.179688 34.40625 23.0625L35.3125 22.75C35.324219 22.75 35.332031 22.75 35.34375 22.75C39.296875 21.34375 43.042969 23.617188 43.40625 27.46875L43.40625 27.5L43.5 28.6875C43.53125 29.089844 43.804688 29.433594 44.1875 29.5625L45.0625 29.84375L45.09375 29.84375C46.214844 30.238281 46.949219 30.804688 47.40625 31.53125C47.863281 32.257813 48.082031 33.222656 48 34.5C48 34.511719 48 34.519531 48 34.53125C47.816406 36.1875 47.171875 37.304688 46.15625 37.8125L45.75 38L31.6875 38C26.1875 38 22.582031 37.980469 20.25 37.96875C17.957031 37.957031 16.867188 37.921875 16.71875 37.90625C14.253906 37.199219 13 35.460938 13 32.40625C13 31.367188 13.050781 31.113281 13.3125 30.5C13.324219 30.488281 13.332031 30.480469 13.34375 30.46875C13.878906 29.164063 15.355469 28.039063 17.40625 27.59375C17.425781 27.585938 17.449219 27.574219 17.46875 27.5625C18.042969 27.40625 18.492188 27.304688 18.9375 27C19.382813 26.695313 19.71875 26.023438 19.71875 25.5C19.71875 25.636719 19.78125 25.078125 19.9375 24.6875C19.9375 24.667969 19.9375 24.644531 19.9375 24.625C20.664063 22.535156 21.988281 20.953125 23.15625 20.3125C23.167969 20.304688 23.175781 20.285156 23.1875 20.28125C24.691406 19.53125 25.191406 19.40625 27 19.40625Z" fill="#5B5B5B" />
</svg>