<?xml version="1.0" encoding="utf-8"?>
<svg xmlns="http://www.w3.org/2000/svg" viewBox="0 0 50 50" width="100" height="100">
  <path d="M17.3125 0C17.257813 0.0078125 17.207031 0.015625 17.15625 0.03125L10.46875 1.6875L10 1.6875L10 1.71875C7.214844 0.992188 4.507813 3.519531 5 6.46875C5.011719 6.480469 5.019531 6.488281 5.03125 6.5L5.6875 10L5.6875 10.28125L4.03125 17.15625C4.011719 17.238281 4 17.320313 4 17.40625L4 17.90625C4.003906 17.980469 4.011719 18.054688 4.03125 18.125L5.6875 24.90625L5.6875 25.1875L4.03125 31.96875C4.011719 32.039063 4.003906 32.113281 4 32.1875L4 32.6875C4 32.773438 4.011719 32.855469 4.03125 32.9375L5.6875 39.71875L5.6875 40L5.03125 43.5C4.410156 46.484375 7.199219 49.015625 10 48.28125L10 48.3125L10.09375 48.3125C10.167969 48.308594 10.242188 48.300781 10.3125 48.28125C10.324219 48.28125 10.332031 48.28125 10.34375 48.28125L17.15625 49.96875C17.238281 49.988281 17.320313 50 17.40625 50L17.90625 50C17.992188 50 18.074219 49.988281 18.15625 49.96875L24.8125 48.3125L25.09375 48.3125L31.75 49.96875C31.832031 49.988281 31.914063 50 32 50L32.5 50C32.585938 50 32.667969 49.988281 32.75 49.96875L39.40625 48.3125L39.90625 48.3125L39.90625 48.28125C42.75 48.996094 45.464844 46.476563 44.875 43.53125L44.875 43.5L44.1875 39.71875L44.1875 39.625L45.875 32.84375C45.894531 32.761719 45.90625 32.679688 45.90625 32.59375L45.90625 32.09375C45.90625 32.007813 45.894531 31.925781 45.875 31.84375L44.1875 25.1875L44.1875 24.90625L45.875 18.25C45.894531 18.167969 45.90625 18.085938 45.90625 18L45.90625 17.5C45.902344 17.425781 45.894531 17.351563 45.875 17.28125L44.1875 10L44.1875 9.96875L44.875 6.71875C45.496094 3.734375 42.707031 1.203125 39.90625 1.9375L39.90625 1.90625L39.8125 1.90625C39.738281 1.910156 39.664063 1.917969 39.59375 1.9375C39.582031 1.9375 39.574219 1.9375 39.5625 1.9375L39.5 1.9375L32.78125 0.03125C32.691406 0.0078125 32.59375 -0.00390625 32.5 0L32 0C31.914063 0 31.832031 0.0117188 31.75 0.03125L25.09375 1.6875L24.8125 1.6875L18.15625 0.03125C18.074219 0.0117188 17.992188 0 17.90625 0L17.40625 0C17.375 0 17.34375 0 17.3125 0 Z M 17.53125 2L17.78125 2L24.46875 3.65625C24.539063 3.675781 24.613281 3.683594 24.6875 3.6875L25.1875 3.6875C25.273438 3.6875 25.355469 3.675781 25.4375 3.65625L32.125 2L32.34375 2L39.03125 3.875L39.0625 3.8125C39.328125 3.914063 39.574219 3.96875 39.8125 3.90625L39.90625 3.90625C40.023438 3.90625 40.140625 3.882813 40.25 3.84375C41.738281 3.304688 43.257813 4.589844 42.90625 6.28125L42.21875 9.59375C42.199219 9.664063 42.191406 9.738281 42.1875 9.8125L42.1875 10.1875C42.1875 10.273438 42.199219 10.355469 42.21875 10.4375L43.90625 17.59375L43.90625 17.875L42.21875 24.5625C42.199219 24.644531 42.1875 24.726563 42.1875 24.8125L42.1875 25.3125C42.191406 25.386719 42.199219 25.460938 42.21875 25.53125L43.90625 32.21875L43.90625 32.5L42.21875 39.25C42.199219 39.332031 42.1875 39.414063 42.1875 39.5L42.1875 39.90625C42.191406 39.96875 42.203125 40.03125 42.21875 40.09375L42.90625 43.875C42.90625 43.886719 42.90625 43.894531 42.90625 43.90625C43.265625 45.625 41.84375 46.910156 40.21875 46.34375C40.117188 46.316406 40.011719 46.304688 39.90625 46.3125L39.3125 46.3125C39.226563 46.3125 39.144531 46.324219 39.0625 46.34375L32.375 48L32.125 48L25.4375 46.34375C25.355469 46.324219 25.273438 46.3125 25.1875 46.3125L24.6875 46.3125C24.613281 46.316406 24.539063 46.324219 24.46875 46.34375L17.78125 48L17.53125 48L10.84375 46.34375L10.84375 46.375C10.542969 46.257813 10.265625 46.230469 10 46.3125C9.882813 46.3125 9.765625 46.335938 9.65625 46.375C8.167969 46.914063 6.617188 45.597656 6.96875 43.90625C6.96875 43.894531 6.96875 43.886719 6.96875 43.875L7.6875 40.1875C7.695313 40.125 7.695313 40.0625 7.6875 40L7.6875 39.59375C7.683594 39.519531 7.675781 39.445313 7.65625 39.375L6 32.59375L6 32.3125L7.65625 25.53125C7.675781 25.460938 7.683594 25.386719 7.6875 25.3125L7.6875 24.8125C7.6875 24.726563 7.675781 24.644531 7.65625 24.5625L6 17.78125L6 17.5L7.65625 10.625C7.675781 10.554688 7.683594 10.480469 7.6875 10.40625L7.6875 10C7.695313 9.9375 7.695313 9.875 7.6875 9.8125L6.96875 6.125L7 6.125C6.710938 4.398438 8.160156 3.082031 9.65625 3.625C9.765625 3.664063 9.882813 3.6875 10 3.6875L10.59375 3.6875C10.679688 3.6875 10.761719 3.675781 10.84375 3.65625 Z M 10.8125 6C10.335938 6.089844 9.992188 6.511719 10 7L10 41.3125C9.953125 41.589844 9.921875 41.859375 9.90625 42.15625C9.894531 42.328125 9.925781 42.5 10 42.65625L10 43C10 43.550781 10.449219 44 11 44L39 44C39.550781 44 40 43.550781 40 43L40 42.375C40.011719 42.292969 40.011719 42.207031 40 42.125L40 7C40 6.449219 39.550781 6 39 6L11 6C10.96875 6 10.9375 6 10.90625 6C10.875 6 10.84375 6 10.8125 6 Z M 12 8L38 8L38 37.625C36.980469 36.621094 35.734375 35.96875 34.53125 35.4375C33.289063 34.890625 32.066406 34.464844 31.15625 34C30.28125 33.554688 29.804688 33.121094 29.59375 32.625C29.523438 31.707031 29.5 31.003906 29.5 30.15625C29.570313 30.070313 29.679688 30.003906 29.75 29.90625C29.957031 29.617188 30.15625 29.285156 30.34375 28.90625C30.660156 28.269531 30.90625 27.511719 31.0625 26.75C31.769531 26.316406 32.332031 25.550781 32.5 24.21875C32.585938 23.441406 32.363281 22.824219 32 22.34375C32.363281 21.125 32.773438 19.328125 32.625 17.40625C32.542969 16.316406 32.257813 15.1875 31.59375 14.25C30.96875 13.367188 29.9375 12.75 28.65625 12.5C28.28125 12.097656 27.925781 11.660156 27.40625 11.46875C26.671875 11.195313 25.835938 11.09375 24.90625 11.09375L24.875 11.09375C21.375 11.148438 19.050781 12.671875 18.0625 14.9375C17.136719 17.070313 17.34375 19.660156 17.96875 22.34375C17.601563 22.8125 17.304688 23.394531 17.40625 24.21875C17.574219 25.554688 18.132813 26.320313 18.84375 26.75C19 27.511719 19.214844 28.269531 19.53125 28.90625C19.71875 29.285156 19.917969 29.617188 20.125 29.90625C20.203125 30.015625 20.328125 30.089844 20.40625 30.1875C20.40625 31.019531 20.382813 31.71875 20.3125 32.625C20.101563 33.117188 19.59375 33.53125 18.71875 33.96875C17.808594 34.425781 16.617188 34.867188 15.375 35.40625C14.214844 35.910156 13 36.550781 12 37.5 Z M 24.90625 13.09375C25.679688 13.09375 26.304688 13.191406 26.71875 13.34375C27.132813 13.496094 27.320313 13.667969 27.4375 13.875L27.65625 14.3125L28.15625 14.375C29.105469 14.515625 29.597656 14.882813 29.96875 15.40625C30.339844 15.929688 30.558594 16.703125 30.625 17.5625C30.757813 19.277344 30.253906 21.332031 29.9375 22.28125L29.625 23.21875L30.40625 23.5C30.441406 23.550781 30.519531 23.71875 30.5 23.96875C30.5 23.984375 30.5 23.984375 30.5 24C30.367188 24.964844 30.019531 25.15625 30.03125 25.1875L29.3125 25.1875L29.21875 26.0625C29.140625 26.648438 28.859375 27.40625 28.5625 28C28.414063 28.296875 28.253906 28.570313 28.125 28.75C28.027344 28.882813 27.925781 28.96875 27.9375 28.96875L27.5 29.21875L27.5 29.8125C27.5 30.914063 27.492188 31.730469 27.59375 32.96875L27.625 33.125L27.65625 33.25C28.113281 34.480469 29.152344 35.222656 30.25 35.78125C31.347656 36.339844 32.605469 36.746094 33.75 37.25C34.894531 37.753906 35.941406 38.359375 36.6875 39.125C37.386719 39.839844 37.839844 40.695313 37.96875 42L12 42L12 41.46875C12.1875 40.421875 12.613281 39.683594 13.21875 39.0625C13.964844 38.296875 15.011719 37.714844 16.15625 37.21875C17.300781 36.722656 18.527344 36.332031 19.625 35.78125C20.722656 35.230469 21.792969 34.480469 22.25 33.25L22.28125 33.125L22.28125 32.96875C22.382813 31.730469 22.40625 30.914063 22.40625 29.8125L22.40625 29.21875L21.96875 28.96875C21.964844 28.96875 21.949219 28.945313 21.9375 28.9375C21.90625 28.902344 21.84375 28.839844 21.78125 28.75C21.652344 28.570313 21.492188 28.296875 21.34375 28C21.046875 27.40625 20.765625 26.648438 20.6875 26.0625L20.5625 25.1875L19.84375 25.1875C19.863281 25.160156 19.53125 24.972656 19.40625 23.96875C19.351563 23.546875 19.5625 23.4375 19.5625 23.4375L20.15625 23.03125L19.96875 22.34375C19.296875 19.707031 19.21875 17.300781 19.90625 15.71875C20.59375 14.136719 21.90625 13.140625 24.90625 13.09375Z" fill="#5B5B5B" />
</svg>