<?xml version="1.0" encoding="utf-8"?>
<svg xmlns="http://www.w3.org/2000/svg" viewBox="0 0 50 50" width="100" height="100">
  <path d="M25 2C12.309295 2 2 12.309295 2 25C2 37.690705 12.309295 48 25 48C37.690705 48 48 37.690705 48 25C48 12.309295 37.690705 2 25 2 z M 25 4C36.609824 4 46 13.390176 46 25C46 36.609824 36.609824 46 25 46C13.390176 46 4 36.609824 4 25C4 13.390176 13.390176 4 25 4 z M 25 14C18.345 14 18 20.470594 18 25.058594C18 28.470594 17.771 36 25 36C31.541 36 32 29.411594 32 25.058594C32 20.470594 31.541 14 25 14 z M 25 16C28.645 16 30 18.454594 30 25.058594C30 31.492594 28.598 34 25 34C23.55 34 22.478609 33.633906 21.724609 32.878906C19.988609 31.139906 19.996 27.526187 20 25.367188L20 25.058594C20 18.371594 21.309 16 25 16 z" fill="#3b80c3" />
</svg>