<?xml version="1.0" encoding="utf-8"?>
<svg xmlns="http://www.w3.org/2000/svg" viewBox="0 0 50 50" width="500" height="500">
  <path d="M25 3C12.85529 3 3 12.85529 3 25C3 30.033081 4.6735359 34.64018 7.4726562 38.34375L2.2929688 36.759766 A 1.0008691 1.0008691 0 1 0 1.7070312 38.673828L10.644531 41.404297L11.886719 32.208984 A 1.0001 1.0001 0 0 0 10.917969 31.060547 A 1.0001 1.0001 0 0 0 9.9042969 31.941406L9.1835938 37.285156C6.5655686 33.890133 5 29.659806 5 25C5 13.93471 13.93471 5 25 5L25 3 z M 27.111328 3.0761719L26.828125 5.0527344L27.822266 5.1992188C28.815266 5.3352188 27.821453 5.1989375 28.814453 5.3359375L29.097656 3.359375L28.103516 3.2128906L27.111328 3.0761719 z M 31.230469 3.875L30.576172 5.7636719L31.519531 6.0859375C32.463531 6.4079375 31.520844 6.0852031 32.464844 6.4082031L33.119141 4.5195312L31.230469 3.875 z M 35.109375 5.4355469L34.113281 7.1621094L34.976562 7.6640625C35.850562 8.1670625 34.976562 7.6649688 35.851562 8.1679688L36.847656 6.4296875L35.109375 5.4355469 z M 39.355469 8.5957031L38.113281 17.791016 A 1.0001994 1.0001994 0 1 0 40.095703 18.058594L40.816406 12.714844C43.434431 16.109867 45 20.340194 45 25C45 36.06529 36.06529 45 25 45L25 47C37.14471 47 47 37.14471 47 25C47 19.966919 45.326464 15.35982 42.527344 11.65625L47.707031 13.240234 A 1.0008692 1.0008692 0 1 0 48.292969 11.326172L39.355469 8.5957031 z M 14.080078 41.789062L13.078125 43.521484L14.8125 44.523438L15.816406 42.800781L14.080078 41.789062 z M 17.460938 43.5625L16.798828 45.447266L18.683594 46.099609L19.345703 44.214844L18.404297 43.888672L17.460938 43.5625 z M 21.105469 44.648438L20.816406 46.625L21.808594 46.775391L22.800781 46.914062L23.091797 44.939453L22.097656 44.789062L21.105469 44.648438 z" fill="#000000" />
</svg>