<?xml version="1.0" encoding="utf-8"?>
<svg xmlns="http://www.w3.org/2000/svg" viewBox="0 0 50 50" width="500" height="500">
  <path d="M10.5 0C7.472656 0 5 2.472656 5 5.5C5 8.527344 7.472656 11 10.5 11C13.527344 11 16 8.527344 16 5.5C16 2.472656 13.527344 0 10.5 0 Z M 10.5 11L6 11C4.105469 11 2.671875 11.640625 1.8125 12.65625C0.953125 13.671875 0.695313 14.902344 0.59375 16.0625C0.523438 16.875 0.375 19.765625 0.25 22.75C0.125 25.734375 0.0234375 28.734375 0 29.59375C-0.0234375 30.507813 0.117188 31.308594 0.59375 31.96875C1.070313 32.628906 1.898438 33 2.71875 33C2.933594 33 3.21875 32.847656 3.46875 32.8125C3.238281 38.851563 3.023438 44.515625 3 45.25C2.960938 46.429688 3.148438 47.519531 3.625 48.40625C4.101563 49.292969 5.011719 50 6.09375 50C7.113281 50 8.066406 49.742188 8.71875 49.0625C9.371094 48.382813 9.609375 47.441406 9.71875 46.375C9.769531 45.882813 10.027344 42.863281 10.1875 41C10.347656 42.863281 10.605469 45.882813 10.65625 46.375C10.761719 47.414063 10.953125 48.332031 11.5625 49.03125C12.171875 49.730469 13.136719 50 14.15625 50C15.335938 50 16.347656 49.242188 16.75 48.3125C17.152344 47.382813 17.160156 46.351563 17.125 45.25C17.097656 44.394531 17.082031 40.253906 17.0625 36.03125C17.042969 31.824219 17.03125 27.492188 17 25.96875L17 18.53125C19.296875 19.578125 22.355469 20.929688 24.8125 22L21 22C20.96875 22 20.9375 22 20.90625 22C20.875 22 20.84375 22 20.8125 22C20.335938 22.089844 19.992188 22.511719 20 23L20 32C20 32.550781 20.449219 33 21 33L21.34375 33C21.683594 33.230469 22.128906 33.230469 22.46875 33L24 33L24 49C24 49.550781 24.449219 50 25 50L29 50C29.550781 50 30 49.550781 30 49L30 46L43 46L43 49C43 49.550781 43.449219 50 44 50L48 50C48.550781 50 49 49.550781 49 49L49 33C49.359375 33.003906 49.695313 32.816406 49.878906 32.503906C50.058594 32.191406 50.058594 31.808594 49.878906 31.496094C49.695313 31.183594 49.359375 30.996094 49 31L47.75 31L49.8125 27.59375C50.027344 27.28125 50.042969 26.871094 49.859375 26.542969C49.671875 26.210938 49.316406 26.011719 48.9375 26.03125C48.882813 26.039063 48.832031 26.046875 48.78125 26.0625C48.488281 26.117188 48.238281 26.300781 48.09375 26.5625L45.46875 31L41.75 31L45.9375 24L49 24C49.359375 24.003906 49.695313 23.816406 49.878906 23.503906C50.058594 23.191406 50.058594 22.808594 49.878906 22.496094C49.695313 22.183594 49.359375 21.996094 49 22L32.875 22C33.046875 21.390625 32.976563 20.734375 32.6875 20.1875C32.335938 19.523438 31.738281 18.988281 30.96875 18.625C29.640625 18 17.441406 11.816406 17.375 11.78125C17.367188 11.777344 17.351563 11.785156 17.34375 11.78125C16.519531 11.335938 15.753906 11 14.53125 11 Z M 10.5 2C12.445313 2 14 3.554688 14 5.5C14 7.445313 12.445313 9 10.5 9C8.554688 9 7 7.445313 7 5.5C7 3.554688 8.554688 2 10.5 2 Z M 6 13L14.53125 13C15.507813 13 15.601563 13.09375 16.40625 13.53125C16.417969 13.542969 16.425781 13.550781 16.4375 13.5625C16.4375 13.5625 28.476563 19.675781 30.09375 20.4375C30.546875 20.652344 30.804688 20.929688 30.90625 21.125C31.007813 21.320313 30.996094 21.378906 30.9375 21.5C30.769531 21.847656 30.660156 21.921875 30.46875 21.96875C30.277344 22.015625 29.898438 22.011719 29.3125 21.75C27.878906 21.113281 19.074219 17.363281 16.4375 16.09375C16.125 15.941406 15.757813 15.960938 15.464844 16.148438C15.175781 16.332031 14.996094 16.652344 15 17L15 25.96875C15 25.980469 15 25.988281 15 26C15.03125 27.445313 15.042969 31.808594 15.0625 36.03125C15.082031 40.253906 15.125 44.296875 15.15625 45.3125C15.1875 46.292969 15.085938 47.121094 14.90625 47.53125C14.726563 47.941406 14.703125 48 14.15625 48C13.445313 48 13.25 47.898438 13.09375 47.71875C12.9375 47.539063 12.746094 47.058594 12.65625 46.1875C12.519531 44.855469 11.625 34.515625 11.1875 29.75C11.183594 29.695313 11.191406 29.613281 11.1875 29.5625C11.101563 29.085938 10.6875 28.738281 10.203125 28.738281C9.71875 28.738281 9.304688 29.085938 9.21875 29.5625C9.214844 29.613281 9.222656 29.695313 9.21875 29.75C8.777344 34.515625 7.886719 44.855469 7.75 46.1875C7.664063 47.03125 7.472656 47.457031 7.28125 47.65625C7.089844 47.855469 6.804688 48 6.09375 48C5.824219 48 5.652344 47.894531 5.40625 47.4375C5.160156 46.980469 4.96875 46.21875 5 45.3125C5.027344 44.492188 5.289063 37.386719 5.5625 30.28125C5.5625 30.25 5.5625 30.21875 5.5625 30.1875C5.765625 24.925781 6 19.03125 6 19.03125C6.015625 18.480469 5.582031 18.015625 5.03125 18C4.480469 17.984375 4.015625 18.417969 4 18.96875C4 18.96875 3.792969 24.84375 3.59375 30.03125C3.59375 30.0625 3.5625 30.0625 3.5625 30.09375C3.558594 30.136719 3.558594 30.175781 3.5625 30.21875C3.539063 30.832031 3.421875 30.871094 3.375 30.90625C3.328125 30.941406 3.113281 31 2.71875 31C2.371094 31 2.324219 30.957031 2.21875 30.8125C2.113281 30.667969 1.980469 30.304688 2 29.65625C2.023438 28.84375 2.125 25.789063 2.25 22.8125C2.375 19.835938 2.511719 16.828125 2.5625 16.25C2.644531 15.300781 2.886719 14.476563 3.34375 13.9375C3.800781 13.398438 4.507813 13 6 13 Z M 22 24L25.625 24L22 30.09375 Z M 27.9375 24L31.625 24L27.46875 31L23.75 31 Z M 33.9375 24L37.625 24L33.46875 31L29.75 31 Z M 39.9375 24L43.625 24L39.46875 31L35.75 31 Z M 26 33L27.34375 33C27.539063 33.125 27.769531 33.183594 28 33.15625L28 41.8125C27.992188 41.875 27.992188 41.9375 28 42L28 45C28 45.03125 28 45.0625 28 45.09375L28 48L26 48 Z M 30 33L33.34375 33C33.683594 33.230469 34.128906 33.230469 34.46875 33L39.34375 33C39.683594 33.230469 40.128906 33.230469 40.46875 33L43 33L43 41L30 41 Z M 45 33L45.34375 33C45.683594 33.230469 46.128906 33.230469 46.46875 33L47 33L47 48L45 48L45 45.15625C45.003906 45.105469 45.003906 45.050781 45 45L45 42C45 41.96875 45 41.9375 45 41.90625 Z M 30 43L43 43L43 44L30 44Z" fill="#5B5B5B" />
</svg>