<?xml version="1.0" encoding="utf-8"?>
<svg xmlns="http://www.w3.org/2000/svg" viewBox="0 0 50 50" width="500" height="500">
  <path d="M13 2C9.6875 2 7 4.6875 7 8L7 34C7 37.3125 9.6875 40 13 40L28 40L28 48L36 40L37 40C40.3125 40 43 37.3125 43 34L43 8C43 4.6875 40.3125 2 37 2 Z M 13 4L37 4C39.207031 4 41 5.792969 41 8L41 10L9 10L9 8C9 5.792969 10.792969 4 13 4 Z M 9 12L41 12L41 20L9 20 Z M 9 22L41 22L41 30L9 30 Z M 9 32L41 32L41 34C41 36.207031 39.207031 38 37 38L35.171875 38L30 43.171875L30 38L13 38C10.792969 38 9 36.207031 9 34Z" fill="#5B5B5B" />
</svg>