<?xml version="1.0" encoding="utf-8"?>
<svg xmlns="http://www.w3.org/2000/svg" viewBox="0 0 50 50" width="500" height="500">
  <path d="M25 3C12.859375 3 3 12.859375 3 25L3 32L5 32L5 25C5 13.941406 13.941406 5 25 5C36.058594 5 45 13.941406 45 25L45 32L47 32L47 25C47 12.859375 37.140625 3 25 3 Z M 25 8C15.65625 8 8 15.65625 8 25L8 32L10 32L10 25C10 16.746094 16.746094 10 25 10C33.253906 10 40 16.746094 40 25L40 32L42 32L42 25C42 15.65625 34.34375 8 25 8 Z M 25 13C18.363281 13 13 18.363281 13 25L13 32L15 32L15 25C15 19.433594 19.433594 15 25 15C30.566406 15 35 19.433594 35 25L35 32L37 32L37 25C37 18.363281 31.636719 13 25 13 Z M 25 18C21.15625 18 18 21.15625 18 25L18 32L20 32L20 25C20 22.246094 22.246094 20 25 20C27.753906 20 30 22.246094 30 25L30 32L32 32L32 25C32 21.15625 28.84375 18 25 18 Z M 25 23C23.898438 23 23 23.898438 23 25L23 32L27 32L27 25C27 23.898438 26.101563 23 25 23 Z M 2.8125 33.03125C2.453125 33.101563 2.164063 33.367188 2.0625 33.71875L0.0625 40.71875C0.0390625 40.808594 0.0273438 40.90625 0.03125 41L-0.03125 41L-0.03125 45C-0.0273438 45.566406 0.433594 46.027344 1 46.03125L49 46.03125C49.566406 46.027344 50.027344 45.566406 50.03125 45L50.03125 41L49.96875 41C49.972656 40.90625 49.960938 40.808594 49.9375 40.71875L47.9375 33.71875C47.8125 33.308594 47.429688 33.027344 47 33.03125L3 33.03125C2.9375 33.023438 2.875 33.023438 2.8125 33.03125 Z M 3.75 34.96875L46.25 34.96875L47.71875 40.03125L2.28125 40.03125 Z M 2.03125 41.96875L47.96875 41.96875L47.96875 43.96875L2.03125 43.96875Z" fill="#3b80c3" />
</svg>