<?xml version="1.0" encoding="utf-8"?>
<svg xmlns="http://www.w3.org/2000/svg" viewBox="0 0 50 50" width="500" height="500">
  <path d="M5 11C3.355469 11 2 12.355469 2 14L2 36C2 37.644531 3.355469 39 5 39L34.472656 39C35.726563 39 36.9375 38.53125 37.859375 37.679688L37.902344 37.640625L47.164063 27.074219L47.121094 27.121094C48.285156 25.957031 48.285156 24.042969 47.121094 22.878906L47.167969 22.925781L37.902344 12.359375L37.859375 12.320313C36.9375 11.472656 35.726563 11 34.472656 11 Z M 5 13L34.472656 13C35.222656 13 35.941406 13.285156 36.496094 13.785156L45.683594 24.269531L45.707031 24.292969C46.105469 24.691406 46.105469 25.308594 45.707031 25.707031L45.683594 25.730469L36.496094 36.210938C35.941406 36.714844 35.222656 37 34.472656 37L5 37C4.4375 37 4 36.5625 4 36L4 14C4 13.433594 4.433594 13 5 13 Z M 37 21C34.800781 21 33 22.800781 33 25C33 27.199219 34.800781 29 37 29C39.199219 29 41 27.199219 41 25C41 22.800781 39.199219 21 37 21 Z M 37 23C38.117188 23 39 23.882813 39 25C39 26.117188 38.117188 27 37 27C35.882813 27 35 26.117188 35 25C35 23.882813 35.882813 23 37 23Z" fill="#5B5B5B" />
</svg>