<?xml version="1.0" encoding="utf-8"?>
<svg xmlns="http://www.w3.org/2000/svg"        
  color="#FF2E31" viewBox="0 0 50 50" width="500" height="500">
  <path d="M25.125 2C24.824219 2.003906 24.523438 2.023438 24.21875 2.0625C23.605469 2.140625 22.9375 2.339844 22.40625 2.875L2.78125 22.5C1.761719 23.519531 1.761719 25.199219 2.78125 26.21875L8.46875 31.9375C8.515625 31.984375 8.570313 32.027344 8.625 32.0625C8.640625 32.078125 8.671875 32.078125 8.6875 32.09375C8.699219 32.105469 8.707031 32.113281 8.71875 32.125C8.746094 32.152344 8.753906 32.191406 8.78125 32.21875L23.78125 47.21875C24.800781 48.238281 26.480469 48.238281 27.5 47.21875L47.125 27.59375C47.652344 27.066406 47.859375 26.390625 47.9375 25.78125C48.015625 25.171875 48 24.570313 48 24L48 23.875C48 23.78125 48 23.644531 48 23.46875C48 23.355469 48 23.144531 48 23C48 22.703125 48 22.433594 48 22.03125C48 20.835938 48 19.222656 48 17.625C48 14.429688 48 11.230469 48 11.15625C48 9.421875 46.574219 8 44.84375 8L42 8L42 5.15625C42 3.421875 40.578125 2 38.84375 2L26 2C25.722656 2 25.425781 1.996094 25.125 2 Z M 25.15625 4C25.410156 4 25.703125 4 26 4L38.84375 4C39.496094 4 40 4.503906 40 5.15625L40 8L36.25 8C36.210938 7.957031 36.167969 7.917969 36.125 7.875C35.542969 7.292969 34.769531 7 34 7C33.230469 7 32.457031 7.292969 31.875 7.875C31.832031 7.917969 31.789063 7.957031 31.75 8C31.261719 7.996094 30.742188 7.996094 30.21875 8.0625C29.605469 8.140625 28.9375 8.339844 28.40625 8.875L8.78125 28.5C8.625 28.65625 8.484375 28.820313 8.375 29L4.1875 24.8125C3.929688 24.554688 3.933594 24.160156 4.1875 23.90625L23.8125 4.28125C23.917969 4.175781 24.117188 4.082031 24.5 4.03125C24.691406 4.007813 24.902344 4 25.15625 4 Z M 31.15625 10L44.84375 10C45.496094 10 46 10.503906 46 11.15625C46 11.21875 46 14.429688 46 17.625C46 19.222656 46 20.835938 46 22.03125C46 22.628906 46 23.121094 46 23.46875C46 23.644531 46 23.78125 46 23.875C46 23.921875 46 23.945313 46 23.96875C46 23.992188 46 24 46 24C46 24.605469 46.019531 25.152344 45.96875 25.53125C45.917969 25.910156 45.828125 26.078125 45.71875 26.1875L26.09375 45.8125C25.835938 46.070313 25.441406 46.066406 25.1875 45.8125L10.1875 30.8125C9.929688 30.554688 9.933594 30.160156 10.1875 29.90625L29.8125 10.28125C29.917969 10.175781 30.117188 10.082031 30.5 10.03125C30.691406 10.007813 30.902344 10 31.15625 10 Z M 40 13C39.230469 13 38.457031 13.292969 37.875 13.875C36.710938 15.039063 36.710938 16.960938 37.875 18.125C39.039063 19.289063 40.960938 19.289063 42.125 18.125C43.289063 16.960938 43.289063 15.039063 42.125 13.875C41.542969 13.292969 40.769531 13 40 13 Z M 40 15C40.253906 15 40.519531 15.082031 40.71875 15.28125C41.117188 15.679688 41.117188 16.320313 40.71875 16.71875C40.320313 17.117188 39.679688 17.117188 39.28125 16.71875C38.882813 16.320313 38.882813 15.679688 39.28125 15.28125C39.480469 15.082031 39.746094 15 40 15Z" fill="#FF2E31" />
</svg>