<?xml version="1.0" encoding="utf-8"?>
<svg xmlns="http://www.w3.org/2000/svg" viewBox="0 0 50 50" width="500" height="500">
  <path d="M11 4C7.101563 4 4 7.101563 4 11L4 39C4 42.898438 7.101563 46 11 46L39 46C42.898438 46 46 42.898438 46 39L46 15L44 17.3125L44 39C44 41.800781 41.800781 44 39 44L11 44C8.199219 44 6 41.800781 6 39L6 11C6 8.199219 8.199219 6 11 6L37.40625 6L39 4 Z M 43.25 7.75L23.90625 30.5625L15.78125 22.96875L14.40625 24.4375L23.3125 32.71875L24.09375 33.4375L24.75 32.65625L44.75 9.03125Z" fill="#5B5B5B" />
</svg>