<?xml version="1.0" encoding="utf-8"?>
<svg xmlns="http://www.w3.org/2000/svg" viewBox="0 0 50 50" width="500" height="500">
  <path d="M29 4.53125C23.785156 4.53125 19.371094 7.652344 17.25 12.0625C16.121094 11.285156 14.8125 10.71875 13.34375 10.71875C9.617188 10.71875 6.644531 13.667969 6.4375 17.34375C2.710938 18.6875 0 22.164063 0 26.34375C0 31.671875 4.328125 36 9.65625 36L18 36C18.359375 36.003906 18.695313 35.816406 18.878906 35.503906C19.058594 35.191406 19.058594 34.808594 18.878906 34.496094C18.695313 34.183594 18.359375 33.996094 18 34L9.65625 34C5.40625 34 2 30.589844 2 26.34375C2 22.808594 4.382813 19.832031 7.625 18.9375C8.066406 18.808594 8.363281 18.394531 8.34375 17.9375C8.339844 17.796875 8.34375 17.726563 8.34375 17.71875C8.34375 14.941406 10.566406 12.71875 13.34375 12.71875C14.734375 12.71875 16 13.277344 16.90625 14.1875C17.144531 14.417969 17.484375 14.519531 17.808594 14.449219C18.136719 14.378906 18.40625 14.152344 18.53125 13.84375C20.105469 9.59375 24.191406 6.53125 29 6.53125C35.171875 6.53125 40.15625 11.519531 40.15625 17.6875C40.15625 18.144531 40.121094 18.59375 40.0625 19.0625C40.027344 19.34375 40.113281 19.625 40.296875 19.839844C40.480469 20.054688 40.75 20.179688 41.03125 20.1875L41.09375 20.1875C44.917969 20.1875 48 23.269531 48 27.09375C48 30.917969 44.917969 34 41.09375 34L32 34C31.640625 33.996094 31.304688 34.183594 31.121094 34.496094C30.941406 34.808594 30.941406 35.191406 31.121094 35.503906C31.304688 35.816406 31.640625 36.003906 32 36L41.09375 36C46 36 50 32 50 27.09375C50 22.542969 46.507813 18.925781 42.09375 18.40625C42.109375 18.164063 42.15625 17.9375 42.15625 17.6875C42.15625 10.4375 36.25 4.53125 29 4.53125 Z M 25 21.59375L24.28125 22.28125L19.28125 27.28125C18.882813 27.679688 18.882813 28.320313 19.28125 28.71875C19.679688 29.117188 20.320313 29.117188 20.71875 28.71875L24 25.4375L24 43C23.996094 43.359375 24.183594 43.695313 24.496094 43.878906C24.808594 44.058594 25.191406 44.058594 25.503906 43.878906C25.816406 43.695313 26.003906 43.359375 26 43L26 25.4375L29.28125 28.71875C29.679688 29.117188 30.320313 29.117188 30.71875 28.71875C31.117188 28.320313 31.117188 27.679688 30.71875 27.28125L25.71875 22.28125Z" fill="#3b80c3" />
</svg>