<?xml version="1.0" encoding="utf-8"?>
<svg xmlns="http://www.w3.org/2000/svg" viewBox="0 0 50 50" width="500" height="500">
  <path d="M25 0C22.546875 0 20.476563 1.355469 17.40625 2.9375C14.335938 4.519531 10.214844 6.429688 3.78125 7.84375L3 8.03125L3 8.8125C3 24.132813 8.371094 34.371094 13.75 40.71875C19.128906 47.066406 24.59375 49.59375 24.59375 49.59375L25.03125 49.8125L25.46875 49.59375C25.46875 49.59375 47 38.46875 47 8.8125L47 8.03125L46.21875 7.84375C39.785156 6.429688 35.664063 4.519531 32.59375 2.9375C29.523438 1.355469 27.453125 0 25 0 Z M 25 2C26.644531 2 28.550781 3.105469 31.6875 4.71875C34.667969 6.25 38.859375 8.128906 44.9375 9.5625C44.570313 36.679688 26.253906 46.851563 24.96875 47.53125C24.347656 47.230469 20.019531 45.066406 15.25 39.4375C10.222656 33.503906 5.246094 23.960938 5.0625 9.5625C11.140625 8.128906 15.332031 6.25 18.3125 4.71875C21.449219 3.105469 23.355469 2 25 2 Z M 25 12C18.9375 12 14 16.9375 14 23C14 29.0625 18.9375 34 25 34C31.0625 34 36 29.0625 36 23C36 16.9375 31.0625 12 25 12 Z M 25 14C29.980469 14 34 18.019531 34 23C34 25.667969 32.835938 28.042969 31 29.6875C29.464844 28.828125 27.503906 28.558594 27.0625 27.375C27 26.703125 27.03125 26.238281 27.03125 25.625C27.335938 25.464844 27.875 24.453125 27.96875 23.59375C28.207031 23.574219 28.578125 23.359375 28.6875 22.4375C28.746094 21.941406 28.519531 21.652344 28.375 21.5625C28.765625 20.390625 29.566406 16.78125 26.875 16.40625C26.597656 15.917969 25.890625 15.65625 24.96875 15.65625C21.28125 15.722656 20.816406 18.449219 21.625 21.5625C21.480469 21.652344 21.253906 21.910156 21.3125 22.40625C21.421875 23.328125 21.792969 23.574219 22.03125 23.59375C22.125 24.453125 22.695313 25.464844 23 25.625C23 26.238281 23.03125 26.703125 22.96875 27.375C22.527344 28.5625 20.542969 28.851563 19 29.71875C17.15625 28.074219 16 25.675781 16 23C16 18.019531 20.019531 14 25 14Z" fill="#5B5B5B" />
</svg>