<?xml version="1.0" encoding="utf-8"?>
<svg xmlns="http://www.w3.org/2000/svg" viewBox="0 0 80 80" width="480" height="480">
  <path d="M10.945312 13.109375C8.7479791 13.109375 6.9453125 14.912041 6.9453125 17.109375L6.9453125 67.109375L7.9453125 67.109375L72.945312 67.109375L72.945312 17.109375C72.945312 14.912041 71.142646 13.109375 68.945312 13.109375L10.945312 13.109375 z M 10.945312 15.109375L68.945312 15.109375C70.06198 15.109375 70.945312 15.992709 70.945312 17.109375L70.945312 24.080078L70.945312 65.109375L8.9453125 65.109375L8.9453125 24.138672L8.9453125 17.109375C8.9453125 15.992709 9.8286469 15.109375 10.945312 15.109375 z M 8.9453125 24.138672 A 1 1 0 0 0 9.9453125 25.109375 A 1 1 0 0 0 9.9453125 23.109375 A 1 1 0 0 0 8.9453125 24.138672 z M 70.945312 24.080078 A 1 1 0 0 0 69.945312 23.109375 A 1 1 0 0 0 69.945312 25.109375 A 1 1 0 0 0 70.945312 24.080078 z M 12.945312 17.109375 A 2 2 0 0 0 12.945312 21.109375 A 2 2 0 0 0 12.945312 17.109375 z M 18.945312 17.109375 A 2 2 0 0 0 18.945312 21.109375 A 2 2 0 0 0 18.945312 17.109375 z M 24.945312 17.109375 A 2 2 0 0 0 24.945312 21.109375 A 2 2 0 0 0 24.945312 17.109375 z M 13.945312 23.109375 A 1 1 0 0 0 13.945312 25.109375 A 1 1 0 0 0 13.945312 23.109375 z M 17.945312 23.109375 A 1 1 0 0 0 17.945312 25.109375 A 1 1 0 0 0 17.945312 23.109375 z M 21.945312 23.109375 A 1 1 0 0 0 21.945312 25.109375 A 1 1 0 0 0 21.945312 23.109375 z M 25.945312 23.109375 A 1 1 0 0 0 25.945312 25.109375 A 1 1 0 0 0 25.945312 23.109375 z M 29.945312 23.109375 A 1 1 0 0 0 29.945312 25.109375 A 1 1 0 0 0 29.945312 23.109375 z M 33.945312 23.109375 A 1 1 0 0 0 33.945312 25.109375 A 1 1 0 0 0 33.945312 23.109375 z M 37.945312 23.109375 A 1 1 0 0 0 37.945312 25.109375 A 1 1 0 0 0 37.945312 23.109375 z M 41.945312 23.109375 A 1 1 0 0 0 41.945312 25.109375 A 1 1 0 0 0 41.945312 23.109375 z M 45.945312 23.109375 A 1 1 0 0 0 45.945312 25.109375 A 1 1 0 0 0 45.945312 23.109375 z M 49.945312 23.109375 A 1 1 0 0 0 49.945312 25.109375 A 1 1 0 0 0 49.945312 23.109375 z M 53.945312 23.109375 A 1 1 0 0 0 53.945312 25.109375 A 1 1 0 0 0 53.945312 23.109375 z M 57.945312 23.109375 A 1 1 0 0 0 57.945312 25.109375 A 1 1 0 0 0 57.945312 23.109375 z M 61.945312 23.109375 A 1 1 0 0 0 61.945312 25.109375 A 1 1 0 0 0 61.945312 23.109375 z M 65.945312 23.109375 A 1 1 0 0 0 65.945312 25.109375 A 1 1 0 0 0 65.945312 23.109375 z M 40 34C33.936709 34 29 38.936713 29 45C29 51.063287 33.936709 56 40 56C46.063291 56 51 51.063287 51 45C51 38.936713 46.063291 34 40 34 z M 40 36C44.982411 36 49 40.017592 49 45C49 49.982408 44.982411 54 40 54C35.017589 54 31 49.982408 31 45C31 40.017592 35.017589 36 40 36 z M 40 39C36.69 39 34 41.69 34 45C34 48.31 36.69 51 40 51C43.31 51 46 48.31 46 45C46 44.88 46.000469 44.770156 45.980469 44.660156C45.530469 44.880156 45.03 45 44.5 45C42.57 45 41 43.43 41 41.5C41 40.66 41.300781 39.879297 41.800781 39.279297C41.230781 39.099297 40.63 39 40 39 z" fill="#5B5B5B" />
</svg>