<?xml version="1.0" encoding="utf-8"?>
<svg xmlns="http://www.w3.org/2000/svg" viewBox="0 0 50 50" width="100" height="100">
  <path d="M49 0C30.585938 0 22.167969 5.863281 18.5625 11.90625C15.285156 17.402344 16 22.699219 16.15625 23.65625C15.644531 24.433594 15.148438 25.210938 14.6875 26L8 26C7.96875 26 7.9375 26 7.90625 26C7.355469 26.027344 6.925781 26.496094 6.953125 27.046875C6.980469 27.597656 7.449219 28.027344 8 28L24 28C24.359375 28.003906 24.695313 27.816406 24.878906 27.503906C25.058594 27.191406 25.058594 26.808594 24.878906 26.496094C24.695313 26.183594 24.359375 25.996094 24 26L17.03125 26C17.285156 25.585938 17.542969 25.160156 17.8125 24.75C19.171875 24.609375 25.144531 23.871094 31.84375 21.03125C39.417969 17.820313 47.695313 11.890625 49.96875 1.21875C50.035156 0.921875 49.964844 0.613281 49.777344 0.378906C49.585938 0.140625 49.300781 0.00390625 49 0 Z M 47.65625 2.0625C46.355469 6.804688 43.746094 10.464844 40.5625 13.3125C36.230469 14.410156 31.78125 13.0625 31.78125 13.0625C31.652344 13.015625 31.511719 12.992188 31.375 13C30.882813 13.027344 30.480469 13.410156 30.433594 13.902344C30.386719 14.394531 30.707031 14.847656 31.1875 14.96875C31.1875 14.96875 33.9375 15.859375 37.4375 15.75C35.382813 17.140625 33.210938 18.277344 31.0625 19.1875C25.84375 21.402344 21.523438 22.21875 19.34375 22.53125C24.925781 14.898438 33.035156 8.199219 43.78125 4.96875C44.324219 4.855469 44.675781 4.324219 44.5625 3.78125C44.449219 3.238281 43.917969 2.886719 43.375 3C43.3125 3.003906 43.25 3.015625 43.1875 3.03125C32.160156 6.34375 23.796875 13.191406 18 20.96875C17.980469 19.113281 18.332031 16.207031 20.28125 12.9375C23.398438 7.710938 30.683594 2.347656 47.65625 2.0625 Z M 6 29C2.699219 29 0 31.699219 0 35L0 44C0 47.300781 2.699219 50 6 50L26 50C29.300781 50 32 47.300781 32 44L32 35C32 31.699219 29.300781 29 26 29 Z M 6 31L26 31C28.21875 31 30 32.78125 30 35L30 44C30 46.21875 28.21875 48 26 48L6 48C3.78125 48 2 46.21875 2 44L2 35C2 32.78125 3.78125 31 6 31Z" fill="#3b80c3" />
</svg>