<?xml version="1.0" encoding="utf-8"?>
<svg xmlns="http://www.w3.org/2000/svg" viewBox="0 0 50 50" width="100" height="100">
  <path d="M20 3C10.626 3 3 10.626 3 20C3 29.374 10.626 37 20 37C23.713098 37 27.145499 35.798263 29.941406 33.769531L43.085938 46.914062L45.914062 44.085938L32.882812 31.054688C34.815148 28.800952 36.174043 26.041633 36.71875 23L34.697266 23C33.303266 29.838 27.244 35 20 35C12.066588 35 5.5693721 28.804385 5.0507812 21L9.4140625 21L15 15.414062L27 27.414062L33.414062 21L47 21L47 19L32.585938 19L27 24.585938L15 12.585938L8.5859375 19L5.0507812 19C5.5693721 11.195615 12.066588 5 20 5C27.244 5 33.303266 10.162 34.697266 17L36.71875 17C35.29575 9.054 28.349 3 20 3 z" fill="#3b80c3" />
</svg>