<svg xmlns="http://www.w3.org/2000/svg" viewBox="0 0 180.17 189.92"><defs><style>.cls-1{opacity:0.25;}</style></defs><g id="Layer_2" data-name="Layer 2"><g id="Layer_1-2" data-name="Layer 1"><g class="cls-1"><path d="M63.14,145.28c0-9.94.17-19.89-.07-29.82-.12-5,2.08-8.43,6.34-10.21A61.08,61.08,0,0,1,82.5,101.4a54.72,54.72,0,0,1,27.14,1.89,35.37,35.37,0,0,1,8.25,4.53,6.83,6.83,0,0,1,2.71,5.93q0,31.62,0,63.24c0,3-1.62,5.18-3.93,6.9-3.66,2.74-7.92,4-12.3,4.79-10.93,2-21.76,1.83-32.29-2.12a24.19,24.19,0,0,1-5.65-3.22,8.31,8.31,0,0,1-3.32-7.18C63.19,165.87,63.14,155.57,63.14,145.28Zm28.77-25.6c.92,0,1.83,0,2.75,0,5.79-.32,11.52-1,16.74-3.8,3.15-1.67,3.25-3.24,0-4.62A46.48,46.48,0,0,0,100.56,108c-8.94-1.4-17.85-1.15-26.38,2.32-1.6.64-2.88,2.07-4.3,3.14,1.41,1.08,2.67,2.49,4.25,3.18C79.78,119.18,85.82,119.63,91.91,119.68ZM70,135.16c-.57,4.18-.23,4.85,3.3,6.62a15.66,15.66,0,0,0,1.74.74,49.51,49.51,0,0,0,22.92,2.23,62.77,62.77,0,0,0,12.62-3.12c3.51-1.21,4-2.76,3.09-6.46A62.29,62.29,0,0,1,70,135.16Zm43.78,12.68a62.23,62.23,0,0,1-43.71,0c-.76,3.77-.3,4.85,2.92,6.45a23.23,23.23,0,0,0,3.32,1.33,49.25,49.25,0,0,0,21.32,1.82,63.13,63.13,0,0,0,12.84-3.11C114.09,153.09,114.35,152,113.76,147.84ZM70,160.39c-.51,4.53-.14,5.21,3.52,6.92.51.24,1,.44,1.56.63A49.31,49.31,0,0,0,98,170.15a60.5,60.5,0,0,0,13-3.34c3.25-1.17,3.6-2.74,2.6-6.35a54.12,54.12,0,0,1-21.62,4A54.88,54.88,0,0,1,70,160.39Zm43.81-38a62.4,62.4,0,0,1-43.85,0c-.44,4.45-.07,5.11,3.74,6.82.71.31,1.44.59,2.17.83a49,49,0,0,0,21.09,2,64.35,64.35,0,0,0,13.28-3.08C114.1,127.74,114.28,126.81,113.79,122.41Zm-.05,50.87a62.29,62.29,0,0,1-43.73,0c-.67,4-.24,4.89,3.19,6.55a25.14,25.14,0,0,0,3.34,1.31,53.3,53.3,0,0,0,19.45,2,38.08,38.08,0,0,0,14.54-3.27C114,178.18,114.4,177.28,113.74,173.28Z"/><path d="M169.39,109.53c0-4.36.18-8.38,0-12.38a8.43,8.43,0,0,0-8.47-7.61c-14,0-27.93,0-41.9,0q-17.78,0-35.55,0c-2.48,0-4.06-1.35-4-3.34s1.56-3.28,4.09-3.28h79.38c0-3.28.6-6.44-.86-9.44a8.86,8.86,0,0,0-7.22-5.2,29.21,29.21,0,0,0-3.38-.14H85c-.78,0-1.56,0-2.33,0a3.27,3.27,0,0,1,0-6.54c.63-.06,1.27,0,1.9,0q34,0,67.94,0c10.47,0,17.05,6.57,17.11,17,0,.64,0,1.27,0,1.9-.28,3.11.17,5.7,2.88,8s3.56,5.84,3.6,9.41-.05,7.06.05,10.58a3.25,3.25,0,0,0,1,2.26,7.39,7.39,0,0,1,3,6.21c0,7,0,14,0,20.95a7.17,7.17,0,0,1-2.93,5.83,3.3,3.3,0,0,0-1.1,2.21c-.12,3.39,0,6.77,0,10.16,0,8.7-6.23,15.32-14.89,15.47-10.79.2-21.59.07-32.38,0-2.42,0-3.83-1.29-3.84-3.29s1.36-3.31,4-3.32h30.69c6.41,0,9.79-3.38,9.79-9.77V145c-.9-.05-1.65-.13-2.39-.13-5.36,0-10.72,0-16.08,0-10.13-.13-17.57-6.56-18.47-15.88a17.52,17.52,0,0,1,17.24-19.36c5.78-.1,11.57,0,17.35,0Zm-8.8,28.64c3.59,0,7.19-.06,10.78,0,1.67.05,2.2-.54,2.18-2.19q-.11-8.86,0-17.75c0-1.53-.41-2.1-2-2.08-7.12.07-14.24,0-21.35.07a12.69,12.69,0,0,0-4.52.91,10.86,10.86,0,0,0-6.46,12.05A11,11,0,0,0,150,138.15C153.54,138.27,157.07,138.17,160.59,138.17Z"/><path d="M67.45,68.17H6.86a13.84,13.84,0,0,0-.19,1.63q0,25.49,0,51c0,2.72,1.08,3.78,3.88,3.84,2.47,0,4.94,0,7.41,0,2.24.07,3.6,1.37,3.59,3.3a3.26,3.26,0,0,1-3.46,3.25c-2.89.1-5.79.12-8.67,0C3.72,130.87,0,126.87,0,121Q0,91.2,0,61.38c0-4.23,0-8.46,0-12.7a9.5,9.5,0,0,1,9.59-9.75q27.41-.13,54.81,0A9.46,9.46,0,0,1,74,48.67c.09,15.72.07,31.45.07,47.17,0,2.29-1.38,3.8-3.35,3.8s-3.3-1.5-3.31-3.86c0-8.32,0-16.64,0-25Zm0-6.92v-9c0-6.69-.09-6.77-6.68-6.77H23.32c-4.3,0-8.6,0-12.9,0-2.61,0-3.75,1.17-3.77,3.74,0,3.46,0,6.91,0,10.36a14.68,14.68,0,0,0,.18,1.61Z"/><path d="M77.39,27.43A27.3,27.3,0,1,1,105,54.61,27.31,27.31,0,0,1,77.39,27.43Zm47.44,2.7c-.68,0-1.37,0-2.06,0-5.71,0-11.42,0-17.14-.07-3.24,0-4.31-1.15-4.32-4.34,0-5.43,0-10.86,0-16.28V7.17C91.58,7.91,83.4,18.11,84,28.36c.7,11.37,10.27,20.17,21.36,19.65C115.48,47.54,125.08,38.82,124.83,30.13Zm-.09-6.67c-1.12-8.83-10-16.09-16.77-16.22,0,5.06,0,10.11.06,15.16,0,.36.9,1,1.4,1,2.11.11,4.23.05,6.35.05Z"/><path d="M30.54,156.51c-.81,2.39-.15,3.86,1.87,4.91,4.75,2.48,9.91,3.12,15.14,3.36,2.53.12,5.07-.16,7.6-.17,2.87,0,4.63,2.56,3.21,4.82a3.89,3.89,0,0,1-2.45,1.69c-8.23.82-16.35.33-24.14-2.69a21.24,21.24,0,0,1-5.09-3,8,8,0,0,1-3.12-6.84c.07-6.83.17-13.68,0-20.51-.12-4.29,1.81-7.1,5.33-9.09,4.9-2.77,10.3-3.78,15.8-4.2,3.09-.23,6.2-.15,9.3-.08,3.47.08,5,1.29,4.84,3.65s-1.65,3.14-5.08,3c-6-.29-12-.11-17.77,1.8a27.49,27.49,0,0,0-4.73,2.29c-1.05.59-1.09,1.58,0,2.12a40.13,40.13,0,0,0,6.55,2.81c5.55,1.6,11.27,1.58,17,1.27,2.76-.15,4.46,1.5,4,3.84a3.36,3.36,0,0,1-3.51,2.78c-8.08.44-16.07.11-23.72-2.92-.31-.12-.64-.2-1-.31-.74,2.89-.48,3.61,1.91,4.9a29.84,29.84,0,0,0,12.41,3.12c3.23.21,6.48.1,9.72,0,2.59,0,4.09,1,4.2,3.07s-1.23,3.4-3.82,3.57C46.69,160.32,38.52,159.77,30.54,156.51Z"/><path d="M116.77,72.23h32.77a9.13,9.13,0,0,1,1.89.06,3.07,3.07,0,0,1,2.71,2.82A3,3,0,0,1,152,78.56a7.18,7.18,0,0,1-2.27.28q-33,0-66,0a9.09,9.09,0,0,1-1.48,0,3.42,3.42,0,0,1-2.86-3.42,3.22,3.22,0,0,1,3.1-3.14,15.89,15.89,0,0,1,1.69,0Z"/><path d="M20.07,99.67c-2.55,0-4.25-1.3-4.24-3.39S17.38,93.05,19.9,93c1.69,0,3.3.08,4.19,1.81C25.4,97.34,23.53,99.59,20.07,99.67Z"/><path d="M37.07,115c-2.77,0-4.29-1.14-4.31-3.23s1.62-3.45,4.16-3.45c2.78,0,4.46,1.29,4.44,3.4S39.78,115,37.07,115Z"/><path d="M37.1,93c2.53,0,4.08,1.08,4.25,3.1a3.49,3.49,0,0,1-3.17,3.59c-2.94.38-5-.69-5.38-2.82S34.08,93,37.1,93Z"/><path d="M20,115c-2.5,0-4.11-1.26-4.16-3.21A3.51,3.51,0,0,1,19,108.35c3-.35,5,.65,5.45,2.72C24.89,113.45,23.12,115,20,115Z"/><path d="M53.93,93c2.64,0,4.24,1.22,4.28,3.28s-1.57,3.4-4.19,3.41-4.43-1.3-4.37-3.43S51.18,93,53.93,93Z"/><path d="M37,84.15c-2.77,0-4.29-1.2-4.28-3.3s1.67-3.36,4.3-3.34,4.32,1.37,4.3,3.37S39.69,84.17,37,84.15Z"/><path d="M54.27,115c-2.85,0-4.47-.8-4.5-2.66a5.08,5.08,0,0,1,1.5-3.37c1.21-1.15,4.6-.83,5.77.2A3.14,3.14,0,0,1,57.9,113,3.25,3.25,0,0,1,54.27,115Z"/><path d="M53.76,84.16c-2.53,0-4-1.21-4.12-3.24s1.59-3.38,4.2-3.41c3.06,0,4.75,1.63,4.2,4.12C57.64,83.42,56.36,84.17,53.76,84.16Z"/><path d="M20.13,84.16c-2.92,0-4.61-1.6-4.15-3.91.39-1.92,1.75-2.78,4.33-2.74,2.36,0,3.75,1,4.07,2.83C24.8,82.68,23.15,84.16,20.13,84.16Z"/><path d="M151,136.12a8.92,8.92,0,1,1-.06-17.83,8.92,8.92,0,0,1,.06,17.83Zm3.19-8.92c-1.49-1.07-2.28-2-3.22-2.23a2,2,0,0,0-2.32,2.1c-.05,1.43.85,2.55,2.3,2.32C151.93,129.25,152.73,128.26,154.23,127.2Z"/></g></g></g></svg>