<svg xmlns="http://www.w3.org/2000/svg" viewBox="0 0 203.6 182.77"><defs><style>.cls-1{fill:#fff;}</style></defs><g id="Layer_2" data-name="Layer 2"><g id="Layer_1-2" data-name="Layer 1"><path class="cls-1" d="M195.44,111.22q0,20.69,0,41.36c0,5.49.12,11,.14,16.48,0,4.19-1.41,5.6-5.63,5.6q-33.82,0-67.64,0a4,4,0,0,0-3.26,1.35c-4.81,5-10.93,6.84-17.67,6.76S88.65,180.55,84,175.42a3.1,3.1,0,0,0-2.08-.72q-33.83-.06-67.64,0c-4.87,0-6.16-1.21-6.15-6.08q0-49.5.09-99a5.58,5.58,0,0,1,2.75-5.13C19.42,59,28.84,56,38.69,54.2a98.63,98.63,0,0,1,45.85,2.2c5.49,1.63,10.64,4.35,16,6.48a3.28,3.28,0,0,0,2.44,0c15.85-8.5,32.85-11.14,50.59-10.08a87.27,87.27,0,0,1,32,7.76c2.4,1.12,4.65,2.54,7,3.82a5.4,5.4,0,0,1,2.87,5.24c-.05,13.85,0,27.7,0,41.55Zm-8.09,39.64c0-.37.07-.7.07-1q0-38.86.05-77.73a2.43,2.43,0,0,0-1.54-2.43c-12.21-6.54-25.38-9.06-39.08-9.08s-27,2.44-39.31,9a2.82,2.82,0,0,0-1.78,2.88q.08,34.4,0,68.78v9.69C133,139.18,160.07,139.18,187.35,150.86Zm-171.16,0c27.34-11.67,54.38-11.69,81.65,0v-2.35q0-36.28,0-72.57c0-5.84,0-5.81-5.33-8.22a82.34,82.34,0,0,0-30.21-7c-15.35-.75-30.12,1.51-44,8.57a3.38,3.38,0,0,0-2.16,3.49c.08,19.94,0,39.89,0,59.84Zm.29,15.56c.69,0,1.35.08,2,.09q10.85,0,21.68,0,21.87,0,43.75,0c2,0,3.9.24,5.1,2,2.91,4.32,7.22,5.89,12.12,6s9.51-.87,12.61-5a7.17,7.17,0,0,1,6.41-3.07q32.31.09,64.63,0h2.58c0-1.6-.1-2.86,0-4.11a2.62,2.62,0,0,0-1.78-3.09c-4.65-1.9-9.16-4.2-13.93-5.72-10-3.16-20.28-3.86-30.66-3.26-13.08.76-25.56,3.63-36.61,11.11a4.34,4.34,0,0,1-5.19,0c-1.17-.75-2.3-1.58-3.51-2.25A70.31,70.31,0,0,0,69.53,151c-16.68-2-32.93-.57-48.37,6.66-5.13,2.4-5.3,2.66-4.84,8.33C16.33,166.06,16.37,166.13,16.48,166.43Z"/><path class="cls-1" d="M0,52.5c.14-2.21,1.6-3.36,3.4-4.25L29,35.46C51.87,24,74.77,12.66,97.59,1.13a8.51,8.51,0,0,1,8.55,0q47,23.61,94,47c2.9,1.45,3.9,3.08,3.27,5.35a3.76,3.76,0,0,1-4.72,2.76A20.44,20.44,0,0,1,195,54.79Q149.28,31.93,103.54,9a3.48,3.48,0,0,0-3.5.07Q53.5,32.38,6.91,55.61C3.53,57.3.68,56.24.11,53.08.07,52.89,0,52.69,0,52.5Z"/></g></g></svg>