<svg xmlns="http://www.w3.org/2000/svg" viewBox="0 0 161.42 219.27"><defs><style>.cls-1{opacity:0.25;}</style></defs><g id="Layer_2" data-name="Layer 2"><g id="Layer_1-2" data-name="Layer 1"><g class="cls-1"><path d="M38,18.17c0-1.51,0-2.64,0-3.77.08-3.71,2-5.74,5.73-5.77Q54,8.54,64.4,8.64A3.39,3.39,0,0,0,67.57,7,15.86,15.86,0,0,1,93.83,7a3.55,3.55,0,0,0,3.4,1.68c6.42-.06,12.83,0,19.25,0,5.33,0,7,1.64,7,7V18c1,.05,1.84.12,2.7.13q10,0,20,0c9.33,0,15.25,5.87,15.25,15.23q0,85.28,0,170.57c0,9.59-5.81,15.3-15.37,15.3H15.42C5.85,219.27,0,213.57,0,204Q0,118.6,0,33.19c0-9.16,6-15,15.21-15q9.87,0,19.74,0Zm0,9.47H16.15c-5.38,0-6.69,1.33-6.69,6.81V203.08c0,5.43,1.35,6.81,6.73,6.81H145.35c5.22,0,6.62-1.42,6.62-6.68q0-84.44,0-168.88a21.85,21.85,0,0,0-.05-2.43,4.46,4.46,0,0,0-4.31-4.2c-7.88-.07-15.76,0-23.63.05-.13,0-.25.2-.5.42,0,.61,0,1.34,0,2.07,0,5.5-1.66,7.12-7.11,7.12H65.67c-7.31,0-14.62,0-21.93,0-3.67,0-5.7-2.1-5.78-5.76C37.94,30.38,38,29.18,38,27.64ZM44.23,14.9c0,4.66.13,9,0,13.23-.1,2.33.57,3,2.94,3,21.19-.09,42.37-.05,63.56-.05,6.52,0,6.52,0,6.52-6.62V14.9c-8.21,0-16-.1-23.78.06-2.15,0-3.08-.61-3.84-2.59a9,9,0,0,0-8.88-6A8.74,8.74,0,0,0,72,12.18c-.91,2.41-2.2,2.81-4.47,2.77C59.87,14.82,52.25,14.9,44.23,14.9Z"/><path d="M80.71,57.68H32.46a12.84,12.84,0,0,1-2.91-.2,4,4,0,0,1-.23-7.9,10.7,10.7,0,0,1,2.89-.26h98c3.19.08,5.18,1.75,5.12,4.31s-2,4-5.12,4c-10.07,0-20.15,0-30.22,0Z"/><path d="M80.47,77.43H32.94c-.73,0-1.46,0-2.19,0-2.85-.18-4.69-1.9-4.63-4.3s1.83-3.85,4.63-4c.65,0,1.3,0,2,0h96a15.64,15.64,0,0,1,2.91.14c2.13.41,3.57,1.62,3.65,3.91s-1.34,3.59-3.42,4.13a12.14,12.14,0,0,1-2.9.18Z"/><path d="M106.54,195.4V152.23h18.34V195.4Z"/><path d="M121,121.58l4.71,4.2-34.44,33L67,138.84,36.07,168.5l-4.65-4.25,35.24-33.83,24.24,20C101,140.69,111.07,131.05,121,121.58Z"/><path d="M58,195.39V157.67H76.29v37.72Z"/><path d="M82.25,195.34V167.26h18.32v28.08Z"/><path d="M56.87,97.1q-12.3,0-24.6,0a12.8,12.8,0,0,1-2.91-.2,3.88,3.88,0,0,1-3.21-3.53,3.72,3.72,0,0,1,2.67-4.15,10.27,10.27,0,0,1,3.33-.44q24.72,0,49.45,0h.49c3.42,0,5.46,1.65,5.43,4.25s-2,4.07-5.31,4.08C73.76,97.12,65.32,97.1,56.87,97.1Z"/><path d="M52.2,177.57v17.82H33.8V177.57Z"/><path d="M66.67,126.59c-2.82-4.88-5.44-9.41-8.23-14.22H74.86C72.16,117.06,69.52,121.63,66.67,126.59Z"/><path d="M129.55,103l-8.2,14.24c-2.81-4.85-5.44-9.42-8.22-14.24Z"/><path d="M80.71,19.86c6.24,0,12.49,0,18.74,0,2.85,0,4.24,1.11,4.16,3.22s-1.46,3.05-4.15,3.05H62c-.25,0-.49,0-.73,0C59,26,57.71,24.77,57.83,22.86c.13-2.08,1.41-3,3.4-3H80.71Z"/></g></g></g></svg>