<?xml version="1.0" encoding="utf-8"?>
<svg xmlns="http://www.w3.org/2000/svg" viewBox="0 0 50 50" width="500" height="500">
  <path d="M25.007812 1.9960938C21.888309 1.9960936 19.852235 4.368443 18.671875 6.515625C17.614748 8.4386345 17.152417 10.253144 17.0625 10.628906 A 1.0001 1.0001 0 0 0 17.410156 11.824219L18.925781 13.341797C15.962406 14.371216 12.903696 16.315521 11.080078 20.609375C8.9955007 25.517184 4.0488281 40.689453 4.0488281 40.689453 A 1.0001 1.0001 0 0 0 4.6835938 41.949219L10.683594 43.949219 A 1.0001 1.0001 0 0 0 11.894531 43.447266L13.572266 40.089844L13.003906 46.916016 A 1.0001 1.0001 0 0 0 14 48L36 48 A 1.0001 1.0001 0 0 0 36.996094 46.916016L36.427734 40.089844L38.105469 43.447266 A 1.0001 1.0001 0 0 0 39.316406 43.949219L45.316406 41.949219 A 1.0001 1.0001 0 0 0 45.951172 40.689453C45.951172 40.689453 41.001259 25.462959 38.919922 20.605469C37.080154 16.311374 34.00456 14.373143 31.070312 13.34375L32.589844 11.824219 A 1.0001 1.0001 0 0 0 32.939453 10.632812C32.850875 10.253734 32.397238 8.4414823 31.347656 6.5195312C30.174263 4.3709461 28.137779 1.9960937 25.007812 1.9960938 z M 25.007812 3.9960938C27.119847 3.9960937 28.579643 5.6231476 29.591797 7.4765625C29.91409 8.066733 30.133632 8.5832792 30.314453 9.0527344C28.973199 8.52169 27.123735 8 25 8C22.883099 8 21.03946 8.5176109 19.699219 9.046875C19.881199 8.5797121 20.101455 8.0668956 20.423828 7.4804688C21.443468 5.6256506 22.911316 3.9960937 25.007812 3.9960938 z M 25 10C27.275532 10 29.2061 10.704828 30.345703 11.240234L24.996094 16.589844L19.654297 11.240234C20.7939 10.704828 22.724468 10 25 10 z M 29.529297 14.884766 A 1.0001 1.0001 0 0 0 29.712891 14.957031C32.568017 15.814044 35.317322 17.280185 37.080078 21.394531C38.902495 25.647745 43.217604 38.790565 43.734375 40.367188L39.505859 41.777344L35.980469 34.724609L34.996094 22.916016 A 1.0001 1.0001 0 1 0 33.003906 23.083984L33.998047 35L30 35 A 1.0001 1.0001 0 1 0 30 37L34.164062 37L34.914062 46L15.085938 46L15.835938 37L20 37 A 1.0001 1.0001 0 1 0 20 35L16.001953 35L16.996094 23.083984 A 1.0001 1.0001 0 0 0 15.96875 21.986328 A 1.0001 1.0001 0 0 0 15.003906 22.916016L14.019531 34.724609L10.494141 41.777344L6.2792969 40.371094C6.7136236 39.04799 11.066232 25.754845 12.919922 21.390625C14.668106 17.274386 17.391487 15.814909 20.283203 14.958984 A 1.0001 1.0001 0 0 0 20.46875 14.886719L20.470703 14.886719L24.289062 18.710938 A 1.0001 1.0001 0 0 0 25.703125 18.710938L29.529297 14.884766 z M 25 21 A 1 1 0 0 0 25 23 A 1 1 0 0 0 25 21 z M 25 25 A 1 1 0 0 0 25 27 A 1 1 0 0 0 25 25 z M 25 29 A 1 1 0 0 0 25 31 A 1 1 0 0 0 25 29 z M 25 33 A 1 1 0 0 0 25 35 A 1 1 0 0 0 25 33 z M 25 37 A 1 1 0 0 0 25 39 A 1 1 0 0 0 25 37 z M 25 41 A 1 1 0 0 0 25 43 A 1 1 0 0 0 25 41 z" fill="#3B80C3" />
</svg>