<svg xmlns="http://www.w3.org/2000/svg" viewBox="0 0 59.13 59.13"><defs><style>.cls-1{fill:#fff;}.cls-2{fill:none;stroke:#fff;stroke-miterlimit:10;stroke-width:2px;}</style></defs><g id="Layer_2" data-name="Layer 2"><g id="Layer_1-2" data-name="Layer 1"><path class="cls-1" d="M29.58,43.86H13c-2.12,0-3.11-1-3.11-3.09V19.66c0-2.22,1-3.17,3.16-3.17H46.22c2,0,3,1,3,3q0,10.61,0,21.22c0,2.17-1,3.17-3.18,3.17H29.58ZM14.17,19.11c.25.24.37.37.5.47,4.66,3.79,9.33,7.56,14,11.37.68.56,1.14.36,1.72-.12q6.74-5.55,13.51-11.06a3.8,3.8,0,0,1,.75-.39l-.27-.27ZM14,41.17H45.23L33.55,31.65c-1.07.87-2,1.64-3,2.45a1.39,1.39,0,0,1-2.06,0c-1-.83-2-1.61-3-2.44ZM46.56,21,35.5,30l11.06,9ZM12.63,38.88,23.45,30,12.63,21.18Z"/><rect class="cls-2" x="1" y="1" width="57.13" height="57.13" rx="6.07"/></g></g></svg>