<?xml version="1.0" encoding="utf-8"?>
<svg xmlns="http://www.w3.org/2000/svg" viewBox="0 0 50 50" width="500" height="500">
  <path d="M16 4C14.416667 4 13.101892 4.6297556 12.251953 5.5859375C11.402014 6.5421194 11 7.7777779 11 9C11 10.222222 11.402014 11.457881 12.251953 12.414062C13.101892 13.370245 14.416667 14 16 14C17.583333 14 18.898108 13.370244 19.748047 12.414062C20.597986 11.457882 21 10.222222 21 9C21 7.7777779 20.597986 6.5421194 19.748047 5.5859375C18.898108 4.6297556 17.583333 4 16 4 z M 16 6C17.083333 6 17.768559 6.3702444 18.251953 6.9140625C18.735347 7.4578806 19 8.2222221 19 9C19 9.7777779 18.735347 10.542119 18.251953 11.085938C17.768559 11.629755 17.083333 12 16 12C14.916667 12 14.231441 11.629756 13.748047 11.085938C13.264653 10.542118 13 9.7777779 13 9C13 8.2222221 13.264653 7.4578806 13.748047 6.9140625C14.231441 6.3702444 14.916667 6 16 6 z M 10.806641 13.830078C10.573897 13.829448 10.342588 13.843844 10.113281 13.875C8.2788259 14.124247 6.5455271 15.397141 5.9316406 17.453125 A 1.0001 1.0001 0 0 0 5.9316406 17.455078L3.2421875 26.472656L3.1816406 26.671875 A 1.0001 1.0001 0 0 0 3.1757812 26.697266C2.5237978 29.092078 3.8077296 31.489226 6 32.474609L6 43.5C6 44.583333 6.4422556 45.523108 7.1171875 46.123047C7.7921194 46.722986 8.6527779 47 9.5 47C10.347222 47 11.207881 46.722986 11.882812 46.123047C12.557745 45.523108 13 44.583333 13 43.5L13 28.705078L13.839844 26.0625L16.882812 29.105469C18.04329 30.268643 19.95671 30.268643 21.117188 29.105469 A 1.0001 1.0001 0 0 0 21.119141 29.103516C21.678265 28.540188 21.99522 27.78008 22 26.986328 A 1.0001 1.0001 0 0 0 22 26.976562C21.9978 26.181435 21.678005 25.419125 21.113281 24.859375L21.119141 24.863281L18.113281 21.849609L15.376953 16.726562L15.375 16.722656 A 1.0003096 1.0003096 0 0 0 15.355469 16.685547L15.351562 16.679688L15.144531 16.285156 A 1.0001 1.0001 0 0 0 15.013672 16.095703C14.008799 14.586264 12.394106 13.834374 10.806641 13.830078 z M 10.806641 15.826172C11.796435 15.818661 12.769997 16.263421 13.402344 17.271484 A 1.0001 1.0001 0 0 0 13.498047 17.398438 A 1.0001 1.0001 0 0 0 13.5 17.404297L13.445312 17.349609L13.583984 17.615234 A 1.0001 1.0001 0 0 0 13.587891 17.621094 A 1.0003096 1.0003096 0 0 0 13.591797 17.628906L16.417969 22.921875 A 1.0001 1.0001 0 0 0 16.591797 23.15625L19.701172 26.275391 A 1.0001 1.0001 0 0 0 19.705078 26.279297C19.891743 26.464318 19.996126 26.715833 19.998047 26.978516C19.995247 27.247745 19.888962 27.504108 19.699219 27.695312C19.303253 28.090141 18.694069 28.089566 18.298828 27.693359 A 1.0001 1.0001 0 0 0 18.296875 27.693359L14.615234 24.011719L14.439453 23.675781L14.439453 23.673828 A 1.0001 1.0001 0 0 0 14.230469 23.277344L11.886719 18.787109 A 1.0002693 1.0002693 0 1 0 10.113281 19.712891L12.380859 24.054688L11.046875 28.246094 A 1.0001 1.0001 0 0 0 11 28.550781L11 43.5C11 44.083333 10.817256 44.393559 10.554688 44.626953C10.292118 44.860347 9.9027779 45 9.5 45C9.0972221 45 8.7078806 44.860347 8.4453125 44.626953C8.1827444 44.393559 8 44.083333 8 43.5L8 31.869141 A 1.0001 1.0001 0 0 0 7.2480469 30.900391C5.6200069 30.484488 4.6640767 28.843971 5.1054688 27.222656L5.1582031 27.046875 A 1.0001 1.0001 0 0 0 5.1582031 27.044922L7.8476562 18.025391C8.2367514 16.722262 9.2537336 16.010829 10.382812 15.857422C10.523948 15.838246 10.665241 15.827245 10.806641 15.826172 z M 41 19C39.416667 19 38.101892 19.629756 37.251953 20.585938C36.402014 21.542119 36 22.777778 36 24C36 25.222222 36.402014 26.457882 37.251953 27.414062C38.101892 28.370244 39.416667 29 41 29C42.583333 29 43.898108 28.370244 44.748047 27.414062C45.597986 26.457881 46 25.222222 46 24C46 22.777778 45.597986 21.542118 44.748047 20.585938C43.898108 19.629756 42.583333 19 41 19 z M 41 21C42.083333 21 42.768559 21.370244 43.251953 21.914062C43.735347 22.457881 44 23.222222 44 24C44 24.777778 43.735347 25.542118 43.251953 26.085938C42.768559 26.629756 42.083333 27 41 27C39.916667 27 39.231441 26.629756 38.748047 26.085938C38.264653 25.542119 38 24.777778 38 24C38 23.222222 38.264653 22.457882 38.748047 21.914062C39.231441 21.370244 39.916667 21 41 21 z M 25.933594 27.986328C24.543743 28.012281 23.3006 29.024325 23.046875 30.441406C22.75296 32.055044 23.831812 33.626476 25.443359 33.931641 A 1.0001 1.0001 0 0 0 25.447266 33.933594L33.304688 35.400391L31.828125 37.699219L31.492188 37.412109 A 1.0001 1.0001 0 0 0 31.490234 37.410156C30.263055 36.360506 28.718737 35.907717 27.21875 36.023438C25.718763 36.139156 24.262636 36.823318 23.210938 38.048828L21.539062 40L18.416016 40C16.598295 39.96051 15.023637 41.302664 14.773438 43.103516 A 1.0001 1.0001 0 0 0 14.767578 43.138672C14.555444 45.187333 16.190377 46.999142 18.25 47L35 47C36.700939 47.000817 38.287695 46.130856 39.203125 44.697266 A 1.0001 1.0001 0 0 0 39.207031 44.691406L41 41.832031L41 43.867188C40.96684 45.437398 42.142254 46.793498 43.701172 46.984375 A 1.0001 1.0001 0 0 0 43.742188 46.988281C45.474 47.129613 46.988045 45.745346 47 44.007812 A 1.0001 1.0001 0 0 0 47 44L47 38.826172C46.9987 38.105943 46.842662 37.393198 46.542969 36.738281C45.842089 35.19519 44.441102 32.092246 42.304688 30.667969 A 1.0001 1.0001 0 0 0 42.265625 30.642578C41.670595 30.283965 41.029033 30.061879 40.378906 29.966797C39.668326 29.862873 38.948711 29.914856 38.265625 30.103516L26.537109 28.037109L26.535156 28.037109C26.333044 27.998866 26.132144 27.982621 25.933594 27.986328 z M 26.164062 30.001953 A 1.0001 1.0001 0 0 0 26.175781 30.003906L35.748047 31.691406C35.583556 31.882857 35.430751 32.088572 35.292969 32.308594L34.472656 33.583984L25.816406 31.966797L25.814453 31.966797C25.261099 31.861067 24.912671 31.35334 25.013672 30.798828 A 1.0001 1.0001 0 0 0 25.013672 30.794922C25.111262 30.244871 25.615232 29.897712 26.164062 30.001953 z M 39.480469 31.908203C40.066401 31.884403 40.667305 32.030112 41.212891 32.353516C42.418599 33.174074 44.070851 36.133327 44.722656 37.568359 A 1.0001 1.0001 0 0 0 44.724609 37.570312C44.905327 37.965232 44.999197 38.393821 45 38.828125L45 43.992188C44.9959 44.587733 44.516167 45.023014 43.925781 44.988281C43.381677 44.909737 42.988328 44.46082 43 43.908203 A 1.0001 1.0001 0 0 0 43 43.888672L43 40 A 1.0001 1.0001 0 0 0 42.876953 39.521484L42.398438 38.640625L41.376953 36.771484 A 1.0001 1.0001 0 1 0 39.623047 37.728516L40.361328 39.083984L37.517578 43.621094C36.968358 44.48119 36.020494 45.00049 35 45L18.25 45C17.350656 44.999625 16.682612 44.253641 16.763672 43.361328C16.885475 42.560675 17.560856 41.982355 18.373047 42 A 1.0001 1.0001 0 0 0 18.394531 42L30.980469 42 A 1.0001 1.0001 0 0 0 31.865234 41.464844C31.865234 41.464844 32.313254 40.633635 32.472656 40.394531 A 1.0001 1.0001 0 0 0 32.480469 40.380859L32.791016 39.898438 A 1.0001 1.0001 0 0 0 32.984375 39.597656L36.980469 33.380859 A 1.0001 1.0001 0 0 0 36.988281 33.371094C37.388587 32.731853 37.982456 32.299661 38.640625 32.078125 A 1.0005668 1.0005668 0 0 0 38.642578 32.076172C38.72925 32.047134 38.813521 32.009497 38.902344 31.988281C39.091831 31.94302 39.285158 31.916137 39.480469 31.908203 z M 27.371094 38.003906C28.357057 37.927697 29.372487 38.230902 30.189453 38.929688L30.740234 39.404297C30.612072 39.609797 30.520012 39.778619 30.400391 40L24.173828 40L24.728516 39.351562C25.428634 38.535739 26.38513 38.080115 27.371094 38.003906 z" fill="#3b80c3" />
</svg>