<?xml version="1.0" encoding="utf-8"?>
<svg xmlns="http://www.w3.org/2000/svg" viewBox="0 0 80 80" width="480" height="480">
  <path d="M42.953125 6.988281C42.589844 7.007813 42.265625 7.222656 42.105469 7.554688L38.257813 15.25C37.4375 15.457031 33.035156 16.6875 30.203125 22.144531L30.175781 22.1875L29.429688 24.0625C29.3125 24.019531 29.1875 24 29.0625 24C26.335938 24 23.914063 25.367188 22.453125 27.449219L14.371094 38.175781L9.628906 40.074219C9.28125 40.195313 9.03125 40.496094 8.972656 40.859375C8.914063 41.222656 9.0625 41.585938 9.351563 41.808594C9.644531 42.035156 10.035156 42.078125 10.371094 41.925781L15.371094 39.925781C15.539063 39.859375 15.6875 39.746094 15.796875 39.601563L24.074219 28.625C24.082031 28.613281 24.085938 28.605469 24.09375 28.59375C25.117188 27.132813 26.761719 26.152344 28.648438 26.027344L24.6875 35.953125L17.953125 43.203125L18.660156 43.882813C18.660156 43.882813 19.394531 44.589844 20.628906 45.777344C22.386719 47.460938 24.992188 47.617188 27.476563 46.949219C29.960938 46.28125 32.449219 44.796875 34.328125 42.84375C34.777344 42.371094 35.367188 41.53125 36.207031 40.328125C37.050781 39.125 38.0625 37.640625 39.035156 36.195313C40.832031 33.527344 42.242188 31.382813 42.496094 31L65 31C65.003906 31 65.003906 31 65.007813 31C67.222656 31.003906 69 32.78125 69 35C69 37.21875 67.21875 39 65 39L63 39C62.453125 39.007813 62.015625 39.453125 62.015625 40C62.015625 40.546875 62.453125 40.992188 63 41C65.21875 41 67 42.78125 67 45C67 47.21875 65.21875 49 63 49L62 49C61.453125 49.007813 61.015625 49.453125 61.015625 50C61.015625 50.546875 61.453125 50.992188 62 51C64.21875 51 66 52.78125 66 55C66 56.90625 64.675781 58.476563 62.902344 58.886719C62.519531 58.976563 62.222656 59.277344 62.148438 59.664063C62.070313 60.046875 62.222656 60.441406 62.542969 60.671875C63.425781 61.3125 64 62.328125 64 63.5C64 65.445313 62.445313 67 60.5 67L55 67L55 64C55 61.25 52.75 59 50 59C48.324219 59 46.910156 59.886719 46 61.160156C45.089844 59.886719 43.675781 59 42 59C40.324219 59 38.910156 59.886719 38 61.160156C37.089844 59.886719 35.675781 59 34 59C32.324219 59 30.910156 59.886719 30 61.160156C29.089844 59.886719 27.675781 59 26 59C23.25 59 21 61.25 21 64L21 67L10 67C9.640625 66.996094 9.304688 67.183594 9.121094 67.496094C8.941406 67.808594 8.941406 68.191406 9.121094 68.503906C9.304688 68.816406 9.640625 69.003906 10 69L21.425781 69C22.203125 70.761719 23.960938 72 26 72C27.675781 72 29.089844 71.113281 30 69.839844C30.910156 71.113281 32.324219 72 34 72C35.675781 72 37.089844 71.113281 38 69.839844C38.910156 71.113281 40.324219 72 42 72C43.675781 72 45.089844 71.113281 46 69.839844C46.910156 71.113281 48.324219 72 50 72C52.039063 72 53.796875 70.761719 54.574219 69L60.5 69C63.527344 69 66 66.527344 66 63.5C66 62.242188 65.46875 61.175781 64.753906 60.25C66.664063 59.246094 68 57.300781 68 55C68 53.078125 67.027344 51.4375 65.609375 50.339844C67.597656 49.355469 69 47.355469 69 45C69 43.242188 68.203125 41.695313 66.992188 40.59375C69.308594 39.765625 71 37.597656 71 35C71 32.15625 69 29.769531 66.335938 29.15625L66.808594 27.734375C67.558594 25.484375 67.207031 23.070313 66.046875 21.015625L67.949219 15.316406C68.054688 15.011719 68.007813 14.675781 67.824219 14.410156C67.636719 14.144531 67.335938 13.988281 67.011719 13.984375C66.574219 13.984375 66.183594 14.265625 66.050781 14.683594L63.613281 22L64.335938 22C65.210938 23.558594 65.484375 25.394531 64.910156 27.105469L64.28125 29L42.136719 29C41.734375 28.933594 41.332031 29.113281 41.121094 29.457031C41.121094 29.457031 39.316406 32.195313 37.375 35.078125C36.40625 36.519531 35.398438 37.996094 34.570313 39.179688C33.742188 40.363281 33 41.335938 32.886719 41.457031C31.273438 43.132813 29.035156 44.460938 26.957031 45.015625C24.882813 45.574219 23.089844 45.363281 22.015625 44.332031C21.226563 43.574219 21.074219 43.425781 20.753906 43.121094L26.40625 37.042969L31.984375 23.054688C34.703125 17.835938 39.195313 16.980469 39.195313 16.980469L39.675781 16.886719L43.894531 8.445313C44.058594 8.128906 44.042969 7.746094 43.847656 7.445313C43.652344 7.144531 43.3125 6.96875 42.953125 6.988281 Z M 57 17C56.449219 17 56 17.449219 56 18C56 18.550781 56.449219 19 57 19C57.550781 19 58 18.550781 58 18C58 17.449219 57.550781 17 57 17 Z M 61 18C60.449219 18 60 18.449219 60 19C60 19.550781 60.449219 20 61 20C61.550781 20 62 19.550781 62 19C62 18.449219 61.550781 18 61 18 Z M 55 39C54.449219 39 54 39.449219 54 40C54 40.550781 54.449219 41 55 41C55.550781 41 56 40.550781 56 40C56 39.449219 55.550781 39 55 39 Z M 59 39C58.449219 39 58 39.449219 58 40C58 40.550781 58.449219 41 59 41C59.550781 41 60 40.550781 60 40C60 39.449219 59.550781 39 59 39 Z M 58 49C57.449219 49 57 49.449219 57 50C57 50.550781 57.449219 51 58 51C58.550781 51 59 50.550781 59 50C59 49.449219 58.550781 49 58 49 Z M 59 59C58.449219 59 58 59.449219 58 60C58 60.550781 58.449219 61 59 61C59.550781 61 60 60.550781 60 60C60 59.449219 59.550781 59 59 59 Z M 26 61C27.667969 61 29 62.332031 29 64C29.007813 64.546875 29.453125 64.984375 30 64.984375C30.546875 64.984375 30.992188 64.546875 31 64C31 62.332031 32.332031 61 34 61C35.667969 61 37 62.332031 37 64C37 64.035156 37.003906 64.066406 37.003906 64.097656C37.011719 64.164063 37.027344 64.230469 37.046875 64.296875C37.070313 64.359375 37.097656 64.421875 37.128906 64.480469C37.160156 64.535156 37.199219 64.589844 37.246094 64.640625C37.355469 64.769531 37.492188 64.863281 37.652344 64.921875C37.714844 64.945313 37.777344 64.964844 37.84375 64.972656C37.875 64.980469 37.910156 64.984375 37.941406 64.984375C38.011719 64.988281 38.078125 64.984375 38.140625 64.976563C38.175781 64.972656 38.207031 64.964844 38.238281 64.957031C38.304688 64.941406 38.367188 64.917969 38.429688 64.890625C38.460938 64.875 38.488281 64.859375 38.515625 64.84375C38.601563 64.789063 38.679688 64.726563 38.746094 64.652344C38.789063 64.601563 38.828125 64.546875 38.863281 64.488281C38.929688 64.375 38.976563 64.246094 38.992188 64.113281C38.996094 64.074219 39 64.039063 39 64C39 62.332031 40.332031 61 42 61C43.667969 61 45 62.332031 45 64C45 64.035156 45.003906 64.066406 45.003906 64.097656C45.011719 64.132813 45.015625 64.167969 45.023438 64.199219C45.082031 64.464844 45.242188 64.691406 45.46875 64.835938C45.5 64.851563 45.527344 64.867188 45.558594 64.882813C45.589844 64.898438 45.617188 64.910156 45.652344 64.921875C45.714844 64.945313 45.777344 64.964844 45.84375 64.972656C45.875 64.980469 45.910156 64.984375 45.941406 64.984375C45.976563 64.984375 46.011719 64.984375 46.042969 64.984375C46.109375 64.980469 46.175781 64.972656 46.238281 64.957031C46.304688 64.941406 46.367188 64.917969 46.429688 64.890625C46.488281 64.859375 46.546875 64.824219 46.597656 64.785156C46.625 64.765625 46.652344 64.746094 46.675781 64.722656C46.777344 64.632813 46.855469 64.523438 46.910156 64.402344C46.925781 64.371094 46.9375 64.339844 46.949219 64.308594C46.957031 64.273438 46.96875 64.242188 46.972656 64.210938C46.980469 64.179688 46.988281 64.144531 46.992188 64.113281C46.996094 64.074219 47 64.039063 47 64C47 62.332031 48.332031 61 50 61C51.667969 61 53 62.332031 53 64L53 67C53 68.667969 51.667969 70 50 70C48.332031 70 47 68.667969 47 67C47 66.964844 46.996094 66.933594 46.996094 66.902344C46.988281 66.835938 46.972656 66.769531 46.953125 66.703125C46.929688 66.640625 46.902344 66.578125 46.871094 66.519531C46.839844 66.464844 46.800781 66.410156 46.753906 66.359375C46.691406 66.285156 46.613281 66.21875 46.53125 66.164063C46.5 66.148438 46.472656 66.132813 46.441406 66.117188C46.410156 66.101563 46.382813 66.089844 46.347656 66.078125C46.316406 66.066406 46.285156 66.054688 46.253906 66.046875C46.15625 66.023438 46.058594 66.011719 45.957031 66.015625C45.890625 66.019531 45.824219 66.027344 45.761719 66.042969C45.726563 66.050781 45.695313 66.0625 45.664063 66.074219C45.632813 66.082031 45.601563 66.097656 45.570313 66.109375C45.480469 66.152344 45.394531 66.210938 45.324219 66.277344C45.25 66.347656 45.1875 66.425781 45.136719 66.511719C45.121094 66.539063 45.105469 66.570313 45.089844 66.597656C45.074219 66.628906 45.0625 66.660156 45.050781 66.691406C45.042969 66.726563 45.03125 66.757813 45.027344 66.789063C45.011719 66.855469 45 66.917969 45 66.984375C45 66.992188 45 66.996094 45 67C45 68.667969 43.667969 70 42 70C40.332031 70 39 68.667969 39 67C39 66.964844 38.996094 66.933594 38.996094 66.902344C38.988281 66.867188 38.984375 66.832031 38.976563 66.800781C38.960938 66.734375 38.941406 66.671875 38.917969 66.609375C38.835938 66.425781 38.699219 66.269531 38.53125 66.164063C38.269531 66.003906 37.953125 65.96875 37.664063 66.074219C37.601563 66.09375 37.539063 66.125 37.484375 66.15625C37.425781 66.191406 37.371094 66.230469 37.324219 66.277344C37.273438 66.324219 37.230469 66.375 37.1875 66.425781C37.171875 66.453125 37.152344 66.484375 37.136719 66.511719C37.121094 66.539063 37.105469 66.570313 37.089844 66.597656C37.0625 66.660156 37.039063 66.722656 37.027344 66.789063C37.011719 66.855469 37 66.917969 37 66.984375C37 66.992188 37 66.996094 37 67C37 68.667969 35.667969 70 34 70C32.332031 70 31 68.667969 31 67C30.992188 66.453125 30.546875 66.015625 30 66.015625C29.453125 66.015625 29.007813 66.453125 29 67C29 68.667969 27.667969 70 26 70C24.332031 70 23 68.667969 23 67L23 64C23 62.332031 24.332031 61 26 61Z" fill="#000000" />
</svg>