<?xml version="1.0" encoding="utf-8"?>
<svg xmlns="http://www.w3.org/2000/svg" viewBox="0 0 50 50" width="500" height="500">
  <path d="M39 0L39 2L46.5625 2L34 14.5625L30.71875 11.28125L30 10.59375L29.28125 11.28125L18 22.5625L14.71875 19.28125L14 18.59375L13.28125 19.28125L0.28125 32.28125L1.71875 33.71875L14 21.4375L17.28125 24.71875L18 25.40625L18.71875 24.71875L30 13.4375L33.28125 16.71875L34 17.40625L34.71875 16.71875L48 3.4375L48 11L50 11L50 0 Z M 42 14L42 50L44 50L44 14 Z M 48 15L48 50L50 50L50 15 Z M 30 20L30 50L32 50L32 20 Z M 36 20L36 50L38 50L38 20 Z M 24 24L24 50L26 50L26 24 Z M 12 28L12 50L14 50L14 28 Z M 18 30L18 50L20 50L20 30 Z M 6 34L6 50L8 50L8 34 Z M 0 38L0 50L2 50L2 38Z" fill="#3b80c3" />
</svg>