<svg xmlns="http://www.w3.org/2000/svg" viewBox="0 0 59.13 59.13"><defs><style>.cls-1{fill:none;stroke-width:2px;}.cls-1,.cls-2{stroke:#fff;stroke-miterlimit:10;}.cls-2{fill:#fff;stroke-width:0.5px;}</style></defs><g id="Layer_2" data-name="Layer 2"><g id="Layer_1-2" data-name="Layer 1"><rect class="cls-1" x="1" y="1" width="57.13" height="57.13" rx="6.07"/><path class="cls-2" d="M32.92,25.51a4.82,4.82,0,0,1,3.81-1.38c1,0,2.05,0,3.08,0a6.54,6.54,0,0,1,6,5.24A8.54,8.54,0,0,1,46,30.83c0,4.3,0,8.6,0,12.9,0,.61-.19.8-.8.8H39.07c-.61,0-.8-.19-.8-.79,0-3.74,0-7.48,0-11.22A2.62,2.62,0,0,0,36.68,30,2.67,2.67,0,0,0,33,31.78a2.07,2.07,0,0,0,0,.5V43.92a.59.59,0,0,1-.63.61H26c-.53,0-.73-.2-.73-.73V24.93c0-.55.21-.76.77-.76h6.14c.56,0,.77.21.77.78Zm-1.2,17.81V32.22c0-.11,0-.22,0-.32a3.89,3.89,0,0,1,7.74.52v10.9h5.29V30.7a6,6,0,0,0-.1-1,5.27,5.27,0,0,0-4.86-4.3c-1.11-.06-2.24,0-3.36,0a3.73,3.73,0,0,0-2.92,1.31l-.73.83a.58.58,0,0,1-.66.2.6.6,0,0,1-.41-.58V25.63a1.85,1.85,0,0,0,0-.24H26.44V43.32Z"/><path class="cls-2" d="M15.38,34.36V24.94c0-.56.21-.77.76-.77h6.17c.54,0,.76.22.76.75V43.79c0,.53-.21.74-.75.74h-6.2c-.54,0-.74-.2-.74-.75Zm6.48-9H16.59V43.32h5.27Z"/><path class="cls-2" d="M15.26,18.55a4,4,0,1,1,4,4A4,4,0,0,1,15.26,18.55Zm6.73,0a2.77,2.77,0,1,0-2.78,2.75A2.77,2.77,0,0,0,22,18.57Z"/></g></g></svg>