<svg xmlns="http://www.w3.org/2000/svg" viewBox="0 0 56.61 56.61"><defs><style>.cls-1{fill:#ff9433;}.cls-2{fill:#fff;stroke:#fff;stroke-miterlimit:10;}</style></defs><g id="Layer_2" data-name="Layer 2"><g id="Layer_1-2" data-name="Layer 1"><rect class="cls-1" width="56.61" height="56.61" rx="6.07"/><path class="cls-2" d="M37.19,33.36c1.53,0,2.92,0,4.3,0a1,1,0,0,1,.74.41q3.56,7.38,7.05,14.8c.06.12.1.24.18.42H7.83c.14-.3.24-.55.36-.79C10.45,43.47,12.72,38.73,15,34a.91.91,0,0,1,1-.63c1.43,0,2.86,0,4.42,0-.81-1.19-1.57-2.26-2.3-3.35A14.43,14.43,0,0,1,16,19.18a12.94,12.94,0,0,1,25.2-1.84,14.82,14.82,0,0,1-1.1,11.71c-.67,1.23-1.56,2.35-2.35,3.52Zm-8.42,9.69.37-.49C32.09,38.29,35,34,38,29.77a13.27,13.27,0,0,0,1.91-11.84,10.91,10.91,0,0,0-8.63-8.14,11.11,11.11,0,0,0-11.16,3.56c-3.83,4.19-4.11,11.31-.72,16.2L26.63,40C27.32,41,28,42,28.77,43.05Zm0,2.41-.6-.83c-2.17-3.15-4.35-6.29-6.51-9.44a1,1,0,0,0-.9-.48c-1.35,0-2.69,0-4,0a.82.82,0,0,0-.88.58c-1.49,3.16-3,6.31-4.5,9.47-.45.94-.89,1.87-1.36,2.88H47.25a1.07,1.07,0,0,0,0-.24q-2.91-6.15-5.86-12.29a1,1,0,0,0-.7-.37c-1.28,0-2.55,0-3.83,0a1,1,0,0,0-1,.52c-1.1,1.61-2.21,3.2-3.32,4.8Z"/><path class="cls-2" d="M28.84,25.84A4.76,4.76,0,1,1,29,16.33a4.76,4.76,0,1,1-.12,9.51Zm3.45-4.76a3.4,3.4,0,1,0-6.79,0,3.4,3.4,0,0,0,6.79,0Z"/></g></g></svg>