<svg xmlns="http://www.w3.org/2000/svg" viewBox="0 0 182.02 47.94"><defs><style>.cls-1,.cls-3{fill:#fff;}.cls-2,.cls-5{fill:none;}.cls-2,.cls-3{stroke:#fff;stroke-width:1.9px;}.cls-2,.cls-3,.cls-4{stroke-miterlimit:10;}.cls-4{fill:#3981c1;stroke:#3981c1;stroke-width:0.48px;}</style></defs><g id="Layer_2" data-name="Layer 2"><g id="Layer_1-2" data-name="Layer 1"><path class="cls-1" d="M6.49,38.47A8.31,8.31,0,0,1,4.94,33a18.39,18.39,0,0,1,.4-3.8,22.43,22.43,0,0,1,.72-2.74l.5-1.52.84.51c-.05.12-.15.41-.29.88a14.62,14.62,0,0,0-.42,1.77,12.14,12.14,0,0,0-.2,2.19c0,2.05.54,3.42,1.63,4.12a7.52,7.52,0,0,0,4.12,1,15.54,15.54,0,0,0,6.39-1.5,19.26,19.26,0,0,0,5.67-3.81,7.14,7.14,0,0,0-.69-2.25,11.37,11.37,0,0,0-1-1.74c-.31-.42-.56-.75-.76-1l1.27-4.84c.24.31.55.75.94,1.3a12.67,12.67,0,0,1,1.19,2.33,8.14,8.14,0,0,1,.61,3.12,21,21,0,0,1-.32,3.06,9.59,9.59,0,0,1-1.09,3.27,11.4,11.4,0,0,1-2.85,2.85,21.64,21.64,0,0,1-5,2.8,15.38,15.38,0,0,1-5.82,1.17A5.32,5.32,0,0,1,6.49,38.47Zm8.35-13.66,2.56,2.53L15,29.8l-2.6-2.6Z" transform="translate(7.03 -2.19)"/><path class="cls-1" d="M30.78,32.51c-.08,0-.14,0-.16,0l-.32-2.56c-.17-1.21-.37-2.37-.58-3.49s-.45-2.23-.69-3.34l-.4-1.84-1.48-6.65a9.12,9.12,0,0,1,.65-2.13c.48-1.32.82-2.23,1-2.71l2.5,5a1.27,1.27,0,0,1,0,.79,9.65,9.65,0,0,1-.38,1.23l-.34.87c.55,2.6.94,4.48,1.15,5.63s.41,2.63.58,4.41a5,5,0,0,1-.23,1.77c-.21.72-.42,1.37-.65,1.95L31,32.51Z" transform="translate(7.03 -2.19)"/><path class="cls-1" d="M20,41.47l4.39-1.86c1.72-.74,3.07-1.34,4-1.79A74.92,74.92,0,0,0,36.8,33.3,12.94,12.94,0,0,0,36,31.35c-.39-.74-.76-1.41-1.12-2s-.59-1-.69-1.12l1.34-4.88c.21.38.63,1.2,1.26,2.44a29.2,29.2,0,0,1,1.37,3.05c.15.36.29.74.44,1.14a3.28,3.28,0,0,1,.21,1.1,7.25,7.25,0,0,1-.32,1.61c-.22.75-.42,1.42-.6,2a10.7,10.7,0,0,1-.38,1.07,5.41,5.41,0,0,1-1.62,2.13,20.67,20.67,0,0,1-2.93,1.84L28.74,41.9H18.92Z" transform="translate(7.03 -2.19)"/><path class="cls-1" d="M46.4,32.51a6.54,6.54,0,0,1-3.86-.83,4.51,4.51,0,0,1-1.35-1.77,8,8,0,0,1-.6-2.21c-.1-.77-.18-1.8-.25-3.1,0-.36,0-.88-.08-1.56a29.81,29.81,0,0,0-.61-4.6,16.41,16.41,0,0,0-.79-2.71c-.25-.54-.44-1-.58-1.25l2.13-4.8a19.72,19.72,0,0,1,1.23,4.1c.29,1.5.57,3.3.86,5.4l.15,1.66a35.62,35.62,0,0,0,.52,4,3.42,3.42,0,0,0,1,2,4,4,0,0,0,1.48.65,8.76,8.76,0,0,0,1.55.14h.07v4.88Z" transform="translate(7.03 -2.19)"/><path class="cls-1" d="M46.8,31.73a6.44,6.44,0,0,1-.22-1.68,6,6,0,0,1,.22-1.64c.15-.49.31-.74.51-.74h1.23a11.48,11.48,0,0,0,2.18-.18,7.13,7.13,0,0,0,1.37-.38,4.24,4.24,0,0,0,.56-.27,8.92,8.92,0,0,0-.81-1.56A13.85,13.85,0,0,0,51,24q-.41-.49-.51-.6l1.88-4.12c.12.2.37.58.76,1.16a11.06,11.06,0,0,1,.83,1.44,8.07,8.07,0,0,1,.81,2.53,5.38,5.38,0,0,1,0,1.56c0,.24-.17.86-.44,1.87s-.51,1.91-.75,2.68l-.35.29a6.26,6.26,0,0,1-.83.52,10.42,10.42,0,0,1-1.32.6,8.36,8.36,0,0,1-3.36.54h-.39C47.11,32.51,47,32.25,46.8,31.73Zm2.28,2.94,2.56,2.57-2.42,2.42-2.6-2.57Z" transform="translate(7.03 -2.19)"/><path class="cls-1" d="M54.35,40.11q2.57-1.53,5.38-3.41a38.09,38.09,0,0,0,4.48-3.4,10,10,0,0,0-.79-1.95c-.39-.74-.76-1.41-1.12-2l-.69-1.12,1.3-4.88,1.19,2.27a3.23,3.23,0,0,0,1.59,1.61,6.14,6.14,0,0,0,2.42.42H71v4.84H67.21L66,32.44a13.27,13.27,0,0,1-1.12,3.68,9.19,9.19,0,0,1-2.21,2.62c-.94.78-2.34,1.83-4.22,3.16H51.28C51.62,41.73,52.64,41.13,54.35,40.11Z" transform="translate(7.03 -2.19)"/><path class="cls-1" d="M70.5,31.73a6,6,0,0,1-.22-1.68,5.61,5.61,0,0,1,.22-1.64c.14-.49.31-.74.5-.74h.69c.41,0,1,0,1.75-.06s1.43-.09,2-.16a19.63,19.63,0,0,1,1.32-4.71,36.43,36.43,0,0,1,1.81-3.85c.54-1,1-1.72,1.32-2.27.21.43.51,1,.88,1.8a22.09,22.09,0,0,1,1.1,2.87,8.7,8.7,0,0,1,.47,3.05l-1.62,3a33,33,0,0,0,5.85.36h1.7v4.84H86.42l-.86,0q-.69,0-1.74-.09a12.83,12.83,0,0,1-.72,3.32,9.14,9.14,0,0,1-1.73,3A3.5,3.5,0,0,1,78.66,40a2.69,2.69,0,0,1-2.39-1.43,9.35,9.35,0,0,1-1.17-3.14,17.41,17.41,0,0,1-.31-2.91v-.39c-.19.05-.62.12-1.28.21a12.25,12.25,0,0,1-1.82.15H71C70.81,32.51,70.64,32.25,70.5,31.73Zm8.43-4.91a5,5,0,0,0,1.43-1,7.84,7.84,0,0,0-.42-2,12.94,12.94,0,0,0-.67-1.65c-.21-.43-.36-.71-.43-.83-.1.15-.31.51-.65,1.1a16.72,16.72,0,0,0-1,2.24,10.71,10.71,0,0,0-.67,2.69A6.69,6.69,0,0,0,78.93,26.82ZM81,35.47a3.29,3.29,0,0,0,.88-.69l.42-.5a5.25,5.25,0,0,0-1.41-1.83,4.38,4.38,0,0,0-3-.88,7.18,7.18,0,0,0-1.38.14,6.15,6.15,0,0,0,.38,1.75,4.4,4.4,0,0,0,1,1.65,2.31,2.31,0,0,0,1.7.68A2.66,2.66,0,0,0,81,35.47Z" transform="translate(7.03 -2.19)"/><path class="cls-1" d="M87.76,31.73a6.44,6.44,0,0,1-.22-1.68,6,6,0,0,1,.22-1.64c.15-.49.31-.74.51-.74h1.37a6.34,6.34,0,0,0,5.13-2.24l1-1.45a14.94,14.94,0,0,1,1.35-1.77,6.08,6.08,0,0,1,1.46-1.15,2.48,2.48,0,0,1,1.16-.33q2.56,0,4.59,6.5a4.22,4.22,0,0,1-.64,1.85,13.34,13.34,0,0,1-1.8,2.83,2.85,2.85,0,0,1-2.08,1.28,1.11,1.11,0,0,1-.58-.14,31.34,31.34,0,0,0-3.5-1.34L94,31.1a1.55,1.55,0,0,1,.09-.51q.12-.46.27-1.08c.1-.29.18-.57.25-.83-.55.82-1,1.37-1.19,1.66A5.57,5.57,0,0,1,91.37,32a6.19,6.19,0,0,1-2.6.51h-.5C88.07,32.51,87.91,32.25,87.76,31.73Zm10.8-6.12a3.24,3.24,0,0,0-1.26.32,5.82,5.82,0,0,0-.91.69l4.19,1.55.64.22a.79.79,0,0,0,.48,0C100.76,26.54,99.72,25.61,98.56,25.61Z" transform="translate(7.03 -2.19)"/><rect class="cls-2" x="7.98" y="0.95" width="107.37" height="46.03"/><rect class="cls-3" x="115.35" y="0.95" width="57.76" height="46.03"/><path class="cls-4" d="M139,10.45l.1.45-.28.3,0,0,.43-.36c.09.21-.36.33-.05.53l.42-.38c0,.06,0,.1,0,.11a27.08,27.08,0,0,1-1.8,2.06c-2.62,2.6-5.21,5.22-7.82,7.84l-7.19,7.2q-3.24,3.24-6.47,6.49c-.21.22-.35,0-.53,0,0-.12.06-.25.11-.36a2.19,2.19,0,0,1,.18-.33l-.24-.19c0-.08.12-.19.1-.23-.16-.26,0-.37.19-.52L124,25.31l11.49-11.52,3.11-3.1A1.66,1.66,0,0,1,139,10.45Z" transform="translate(7.03 -2.19)"/><path class="cls-4" d="M128,35.25c-.11,0-.22,0-.27-.1a.36.36,0,0,1-.07-.27,5,5,0,0,1,.37-.57h-.29a2.63,2.63,0,0,1,0-.41.44.44,0,0,1,.11-.27L131.45,30,139,22.37q3.27-3.26,6.52-6.52c1.56-1.56,3.11-3.13,4.66-4.69.16-.16.31-.36.61-.19l-.26.29H151l-.19.47.11.06.71-.78.09.07a1.43,1.43,0,0,1-.14.2,5.27,5.27,0,0,0-.85,1.07,4.48,4.48,0,0,1-1,1l-15.94,16-5.75,5.77A.81.81,0,0,1,128,35.25Z" transform="translate(7.03 -2.19)"/><path class="cls-4" d="M132.81,22.67l-.2.22L133,23l-.12,1,.06.05,1.3-1.28.06.06a.76.76,0,0,1-.11.16l-4.26,4.22-5.73,5.71c-2.45,2.44-4.89,4.9-7.38,7.3-.34.32-.79.58-1.16.9-.07.06-.27,0-.41-.06a1.42,1.42,0,0,1,.06-.31c.1-.2.23-.39.34-.58l-.34.08,0-.06.17-.2c-.15-.16-.14-.29,0-.47,2.41-2.32,4.82-4.63,7.19-7,3-3,5.92-5.95,8.87-8.93l.76-.78C132.43,22.64,132.55,22.44,132.81,22.67Z" transform="translate(7.03 -2.19)"/><path class="cls-4" d="M134.45,41.87l-.07-.06-.31-.22a3,3,0,0,0,.26-.36,2.68,2.68,0,0,0,.16-.36l-.31.06c0-.18,0-.31.06-.43a.73.73,0,0,1,.12-.3l7.6-7.62q3.36-3.36,6.7-6.73c1.27-1.27,2.53-2.53,3.81-3.79.08-.08.24-.08.37-.12l0,.08-.22.3.37,0c-.05.34-.08.64-.14.93a.6.6,0,0,1-.17.3l-10,10-8.06,8.07Z" transform="translate(7.03 -2.19)"/><path class="cls-4" d="M144.08,38.17c-.11-.11-.15-.17-.21-.2a.71.71,0,0,0-.2,0,1,1,0,0,1,.08-.25c.07-.12.15-.24.23-.35a.71.71,0,0,1,0-.92l7.91-7.93,6.37-6.37c.17-.18.28-.48.64-.26l-.21.27.37,0-.09.77.09,0,.56-.54.08.09C154.48,27.71,149.38,33,144.08,38.17Z" transform="translate(7.03 -2.19)"/><path class="cls-4" d="M110.57,33.7c.85-.89,1.66-1.76,2.49-2.6l6.16-6.2C120.14,24,121,23,122,22.09a1.47,1.47,0,0,1,.41-.22l0,.13.27.42c-.21.37-.21.37.15.39a25.73,25.73,0,0,1-3.37,3.69c-2.74,2.8-5.54,5.56-8.32,8.32-.1.1-.14.3-.44.18s-.26-.2-.1-.4a3,3,0,0,0,.26-.44l-.35,0,.2-.23Z" transform="translate(7.03 -2.19)"/><path class="cls-4" d="M144.8,22.14l-.21.28.35.06c0,.23,0,.43-.07.61a1.73,1.73,0,0,1-.22.6,6.94,6.94,0,0,1-.61.73l.06.06,1.73-1.74,0,0-8.48,8.39,0,0,.92-1,0,0-.26.21c-.44.42-.89.82-1.31,1.26-.19.2-.37,0-.48,0s-.05-.22.07-.33a1.09,1.09,0,0,0,.19-.39l-.21-.12c.13-.3.07-.62.38-.9,1.91-1.74,3.8-3.5,5.65-5.31a27,27,0,0,0,2-2.3C144.43,22.11,144.56,22,144.8,22.14Z" transform="translate(7.03 -2.19)"/><path class="cls-4" d="M155.61,31l-.27-.08c0-.16,0-.29,0-.41a.7.7,0,0,1,.13-.29c1.15-1.21,2.29-2.41,3.44-3.6l4.29-4.38a.38.38,0,0,1,.51-.11l-.26.31.51,0a.7.7,0,0,0-.18.65.81.81,0,0,1-.27.59c-1.45,1.51-2.93,3-4.39,4.51q-1.68,1.73-3.32,3.49c-.19.21-.35.1-.52.07a.48.48,0,0,1,0-.31A3.19,3.19,0,0,1,155.61,31Z" transform="translate(7.03 -2.19)"/><path class="cls-4" d="M116.66,22.46l.24.35.08,0-.19.29,0,0,.7-.66.06.06c-.18.2-.38.39-.55.6a.74.74,0,0,0-.18.35c0,.38-.33.56-.56.78-.8.75-1.62,1.47-2.41,2.24-.2.2-.35,0-.51.05s-.07-.19,0-.26.2-.35.32-.54l-.22-.06a2.84,2.84,0,0,1,0-.42.43.43,0,0,1,.1-.24c.91-.85,1.82-1.69,2.74-2.52.1-.1.27-.11.4-.17Z" transform="translate(7.03 -2.19)"/><path class="cls-4" d="M131.81,37l-.22.28.28-.05-.14.25.23-.16a5.32,5.32,0,0,1,0,.69,1,1,0,0,1-.23.48c-.92.87-1.86,1.71-2.77,2.59-.2.19-.33,0-.49,0a1.27,1.27,0,0,1,.09-.36.42.42,0,0,0,0-.49.68.68,0,0,1,.07-.65c.9-.88,1.82-1.72,2.75-2.56a1,1,0,0,1,.41-.11Z" transform="translate(7.03 -2.19)"/><line class="cls-5" x1="182.02" y1="6.71" y2="6.71"/></g></g></svg>