<?xml version="1.0" encoding="utf-8"?>
<svg xmlns="http://www.w3.org/2000/svg" viewBox="0 0 48 48" width="144" height="144">
  <path d="M10.5 37h-7C2.672 37 2 37.672 2 38.5S2.672 40 3.5 40h3.379l-4.439 4.439c-.586.586-.586 1.535 0 2.121C2.732 46.854 3.116 47 3.5 47s.768-.146 1.061-.439L9 42.121V45.5c0 .828.672 1.5 1.5 1.5s1.5-.672 1.5-1.5v-7C12 37.672 11.328 37 10.5 37zM41.121 40H44.5c.828 0 1.5-.672 1.5-1.5S45.328 37 44.5 37h-7c-.828 0-1.5.672-1.5 1.5v7c0 .828.672 1.5 1.5 1.5s1.5-.672 1.5-1.5v-3.379l4.439 4.439C43.732 46.854 44.116 47 44.5 47s.768-.146 1.061-.439c.586-.586.586-1.535 0-2.121L41.121 40zM12 9.5v-7C12 1.672 11.328 1 10.5 1S9 1.672 9 2.5v3.379L4.561 1.439c-.586-.586-1.535-.586-2.121 0s-.586 1.535 0 2.121L6.879 8H3.5C2.672 8 2 8.672 2 9.5S2.672 11 3.5 11h7C11.328 11 12 10.328 12 9.5zM44.5 8h-3.379l4.439-4.439c.586-.586.586-1.535 0-2.121s-1.535-.586-2.121 0L39 5.879V2.5C39 1.672 38.328 1 37.5 1S36 1.672 36 2.5v7c0 .828.672 1.5 1.5 1.5h7c.828 0 1.5-.672 1.5-1.5S45.328 8 44.5 8zM14 13A5 5 0 1014 23 5 5 0 1014 13zM24 6A5 5 0 1024 16 5 5 0 1024 6zM34 13A5 5 0 1034 23 5 5 0 1034 13zM24 22a4 4 0 100 8 4 4 0 100-8zm3.5 11h-7C19.121 33 18 34.121 18 35.5v1.833c0 2.101 2.57 3.567 6.25 3.567 2.826 0 5.75-1.271 5.75-3.4v-2C30 34.121 28.879 33 27.5 33zm10-8h-7c-.203 0-.396.041-.573.115C29.97 25.404 30 25.698 30 26c0 2.086-1.071 3.925-2.69 5h.19c2.227 0 4.068 1.63 4.425 3.757.714.095 1.356.143 1.825.143 4.269 0 7.25-1.878 7.25-4.567V28.5C41 26.57 39.43 25 37.5 25zm-17 6h.19C19.07 29.925 18 28.086 18 26 18 25.698 18.03 25.404 18.073 25.115 17.896 25.041 17.703 25 17.5 25h-7C8.57 25 7 26.57 7 28.5v1.833c0 2.689 2.981 4.567 7.25 4.567.469 0 1.111-.048 1.825-.143C16.432 32.63 18.273 31 20.5 31z" fill="#000000" />
</svg>