<?xml version="1.0" encoding="utf-8"?>
<svg xmlns="http://www.w3.org/2000/svg" viewBox="0 0 50 50" width="500" height="500">
  <path d="M10 3C7.25 3 5 5.25 5 8C5 10.40625 6.726563 12.4375 9 12.90625L9 37.09375C6.726563 37.5625 5 39.59375 5 42C5 44.75 7.25 47 10 47C12.75 47 15 44.75 15 42C15 39.59375 13.273438 37.5625 11 37.09375L11 12.90625C13.273438 12.4375 15 10.40625 15 8C15 5.25 12.75 3 10 3 Z M 23.375 3L23.09375 3.21875L18.09375 7.21875L17.125 8L18.09375 8.78125L23.09375 12.78125L23.375 13L25 13L25 9L32 9C35.878906 9 39 12.121094 39 16L39 37.09375C36.726563 37.5625 35 39.59375 35 42C35 44.75 37.25 47 40 47C42.75 47 45 44.75 45 42C45 39.59375 43.273438 37.5625 41 37.09375L41 16C41 11.042969 36.957031 7 32 7L25 7L25 3 Z M 10 5C11.667969 5 13 6.332031 13 8C13 9.667969 11.667969 11 10 11C8.332031 11 7 9.667969 7 8C7 6.332031 8.332031 5 10 5 Z M 23 5.84375L23 10.15625L20.3125 8 Z M 10 39C11.667969 39 13 40.332031 13 42C13 43.667969 11.667969 45 10 45C8.332031 45 7 43.667969 7 42C7 40.332031 8.332031 39 10 39 Z M 40 39C41.667969 39 43 40.332031 43 42C43 43.667969 41.667969 45 40 45C38.332031 45 37 43.667969 37 42C37 40.332031 38.332031 39 40 39Z" fill="#3B80C3" />
</svg>