<svg xmlns="http://www.w3.org/2000/svg" viewBox="0 0 208.59 208.71"><defs><style>.cls-1{opacity:0.65;}.cls-2{fill:#fff;}</style></defs><g id="Layer_2" data-name="Layer 2"><g id="Layer_1-2" data-name="Layer 1"><g class="cls-1"><path class="cls-2" d="M47.35,127.05l-6.63.6c0-4.84-.07-9.72,0-14.59s.47-9.66.47-14.49-.38-9.73-.47-14.6,0-9.78,0-14.67V54.63c2.13,1.78,4.2,3.43,6.15,5.23.39.35.37,1.24.37,1.88q0,16,0,32v2.34h14.2c-.13-2.29.48-4.5-1.14-6.83a13.94,13.94,0,0,1,2.43-18.14A13.46,13.46,0,0,1,80,70.51a13.94,13.94,0,0,1,3.45,18.13c-1.51,2.42-1.66,4.72-1.43,7.44H96.16V81c0-.74,0-1.49,0-2.24a3.17,3.17,0,0,1,3.34-3.34c3.19-.07,6.39-.15,9.57.06a6.54,6.54,0,0,1,3.14,1.55,7.7,7.7,0,0,0,8,1.18,6.94,6.94,0,0,0,.69-12.6,7.31,7.31,0,0,0-8.55.81,6.09,6.09,0,0,1-4.79,1.67c-2.31-.08-4.62,0-6.93,0-3.52,0-4.52-1-4.52-4.42V47.36H71.89l-.72-6.58H81.53c4.28,0,8.59-.35,12.83.09,5.45.57,10.83-.33,16.26-.13s11,0,16.5,0h2.21c-.25,2.21-.48,4.27-.73,6.5H102.84V61.5c2.2-.1,4.34.49,6.64-1a13.39,13.39,0,0,1,15.69.07,12.68,12.68,0,0,1,5.89,13.18c-.93,5.92-4.6,9.71-10.41,11.25A12.32,12.32,0,0,1,110.1,83.4c-2.32-1.65-4.64-1.46-7.26-1.38V96.14h48.74V93.93c0-10.39,0-20.78,0-31.18a2.65,2.65,0,0,1,1.63-2.84,41.21,41.21,0,0,0,4.94-3.43v2.13q0,18.24,0,36.48c0,5.07-2.59,7.66-7.65,7.66H102.65v5.72c0,3.73,0,7.47,0,11.21,0,2.65-1.21,3.84-3.86,3.86s-5.45.16-8.14-.07a8.11,8.11,0,0,1-4-1.5,8.15,8.15,0,0,0-8.6-1,7,7,0,0,0-2.93,9.88c2.28,3.63,7.57,4.78,10.85,2a8.1,8.1,0,0,1,6.14-1.94c2.31.1,4.62,0,6.93,0s3.55,1.22,3.57,3.52c0,5.77.08,11.55,0,17.32a6.38,6.38,0,0,1-6.16,6.41c-14,.08-28,0-42.13,0,1.89-2.18,3.61-4.29,5.48-6.26.35-.36,1.28-.24,1.95-.24H96V137.51c-2.43-.11-4.67-.3-7.06,1.21-5,3.19-10.4,3-15.34-.38a12.68,12.68,0,0,1-5.77-13.22c1-6,4.7-9.7,10.49-11.17a12.2,12.2,0,0,1,10.2,1.46c2.36,1.67,4.73,1.68,7.49,1.54V102.74H89.2c-3.32,0-6.65,0-10,0-2.68,0-3.82-1.18-3.84-3.87s-.15-5.58.05-8.35a7,7,0,0,1,1.4-3.61,8,8,0,0,0,1-9.1,6.91,6.91,0,0,0-9.86-2.44,7.44,7.44,0,0,0-1.72,10.89,7.33,7.33,0,0,1,1.85,5.55c-.1,2.31,0,4.62,0,6.93,0,2.76-1.17,4-4,4-5.09,0-10.19,0-15.28,0-.41,0-.81,0-1.44.07Z"/><path class="cls-2" d="M164.64,115.85H150.48c-.07,2.56-.27,4.81,1.27,7.2a13.82,13.82,0,0,1-2.41,17.65,13.34,13.34,0,0,1-16.87,1.19,14,14,0,0,1-3.85-18.81c1.55-2.39,1.32-4.66,1.3-7.23h-14v48.74h21.36l3.3,6.39s-.12.19-.21.19c-8.22,0-16.44.09-24.65,0-3.77,0-6.45-3-6.46-7,0-12.16,0-24.32,0-36.48,0-3.66,0-7.33,0-11,0-4.78,2.7-7.47,7.43-7.47,5.23,0,10.45,0,15.68,0,3.07,0,4.14,1.07,4.17,4.16,0,1.76,0,3.53,0,5.3.08,2.72-.09,5.15-2.11,7.51-2.52,3-1.53,7.63,1.47,10a6.8,6.8,0,0,0,9.24-.57,7.52,7.52,0,0,0,.38-10.18,6.23,6.23,0,0,1-1.68-4.79c.09-2.51,0-5,0-7.54,0-2.7,1.15-3.87,3.8-3.88,5.5,0,11-.05,16.5,0a6.64,6.64,0,0,1,7,7c0,11.35,0,22.69,0,34,0,1.07-.13,2-1.32,2.06a3.56,3.56,0,0,1-2.1-1c-2.7-2.34-3.32-5.31-3.22-8.86C164.81,133.76,164.64,124.94,164.64,115.85Z"/><path class="cls-2" d="M157.77,182.35c-4.1-5.33-8.11-10.46-12-15.65-4.71-6.23-1.8-14.72,5.65-16.42,4-.91,7.36.44,10,3.56,1.3,1.56,2.53,3.19,3.73,4.84a2,2,0,0,0,2.34.89c2.44-.45,4.87-.68,7.11-2a4.84,4.84,0,0,1,3.15-.57c3.09.67,6.11.1,9.17-.05a10.16,10.16,0,0,1,9.06,4.51c4.76,6.46,9.4,12.93,11.91,20.72,1.61,5,.74,9.44-3.22,12.9Q198.33,200.62,192,206a10.39,10.39,0,0,1-9.67,2.34c-6.14-1.45-12.3-2.8-18.44-4.24a29.79,29.79,0,0,1-4.64-1.47c-4.44-1.88-7.52-4.95-7.79-10C151.18,188,153.51,184.65,157.77,182.35Zm14.51,8.14a32.6,32.6,0,0,0-3.93-1.48,32.94,32.94,0,0,0-6-1,4.14,4.14,0,0,0-4.27,3.09,4.06,4.06,0,0,0,2.23,4.77,17.9,17.9,0,0,0,4.52,1.76c6.13,1.47,12.3,2.76,18.42,4.26a4.93,4.93,0,0,0,4.86-1.17c4-3.49,8-6.93,12-10.4,2.11-1.84,2.29-3.31,1.47-6-2.1-6.9-6.28-12.56-10.42-18.28-1.33-1.83-2.84-2.83-5.11-2.59a4,4,0,0,0-3.92,3.53c-1.56-1.81-2.51-4.2-5.3-3.3-2.39.76-2.82,2.69-2.54,5.45-1.56-2.25-2.91-4-5.43-3.19-2,.64-2.57,2.37-2.69,4.59-.61-.71-1.07-1.18-1.47-1.7-2.75-3.54-5.45-7.11-8.24-10.61-1.74-2.2-4.39-2.23-5.83-.12-1.17,1.72-.71,3.3.49,4.85,3.9,5,7.77,10.11,11.66,15.16C165.84,182.1,168.87,186.06,172.28,190.49Z"/><path class="cls-2" d="M24.32,148.67c4.82-4.18,9.45-8.26,14.15-12.25,3.42-2.9,7.29-3.6,11.37-1.62a9.88,9.88,0,0,1,2.71,15.82,27.72,27.72,0,0,0-2.24,2.07c-1.1,1.5-4,1.77-3.32,4.46.43,1.87,1.12,3.68,1.61,5.54s1.36,3.93,1.25,5.85a21,21,0,0,0,.39,5.54,10.82,10.82,0,0,1-3.8,11.12,82,82,0,0,1-19,12.45c-4.74,2.18-9.44,1.6-13.08-2.12-3.84-3.93-7.63-7.92-11.4-11.92a10.5,10.5,0,0,1-2.71-9.76c1.23-6.39,2.22-12.83,3.36-19.24a17.81,17.81,0,0,1,1-3.51c1.73-4.34,4.65-7.41,9.48-7.89C18.48,142.78,21.81,144.81,24.32,148.67Zm14.11,15.48c1.41-1.41,3-2.65,2.3-4.89s-2.45-2.6-4.71-2.8l3.15-2.77c2.85-2.51,5.74-5,8.55-7.54a3.11,3.11,0,0,0,.49-4.39,3.28,3.28,0,0,0-4.33-1.11,6.88,6.88,0,0,0-1.49,1L29.15,153.16l-12,10.35a28.31,28.31,0,0,0,1.1-3.63,39,39,0,0,0,.61-6.62,3.71,3.71,0,0,0-3.21-3.5c-1.91-.38-3.29.68-4.23,2.2a9.46,9.46,0,0,0-1.26,3.19C8.93,162,7.67,168.89,6.63,175.79a4.84,4.84,0,0,0,1.26,3.42c3.55,3.93,7.27,7.71,11,11.52,1.79,1.85,3.23,2,5.69,1.05,6.78-2.49,12.19-7,17.59-11.56,3.14-2.65,2.34-7-1.64-8.47,1.52-1.49,3.82-2.61,2.66-5.34C42.27,164.35,40.56,164,38.43,164.15Z"/><path class="cls-2" d="M148.8,25.33c-.23-.18-.49-.39-.76-.58-6.94-4.84-6.67-13.83.88-17.73,3.54-1.83,7.65-2.61,11.57-3.61,4.6-1.18,9.27-2.06,13.9-3.1a10.14,10.14,0,0,1,8.68,1.78q6.75,5.1,13.34,10.39c4.06,3.26,4.91,7.7,3.21,12.61C197,32.72,192.19,38.93,187.19,45c-3,3.68-7.2,4.23-11.7,3.44a18.29,18.29,0,0,0-3.14,0c-1.81,0-3.84.5-5.39-.15a30.43,30.43,0,0,0-8-1.81,2.41,2.41,0,0,0-1.81.6c-1.39,1.49-2.62,3.12-3.95,4.66a10.19,10.19,0,0,1-14.4,1.3c-4.2-3.55-4.62-9.57-1-14s7.25-8.81,10.86-13.22C148.75,25.7,148.74,25.55,148.8,25.33Zm25.41,13.4A3.06,3.06,0,0,0,177,42c2,.39,4,.34,5.39-1.46,4.31-5.49,8.82-10.85,11-17.68.84-2.59.72-3.81-1.44-5.51-4.05-3.2-8.14-6.35-12.18-9.55a4.82,4.82,0,0,0-4.36-1c-6.48,1.47-13,2.79-19.46,4.34a13.62,13.62,0,0,0-4.91,2.28,3.39,3.39,0,0,0,1.19,6.07,9.71,9.71,0,0,0,4.39.21c2.31-.41,4.56-1.21,7.14-1.93-2,2.37-3.71,4.52-5.48,6.66q-7.69,9.36-15.41,18.71c-1,1.19-1.67,2.63-.64,3.87a5.3,5.3,0,0,0,3.33,1.77,4.33,4.33,0,0,0,2.83-1.63c3.21-3.65,6.29-7.43,9.62-11.4.1,2.46.95,4.42,3.14,4.36,1.71-.05,3.39-1.28,4.94-1.93,0,2,.52,3.13,2.12,3.76C171.09,43,172.45,41,174.21,38.73Z"/><path class="cls-2" d="M51.36,25.32c3.83,4.63,7.51,9.06,11.16,13.52a9.77,9.77,0,0,1,1.75,10.47,9.35,9.35,0,0,1-8.33,5.95,9.74,9.74,0,0,1-8.55-3.38c-1.4-1.57-2.64-3.28-4.08-4.8a2.73,2.73,0,0,0-2-.66,20.24,20.24,0,0,0-8,1.85,4.2,4.2,0,0,1-2.59.33c-3.09-.65-6.13-.15-9.21,0a10.45,10.45,0,0,1-9.09-4.5C8,38.22,3.3,32.51,1,25.29-.94,19.45,0,15.42,4.89,11.64c3.85-3,7.75-5.95,11.55-9A11,11,0,0,1,26.15.29C32.71,1.71,39.29,3,45.8,4.65a22.05,22.05,0,0,1,6.84,3c6.29,4.26,6.16,12.59-.09,16.91ZM43,36.39c2.73,3.29,5.76,6.94,8.8,10.57C53.51,49,55.54,49.4,57.29,48S59,44.85,57.2,42.7q-5.49-6.69-11-13.36-4.74-5.74-9.47-11.51c1.21.13,2.18.67,3.22.85a47.24,47.24,0,0,0,7.37.9,3.34,3.34,0,0,0,3.28-2.86,3.44,3.44,0,0,0-1.91-3.93,23.07,23.07,0,0,0-5.28-2C37.33,9.35,31.23,8.08,25.15,6.7a5,5,0,0,0-4.57,1c-4,3.21-8.13,6.36-12.18,9.54-2.12,1.67-2.3,2.95-1.47,5.52,2.24,6.89,6.79,12.3,11.16,17.84,1.34,1.7,3.39,1.84,5.23,1.29,1.22-.37,2.2-1.53,3.47-2.47,1,.91,1.85,3.11,4.41,2.66s3.2-2.23,3.11-4.82c1.58,1.92,3,3.75,5.31,2.66C40.94,39.27,41.8,37.69,43,36.39Z"/></g></g></g></svg>