<?xml version="1.0" encoding="utf-8"?>
<svg xmlns="http://www.w3.org/2000/svg" viewBox="0 0 80 80" width="480" height="480">
  <path d="M16 13C14.666667 13 13.552734 13.605469 12.552734 14.105469C11.552734 14.605469 10.666667 15 10 15 A 1.0001 1.0001 0 1 0 10 17C11.333333 17 12.447266 16.394531 13.447266 15.894531C14.447266 15.394531 15.333333 15 16 15C16.666667 15 17.552734 15.394531 18.552734 15.894531C19.552734 16.394531 20.666667 17 22 17C23.333333 17 24.447266 16.394531 25.447266 15.894531C26.447266 15.394531 27.333333 15 28 15C28.666667 15 29.552734 15.394531 30.552734 15.894531C31.552734 16.394531 32.666667 17 34 17C35.333333 17 36.447266 16.394531 37.447266 15.894531C38.447266 15.394531 39.333333 15 40 15C40.666667 15 41.552734 15.394531 42.552734 15.894531C43.552734 16.394531 44.666667 17 46 17C47.333333 17 48.447266 16.394531 49.447266 15.894531C50.447266 15.394531 51.333333 15 52 15C52.666667 15 53.552734 15.394531 54.552734 15.894531C55.522863 16.379596 56.601932 16.959665 57.882812 16.994141 A 1.0001 1.0001 0 0 0 58 17 A 1.0001 1.0001 0 1 0 58 15C57.333333 15 56.447266 14.605469 55.447266 14.105469C54.447266 13.605469 53.333333 13 52 13C50.666667 13 49.552734 13.605469 48.552734 14.105469C47.552734 14.605469 46.666667 15 46 15C45.333333 15 44.447266 14.605469 43.447266 14.105469C42.447266 13.605469 41.333333 13 40 13C38.666667 13 37.552734 13.605469 36.552734 14.105469C35.552734 14.605469 34.666667 15 34 15C33.333333 15 32.447266 14.605469 31.447266 14.105469C30.447266 13.605469 29.333333 13 28 13C26.666667 13 25.552734 13.605469 24.552734 14.105469C23.552734 14.605469 22.666667 15 22 15C21.333333 15 20.447266 14.605469 19.447266 14.105469C18.447266 13.605469 17.333333 13 16 13 z M 64 13 A 1.0001 1.0001 0 1 0 64 15C64.666667 15 65.552734 15.394531 66.552734 15.894531C67.552734 16.394531 68.666667 17 70 17 A 1.0001 1.0001 0 1 0 70 15C69.333333 15 68.447266 14.605469 67.447266 14.105469C66.556682 13.660177 65.550099 13.190515 64.404297 13.080078 A 1.0001 1.0001 0 0 0 64.332031 13.052734 A 1.0001 1.0001 0 0 0 64.267578 13.033203 A 1.0001 1.0001 0 0 0 64.253906 13.029297 A 1.0001 1.0001 0 0 0 64.191406 13.017578 A 1.0001 1.0001 0 0 0 64.115234 13.005859 A 1.0001 1.0001 0 0 0 64.101562 13.005859 A 1.0001 1.0001 0 0 0 64.015625 13 A 1.0001 1.0001 0 0 0 64 13 z M 61 14L60.199219 14.402344L60.041016 15.283203L60.652344 15.9375L61 16L61.800781 15.597656L61.958984 14.716797L61.347656 14.0625L61 14 z M 6 15 A 1 1 0 0 0 5 16 A 1 1 0 0 0 6 17 A 1 1 0 0 0 7 16 A 1 1 0 0 0 6 15 z M 74 15 A 1 1 0 0 0 73 16 A 1 1 0 0 0 74 17 A 1 1 0 0 0 75 16 A 1 1 0 0 0 74 15 z M 16 23C14.666667 23 13.552734 23.605469 12.552734 24.105469C11.552734 24.605469 10.666667 25 10 25 A 1.0001 1.0001 0 1 0 10 27C11.333333 27 12.447266 26.394531 13.447266 25.894531C14.447266 25.394531 15.333333 25 16 25C16.666667 25 17.552734 25.394531 18.552734 25.894531C19.522863 26.379596 20.601932 26.959665 21.882812 26.994141 A 1.0001 1.0001 0 0 0 22 27 A 1.0001 1.0001 0 1 0 22 25C21.333333 25 20.447266 24.605469 19.447266 24.105469C18.447266 23.605469 17.333333 23 16 23 z M 28 23 A 1.0001 1.0001 0 1 0 28 25C28.666667 25 29.552734 25.394531 30.552734 25.894531C31.552734 26.394531 32.666667 27 34 27C35.333333 27 36.447266 26.394531 37.447266 25.894531C38.447266 25.394531 39.333333 25 40 25C40.666667 25 41.552734 25.394531 42.552734 25.894531C43.552734 26.394531 44.666667 27 46 27C47.333333 27 48.447266 26.394531 49.447266 25.894531C50.447266 25.394531 51.333333 25 52 25C52.666667 25 53.552734 25.394531 54.552734 25.894531C55.552734 26.394531 56.666667 27 58 27C59.333333 27 60.447266 26.394531 61.447266 25.894531C62.447266 25.394531 63.333333 25 64 25C64.666667 25 65.552734 25.394531 66.552734 25.894531C67.552734 26.394531 68.666667 27 70 27 A 1.0001 1.0001 0 1 0 70 25C69.333333 25 68.447266 24.605469 67.447266 24.105469C66.447266 23.605469 65.333333 23 64 23C62.666667 23 61.552734 23.605469 60.552734 24.105469C59.552734 24.605469 58.666667 25 58 25C57.333333 25 56.447266 24.605469 55.447266 24.105469C54.447266 23.605469 53.333333 23 52 23C50.666667 23 49.552734 23.605469 48.552734 24.105469C47.552734 24.605469 46.666667 25 46 25C45.333333 25 44.447266 24.605469 43.447266 24.105469C42.447266 23.605469 41.333333 23 40 23C38.666667 23 37.552734 23.605469 36.552734 24.105469C35.552734 24.605469 34.666667 25 34 25C33.333333 25 32.447266 24.605469 31.447266 24.105469C30.477137 23.620404 29.398068 23.040335 28.117188 23.005859 A 1.0001 1.0001 0 0 0 28 23 z M 25 24L24.199219 24.402344L24.041016 25.283203L24.652344 25.9375L25 26L25.800781 25.597656L25.958984 24.716797L25.347656 24.0625L25 24 z M 6 25 A 1 1 0 0 0 5 26 A 1 1 0 0 0 6 27 A 1 1 0 0 0 7 26 A 1 1 0 0 0 6 25 z M 74 25 A 1 1 0 0 0 73 26 A 1 1 0 0 0 74 27 A 1 1 0 0 0 75 26 A 1 1 0 0 0 74 25 z M 16 33C14.666667 33 13.552734 33.605469 12.552734 34.105469C11.552734 34.605469 10.666667 35 10 35 A 1.0001 1.0001 0 1 0 10 37C11.333333 37 12.447266 36.394531 13.447266 35.894531C14.447266 35.394531 15.333333 35 16 35C16.666667 35 17.552734 35.394531 18.552734 35.894531C19.552734 36.394531 20.666667 37 22 37C23.333333 37 24.447266 36.394531 25.447266 35.894531C26.447266 35.394531 27.333333 35 28 35C28.666667 35 29.552734 35.394531 30.552734 35.894531C31.522863 36.379596 32.601932 36.959665 33.882812 36.994141 A 1.0001 1.0001 0 0 0 34 37 A 1.0001 1.0001 0 1 0 34 35C33.333333 35 32.447266 34.605469 31.447266 34.105469C30.447266 33.605469 29.333333 33 28 33C26.666667 33 25.552734 33.605469 24.552734 34.105469C23.552734 34.605469 22.666667 35 22 35C21.333333 35 20.447266 34.605469 19.447266 34.105469C18.447266 33.605469 17.333333 33 16 33 z M 40 33 A 1.0001 1.0001 0 1 0 40 35C40.666667 35 41.552734 35.394531 42.552734 35.894531C43.552734 36.394531 44.666667 37 46 37C47.333333 37 48.447266 36.394531 49.447266 35.894531C50.447266 35.394531 51.333333 35 52 35C52.666667 35 53.552734 35.394531 54.552734 35.894531C55.552734 36.394531 56.666667 37 58 37C59.333333 37 60.447266 36.394531 61.447266 35.894531C62.447266 35.394531 63.333333 35 64 35C64.666667 35 65.552734 35.394531 66.552734 35.894531C67.552734 36.394531 68.666667 37 70 37 A 1.0001 1.0001 0 1 0 70 35C69.333333 35 68.447266 34.605469 67.447266 34.105469C66.447266 33.605469 65.333333 33 64 33C62.666667 33 61.552734 33.605469 60.552734 34.105469C59.552734 34.605469 58.666667 35 58 35C57.333333 35 56.447266 34.605469 55.447266 34.105469C54.447266 33.605469 53.333333 33 52 33C50.666667 33 49.552734 33.605469 48.552734 34.105469C47.552734 34.605469 46.666667 35 46 35C45.333333 35 44.447266 34.605469 43.447266 34.105469C42.477137 33.620404 41.398068 33.040335 40.117188 33.005859 A 1.0001 1.0001 0 0 0 40 33 z M 37 34L36.199219 34.402344L36.041016 35.283203L36.652344 35.9375L37 36L37.800781 35.597656L37.958984 34.716797L37.347656 34.0625L37 34 z M 6 35 A 1 1 0 0 0 5 36 A 1 1 0 0 0 6 37 A 1 1 0 0 0 7 36 A 1 1 0 0 0 6 35 z M 74 35 A 1 1 0 0 0 73 36 A 1 1 0 0 0 74 37 A 1 1 0 0 0 75 36 A 1 1 0 0 0 74 35 z M 16 43C14.666667 43 13.552734 43.605469 12.552734 44.105469C11.552734 44.605469 10.666667 45 10 45 A 1.0001 1.0001 0 1 0 10 47C11.333333 47 12.447266 46.394531 13.447266 45.894531C14.447266 45.394531 15.333333 45 16 45C16.666667 45 17.552734 45.394531 18.552734 45.894531C19.552734 46.394531 20.666667 47 22 47C23.333333 47 24.447266 46.394531 25.447266 45.894531C26.447266 45.394531 27.333333 45 28 45C28.666667 45 29.552734 45.394531 30.552734 45.894531C31.552734 46.394531 32.666667 47 34 47C35.333333 47 36.447266 46.394531 37.447266 45.894531C38.447266 45.394531 39.333333 45 40 45C40.666667 45 41.552734 45.394531 42.552734 45.894531C43.522863 46.379596 44.601932 46.959665 45.882812 46.994141 A 1.0001 1.0001 0 0 0 46 47 A 1.0001 1.0001 0 1 0 46 45C45.333333 45 44.447266 44.605469 43.447266 44.105469C42.447266 43.605469 41.333333 43 40 43C38.666667 43 37.552734 43.605469 36.552734 44.105469C35.552734 44.605469 34.666667 45 34 45C33.333333 45 32.447266 44.605469 31.447266 44.105469C30.447266 43.605469 29.333333 43 28 43C26.666667 43 25.552734 43.605469 24.552734 44.105469C23.552734 44.605469 22.666667 45 22 45C21.333333 45 20.447266 44.605469 19.447266 44.105469C18.447266 43.605469 17.333333 43 16 43 z M 52 43 A 1.0001 1.0001 0 1 0 52 45C52.666667 45 53.552734 45.394531 54.552734 45.894531C55.552734 46.394531 56.666667 47 58 47C59.333333 47 60.447266 46.394531 61.447266 45.894531C62.447266 45.394531 63.333333 45 64 45C64.666667 45 65.552734 45.394531 66.552734 45.894531C67.552734 46.394531 68.666667 47 70 47 A 1.0001 1.0001 0 1 0 70 45C69.333333 45 68.447266 44.605469 67.447266 44.105469C66.447266 43.605469 65.333333 43 64 43C62.666667 43 61.552734 43.605469 60.552734 44.105469C59.552734 44.605469 58.666667 45 58 45C57.333333 45 56.447266 44.605469 55.447266 44.105469C54.477137 43.620404 53.398068 43.040335 52.117188 43.005859 A 1.0001 1.0001 0 0 0 52 43 z M 49 44L48.199219 44.402344L48.041016 45.283203L48.652344 45.9375L49 46L49.800781 45.597656L49.958984 44.716797L49.347656 44.0625L49 44 z M 6 45 A 1 1 0 0 0 5 46 A 1 1 0 0 0 6 47 A 1 1 0 0 0 7 46 A 1 1 0 0 0 6 45 z M 74 45 A 1 1 0 0 0 73 46 A 1 1 0 0 0 74 47 A 1 1 0 0 0 75 46 A 1 1 0 0 0 74 45 z M 16 53C14.666667 53 13.552734 53.605469 12.552734 54.105469C11.552734 54.605469 10.666667 55 10 55 A 1.0001 1.0001 0 1 0 10 57C11.333333 57 12.447266 56.394531 13.447266 55.894531C14.447266 55.394531 15.333333 55 16 55C16.666667 55 17.552734 55.394531 18.552734 55.894531C19.522863 56.379596 20.601932 56.959665 21.882812 56.994141 A 1.0001 1.0001 0 0 0 22 57 A 1.0001 1.0001 0 1 0 22 55C21.333333 55 20.447266 54.605469 19.447266 54.105469C18.447266 53.605469 17.333333 53 16 53 z M 28 53 A 1.0001 1.0001 0 1 0 28 55C28.666667 55 29.552734 55.394531 30.552734 55.894531C31.552734 56.394531 32.666667 57 34 57C35.333333 57 36.447266 56.394531 37.447266 55.894531C38.447266 55.394531 39.333333 55 40 55C40.666667 55 41.552734 55.394531 42.552734 55.894531C43.552734 56.394531 44.666667 57 46 57C47.333333 57 48.447266 56.394531 49.447266 55.894531C50.447266 55.394531 51.333333 55 52 55C52.666667 55 53.552734 55.394531 54.552734 55.894531C55.522863 56.379596 56.601932 56.959665 57.882812 56.994141 A 1.0001 1.0001 0 0 0 58 57 A 1.0001 1.0001 0 1 0 58 55C57.333333 55 56.447266 54.605469 55.447266 54.105469C54.447266 53.605469 53.333333 53 52 53C50.666667 53 49.552734 53.605469 48.552734 54.105469C47.552734 54.605469 46.666667 55 46 55C45.333333 55 44.447266 54.605469 43.447266 54.105469C42.447266 53.605469 41.333333 53 40 53C38.666667 53 37.552734 53.605469 36.552734 54.105469C35.552734 54.605469 34.666667 55 34 55C33.333333 55 32.447266 54.605469 31.447266 54.105469C30.477137 53.620404 29.398068 53.040335 28.117188 53.005859 A 1.0001 1.0001 0 0 0 28 53 z M 64 53 A 1.0001 1.0001 0 1 0 64 55C64.666667 55 65.552734 55.394531 66.552734 55.894531C67.552734 56.394531 68.666667 57 70 57 A 1.0001 1.0001 0 1 0 70 55C69.333333 55 68.447266 54.605469 67.447266 54.105469C66.477137 53.620404 65.398068 53.040335 64.117188 53.005859 A 1.0001 1.0001 0 0 0 64 53 z M 25 54L24.199219 54.402344L24.041016 55.283203L24.652344 55.9375L25 56L25.800781 55.597656L25.958984 54.716797L25.347656 54.0625L25 54 z M 61 54L60.199219 54.402344L60.041016 55.283203L60.652344 55.9375L61 56L61.800781 55.597656L61.958984 54.716797L61.347656 54.0625L61 54 z M 6 55 A 1 1 0 0 0 5 56 A 1 1 0 0 0 6 57 A 1 1 0 0 0 7 56 A 1 1 0 0 0 6 55 z M 74 55 A 1 1 0 0 0 73 56 A 1 1 0 0 0 74 57 A 1 1 0 0 0 75 56 A 1 1 0 0 0 74 55 z M 16 63C14.666667 63 13.552734 63.605469 12.552734 64.105469C11.552734 64.605469 10.666667 65 10 65 A 1.0001 1.0001 0 1 0 10 67C11.333333 67 12.447266 66.394531 13.447266 65.894531C14.447266 65.394531 15.333333 65 16 65C16.666667 65 17.552734 65.394531 18.552734 65.894531C19.552734 66.394531 20.666667 67 22 67C23.333333 67 24.447266 66.394531 25.447266 65.894531C26.447266 65.394531 27.333333 65 28 65C28.666667 65 29.552734 65.394531 30.552734 65.894531C31.522863 66.379596 32.601932 66.959665 33.882812 66.994141 A 1.0001 1.0001 0 0 0 34 67 A 1.0001 1.0001 0 1 0 34 65C33.333333 65 32.447266 64.605469 31.447266 64.105469C30.447266 63.605469 29.333333 63 28 63C26.666667 63 25.552734 63.605469 24.552734 64.105469C23.552734 64.605469 22.666667 65 22 65C21.333333 65 20.447266 64.605469 19.447266 64.105469C18.447266 63.605469 17.333333 63 16 63 z M 40 63 A 1.0001 1.0001 0 1 0 40 65C40.666667 65 41.552734 65.394531 42.552734 65.894531C43.552734 66.394531 44.666667 67 46 67C47.333333 67 48.447266 66.394531 49.447266 65.894531C50.447266 65.394531 51.333333 65 52 65C52.666667 65 53.552734 65.394531 54.552734 65.894531C55.552734 66.394531 56.666667 67 58 67C59.333333 67 60.447266 66.394531 61.447266 65.894531C62.447266 65.394531 63.333333 65 64 65C64.666667 65 65.552734 65.394531 66.552734 65.894531C67.552734 66.394531 68.666667 67 70 67 A 1.0001 1.0001 0 1 0 70 65C69.333333 65 68.447266 64.605469 67.447266 64.105469C66.447266 63.605469 65.333333 63 64 63C62.666667 63 61.552734 63.605469 60.552734 64.105469C59.552734 64.605469 58.666667 65 58 65C57.333333 65 56.447266 64.605469 55.447266 64.105469C54.447266 63.605469 53.333333 63 52 63C50.666667 63 49.552734 63.605469 48.552734 64.105469C47.552734 64.605469 46.666667 65 46 65C45.333333 65 44.447266 64.605469 43.447266 64.105469C42.477137 63.620404 41.398068 63.040335 40.117188 63.005859 A 1.0001 1.0001 0 0 0 40 63 z M 37 64L36.199219 64.402344L36.041016 65.283203L36.652344 65.9375L37 66L37.800781 65.597656L37.958984 64.716797L37.347656 64.0625L37 64 z M 6 65 A 1 1 0 0 0 5 66 A 1 1 0 0 0 6 67 A 1 1 0 0 0 7 66 A 1 1 0 0 0 6 65 z M 74 65 A 1 1 0 0 0 73 66 A 1 1 0 0 0 74 67 A 1 1 0 0 0 75 66 A 1 1 0 0 0 74 65 z" fill="#FFFFFF" />
</svg>