<svg width="73" height="73" viewBox="0 0 73 73" fill="none" xmlns="http://www.w3.org/2000/svg">
<path d="M47.33 50.26C40.79 55.6 33.43 57.88 25.16 56.79C17.82 55.82 11.73 52.41 7.06 46.68C-2.27 35.23 -1.38 18.82 9.05 8.59C19.53 -1.69 35.96 -2.30999 47.14 7.04001C58.51 16.56 61.19 34.45 50.48 47.12C51.7 48.33 52.94 49.55 54.16 50.77C60.02 56.63 65.88 62.49 71.74 68.35C72.75 69.36 72.79 70.73 71.87 71.65C70.95 72.57 69.56 72.53 68.56 71.53C61.74 64.71 54.92 57.89 48.1 51.07C47.84 50.82 47.6 50.55 47.33 50.26ZM5.10001 28.7C5.09001 41.9 15.71 52.54 28.9 52.55C42.14 52.56 52.74 41.96 52.75 28.7C52.76 15.52 42.14 4.92001 28.91 4.91001C15.76 4.91001 5.11001 15.55 5.10001 28.7Z" fill="#ffffff"/>
</svg>
