<svg xmlns="http://www.w3.org/2000/svg" viewBox="0 0 190.73 183.42"><defs><style>.cls-1{opacity:0.25;}</style></defs><g id="Layer_2" data-name="Layer 2"><g id="Layer_1-2" data-name="Layer 1"><path class="cls-1" d="M72,7.88C87.37-2.56,102.32-2,117.2,8.54,125.72,2,134.9-1.6,145.77.81c22.51,5,32.61,30,19.72,49.15-5.65,8.38-5.46,8.19,1.85,15.34,15.77,15.44,22.75,34.69,23.38,56.43.09,2.92-.29,6.46-1.87,8.72-5.18,7.42-6.27,16.21-9.31,24.33-10.84,28.95-47.48,37.87-71,17.83-2.64-2.24-6.77-3.22-10.37-3.77-12.33-1.89-24.76-3.13-37.08-5.06a16.64,16.64,0,0,1-8.71-4.14c-6.64-6.62-14.94-8-23.6-9.88-24.34-5.2-32.48-18.45-27.2-43.38C5.13,89.43,12.15,74.16,25.91,62.85c5.15-4.22,2.79-7.77-.15-11.91C11.37,30.67,22.42,4.22,46.86.36,56.16-1.11,64.26,2,72,7.88ZM97.14,157c-5-13.64-5-26.3,1.22-38.61,6.34-12.51,17-19.76,31.35-23.92-4.55-5.08-7.86-9.61-12-13.22C101.47,67,85.66,67.33,70,82.19,54.89,96.51,49.12,114.75,48.88,135a15.58,15.58,0,0,0,8.41,14.35C69.45,156.16,82.76,156.8,97.14,157ZM66.88,69c-11.78-7.62-22.62-7.13-33.81,1.71-13.92,11-20.75,25.91-22.22,43.3-1.33,15.61,2.57,20.8,17.78,24.73,2.85.73,5.78,1.11,9.23,1.75C37.31,112.23,46,88.37,66.88,69Zm3.66-34.5a23.49,23.49,0,0,0,23,23.94A23.7,23.7,0,1,0,94,11,23.46,23.46,0,0,0,70.54,34.46Zm110.14,86.41c-.28-3.38-.34-6.8-.87-10.15-2.85-18-10.47-33.15-26.57-42.83-10.61-6.38-21.78-5.23-29.22,1.83,5.22,7.19,10.29,14.35,15.59,21.34,1.12,1.48,2.93,3.11,4.63,3.38C160.76,97,172,106.47,180.68,120.87Zm-54-72.11c10.22,7.17,22.71,5.36,30.2-4,6.82-8.48,5.06-22-3.53-29.53-8.25-7.21-23.61-6.57-28.9,1.87C129.94,27.22,131,38,126.68,48.76ZM65.05,15.83C55.36,8.7,44.47,9,36.56,16.05a21.38,21.38,0,0,0-4.43,26.59C37.53,51.84,47.56,56,57,53.08c3.37-1,5.32-2.34,4.08-6.33A36,36,0,0,1,65.05,15.83ZM139,161c6.48-7.48,11.5-12.89,16.07-18.67,3-3.75,3.63-8.15.17-12.13s-7.8-4.24-12.68-2.48a10.26,10.26,0,0,1-6.61.14c-4.84-1.86-9.23-1.87-12.75,2.1s-3,8.78.14,12.77C127.7,148.38,132.58,153.64,139,161Z"/></g></g></svg>