<svg xmlns="http://www.w3.org/2000/svg" viewBox="0 0 59.13 59.13"><defs><style>.cls-1{fill:#fff;}.cls-2{fill:none;stroke:#fff;stroke-miterlimit:10;stroke-width:2px;}</style></defs><g id="Layer_2" data-name="Layer 2"><g id="Layer_1-2" data-name="Layer 1"><path class="cls-1" d="M39.36,45.72a1.42,1.42,0,0,1-.77-.23l-8.74-5.93-4.69,3.37A1.38,1.38,0,0,1,23,42.16l-2.35-8.92L12.26,30a1.37,1.37,0,0,1-.88-1.28,1.38,1.38,0,0,1,.86-1.29l32-12.72a1.47,1.47,0,0,1,.46-.11h.16a1.37,1.37,0,0,1,.88.39l.08.08a1.38,1.38,0,0,1,.33.81.81.81,0,0,1,0,.22.77.77,0,0,1,0,.15L40.71,44.6a1.4,1.4,0,0,1-.82,1A1.39,1.39,0,0,1,39.36,45.72Zm-8.75-9L38.4,42l4.2-22L27.43,34.59l3.15,2.14Zm-6.48-1.17,1.05,4,2.24-1.62-2.94-2A1.62,1.62,0,0,1,24.13,35.58Zm-7.59-6.86,5.77,2.21a1.33,1.33,0,0,1,.84.93l.73,2.77a1.36,1.36,0,0,1,.42-.84L38.75,19.88Z"/><rect class="cls-2" x="1" y="1" width="57.13" height="57.13" rx="6.07"/></g></g></svg>