<svg xmlns="http://www.w3.org/2000/svg" viewBox="0 0 207.42 207.62"><defs><style>.cls-1{fill:#fff;}</style></defs><g id="Layer_2" data-name="Layer 2"><g id="Layer_1-2" data-name="Layer 1"><path class="cls-1" d="M184.55,92.47a98.93,98.93,0,0,1-3.2,23.25,1.79,1.79,0,0,0,1,2.46c16.37,9.44,25,23.61,25,42.54C207.5,185,188,206,163.69,207.5c-20.26,1.28-35.49-7.31-45.73-24.78a1.94,1.94,0,0,0-2.61-1.07C85.49,188.76,58.1,183.42,34.2,164S-1.45,119.11.14,88.39C2.05,51.63,20.38,24.91,53.3,8.76,86-7.28,127.06-.75,153.9,23.88c16.72,15.34,26.71,34.22,29.71,56.72C184.13,84.53,184.24,88.51,184.55,92.47Zm-18.38-.29c-.17-2.48-.26-5-.5-7.44-4.18-42-43.53-72.16-85.19-65.37a74.07,74.07,0,0,0-61.9,81.1c4.89,44.73,48.73,74.88,92.29,63.49,1-.27,1.45-.65,1.38-1.81a44.82,44.82,0,0,1,1.53-14.3,47.54,47.54,0,0,1,47.88-35.33c1.39,0,1.8-.41,2.1-1.63A81.39,81.39,0,0,0,166.17,92.18Zm25.21,94.5c8.25-8.5,13.23-25.16,7.46-40.79a41.53,41.53,0,0,0-79.5,4.88c-2.88,12.44,2,31.8,9,35.84a5.05,5.05,0,0,0,.07-.63c-.14-11.29,4.88-19.21,15.39-23.57a1.83,1.83,0,0,0,.81-1.4c0-4.34,0-8.68,0-13a11.12,11.12,0,0,1,10.87-11.23c2.85-.11,5.72-.11,8.57,0a11.11,11.11,0,0,1,11,11.45c0,4.07.07,8.15,0,12.23a2,2,0,0,0,1.46,2.29c8.61,3.59,13.51,10.06,14.65,19.33C191.29,183.55,191.29,185.07,191.38,186.68ZM113.09,169.8c-24.21,5.82-46.79,2.36-67.1-12.08s-31.74-34.41-33.67-59.3a79.89,79.89,0,0,1,77.55-86c22.74-.54,42.54,7.08,58.53,23.22,21.58,21.78,27.92,48.07,21.22,77.8l5.49,1.47c8.83-29.73-.12-71.27-36.34-94.8C102.82-3.29,56.12,3.42,27.21,35.86-.31,66.72-1.11,114.47,25.35,146.72s65.87,36,89.25,28.55Zm29.12,28.1c.24-.43.34-.52.34-.6,0-1.43,0-2.86,0-4.29,0-2.15,1.2-3.52,3-3.55s3.08,1.36,3.12,3.47,0,4,0,6c0,.81.21,1.24,1,1.44a42.9,42.9,0,0,0,20.12,0A1.22,1.22,0,0,0,171,199c0-1.9,0-3.81,0-5.71,0-2.39,1.2-3.83,3.1-3.79s3,1.45,3,3.72c0,1.46,0,2.92,0,5,2.84-1.8,5.28-3.32,7.67-4.92.28-.19.37-.84.38-1.27,0-2.65.06-5.3,0-7.94a17.08,17.08,0,0,0-10.84-15.61,1.48,1.48,0,0,0-2.11.52c-6.5,8.55-18.18,8.54-24.68,0a1.4,1.4,0,0,0-2-.57c-5.92,2.48-9.72,6.81-10.66,13.16-.53,3.53-.26,7.17-.32,10.77a1.32,1.32,0,0,0,.39,1C137.33,194.83,139.77,196.35,142.21,197.9Zm26.68-43.69c0-2.06,0-4.12,0-6.18a4.9,4.9,0,0,0-4.93-5.12q-4.12-.14-8.25,0a4.89,4.89,0,0,0-5,5c-.09,4.18-.12,8.36,0,12.53a9.07,9.07,0,0,0,18.13-.32C168.91,158.13,168.89,156.17,168.89,154.21Z"/><path class="cls-1" d="M91.59,107.59c-1.53-.62-2.53.36-3.61,1.61q-10.71,12.36-21.55,24.6a6.34,6.34,0,0,1-3.17,1.84c-4.22,1-8.49,1.74-12.75,2.56-3.18.61-4.82-1-4.19-4.18.86-4.25,1.66-8.52,2.65-12.74a6.18,6.18,0,0,1,1.75-3q12.53-11.11,25.19-22.08a2.88,2.88,0,0,0,1.14-2.69,14.56,14.56,0,0,1,5-12.35,2.4,2.4,0,0,0,.91-2.31c-.64-5.84-1.19-11.69-1.81-17.53a5.52,5.52,0,0,1,.95-3.89c2.42-3.53,4.74-7.14,7.12-10.7,1.78-2.66,4.14-2.63,5.93,0,2.36,3.51,4.68,7.05,7.09,10.53a5.78,5.78,0,0,1,1.05,4.17c-.64,5.73-1.16,11.48-1.79,17.21a2.71,2.71,0,0,0,1,2.59,15.1,15.1,0,0,1,3.76,17A15.32,15.32,0,0,1,91.59,107.59ZM79.3,101.38c.11-.08-.13,0-.32.21q-11.7,10.22-23.39,20.46c-.27.24-.64.51-.71.83-.61,2.75-1.16,5.52-1.78,8.55,2.61-.51,4.94-.88,7.23-1.45a5.21,5.21,0,0,0,2.51-1.38c5.8-6.52,11.53-13.1,17.27-19.66,1.13-1.29,2.25-2.6,3.19-3.69Zm12.94.08a9.08,9.08,0,1,0-9.15-9A9.1,9.1,0,0,0,92.24,101.46ZM95.36,77.3a3,3,0,0,0,.17-.58q.77-7.57,1.5-15.16a1.76,1.76,0,0,0-.12-1.08c-1.52-2.34-3.08-4.64-4.75-7.13-1.41,2.11-2.62,4-3.93,5.88a4.2,4.2,0,0,0-.84,3.24c.36,2.56.52,5.16.78,7.74.25,2.39.51,4.77.76,7.09Z"/><path class="cls-1" d="M30.45,89.34c.95,0,1.9,0,2.85,0a3.05,3.05,0,0,1,3.09,3,3,3,0,0,1-3,3.08c-2.07.07-4.13.07-6.2,0a3,3,0,0,1-3-3,3,3,0,0,1,3-3c1.06,0,2.12,0,3.18,0Z"/><path class="cls-1" d="M95.16,30.57c0,1,0,2,0,3a3,3,0,0,1-6.07.08c-.07-2.06-.07-4.13,0-6.19a3,3,0,0,1,6.06.07C95.2,28.56,95.16,29.56,95.16,30.57Z"/><path class="cls-1" d="M154,89.35c1.06,0,2.13-.06,3.18,0a3,3,0,0,1,2.86,3,2.93,2.93,0,0,1-2.86,3c-2.12.09-4.24.08-6.35,0a3,3,0,0,1-2.95-3.1,3,3,0,0,1,2.95-3c1.05-.06,2.12,0,3.17,0Z"/><path class="cls-1" d="M95.15,154.2c0,1.06.06,2.12,0,3.18a3,3,0,0,1-3,2.91,3,3,0,0,1-3.08-3c-.07-2.06-.06-4.13,0-6.19a3,3,0,0,1,6-.09C95.21,152.08,95.15,153.14,95.15,154.2Z"/></g></g></svg>