<svg xmlns="http://www.w3.org/2000/svg" viewBox="0 0 59.13 59.13"><defs><style>.cls-1{fill:none;stroke:#fff;stroke-miterlimit:10;stroke-width:2px;}.cls-2{fill:#fff;}</style></defs><g id="Layer_2" data-name="Layer 2"><g id="Layer_1-2" data-name="Layer 1"><rect class="cls-1" x="1" y="1" width="57.13" height="57.13" rx="6.07"/><path class="cls-2" d="M47.08,28.75v2.74c-.09.49-.17,1-.26,1.46a17,17,0,0,1-11,13.46,35.11,35.11,0,0,1-4.95,1.23H28.19c-.23,0-.45-.08-.67-.14a30.94,30.94,0,0,1-4.91-1.35A16.76,16.76,0,0,1,12.27,32.68a16.77,16.77,0,0,1,6.46-16.29A16.45,16.45,0,0,1,32.4,12.87,16.9,16.9,0,0,1,45.82,23.74,35,35,0,0,1,47.08,28.75Zm-25.3.3h6.74c0-1.66,0-3.27,0-4.88,0-.1-.21-.3-.34-.31-1.83-.12-3.67-.22-5.65-.33Zm-7.62,0h5.55l.76-5.87-4.18-1A15.12,15.12,0,0,0,14.16,29.05Zm22.45-5.48c-2,.1-3.78.19-5.57.3-.16,0-.43.23-.43.36,0,1.59,0,3.18,0,4.81h6.74Zm2.78,7.61L38.63,37c.95.22,1.91.42,2.85.66,1.41.38,1.43.4,2.07-1a13.82,13.82,0,0,0,1.39-5.47Zm0-2.16H45a14.87,14.87,0,0,0-1.87-6.37c-.08-.14-.31-.34-.43-.31-1.35.29-2.69.61-4,.92Zm-8.75,2.16v5l6,.42.72-5.45Zm-10.91,0H14.16a14.78,14.78,0,0,0,2,6.65l4.27-1Zm2.05,0,.73,5.42,5.95-.38v-5Zm6.71,7.1-5.34.33c1.18,2.81,2.31,5.45,5.34,6.75Zm2.13-16.43,5.36-.3c-1.21-2.83-2.32-5.48-5.36-6.77Zm-7.46-.33,5.31.32V14.77C25.45,16.09,24.31,18.71,23.16,21.51Zm7.45,23.72c2.41-.38,4.9-4.7,5.18-6.61l-5.18-.33Zm-13.2-5.57a15.2,15.2,0,0,0,6.33,4.77l-2.81-5.52Zm24.24.07c-1.14-.25-2.16-.46-3.18-.7-.4-.09-.55.06-.69.42A23.07,23.07,0,0,1,36.71,42c-.43.85-1,1.65-1.52,2.55A15.59,15.59,0,0,0,41.65,39.73Zm0-19.23a15.17,15.17,0,0,0-6.15-4.65l2.68,5.38Zm-18-4.65a15.33,15.33,0,0,0-6.09,4.56l3.42.74Z"/></g></g></svg>