<?xml version="1.0" encoding="utf-8"?>
<svg xmlns="http://www.w3.org/2000/svg" viewBox="0 0 80 80" width="480" height="480">
  <path d="M23 11C20.937904 11 19.25626 12.573725 19.042969 14.580078C18.442697 14.219952 17.749671 14 17 14C14.794 14 13 15.794 13 18L13 42.796875L10.136719 39.888672C9.0147188 38.738672 7.5132031 38.103609 5.9082031 38.099609L5.8945312 38.099609C4.2935313 38.099609 2.794875 38.728094 1.671875 39.871094L0.1171875 41.451172L6.0546875 47.841797C6.6446875 49.096797 10.647547 57.307453 15.810547 60.564453C17.262547 61.480453 18.918609 61.984375 20.474609 61.984375L27.685547 61.984375C27.012547 61.344375 26.346172 60.682 25.701172 60L20.474609 60C19.308609 60 17.998906 59.579047 16.878906 58.873047C11.906906 55.737047 7.8446875 46.947375 7.8046875 46.859375L7.7363281 46.714844L2.8828125 41.490234L3.0957031 41.273438C3.8397031 40.517437 4.8345312 40.099609 5.8945312 40.099609L5.9023438 40.099609C6.9663438 40.101609 7.9600312 40.522109 8.7070312 41.287109L15 47.677734L15 18C15 16.897 15.897 16 17 16C18.103 16 19 16.897 19 18L21 18L21 15C21 13.897 21.897 13 23 13C24.103 13 25 13.897 25 15L25 18L27 18L27 17C27 15.897 27.897 15 29 15C30.103 15 31 15.897 31 17L31 22L33 22C33 20.897 33.897 20 35 20C36.103 20 37 20.897 37 22L37 35.021484C37.695 35.318484 38.364 35.675703 39 36.095703L39 22C39 19.794 37.206 18 35 18C34.267779 18 33.590901 18.211879 33 18.556641L33 17C33 14.794 31.206 13 29 13C28.170237 13 27.399404 13.253412 26.759766 13.6875C26.213212 12.128607 24.743458 11 23 11 z M 57 11C55.256542 11 53.786788 12.128607 53.240234 13.6875C52.600596 13.253412 51.829763 13 51 13C48.794 13 47 14.794 47 17L47 18.556641C46.409099 18.211879 45.732221 18 45 18C42.794 18 41 19.794 41 22L41 36.095703C41.636 35.675703 42.305 35.318484 43 35.021484L43 22C43 20.897 43.897 20 45 20C46.103 20 47 20.897 47 22L49 22L49 17C49 15.897 49.897 15 51 15C52.103 15 53 15.897 53 17L53 18L55 18L55 17L55 15C55 13.897 55.897 13 57 13C58.103 13 59 13.897 59 15L59 18L61 18C61 17.446 61.221047 16.929828 61.623047 16.548828C62.025047 16.167828 62.554375 15.975906 63.109375 16.003906C64.152375 16.058906 65 17.029922 65 18.169922L65 47.677734L71.291016 41.289062C72.038016 40.524062 73.033656 40.103563 74.097656 40.101562L74.105469 40.101562C75.166469 40.101562 76.158344 40.517437 76.902344 41.273438L77.115234 41.490234L72.263672 46.714844L72.195312 46.859375C72.155312 46.947375 68.093094 55.737047 63.121094 58.873047C62.002094 59.579047 60.692344 60 59.527344 60L54.298828 60C53.652828 60.682 52.989406 61.345375 52.316406 61.984375L59.527344 61.984375C61.082344 61.984375 62.737453 61.480453 64.189453 60.564453C69.352453 57.308453 73.357266 49.094844 73.947266 47.839844L79.884766 41.449219L78.328125 39.871094C77.205125 38.729094 75.706469 38.099609 74.105469 38.099609L74.091797 38.099609C72.485797 38.102609 70.984281 38.738672 69.863281 39.888672L67 42.796875L67 18.169922C67 15.945922 65.336891 14.116859 63.212891 14.005859C62.398773 13.96144 61.626521 14.162746 60.955078 14.566406C60.735502 12.566634 59.057391 11 57 11 z M 20 20 A 1 1 0 0 0 19 21 A 1 1 0 0 0 20 22 A 1 1 0 0 0 21 21 A 1 1 0 0 0 20 20 z M 26 20 A 1 1 0 0 0 25 21 A 1 1 0 0 0 26 22 A 1 1 0 0 0 27 21 A 1 1 0 0 0 26 20 z M 54 20 A 1 1 0 0 0 53 21 A 1 1 0 0 0 54 22 A 1 1 0 0 0 55 21 A 1 1 0 0 0 54 20 z M 60 20 A 1 1 0 0 0 59 21 A 1 1 0 0 0 60 22 A 1 1 0 0 0 61 21 A 1 1 0 0 0 60 20 z M 20 24 A 1 1 0 0 0 19 25 A 1 1 0 0 0 20 26 A 1 1 0 0 0 21 25 A 1 1 0 0 0 20 24 z M 26 24 A 1 1 0 0 0 25 25 A 1 1 0 0 0 26 26 A 1 1 0 0 0 27 25 A 1 1 0 0 0 26 24 z M 32 24 A 1 1 0 0 0 31 25 A 1 1 0 0 0 32 26 A 1 1 0 0 0 33 25 A 1 1 0 0 0 32 24 z M 48 24 A 1 1 0 0 0 47 25 A 1 1 0 0 0 48 26 A 1 1 0 0 0 49 25 A 1 1 0 0 0 48 24 z M 54 24 A 1 1 0 0 0 53 25 A 1 1 0 0 0 54 26 A 1 1 0 0 0 55 25 A 1 1 0 0 0 54 24 z M 60 24 A 1 1 0 0 0 59 25 A 1 1 0 0 0 60 26 A 1 1 0 0 0 61 25 A 1 1 0 0 0 60 24 z M 20 28 A 1 1 0 0 0 19 29 A 1 1 0 0 0 20 30 A 1 1 0 0 0 21 29 A 1 1 0 0 0 20 28 z M 26 28 A 1 1 0 0 0 25 29 A 1 1 0 0 0 26 30 A 1 1 0 0 0 27 29 A 1 1 0 0 0 26 28 z M 32 28 A 1 1 0 0 0 31 29 A 1 1 0 0 0 32 30 A 1 1 0 0 0 33 29 A 1 1 0 0 0 32 28 z M 48 28 A 1 1 0 0 0 47 29 A 1 1 0 0 0 48 30 A 1 1 0 0 0 49 29 A 1 1 0 0 0 48 28 z M 54 28 A 1 1 0 0 0 53 29 A 1 1 0 0 0 54 30 A 1 1 0 0 0 55 29 A 1 1 0 0 0 54 28 z M 60 28 A 1 1 0 0 0 59 29 A 1 1 0 0 0 60 30 A 1 1 0 0 0 61 29 A 1 1 0 0 0 60 28 z M 20 32 A 1 1 0 0 0 19 33 A 1 1 0 0 0 20 34 A 1 1 0 0 0 21 33 A 1 1 0 0 0 20 32 z M 26 32 A 1 1 0 0 0 25 33 A 1 1 0 0 0 26 34 A 1 1 0 0 0 27 33 A 1 1 0 0 0 26 32 z M 32 32 A 1 1 0 0 0 31 33 A 1 1 0 0 0 32 34 A 1 1 0 0 0 33 33 A 1 1 0 0 0 32 32 z M 48 32 A 1 1 0 0 0 47 33 A 1 1 0 0 0 48 34 A 1 1 0 0 0 49 33 A 1 1 0 0 0 48 32 z M 54 32 A 1 1 0 0 0 53 33 A 1 1 0 0 0 54 34 A 1 1 0 0 0 55 33 A 1 1 0 0 0 54 32 z M 60 32 A 1 1 0 0 0 59 33 A 1 1 0 0 0 60 34 A 1 1 0 0 0 61 33 A 1 1 0 0 0 60 32 z M 32 36C25.919211 36 21 41.097595 21 47.320312C21 52.47336 25.764897 57.62078 30.333984 61.693359C34.903071 65.765939 39.458984 68.689453 39.458984 68.689453L40 69.037109L40.541016 68.689453C40.541016 68.689453 45.096929 65.765939 49.666016 61.693359C54.235103 57.62078 59 52.473358 59 47.320312C59 41.097595 54.080789 36 48 36C44.816579 36 42.002893 37.452879 40 39.673828C37.995878 37.452589 35.182328 36 32 36 z M 32 38C34.943684 38 37.541225 39.461193 39.191406 41.734375L40 42.849609L40.808594 41.734375C42.456636 39.461649 45.054113 38 48 38C52.965211 38 57 42.14503 57 47.320312C57 51.135267 52.764897 56.251751 48.333984 60.201172C44.334867 63.765718 40.743547 66.143468 40 66.630859C39.256453 66.143468 35.665133 63.765718 31.666016 60.201172C27.235103 56.251751 23 51.135269 23 47.320312C23 42.14503 27.034789 38 32 38 z" fill="#000000" />
</svg>