<?xml version="1.0" encoding="utf-8"?>
<svg xmlns="http://www.w3.org/2000/svg" viewBox="0 0 50 50" width="100" height="100">
  <path d="M16.074219 7C13.736744 7 11.954475 9.0028424 11.691406 11.423828C8.7643047 12.243568 6.8830522 14.186781 6.0507812 16.683594L6.03125 16.742188L5.0195312 21.804688L4.9316406 22.242188L4.9335938 22.246094C4.8553514 22.638221 4.2262283 25.786939 3.5175781 29.566406C3.1418827 31.570115 2.7656466 33.636589 2.4824219 35.335938C2.1991971 37.035286 2 38.25 2 39C2 42.473556 4.4641927 45 7.1308594 45C8.6011371 45 9.9195898 44.681444 11.025391 43.773438C12.131191 42.865431 13.001331 41.495386 14.025391 39.447266L14.048828 39.400391L15.695312 35L34.324219 35L36.087891 39.410156L36.105469 39.447266C37.129529 41.495386 37.999668 42.865431 39.105469 43.773438C40.211267 44.681444 41.529722 45 43 45C45.666667 45 48 42.444444 48 39C48 38.25 47.800803 37.035286 47.517578 35.335938C47.234353 33.636589 46.858117 31.570115 46.482422 29.566406C45.773772 25.786939 45.144649 22.638221 45.066406 22.246094L45.068359 22.242188L44.980469 21.804688L43.96875 16.742188L43.949219 16.683594C43.091174 14.109459 40.897884 12.208109 37.644531 11.412109C37.376923 8.9964071 35.597368 7 33.263672 7L31.544922 7C29.343448 7 27.617567 8.7720836 27.203125 11L22.132812 11C21.718073 8.772206 19.995809 7 17.794922 7L16.074219 7 z M 16.074219 9L17.794922 9C18.75929 9 19.501881 9.8641608 19.876953 11L15 11C14.682043 11 14.372238 11.011471 14.070312 11.03125L13.980469 11.03125C14.351498 9.8791659 15.100437 9 16.074219 9 z M 31.544922 9L33.263672 9C34.237453 9 34.986392 9.8791659 35.357422 11.03125L35.037109 11.03125C34.698806 11.011299 34.354164 11 34 11L29.460938 11C29.835651 9.8644724 30.579615 9 31.544922 9 z M 22.232422 13L27.105469 13L27.105469 13.03125L28.105469 13.03125L34.648438 13.03125C38.929611 13.191304 41.221256 14.874315 42.039062 17.294922L42.931641 21.757812L34.5 33L15.5 33L7.0683594 21.757812L7.9609375 17.291016C8.806962 14.779677 10.582615 13.189524 14.390625 13.03125L22.232422 13.03125L22.232422 13 z M 14 16C13.083334 16 12.268559 16.379756 11.751953 16.960938C11.235347 17.542119 11 18.277778 11 19C11 19.722222 11.235347 20.457881 11.751953 21.039062C12.268559 21.620244 13.083334 22 14 22C14.916666 22 15.731441 21.620244 16.248047 21.039062C16.764653 20.457881 17 19.722222 17 19C17 18.277778 16.764653 17.542119 16.248047 16.960938C15.731441 16.379756 14.916666 16 14 16 z M 35.5 16 A 1.5 1.5 0 0 0 35.5 19 A 1.5 1.5 0 0 0 35.5 16 z M 14 18C14.416666 18 14.601893 18.120244 14.751953 18.289062C14.902014 18.457881 15 18.722222 15 19C15 19.277778 14.90201 19.542119 14.751953 19.710938C14.601893 19.879756 14.416666 20 14 20C13.583334 20 13.398107 19.879756 13.248047 19.710938C13.097986 19.542119 13 19.277778 13 19C13 18.722222 13.097986 18.457881 13.248047 18.289062C13.398107 18.120244 13.583334 18 14 18 z M 32.5 19 A 1.5 1.5 0 0 0 32.5 22 A 1.5 1.5 0 0 0 32.5 19 z M 38.5 19 A 1.5 1.5 0 0 0 38.5 22 A 1.5 1.5 0 0 0 38.5 19 z M 35.5 22 A 1.5 1.5 0 0 0 35.5 25 A 1.5 1.5 0 0 0 35.5 22 z M 18 24L18 26L16 26L16 28L18 28L18 30L20 30L20 28L22 28L22 26L20 26L20 24L18 24 z M 30 24C29.083334 24 28.268559 24.379756 27.751953 24.960938C27.235347 25.542119 27 26.277778 27 27C27 27.722222 27.235347 28.457882 27.751953 29.039062C28.268559 29.620244 29.083334 30 30 30C30.916666 30 31.731441 29.620244 32.248047 29.039062C32.764653 28.457881 33 27.722222 33 27C33 26.277778 32.764653 25.542118 32.248047 24.960938C31.731441 24.379756 30.916666 24 30 24 z M 6.5527344 24.404297L13.871094 34.162109L12.222656 38.574219C11.254515 40.505519 10.472669 41.637969 9.7558594 42.226562C9.0349098 42.818556 8.3535817 43 7.1308594 43C5.797526 43 4 41.526444 4 39C4 38.75 4.1758029 37.339714 4.4550781 35.664062C4.7343534 33.988411 5.1081173 31.929885 5.4824219 29.933594C6.0173299 27.080751 6.2907868 25.728592 6.5527344 24.404297 z M 43.447266 24.404297C43.709213 25.728592 43.98267 27.080751 44.517578 29.933594C44.891883 31.929885 45.265647 33.988411 45.544922 35.664062C45.824197 37.339714 46 38.75 46 39C46 41.555556 44.333333 43 43 43C41.777278 43 41.09595 42.818556 40.375 42.226562C39.6559 41.636088 38.872842 40.50517 37.900391 38.5625L36.136719 34.150391L39.792969 29.277344L43.447266 24.404297 z M 30 26C30.416666 26 30.601893 26.120244 30.751953 26.289062C30.902014 26.457881 31 26.722222 31 27C31 27.277778 30.90201 27.542118 30.751953 27.710938C30.601893 27.879756 30.416666 28 30 28C29.583334 28 29.398107 27.879756 29.248047 27.710938C29.097986 27.542119 29 27.277778 29 27C29 26.722222 29.097986 26.457882 29.248047 26.289062C29.398107 26.120244 29.583334 26 30 26 z" fill="#3b80c3" />
</svg>