<?xml version="1.0" encoding="utf-8"?>
<svg xmlns="http://www.w3.org/2000/svg" viewBox="0 0 50 50" width="100" height="100">
  <path d="M25 3C18.936712 3 14 7.9367124 14 14C14 20.063288 18.936712 25 25 25C31.063288 25 36 20.063288 36 14C36 7.9367124 31.063288 3 25 3 z M 25 5C29.982407 5 34 9.0175926 34 14C34 18.982407 29.982407 23 25 23C20.017593 23 16 18.982407 16 14C16 9.0175926 20.017593 5 25 5 z M 24 7L24 8.7695312C21.352 9.2135313 21.267578 11.566703 21.267578 11.845703C21.267578 14.321703 23.271813 14.768906 24.882812 15.128906C26.328813 15.452906 27.146484 15.68425 27.146484 16.65625C27.146484 17.23925 26.867953 18.21875 25.001953 18.21875C24.960953 18.21875 23.990813 18.211516 23.382812 17.603516C23.023812 17.244516 22.850187 16.7255 22.867188 16.0625L22.869141 16L21.011719 16L21.013672 16.064453C21.073672 18.164453 22.055953 19.364375 24.001953 19.734375L24.001953 21L24.097656 21L25.917969 21L26 21L26 19.765625C28.846 19.303625 29 17.097578 29 16.642578C29.001 14.251578 26.996719 13.791875 25.386719 13.421875C23.940719 13.089875 23.123047 12.856406 23.123047 11.941406C23.123047 10.846406 23.728297 10.335937 25.029297 10.335938C26.445297 10.335938 26.818141 11.207 26.869141 12L28.724609 12C28.725609 11.224 28.410469 10.38925 27.855469 9.78125C27.369469 9.25025 26.731047 8.9084844 25.998047 8.7714844L25.998047 7L25.917969 7L24.095703 7L24 7 z M 13.464844 25C10.627925 25 9.3396481 25.686826 7.9199219 26.248047 A 1.0001 1.0001 0 0 0 7.9179688 26.248047C5.2111627 27.320672 0.56640625 29.554687 0.56640625 29.554688 A 1.0011131 1.0011131 0 1 0 1.4335938 31.359375C1.4335938 31.359375 6.1067191 29.117124 8.6542969 28.107422C10.214568 27.490643 10.919762 27 13.464844 27C19.081494 27 18.929568 29.521517 21.230469 30.902344 A 1.0001 1.0001 0 0 0 21.232422 30.902344C22.057886 31.397372 23.33502 31.802681 24.794922 32.173828 A 1.0001 1.0001 0 0 0 25.289062 32.300781C25.289062 32.300781 25.291016 32.300781 25.291016 32.300781C26.932527 32.697895 28.669554 33 30 33C31.168739 33 31.994449 33.224149 32.433594 33.5C32.872739 33.775851 33 34.003473 33 34.5C33 35.08208 32.866028 35.280878 32.427734 35.541016C31.989441 35.801153 31.150562 36 30 36L24.199219 36C21.750499 36 18.275391 35.039062 18.275391 35.039062 A 1.0001 1.0001 0 1 0 17.724609 36.960938C17.724609 36.960938 21.255939 38 24.199219 38L30 38C31.353438 38 32.513512 37.817082 33.449219 37.261719C33.73049 37.094778 33.978029 36.878641 34.193359 36.632812 A 1.0001 1.0001 0 0 0 34.40625 36.521484L43.400391 30.472656C44.959891 29.547467 46.035254 29.28467 46.675781 29.296875C47.316534 29.309085 47.559118 29.511998 47.763672 29.779297C48.060206 30.167168 48.083464 30.372942 47.890625 30.830078C47.697786 31.287214 47.146588 31.946898 46.181641 32.630859C44.980952 33.482789 31.767738 42.259609 30.214844 43.158203C29.065712 43.824171 28.139246 44.53324 27.080078 44.833984C26.021276 45.134624 24.768776 45.131221 22.720703 44.134766L22.71875 44.134766C21.350836 43.468375 15.57264 40.450746 13.697266 39.482422C12.660931 38.946794 11.787216 38.650885 10.894531 38.701172C10.001846 38.751462 9.2458311 39.140857 8.4511719 39.648438 A 1.0001 1.0001 0 0 0 8.4433594 39.654297L5.7460938 41.414062 A 1.0001 1.0001 0 1 0 6.8378906 43.089844L9.5371094 41.330078C10.226113 40.89114 10.633706 40.720293 11.007812 40.699219C11.384379 40.678009 11.886631 40.798389 12.779297 41.259766C14.637601 42.219276 20.340389 45.199341 21.84375 45.931641C24.205419 47.081154 26.104621 47.190069 27.626953 46.757812C29.149285 46.325556 30.234929 45.457704 31.216797 44.888672C33.299903 43.683266 45.832579 35.329789 47.337891 34.261719L47.337891 34.263672C48.484943 33.450633 49.314011 32.599286 49.732422 31.607422C50.150832 30.615558 50.016028 29.433582 49.351562 28.564453C48.829118 27.881752 47.895888 27.319416 46.712891 27.296875C45.876288 27.280935 44.875475 27.597166 43.773438 28.091797C43.731777 27.891775 43.828974 27.671021 43.740234 27.478516C43.400273 26.741025 42.642604 26.221439 41.791016 26.052734 A 1.0001 1.0001 0 0 0 41.789062 26.052734C40.671922 25.831893 39.406768 26.17603 38.154297 26.751953C38.065117 26.480449 37.99711 26.195839 37.816406 25.980469C37.280125 25.341308 36.508732 25.114235 35.791016 25.058594C34.355583 24.947311 32.862433 25.415989 31.783203 26.058594C30.285323 26.949982 25.809262 29.783009 25.158203 30.195312C23.821519 29.835059 22.616735 29.399621 22.259766 29.185547L22.259766 29.1875C21.344666 28.638279 19.770193 25 13.464844 25 z M 35.636719 27.052734C36.036377 27.083714 36.227516 27.199254 36.283203 27.265625C36.325577 27.316126 36.391894 27.410346 36.361328 27.705078L31.423828 31.109375C30.976465 31.043329 30.509098 31 30 31C29.470791 31 28.746611 30.920545 27.957031 30.794922C29.696949 29.697421 31.853372 28.341518 32.804688 27.775391C33.475457 27.375995 34.837402 26.990767 35.636719 27.052734 z M 40.736328 27.998047C41.000806 27.973631 41.228958 27.979396 41.402344 28.013672C41.817755 28.095972 41.85779 28.173147 41.923828 28.316406C41.972892 28.42284 41.987939 28.690751 41.953125 29.035156L34.908203 33.773438C34.733509 33.052245 34.30698 32.408353 33.710938 31.960938L37.837891 29.117188 A 1.0001 1.0001 0 0 0 37.939453 29.039062C38.891619 28.400982 39.967758 28.068999 40.736328 27.998047 z" fill="#3b80c3" />
</svg>