<?xml version="1.0" encoding="utf-8"?>
<svg xmlns="http://www.w3.org/2000/svg" viewBox="0 0 50 50" width="100" height="100">
  <path d="M48 3C46.894531 3 46 3.894531 46 5C46 5.136719 46.003906 5.277344 46.03125 5.40625C46.035156 5.414063 46.027344 5.429688 46.03125 5.4375L35.5625 15.09375C35.382813 15.039063 35.195313 15 35 15C34.648438 15 34.316406 15.09375 34.03125 15.25L27 11.0625C27 11.042969 27 11.019531 27 11C27 9.894531 26.105469 9 25 9C23.894531 9 23 9.894531 23 11C23 11.105469 23.015625 11.210938 23.03125 11.3125L15.71875 17.125C15.496094 17.039063 15.253906 17 15 17C13.957031 17 13.09375 17.796875 13 18.8125L3.15625 23.375C2.828125 23.144531 2.429688 23 2 23C0.894531 23 0 23.894531 0 25C0 26.105469 0.894531 27 2 27C3.042969 27 3.90625 26.203125 4 25.1875L13.84375 20.625C14.171875 20.855469 14.570313 21 15 21C16.105469 21 17 20.105469 17 19C17 18.894531 16.984375 18.789063 16.96875 18.6875L24.25 12.84375C24.480469 12.9375 24.734375 13 25 13C25.363281 13 25.707031 12.890625 26 12.71875L33 16.9375C33 16.957031 33 16.980469 33 17C33 18.105469 33.894531 19 35 19C36.105469 19 37 18.105469 37 17C37 16.863281 36.996094 16.722656 36.96875 16.59375L36.96875 16.5625L47.4375 6.90625C47.617188 6.960938 47.804688 7 48 7C49.105469 7 50 6.105469 50 5C50 3.894531 49.105469 3 48 3 Z M 48 29C46.894531 29 46 29.894531 46 31C46 31.136719 46.003906 31.277344 46.03125 31.40625C46.035156 31.414063 46.027344 31.429688 46.03125 31.4375L35.59375 41.09375C35.40625 41.035156 35.207031 41 35 41C34.828125 41 34.660156 41.019531 34.5 41.0625L26.9375 33.5C26.980469 33.339844 27 33.171875 27 33C27 31.894531 26.105469 31 25 31C23.894531 31 23 31.894531 23 33C23 33.105469 23.015625 33.210938 23.03125 33.3125L15.71875 39.125C15.496094 39.039063 15.253906 39 15 39C14.375 39 13.835938 39.300781 13.46875 39.75L3.84375 38.25C3.546875 37.519531 2.839844 37 2 37C0.894531 37 0 37.894531 0 39C0 40.105469 0.894531 41 2 41C2.625 41 3.164063 40.699219 3.53125 40.25L13.15625 41.75C13.453125 42.480469 14.160156 43 15 43C16.105469 43 17 42.105469 17 41C17 40.894531 16.984375 40.789063 16.96875 40.6875L24.25 34.84375C24.480469 34.9375 24.734375 35 25 35C25.171875 35 25.339844 34.980469 25.5 34.9375L33.0625 42.5C33.019531 42.660156 33 42.828125 33 43C33 44.105469 33.894531 45 35 45C36.105469 45 37 44.105469 37 43C37 42.863281 36.996094 42.722656 36.96875 42.59375C36.964844 42.585938 36.972656 42.570313 36.96875 42.5625L47.4375 32.90625C47.617188 32.960938 47.804688 33 48 33C49.105469 33 50 32.105469 50 31C50 29.894531 49.105469 29 48 29Z" fill="#FFFFFF" />
</svg>