<?xml version="1.0" encoding="utf-8"?>
<svg xmlns="http://www.w3.org/2000/svg" viewBox="0 0 50 50" width="100" height="100">
  <path d="M24.90625 -0.03125C24.863281 -0.0234375 24.820313 -0.0117188 24.78125 0L0 0L0 16.28125C-0.015625 16.386719 -0.015625 16.488281 0 16.59375L0 24.6875C-0.0585938 24.882813 -0.0585938 25.085938 0 25.28125L0 50L50 50L50 25.1875C50.027344 25.054688 50.027344 24.914063 50 24.78125L50 0L25.1875 0C25.097656 -0.0234375 25 -0.0351563 24.90625 -0.03125 Z M 2 2L24 2L24 18.125L19.125 13.53125C18.820313 13.25 18.371094 13.1875 18 13.375L14.34375 15.21875L9.40625 9.28125C9.191406 9.007813 8.847656 8.863281 8.5 8.90625C8.3125 8.941406 8.140625 9.027344 8 9.15625L2 14.28125 Z M 26 2L48 2L48 24L26 24L26 20.5625C26.011719 20.46875 26.011719 20.375 26 20.28125 Z M 37 4.4375C37 4.4375 35.953125 7.550781 34.96875 7.96875C33.984375 8.386719 30.96875 6.9375 30.96875 6.9375C30.96875 6.9375 32.296875 9.960938 31.96875 10.96875C31.734375 11.675781 28.550781 12.96875 28.46875 13C28.554688 13.03125 31.65625 14.152344 31.875 15C32.203125 16.273438 30.9375 19.0625 30.9375 19.0625C30.9375 19.0625 33.808594 17.5 34.75 18C35.6875 18.5 37 21.5625 37 21.5625C37 21.5625 38.050781 18.449219 39.03125 18.03125C40.015625 17.613281 43.03125 19.0625 43.03125 19.0625C43.03125 19.0625 41.683594 16.03125 42.03125 15.03125C42.296875 14.265625 45.453125 13.03125 45.53125 13C45.449219 12.96875 42.378906 11.769531 42.125 11C41.710938 9.75 43.0625 6.9375 43.0625 6.9375C43.0625 6.9375 40.191406 8.5 39.25 8C38.3125 7.5 37 4.4375 37 4.4375 Z M 19 6C17.894531 6 17 6.894531 17 8C17 9.105469 17.894531 10 19 10C20.105469 10 21 9.105469 21 8C21 6.894531 20.105469 6 19 6 Z M 37 9.09375C39.164063 9.09375 40.90625 10.835938 40.90625 13C40.90625 15.164063 39.164063 16.90625 37 16.90625C34.835938 16.90625 33.09375 15.164063 33.09375 13C33.09375 10.835938 34.835938 9.09375 37 9.09375 Z M 8.5 11.3125L13.3125 17.09375C13.609375 17.449219 14.117188 17.554688 14.53125 17.34375L18.25 15.46875L24 20.90625L24 24L2 24L2 16.9375 Z M 2 26L24 26L24 48L2 48 Z M 26 26L48 26L48 48L26 48 Z M 15.71875 28.25C15.539063 28.25 15.363281 28.257813 15.1875 28.28125C14.492188 28.378906 13.839844 28.65625 13.3125 28.9375C12.640625 29.296875 12.464844 29.492188 12.15625 29.75C11.644531 29.464844 10.863281 29.09375 9.90625 28.9375C8.894531 28.769531 7.625 28.929688 6.65625 29.875C5.421875 31.074219 5.390625 32.710938 5.625 33.875C5.777344 34.636719 5.957031 34.863281 6.125 35.21875C5.847656 35.480469 5.621094 35.640625 5.1875 36.28125C4.53125 37.253906 3.890625 38.722656 4.46875 40.28125C4.757813 41.0625 5.332031 41.621094 5.9375 41.96875C7.335938 42.769531 8.640625 42.695313 9.40625 42.59375C9.75 43.257813 10.449219 44.390625 11.84375 45.1875C12.378906 45.492188 13.042969 45.726563 13.75 45.6875C14.574219 45.640625 15.25 45.234375 15.75 44.75C16.25 44.265625 16.609375 43.699219 16.875 43.15625C17.25 42.390625 17.28125 42.027344 17.375 41.65625C17.746094 41.605469 18.082031 41.597656 18.84375 41.3125C19.949219 40.898438 21.308594 40.089844 21.71875 38.5C22.09375 37.050781 21.332031 35.816406 20.5625 35C19.964844 34.367188 19.453125 34.074219 19.03125 33.8125C19.097656 33.4375 19.191406 33.105469 19.15625 32.28125C19.105469 31.089844 18.773438 29.507813 17.34375 28.6875C16.808594 28.378906 16.253906 28.253906 15.71875 28.25 Z M 32 29C30.894531 29 30 29.894531 30 31C30 32.105469 30.894531 33 32 33C33.105469 33 34 32.105469 34 31C34 29.894531 33.105469 29 32 29 Z M 15.90625 30.25C16.0625 30.269531 16.210938 30.332031 16.34375 30.40625C16.871094 30.707031 17.121094 31.488281 17.15625 32.375C17.191406 33.261719 17.03125 34.0625 17.03125 34.0625L16.84375 34.8125L17.53125 35.15625C17.53125 35.15625 17.566406 35.15625 17.625 35.1875C17.871094 35.328125 18.585938 35.804688 19.125 36.375C19.664063 36.945313 19.921875 37.460938 19.78125 38C19.613281 38.652344 18.941406 39.132813 18.125 39.4375C17.308594 39.742188 16.53125 39.8125 16.53125 39.8125L15.8125 39.875L15.65625 40.625C15.65625 40.625 15.460938 41.433594 15.0625 42.25C14.863281 42.660156 14.632813 43.0625 14.375 43.3125C14.117188 43.5625 13.882813 43.671875 13.625 43.6875C13.371094 43.703125 13.128906 43.632813 12.84375 43.46875C11.847656 42.898438 10.875 41.125 10.875 41.125L10.5625 40.40625L9.8125 40.5625C9.8125 40.5625 7.8125 40.769531 6.90625 40.25C6.617188 40.082031 6.460938 39.910156 6.34375 39.59375C6.078125 38.882813 6.367188 38.113281 6.84375 37.40625C7.320313 36.699219 7.875 36.21875 7.875 36.21875L8.53125 35.6875L8.125 34.9375C8.125 34.9375 7.757813 34.289063 7.59375 33.46875C7.429688 32.648438 7.4375 31.890625 8.03125 31.3125C8.472656 30.882813 8.96875 30.804688 9.59375 30.90625C10.21875 31.007813 10.898438 31.34375 11.28125 31.5625C11.503906 31.691406 11.625 31.75 11.625 31.75L12.28125 32.25L12.875 31.6875C12.875 31.6875 13.464844 31.136719 14.25 30.71875C14.640625 30.511719 15.046875 30.339844 15.40625 30.28125C15.585938 30.25 15.75 30.230469 15.90625 30.25 Z M 38.53125 33C37.015625 33 35.683594 33.785156 34.75 34.9375C33.003906 34.96875 31.5625 36.042969 30.90625 37.5625C29.25 37.96875 28 39.410156 28 41.1875C28 43.273438 29.703125 45 31.78125 45L41.625 45C44.042969 45 46 42.992188 46 40.5625C46 38.773438 44.84375 37.34375 43.28125 36.65625C42.667969 34.550781 40.78125 33 38.53125 33 Z M 14.28125 33.21875C13.402344 33.449219 12.84375 36.0625 12.84375 36.0625C12.84375 36.0625 11.460938 32.925781 10.46875 33.75C9.476563 34.574219 12.53125 36.34375 12.53125 36.34375C12.53125 36.34375 9.191406 36.769531 9.59375 37.90625C9.996094 39.042969 12.71875 36.75 12.71875 36.75C12.71875 36.75 12.003906 40.234375 13.28125 40.03125C14.558594 39.828125 13.125 36.6875 13.125 36.6875C13.125 36.6875 16.246094 38.433594 16.4375 37.15625C16.628906 35.878906 13.21875 36.28125 13.21875 36.28125C13.21875 36.28125 15.792969 33.914063 14.6875 33.28125C14.550781 33.203125 14.40625 33.1875 14.28125 33.21875 Z M 38.53125 35C39.949219 35 41.183594 36.039063 41.46875 37.4375L41.59375 38.0625L42.21875 38.21875C43.257813 38.488281 44 39.421875 44 40.5625C44 41.925781 42.941406 43 41.625 43L31.78125 43C30.804688 43 30 42.203125 30 41.1875C30 40.207031 30.734375 39.429688 31.65625 39.375L32.375 39.34375L32.5625 38.65625C32.871094 37.519531 33.824219 36.738281 35.0625 36.875L35.6875 36.96875L36 36.40625C36.542969 35.53125 37.511719 35 38.53125 35Z" fill="#3b80c3" />
</svg>