<?xml version="1.0" encoding="utf-8"?>
<svg xmlns="http://www.w3.org/2000/svg" viewBox="0 0 50 50" width="100" height="100">
  <path d="M25 4.0039062L15.160156 21L17.470703 21L24 21L24 45L26 45L26 21L33 21L34.839844 21L25 4.0039062 z M 25 7.9960938L31.371094 19L18.628906 19L25 7.9960938 z M 14.001953 23L1.265625 45L22 45L22 43L4.734375 43L10.523438 33L22 33L22 31L11.681641 31L16.3125 23L14.001953 23 z M 33.6875 23L38.318359 31L28 31L28 33L39.476562 33L45.265625 43L28 43L28 45L48.734375 45L35.998047 23L33.6875 23 z" fill="#3b80c3" />
</svg>