<?xml version="1.0" encoding="utf-8"?>
<svg xmlns="http://www.w3.org/2000/svg" viewBox="0 0 50 50" width="100" height="100">
  <path d="M12.378906 13.089844C12.121094 13.097656 11.875 13.207031 11.691406 13.390625L0.0859375 25L11.691406 36.609375C11.945313 36.867188 12.316406 36.972656 12.667969 36.882813C13.015625 36.792969 13.292969 36.515625 13.382813 36.167969C13.472656 35.816406 13.367188 35.445313 13.109375 35.191406L2.914063 25L13.109375 14.808594C13.402344 14.519531 13.492188 14.078125 13.332031 13.699219C13.171875 13.320313 12.792969 13.078125 12.378906 13.089844 Z M 37.589844 13.089844C37.183594 13.089844 36.816406 13.335938 36.664063 13.714844C36.511719 14.089844 36.601563 14.523438 36.890625 14.808594L47.085938 25L36.890625 35.191406C36.632813 35.445313 36.527344 35.816406 36.617188 36.167969C36.707031 36.515625 36.984375 36.792969 37.332031 36.882813C37.683594 36.972656 38.054688 36.867188 38.308594 36.609375L49.914063 25L38.308594 13.390625C38.117188 13.199219 37.859375 13.089844 37.589844 13.089844 Z M 15 23C13.894531 23 13 23.894531 13 25C13 26.105469 13.894531 27 15 27C16.105469 27 17 26.105469 17 25C17 23.894531 16.105469 23 15 23 Z M 25 23C23.894531 23 23 23.894531 23 25C23 26.105469 23.894531 27 25 27C26.105469 27 27 26.105469 27 25C27 23.894531 26.105469 23 25 23 Z M 35 23C33.894531 23 33 23.894531 33 25C33 26.105469 33.894531 27 35 27C36.105469 27 37 26.105469 37 25C37 23.894531 36.105469 23 35 23Z" fill="#FFFFFF" />
</svg>