<?xml version="1.0" encoding="UTF-8"?>
<svg version="1.1" xmlns="http://www.w3.org/2000/svg" width="717" height="437">
<path d="M0 0 C236.61 0 473.22 0 717 0 C717 144.21 717 288.42 717 437 C480.39 437 243.78 437 0 437 C0 292.79 0 148.58 0 0 Z " fill="transparent" transform="translate(0,0)"/>
<path d="M0 0 C2.375 1 2.375 1 4 2 C4 2.66 4 3.32 4 4 C7.12197478 2.6910428 7.12197478 2.6910428 9 0 C12.47899158 1.39159663 13.48052501 2.63251488 15 6 C14.53851562 6.57105469 14.07703125 7.14210938 13.6015625 7.73046875 C10.52119944 11.55961571 7.44803037 15.38903187 4.48828125 19.3125 C-0.9822113 26.56205718 -6.55274561 33.07337855 -13.48022461 38.97290039 C-19.13304235 43.91094483 -24.39259557 49.24835263 -29.69140625 54.55859375 C-30.80649011 55.67300218 -31.92172222 56.78726229 -33.03709412 57.90138245 C-35.36253762 60.22536021 -37.68618511 62.55111464 -40.00854492 64.87817383 C-42.96587903 67.84120451 -45.92768128 70.7997217 -48.89085484 73.75691128 C-51.19110598 76.05352632 -53.48894231 78.35254566 -55.78608513 80.65226936 C-56.87645297 81.74329806 -57.9675468 82.83360177 -59.05941963 83.92312431 C-60.59227598 85.45340358 -62.12182792 86.98691664 -63.65063477 88.52124023 C-64.51697037 89.38837143 -65.38330597 90.25550262 -66.27589417 91.14891052 C-68.30836625 93.27612588 -70.23182204 95.41471219 -72.14329529 97.64527893 C-76.85422197 103.06866777 -81.96715628 108.09099129 -87.05664062 113.15429688 C-88.15982563 114.25555895 -89.26278041 115.3570517 -90.36552429 116.45875549 C-92.72667847 118.81676662 -95.08937263 121.17321953 -97.45329285 123.52845764 C-101.19710593 127.2586625 -104.93702511 130.99275537 -108.6763916 134.72741699 C-117.28862475 143.32764583 -125.90587901 151.92283783 -134.52318573 160.51798248 C-142.42598034 168.40055673 -150.32769098 176.28420965 -158.22534895 184.17193079 C-161.93678584 187.87840885 -165.65064145 191.58244044 -169.36641693 195.28456879 C-171.68351217 197.59416421 -173.99849734 199.90586599 -176.31293678 202.21812248 C-177.37984934 203.28317533 -178.44761972 204.34736971 -179.51634789 205.41060066 C-184.60114482 210.47008127 -189.56933188 215.56779458 -194.2402916 221.01542473 C-197.84093493 225.07618145 -201.7403003 228.85187806 -205.59130859 232.6730957 C-206.53675258 233.61497491 -207.48195645 234.55709519 -208.42694092 235.49943542 C-210.44601877 237.5120129 -212.46659733 239.52306662 -214.48835373 241.53295326 C-217.68488016 244.71105873 -220.87694492 247.89362059 -224.06826782 251.07695007 C-233.13793532 260.12255647 -242.21361601 269.16211592 -251.29345703 278.19750977 C-256.3204542 283.19997727 -261.34386498 288.20601842 -266.36344016 293.2159335 C-269.53613669 296.38208743 -272.71328641 299.5436823 -275.89380336 302.70197928 C-278.32822176 305.12194252 -280.75613272 307.54840118 -283.18505859 309.97387695 C-284.0681369 310.84819366 -284.95121521 311.72251038 -285.86105347 312.62332153 C-286.6600708 313.42364304 -287.45908813 314.22396454 -288.28231812 315.04853821 C-288.9802416 315.74331929 -289.67816509 316.43810038 -290.39723778 317.15393543 C-292.21667853 319.01143112 -292.21667853 319.01143112 -293 322 C-299.49580144 322.36768687 -299.49580144 322.36768687 -301.70605469 320.75585938 C-304.16540864 317.41856247 -303.39601055 313.48316774 -303.25 309.5 C-303.27126953 308.22769531 -303.27126953 308.22769531 -303.29296875 306.9296875 C-302.78809258 292.39803412 -285.37383233 280.13199034 -275.7421875 270.58203125 C-274.06736716 268.91349501 -272.39307005 267.24443342 -270.7192688 265.57487488 C-266.33688508 261.20571238 -261.94895068 256.84217209 -257.55932617 252.48028564 C-250.52707802 245.49136945 -243.50167637 238.49558767 -236.47952652 231.49652672 C-234.03863736 229.06578795 -231.59432677 226.63853027 -229.14962769 224.21162415 C-227.64244004 222.71126939 -226.13536427 221.21080224 -224.62841797 219.71020508 C-223.95706818 219.04559265 -223.28571838 218.38098022 -222.59402466 217.69622803 C-219.52103126 214.63055684 -216.55582657 211.52941775 -213.73147583 208.23246765 C-208.98847729 202.74317271 -203.80713055 197.68374762 -198.66796875 192.5703125 C-197.53522754 191.43949407 -196.40271645 190.30844508 -195.27041626 189.17718506 C-192.84541905 186.75533164 -190.41888141 184.33503641 -187.99111938 181.91595459 C-184.14649343 178.08493293 -180.30575777 174.2500267 -176.46557617 170.41455078 C-167.62112635 161.58210709 -158.77165617 152.75469906 -149.9221344 143.92733765 C-141.80660037 135.83202193 -133.69214894 127.73562877 -125.58174992 119.63516808 C-121.76995794 115.82833611 -117.95574656 112.02395054 -114.13961792 108.22146606 C-111.76024684 105.84959279 -109.38298396 103.47561492 -107.00626755 101.10108185 C-105.91032869 100.0070033 -104.81353168 98.91378354 -103.71577835 97.82152557 C-98.52002025 92.65094455 -93.42496365 87.45098825 -88.65384865 81.88165092 C-85.58518342 78.39030559 -82.27538041 75.13661048 -78.98510742 71.85571289 C-78.21676575 71.0856189 -77.44842407 70.3155249 -76.65679932 69.52209473 C-74.14218139 67.00311117 -71.6239662 64.48776058 -69.10546875 61.97265625 C-67.34891899 60.21543234 -65.59251765 58.45806006 -63.83625793 56.70054626 C-60.16890973 53.03172862 -56.49977077 49.36471397 -52.8293457 45.69897461 C-49.05686861 41.93107834 -45.286574 38.16102409 -41.51879883 34.38842773 C-36.96136795 29.82521569 -32.40152003 25.26443507 -27.83956337 20.7057476 C-26.10162189 18.96847441 -24.36442625 17.23045476 -22.62798119 15.49168587 C-20.21036616 13.07154353 -17.78959019 10.65460897 -15.36791992 8.23852539 C-14.64739944 7.51598068 -13.92687897 6.79343597 -13.18452454 6.04899597 C-12.52717316 5.39446442 -11.86982178 4.73993286 -11.19255066 4.06556702 C-10.62091281 3.49430619 -10.04927496 2.92304537 -9.46031475 2.33447361 C-6.45694333 -0.41008532 -3.95394511 -0.23723671 0 0 Z " fill="#ffffff" transform="translate(533,20)"/>
<path d="M0 0 C0.33 1.65 0.66 3.3 1 5 C1.66 5 2.32 5 3 5 C3.66 5.66 4.32 6.32 5 7 C6.32 6.01 7.64 5.02 9 4 C9.88999848 7.57647537 9.87692976 10.41133359 9 14 C6.17645141 18.61112852 2.26582983 22.47895385 -1.453125 26.37060547 C-3.51547468 28.54297317 -5.46963944 30.80460029 -7.4375 33.0625 C-11.53927646 37.59761532 -15.84777216 41.91151878 -20.22045898 46.18383789 C-23.02015541 48.93734477 -25.68005998 51.75008694 -28.23578644 54.73259735 C-31.81373963 58.83953694 -35.57742762 62.71211939 -39.43835449 66.55187988 C-40.15401817 67.26769242 -40.86968184 67.98350495 -41.6070323 68.72100878 C-43.98500301 71.09828981 -46.36651926 73.47198578 -48.74804688 75.84570312 C-50.46206058 77.55779597 -52.1758455 79.27011788 -53.88941956 80.98265076 C-57.56999423 84.66007222 -61.25205933 88.33599429 -64.93544006 92.01060486 C-70.26899948 97.33155923 -75.59927329 102.65579551 -80.92867869 107.98091012 C-89.58790097 116.63307787 -98.24898933 125.28337483 -106.91162109 133.93212891 C-107.429184 134.448864 -107.9467469 134.96559909 -108.47999352 135.49799281 C-112.67885781 139.69011317 -116.87781288 143.88214258 -121.07677174 148.07416821 C-124.74734992 151.73869331 -128.41789182 155.40325474 -132.08837891 159.06787109 C-132.60530625 159.58397031 -133.12223359 160.10006952 -133.65482539 160.6318081 C-142.28677087 169.25004786 -150.9167376 177.87026644 -159.54530573 186.49188757 C-164.85883802 191.80095093 -170.17413611 197.10823446 -175.49176133 202.41319835 C-179.56854168 206.48052445 -183.64275418 210.55041484 -187.71604729 214.62123299 C-189.38283486 216.28615261 -191.05048464 217.95020959 -192.71907234 219.61332512 C-195.00226462 221.88926669 -197.28231322 224.16831373 -199.56164551 226.44812012 C-200.21739673 227.10027638 -200.87314795 227.75243264 -201.54877043 228.42435122 C-205.34841726 232.23243138 -208.94567684 236.16254274 -212.46253443 240.2329793 C-214.20275026 242.23302239 -216.00834581 244.14956439 -217.86975098 246.03710938 C-218.55080399 246.72965317 -219.23185699 247.42219696 -219.93354797 248.13572693 C-220.65479355 248.86437454 -221.37603912 249.59302216 -222.11914062 250.34375 C-222.89895798 251.13495743 -223.67877533 251.92616486 -224.48222351 252.74134827 C-231.60242772 259.95832948 -238.74523307 267.15312678 -245.89550018 274.34031677 C-251.16994026 279.64241735 -256.4323521 284.95588259 -261.67960405 290.28489494 C-265.83200687 294.49978065 -270.0034507 298.69547895 -274.1816864 302.88476562 C-275.95153472 304.66503252 -277.7153523 306.45131593 -279.47297668 308.24365234 C-281.92619975 310.74285354 -284.40038457 313.21929222 -286.88085938 315.69140625 C-287.96272774 316.80866844 -287.96272774 316.80866844 -289.06645203 317.94850159 C-294.08345124 322.88396941 -294.08345124 322.88396941 -298.85510254 323.48803711 C-303.69886203 322.73636415 -303.69886203 322.73636415 -306 322 C-306.16105568 318.61783069 -306.0553913 316.15965729 -304.9375 312.9375 C-303.77064414 310.10835363 -303.77064414 310.10835363 -304.5 307.5625 C-305.21204146 303.9132875 -304.61715889 301.27484043 -303 298 C-300.23213397 294.5084915 -297.08023951 291.43862426 -293.90380859 288.3203125 C-292.9499215 287.36619847 -291.99712969 286.41098836 -291.04534912 285.45477295 C-288.46528336 282.86901489 -285.87003575 280.29900611 -283.2716136 277.73171234 C-280.54670445 275.03444175 -277.83565995 272.3233041 -275.12295532 269.61376953 C-270.56298429 265.06299491 -265.99396756 260.52147631 -261.41845703 255.98632812 C-254.98614348 249.61070853 -248.57100493 243.21802039 -242.15891528 236.82207108 C-237.69778176 232.37343894 -233.23258282 227.92888795 -228.76659441 223.48513031 C-227.68907262 222.41295339 -226.61165405 221.34067274 -225.53433943 220.26828766 C-222.45778985 217.2061467 -219.37867809 214.14662613 -216.29561615 211.09104156 C-214.92633846 209.73302507 -213.55929892 208.372753 -212.19235229 207.01239014 C-207.7989101 202.66432552 -203.34653554 198.44785797 -198.65108776 194.4264822 C-196.4450464 192.52053946 -194.37123176 190.50076539 -192.30859375 188.44140625 C-191.50873047 187.64283203 -190.70886719 186.84425781 -189.88476562 186.02148438 C-189.07716797 185.21001953 -188.26957031 184.39855469 -187.4375 183.5625 C-186.62603516 182.75490234 -185.81457031 181.94730469 -184.97851562 181.11523438 C-184.17994141 180.31537109 -183.38136719 179.51550781 -182.55859375 178.69140625 C-181.85017334 177.98185791 -181.14175293 177.27230957 -180.41186523 176.54125977 C-178.47182934 174.49714258 -176.62651011 172.42361098 -174.78889656 170.28958702 C-171.32099518 166.31804247 -167.69560584 162.54990309 -163.96578979 158.8253479 C-162.9575562 157.81265762 -162.9575562 157.81265762 -161.92895424 156.77950895 C-159.6983135 154.54026486 -157.46417694 152.30454362 -155.22998047 150.06884766 C-153.62112659 148.45536007 -152.01246882 146.8416769 -150.4039917 145.22781372 C-146.05136748 140.86212618 -141.69546168 136.49972791 -137.33852911 132.13834047 C-134.61613787 129.41301174 -131.89433183 126.68709987 -129.17270279 123.96100998 C-121.62863778 116.40485336 -114.08372351 108.84954854 -106.53530693 101.29773903 C-106.05362234 100.81583487 -105.57193775 100.33393072 -105.07565666 99.83742341 C-104.59287919 99.35442766 -104.11010171 98.87143191 -103.61269462 98.37379992 C-102.63453575 97.39519759 -101.65637843 96.41659371 -100.67822266 95.43798828 C-100.1930319 94.95257609 -99.70784114 94.4671639 -99.20794763 93.96704225 C-91.33006053 86.08519916 -83.45896168 78.19661382 -75.59072851 70.30513461 C-67.50183009 62.19253191 -59.40720268 54.08569169 -51.30715477 45.98421896 C-46.76341924 41.43943421 -42.22215868 36.89223966 -37.6868248 32.33906937 C-33.42687781 28.06269232 -29.15988847 23.79347223 -24.88732147 19.52970505 C-23.31937904 17.96253542 -21.75400842 16.39278793 -20.19138718 14.8203125 C-18.06119011 12.67746945 -15.92199353 10.54403648 -13.78024292 8.41275024 C-13.16146644 7.78591736 -12.54268997 7.15908448 -11.90516269 6.51325667 C-8.38838955 3.03665405 -5.24374768 0 0 0 Z " fill="#ffffff" transform="translate(382,13)"/>
<path d="M0 0 C4.17510636 0.76685627 5.54457345 2.18128434 8.0625 5.5625 C8.3925 7.8725 8.7225 10.1825 9.0625 12.5625 C12.6925 8.9325 16.3225 5.3025 20.0625 1.5625 C24.0625 3.5625 24.0625 3.5625 24.99312359 5.45659119 C25.0625 7.5625 25.0625 7.5625 23.93688768 9.3906793 C23.35464719 10.00657865 22.77240669 10.62247801 22.17252254 11.25704098 C21.19330359 12.30562843 21.19330359 12.30562843 20.19430244 13.37539947 C19.49080763 14.09714265 18.78731283 14.81888582 18.0625 15.5625 C17.39389139 16.25587971 16.72528279 16.94925942 16.03641331 17.66365063 C13.80973734 19.94435848 11.55916868 22.19917805 9.30213928 24.44984436 C8.44425684 25.30928679 7.5863744 26.16872923 6.70249552 27.05421537 C4.3412223 29.41876788 1.97775244 31.78108353 -0.38671482 34.14243948 C-2.94412528 36.69757586 -5.49864223 39.25560238 -8.05354309 41.81324768 C-13.05099826 46.81513809 -18.05113928 51.8143351 -23.05226415 56.8125561 C-27.11851313 60.87654222 -31.18377956 64.94150879 -35.24835396 69.00716972 C-35.82792161 69.5868906 -36.40748925 70.16661149 -37.00461956 70.76389967 C-38.1821752 71.94177505 -39.3597286 73.11965266 -40.53727979 74.29753249 C-51.56665207 85.32975298 -62.59908143 96.35891222 -73.6325667 107.38701903 C-83.08970774 116.83969264 -92.54422394 126.29498495 -101.99682617 135.75219727 C-112.98679182 146.74752031 -123.97838545 157.74121173 -134.9725638 168.73232263 C-136.14598805 169.90542835 -137.31941022 171.07853614 -138.49283028 172.25164604 C-139.35873909 173.11732345 -139.35873909 173.11732345 -140.24214102 174.00048928 C-144.30050732 178.05799393 -148.35771573 182.11665415 -152.41447258 186.1757679 C-157.36161001 191.12571646 -162.31053857 196.07386596 -167.26173752 201.01975209 C-169.78548756 203.54088283 -172.3084478 206.06279016 -174.82922745 208.58689117 C-177.5668177 211.32803374 -180.30830122 214.06526166 -183.05015564 216.80213928 C-183.83917721 217.59339158 -184.62819878 218.38464387 -185.4411301 219.19987351 C-189.59020708 223.33439068 -193.82290225 227.30752908 -198.26572329 231.12560838 C-200.32266205 232.89354667 -202.3135706 234.72948964 -204.3125 236.5625 C-216.7978229 247.5625 -216.7978229 247.5625 -222.9375 247.5625 C-225.9375 246.5625 -225.9375 246.5625 -227.9375 245.5625 C-227.80324726 242.05836777 -227.59540008 238.56218615 -227.375 235.0625 C-227.33826172 234.08023438 -227.30152344 233.09796875 -227.26367188 232.0859375 C-226.72998758 224.46187614 -224.47176657 220.71752057 -218.9375 215.5625 C-217.76380859 214.32306641 -217.76380859 214.32306641 -216.56640625 213.05859375 C-215.88449219 212.37925781 -215.20257813 211.69992187 -214.5 211 C-213.48099609 209.97712891 -213.48099609 209.97712891 -212.44140625 208.93359375 C-210.4773824 207.07374589 -208.48955235 205.31956168 -206.43359375 203.56640625 C-200.4672375 198.38053872 -194.98921734 192.68301998 -189.4375 187.0625 C-187.26347227 184.86152946 -185.08590934 182.66414212 -182.90625 180.46875 C-182.42579224 179.9799939 -181.94533447 179.49123779 -181.45031738 178.9876709 C-178.86308807 176.38241517 -176.21027366 173.91858906 -173.41468811 171.53770447 C-168.12025177 166.91991717 -163.18624161 161.95148081 -158.22631836 156.98071289 C-157.17267602 155.92842841 -156.11882168 154.87635616 -155.06477356 153.82447815 C-152.22369441 150.98792754 -149.3857511 148.14825942 -146.54852748 145.30785298 C-143.566454 142.32323212 -140.5819236 139.34106964 -137.59779358 136.35850525 C-132.58870606 131.35123251 -127.58172024 126.34186546 -122.57592773 121.33129883 C-116.80425562 115.55418543 -111.02899011 109.78068307 -105.2518453 104.0090428 C-100.27481954 99.0365679 -95.29976127 94.0621308 -90.32631594 89.08607477 C-87.36332386 86.12153076 -84.3996772 83.15764961 -81.43424797 80.19554329 C-78.64531258 77.40951536 -75.85887063 74.62101657 -73.07426262 71.83066368 C-72.05731411 70.81240291 -71.03953231 69.79497351 -70.0208168 68.77848053 C-64.98405134 63.75168418 -60.07166126 58.68782566 -55.43656826 53.28727627 C-53.35365858 50.89075218 -51.13961236 48.64490443 -48.8918457 46.40332031 C-47.50054192 45.01212982 -47.50054192 45.01212982 -46.08113098 43.59283447 C-45.09190091 42.60871119 -44.10261638 41.62464266 -43.11328125 40.640625 C-42.07889633 39.60811066 -41.04473603 38.57537123 -40.01078796 37.54241943 C-37.31027302 34.84568949 -34.60677012 32.15197519 -31.90258789 29.45892334 C-29.15133409 26.71793237 -26.40293379 23.97408346 -23.65429688 21.23046875 C-18.82368582 16.40938141 -13.99061754 11.59077178 -9.15571594 6.77398682 C-7.68794621 5.31066967 -6.24520506 3.82177043 -4.83000183 2.30755615 C-2.9375 0.5625 -2.9375 0.5625 0 0 Z " fill="#ffffff" transform="translate(296.9375,171.4375)"/>
<path d="M0 0 C3.2663844 6.91704931 1.90372289 14.29833636 0.1512146 21.47663879 C-2.40928504 28.08391606 -8.04802475 32.70048971 -13.00146484 37.5690918 C-14.14756401 38.71377906 -15.29256026 39.85957149 -16.4365387 41.00637817 C-19.53500795 44.10627825 -22.648621 47.19054773 -25.76522779 50.27219748 C-29.02967764 53.50529246 -32.27988015 56.75264715 -35.53164673 59.99848938 C-41.69215981 66.14347722 -47.86529818 72.27561701 -54.04311144 78.40320665 C-61.05704051 85.36133405 -68.05686244 92.33357879 -75.05548167 99.3070997 C-87.02146765 111.22968739 -98.9978672 123.14172892 -110.98625183 135.04179382 C-111.49331464 135.54515867 -112.00037746 136.04852351 -112.52280581 136.56714183 C-113.87039839 137.90482866 -115.21814671 139.24235858 -116.56590843 140.57987499 C-117.36915865 141.37851624 -118.17240887 142.1771575 -119 143 C-119.89121363 143.87891812 -120.78242725 144.75783625 -121.70064735 145.66338825 C-124.01778266 147.92057234 -124.01778266 147.92057234 -125.8125 150.375 C-127.71860581 152.66232698 -129.55507877 154.39803315 -131.8125 156.3125 C-135.46977095 159.41605329 -138.52571314 162.78383913 -141.5546875 166.49609375 C-142.03164063 166.99238281 -142.50859375 167.48867188 -143 168 C-143.66 168 -144.32 168 -145 168 C-145 168.66 -145 169.32 -145 170 C-145.66 170 -146.32 170 -147 170 C-147.33 170.99 -147.66 171.98 -148 173 C-148.66 173 -149.32 173 -150 173 C-150.268125 173.639375 -150.53625 174.27875 -150.8125 174.9375 C-152 177 -152 177 -155 178 C-155.33 178.66 -155.66 179.32 -156 180 C-156.33 180.66 -156.66 181.32 -157 182 C-157.99 182.33 -158.98 182.66 -160 183 C-160.70448536 184.31374373 -161.36743447 185.65015442 -162 187 C-163.41181183 188.65232086 -163.41181183 188.65232086 -165.07434082 190.3013916 C-166.02072166 191.24756096 -166.02072166 191.24756096 -166.98622131 192.21284485 C-168.02268044 193.23380501 -168.02268044 193.23380501 -169.08007812 194.27539062 C-169.80867538 195.00106735 -170.53727264 195.72674408 -171.28794861 196.47441101 C-172.86976246 198.04861684 -174.45388252 199.62050791 -176.0400238 201.19035339 C-178.54901869 203.67383803 -181.05172725 206.16350282 -183.55285645 208.65490723 C-189.76554119 214.8408377 -195.98901412 221.01587887 -202.21209717 227.19134521 C-207.47073981 232.41057149 -212.72530539 237.63383756 -217.97447205 242.8625946 C-220.44219435 245.31733406 -222.91585667 247.76598036 -225.38977051 250.21447754 C-226.90011583 251.71755858 -228.41018151 253.2209207 -229.91992188 254.72460938 C-230.61089462 255.40524948 -231.30186737 256.08588959 -232.01377869 256.78715515 C-232.96015953 257.73332451 -232.96015953 257.73332451 -233.92565918 258.6986084 C-234.47429375 259.24280174 -235.02292831 259.78699509 -235.58818817 260.34767914 C-237.10565019 262.12364821 -238.04366485 263.87666627 -239 266 C-242.15330554 265.39305845 -244.18888867 264.3583335 -246.75 262.4375 C-247.36359375 261.98246094 -247.9771875 261.52742188 -248.609375 261.05859375 C-249.06828125 260.70925781 -249.5271875 260.35992187 -250 260 C-249.505 258.7625 -249.505 258.7625 -249 257.5 C-247.81276904 253.98553194 -247.81276904 253.98553194 -248.0625 250.125 C-248.15317552 242.6431114 -245.42182902 238.12792688 -240.39642334 232.80187988 C-238.41870104 230.7937619 -236.4097267 228.81911434 -234.39746094 226.84570312 C-233.29400765 225.74530092 -232.19166519 224.64378387 -231.09034729 223.54124451 C-228.10733555 220.56106059 -225.10926465 217.59645599 -222.10835171 214.63431358 C-218.96197992 211.52305454 -215.83027607 208.39710283 -212.69708252 205.27258301 C-206.7583147 199.35449672 -200.80735122 193.44884055 -194.85150266 187.54794931 C-186.12658826 178.90255235 -177.41895845 170.23977445 -168.71271133 161.57558441 C-167.42372898 160.2928619 -166.13474659 159.01013943 -164.84576416 157.72741699 C-164.21598168 157.10063222 -163.58619919 156.47384746 -162.93733239 155.82806921 C-159.21069989 152.12003171 -155.48017368 148.41596905 -151.74609423 144.71543121 C-149.41603667 142.40569407 -147.08797206 140.09395471 -144.76023674 137.78187752 C-143.68692494 136.71677132 -142.61270935 135.65257491 -141.53748512 134.58939934 C-136.46178246 129.57002012 -131.50705195 124.51525178 -126.86094093 119.09195328 C-122.68163752 114.39384207 -118.15841501 110.01077962 -113.7121582 105.56689453 C-112.5844275 104.43616622 -111.45690019 103.30523502 -110.32955933 102.17411804 C-107.28883105 99.1246141 -104.24492173 96.07830527 -101.20012307 93.032866 C-99.29641597 91.12844558 -97.3934237 89.22331385 -95.4906826 87.31792831 C-88.84909246 80.66711134 -82.20494928 74.01885741 -75.55834961 67.37304688 C-69.36605267 61.18135242 -63.17937463 54.98408237 -56.99526149 48.78421509 C-51.67722227 43.45311192 -46.35534661 38.12585938 -41.03045148 32.80160415 C-37.85346754 29.62487521 -34.67805718 26.44661137 -31.50649452 23.26446915 C-28.52891635 20.27722747 -25.54659871 17.29480114 -22.56054306 14.31603432 C-21.46553983 13.22207858 -20.37224512 12.12640961 -19.28078651 11.02891731 C-17.79168681 9.53211918 -16.29656522 8.04160646 -14.79975891 6.55252075 C-13.96448827 5.71670534 -13.12921762 4.88088993 -12.26863575 4.01974678 C-8.16670271 0.36783129 -5.47250402 -0.24875018 0 0 Z " fill="#ffffff" transform="translate(562,163)"/>
<path d="M0 0 C0.33 0.99 0.66 1.98 1 3 C1.66 3 2.32 3 3 3 C3.33 4.32 3.66 5.64 4 7 C5.32 6.34 6.64 5.68 8 5 C9.98 7.475 9.98 7.475 12 10 C7.32556482 15.62266842 2.32418085 20.79219922 -2.87109375 25.93359375 C-3.7116481 26.77036148 -4.55220245 27.60712921 -5.41822815 28.46925354 C-8.98800112 32.02279264 -12.56370665 35.57034006 -16.13891602 39.1184082 C-18.76006394 41.72137863 -21.37813558 44.32741584 -23.99609375 46.93359375 C-25.19328285 48.11833534 -25.19328285 48.11833534 -26.41465759 49.32701111 C-29.82419898 52.72175126 -33.15868324 56.12351479 -36.28344727 59.78344727 C-40.81811587 65.04981117 -45.78322974 69.89431179 -50.71192932 74.78709412 C-52.50632335 76.56855248 -54.29742409 78.35326638 -56.08776855 80.13879395 C-60.53207369 84.5698343 -64.98184463 88.9953724 -69.43145752 93.42108154 C-73.20276702 97.17255651 -76.97194978 100.92614469 -80.73841858 104.68247986 C-82.49049796 106.4281471 -84.24559477 108.17073952 -86.00085449 109.91320801 C-87.08991253 110.99862866 -88.17882768 112.0841927 -89.26757812 113.16992188 C-89.98476768 113.87936195 -89.98476768 113.87936195 -90.71644592 114.60313416 C-93.35535863 117.24164444 -95.85141315 119.95722594 -98.28651428 122.78552246 C-102.36631521 127.48895127 -106.73753522 131.8702644 -111.14819336 136.26171875 C-112.03679047 137.15046188 -112.92538757 138.03920502 -113.84091187 138.95487976 C-116.2539091 141.36730384 -118.669088 143.77750233 -121.08530498 146.18669891 C-123.61886452 148.7139644 -126.14955142 151.24410327 -128.68055725 153.77392578 C-133.46301363 158.55328657 -138.24801108 163.33009473 -143.03394943 168.10596848 C-148.48702739 173.54782999 -153.93723193 178.9925655 -159.38720882 184.43753242 C-170.58830073 195.62820011 -181.79295717 206.81529175 -193 218 C-193.88945312 217.52433594 -193.88945312 217.52433594 -194.796875 217.0390625 C-197.49483195 215.76662181 -200.05774741 215.40121626 -203 215 C-202.11650485 207.55339806 -202.11650485 207.55339806 -201.5 204.625 C-200.93768851 202.07750543 -200.93768851 202.07750543 -200.9609375 199.75390625 C-200.80174812 194.99993263 -200.39021358 191.87982402 -197.0904541 188.32702637 C-196.45412552 187.63825912 -195.81779694 186.94949188 -195.16218567 186.23985291 C-191.04489148 181.9746626 -186.88121265 177.76022363 -182.67773438 173.58007812 C-181.65336589 172.55763302 -180.62922795 171.53495689 -179.6053009 170.5120697 C-177.41439488 168.32430454 -175.22195022 166.13809772 -173.02827454 163.95310974 C-169.55329524 160.49175026 -166.08222045 157.0264926 -162.61169434 153.56066895 C-154.61870588 145.57967942 -146.62069407 137.60373022 -138.62262726 129.62783051 C-131.28713746 122.31256716 -123.95273572 114.99622147 -116.62238741 107.67580557 C-113.17856418 104.23693772 -109.73232429 100.80051651 -106.2841568 97.36600494 C-104.13313021 95.22248406 -101.98421914 93.07685165 -99.83585167 90.93066597 C-98.84634267 89.94301489 -97.85597681 88.95622135 -96.86464882 87.97039604 C-91.94389366 83.07607732 -87.16588898 78.13808315 -82.64454842 72.87235069 C-79.80753295 69.64235283 -76.7631102 66.62402236 -73.71948242 63.59008789 C-73.02916931 62.89802246 -72.3388562 62.20595703 -71.62762451 61.49291992 C-69.37272737 59.23366404 -67.11424333 56.97803501 -64.85546875 54.72265625 C-63.27828104 53.14479424 -61.70124174 51.56678387 -60.12434387 49.9886322 C-56.83362252 46.69644239 -53.5411136 43.40605379 -50.24731445 40.11694336 C-46.01918926 35.89454318 -41.79560713 31.6676315 -37.57332897 27.43938541 C-34.32474415 24.18719595 -31.07379244 20.93738093 -27.82210732 17.68829155 C-26.26279549 16.12964781 -24.70422892 14.57025814 -23.1464138 13.01011848 C-20.97786227 10.83903901 -18.80615144 8.67117098 -16.63354492 6.50415039 C-15.98783035 5.85641159 -15.34211578 5.20867279 -14.67683411 4.54130554 C-9.07514552 -1.03361228 -7.5284404 -1.09283812 0 0 Z " fill="#ffffff" transform="translate(640,163)"/>
<path d="M0 0 C1.43023178 4.67209049 2.40380045 9.13103697 3 14 C4.65 14 6.3 14 8 14 C0.66427114 26.16186627 -9.4615613 36.55691737 -19 47 C-19.98052745 48.0858845 -20.96099246 49.17182538 -21.94140625 50.2578125 C-22.98139743 51.40138136 -24.02175904 52.54461346 -25.0625 53.6875 C-25.53300781 54.21029541 -26.00351563 54.73309082 -26.48828125 55.27172852 C-29.0928376 58.1155427 -31.78437696 60.72942419 -34.7109375 63.2421875 C-39.91364583 67.71956872 -44.72152127 72.57578903 -49.5625 77.4375 C-50.46935547 78.34048828 -51.37621094 79.24347656 -52.31054688 80.17382812 C-53.19935547 81.06392578 -54.08816406 81.95402344 -55.00390625 82.87109375 C-56.19222046 84.06109985 -56.19222046 84.06109985 -57.40454102 85.27514648 C-59.39160932 87.36127849 -61.27575222 89.4661199 -63.14981079 91.64981079 C-66.99495588 96.05455794 -71.05957002 100.20045558 -75.19848633 104.32788086 C-76.38025955 105.51228256 -76.38025955 105.51228256 -77.58590698 106.72061157 C-80.16545524 109.30452697 -82.74860301 111.88480805 -85.33203125 114.46484375 C-87.13342152 116.26690813 -88.93466337 118.0691209 -90.73576355 119.87147522 C-94.49726871 123.63445003 -98.26051693 127.39566946 -102.02514648 131.15551758 C-106.37775442 135.50266112 -110.72671629 139.85342736 -115.07384855 144.20604604 C-119.26565488 148.4029305 -123.46026065 152.59700824 -127.65607262 156.78988838 C-129.43867151 158.57181894 -131.22052442 160.35449607 -133.00162697 162.13792229 C-135.48150788 164.62033038 -137.96455011 167.0995315 -140.44848633 169.57788086 C-141.18770828 170.31912704 -141.92693024 171.06037323 -142.68855286 171.82408142 C-143.36273254 172.49544128 -144.03691223 173.16680115 -144.73152161 173.85850525 C-145.31790814 174.44451476 -145.90429468 175.03052427 -146.50845051 175.63429165 C-148.66033359 177.60462164 -149.87716953 177.98635217 -152.8125 178.3125 C-156.69428088 177.93193325 -158.20472045 176.63085134 -161 174 C-160.49396008 171.83125748 -160.00016187 170.00032373 -159 168 C-160.32 167.67 -161.64 167.34 -163 167 C-162.690625 166.4225 -162.38125 165.845 -162.0625 165.25 C-160.95386568 163.09163405 -160.95386568 163.09163405 -160.5 161 C-159.54631689 157.18526754 -157.73274184 154.48064824 -155.05859375 151.64453125 C-154.47924072 151.02650635 -153.8998877 150.40848145 -153.30297852 149.77172852 C-152.37956665 148.8019104 -152.37956665 148.8019104 -151.4375 147.8125 C-150.80706787 147.143396 -150.17663574 146.47429199 -149.52709961 145.78491211 C-145.48679488 141.51323111 -141.38708917 137.31071663 -137.16015625 133.22265625 C-135.3013277 131.31004604 -133.56941 129.35597242 -131.83227539 127.33447266 C-128.21999369 123.19605827 -124.42179705 119.2934295 -120.5234375 115.42578125 C-119.81189514 114.71569916 -119.10035278 114.00561707 -118.36724854 113.27401733 C-116.83573478 111.7462827 -115.30306785 110.21970338 -113.76934814 108.69418335 C-111.33649465 106.27419832 -108.90687051 103.85101157 -106.47802734 101.42700195 C-100.44766508 95.40994568 -94.41185563 89.39836313 -88.3762207 83.38659668 C-83.26619427 78.29635807 -78.15825906 73.20403807 -73.05303955 68.10897827 C-70.6694133 65.73179328 -68.2827752 63.35766133 -65.89599609 60.98364258 C-64.42270231 59.51398425 -62.94955038 58.04418368 -61.4765625 56.57421875 C-60.82077209 55.92359467 -60.16498169 55.27297058 -59.48931885 54.60263062 C-55.67767433 50.79141799 -52.07156894 46.85807439 -48.54832268 42.77906036 C-46.74270079 40.70435696 -44.86503251 38.71878026 -42.93579102 36.75878906 C-42.22137344 36.03153625 -41.50695587 35.30428345 -40.77088928 34.55499268 C-40.02278488 33.79950134 -39.27468048 33.04401001 -38.50390625 32.265625 C-37.71153061 31.46517761 -36.91915497 30.66473022 -36.10276794 29.84002686 C-34.43774005 28.16125956 -32.77121913 26.48397186 -31.10327148 24.80810547 C-29.40672644 23.09998603 -27.71467183 21.38739505 -26.02709961 19.67041016 C-23.57081188 17.17141475 -21.10150436 14.68597126 -18.62890625 12.203125 C-17.88282608 11.43953674 -17.13674591 10.67594849 -16.36805725 9.88922119 C-6.43835216 0 -6.43835216 0 0 0 Z " fill="#ffffff" transform="translate(168,161)"/>
<path d="M0 0 C0.99 0.495 0.99 0.495 2 1 C2.6328125 3.72265625 2.6328125 3.72265625 3.125 7.0625 C3.29257812 8.16722656 3.46015625 9.27195313 3.6328125 10.41015625 C3.75398438 11.26480469 3.87515625 12.11945313 4 13 C5.32 11.68 6.64 10.36 8 9 C9.32 9.66 10.64 10.32 12 11 C12 15 12 15 10.80102539 16.6867218 C10.23891357 17.24296738 9.67680176 17.79921295 9.09765625 18.37231445 C8.46279297 19.0101033 7.82792969 19.64789215 7.17382812 20.30500793 C6.47708984 20.98423813 5.78035156 21.66346832 5.0625 22.36328125 C4.34900391 23.07348923 3.63550781 23.7836972 2.90039062 24.51542664 C0.60943951 26.79060188 -1.69527279 29.05128997 -4 31.3125 C-5.52299521 32.82400396 -7.04514087 34.33636444 -8.56640625 35.84960938 C-10.04350922 37.31326901 -11.52135145 38.77618304 -13 40.23828125 C-13.68054443 40.91143875 -14.36108887 41.58459625 -15.06225586 42.27815247 C-15.72233643 42.9253978 -16.38241699 43.57264313 -17.0625 44.23950195 C-17.63097656 44.79813431 -18.19945312 45.35676666 -18.78515625 45.93232727 C-20.75680127 47.77296124 -22.76883852 49.53918099 -24.80889893 51.302948 C-28.69823906 54.69243158 -32.36903076 58.24593815 -35.99511719 61.91333008 C-36.64334946 62.56462891 -37.29158173 63.21592773 -37.9594574 63.88696289 C-39.35131205 65.28591226 -40.74203298 66.68599038 -42.13170624 68.0871067 C-44.33179018 70.30472469 -46.53552315 72.51865682 -48.74029541 74.73161316 C-55.00288523 81.01854289 -61.25969028 87.311207 -67.51220703 93.6081543 C-71.34917111 97.47187498 -75.19097167 101.33073127 -79.03580475 105.18662071 C-80.49694291 106.65396629 -81.95618087 108.12320658 -83.41347504 109.59436989 C-85.44527772 111.64535654 -87.48313668 113.69013856 -89.52246094 115.73364258 C-90.12201096 116.34195419 -90.72156097 116.95026581 -91.33927917 117.57701111 C-91.89696487 118.13339264 -92.45465057 118.68977417 -93.02923584 119.26301575 C-93.50923916 119.74616147 -93.98924248 120.22930719 -94.48379135 120.7270937 C-96.20621019 122.17312014 -97.9909103 123.0014715 -100 124 C-100.928125 124.845625 -101.85625 125.69125 -102.8125 126.5625 C-106.03403556 129.31099996 -108.71108436 130 -113 130 C-115.4375 128.875 -115.4375 128.875 -117 127 C-117.77262438 122.80575339 -116.34793424 120.42407076 -114 117 C-114.66 117 -115.32 117 -116 117 C-115.23336627 108.48880101 -113.15177859 103.86419544 -107 98 C-106.42765625 97.40574219 -105.8553125 96.81148438 -105.265625 96.19921875 C-102.39699496 93.23189731 -99.40710337 90.45165691 -96.28125 87.7578125 C-92.06666931 84.08658002 -87.99253355 80.28329992 -83.9375 76.4375 C-82.44173087 75.02309413 -80.94563074 73.60903822 -79.44921875 72.1953125 C-78.70462402 71.49180664 -77.9600293 70.78830078 -77.19287109 70.06347656 C-75.14327861 68.13482418 -73.08445436 66.21690258 -71.01953125 64.3046875 C-64.3498408 58.12765436 -57.8052933 51.86728139 -51.41870117 45.3972168 C-48.72424205 42.67936754 -46.00330358 40.07359281 -43.0625 37.625 C-32.77442893 28.82514047 -24.0311328 18.09746041 -15.61865234 7.54736328 C-14.7980835 6.52618408 -14.7980835 6.52618408 -13.9609375 5.484375 C-13.48446777 4.88334961 -13.00799805 4.28232422 -12.51708984 3.66308594 C-8.3458427 -0.9095783 -6.1146684 -1.3588152 0 0 Z " fill="#ffffff" transform="translate(457,166)"/>
<path d="M0 0 C0.99 0.495 0.99 0.495 2 1 C2 1.99 2 2.98 2 4 C3.65 4 5.3 4 7 4 C5.84826645 6.46800047 4.95216435 8.04783565 3 10 C2.4514887 12.42041496 2.11187164 14.84106057 1.7578125 17.296875 C-0.32848205 24.73870915 -6.4485929 29.6548857 -11.8125 34.875 C-18.25114077 41.14410573 -18.25114077 41.14410573 -24.29296875 47.7890625 C-29.85880863 54.27383275 -36.09937979 60.15324923 -42.17529297 66.15478516 C-47.77811755 71.69515525 -53.32810212 77.21855145 -58.44335938 83.22070312 C-61.1392666 86.30222317 -64.07575588 89.13731039 -67 92 C-71.25575444 96.20676734 -75.36401956 100.44049908 -79.23046875 105.01171875 C-81.99518212 108.11820685 -84.98147983 111.00206644 -87.94067383 113.92114258 C-90.69596523 116.65354871 -93.33798932 119.43915794 -95.875 122.375 C-96.42285156 123.00148438 -96.97070312 123.62796875 -97.53515625 124.2734375 C-98.83994363 125.8113469 -100.08120456 127.40264376 -101.3125 129 C-105.3335541 131.99241235 -109.15338563 131.42349058 -114 131 C-114.67497712 126.50015256 -115.12803299 123.39249211 -114 119 C-114.0291876 117.54061984 -114.09294835 116.08160645 -114.1875 114.625 C-114.21507138 108.99124845 -112.08305601 106.15535296 -108.19921875 102.13671875 C-106.8274392 100.7649392 -105.44543774 99.40332406 -104.0546875 98.05078125 C-102.20257343 96.20218831 -100.50187996 94.30865791 -98.8125 92.3125 C-95.0671398 87.94721812 -90.99338615 83.93619667 -86.88208008 79.91918945 C-84.01148146 77.09412114 -81.28191873 74.21146362 -78.65625 71.15625 C-73.95512617 65.71585753 -68.79559444 60.7486885 -63.671875 55.7109375 C-62.91390625 54.96070313 -62.1559375 54.21046875 -61.375 53.4375 C-60.70210937 52.77621094 -60.02921875 52.11492187 -59.3359375 51.43359375 C-57.38207294 49.39804589 -55.53421523 47.3257842 -53.69140625 45.19140625 C-50.14850032 41.11469618 -46.40503939 37.29286178 -42.5625 33.5 C-41.87873291 32.82001953 -41.19496582 32.14003906 -40.49047852 31.43945312 C-37.60262227 28.56774857 -34.70876925 25.70211562 -31.81542969 22.8359375 C-29.68734275 20.72607213 -27.56237083 18.61310355 -25.4375 16.5 C-24.47469116 15.54963867 -24.47469116 15.54963867 -23.49243164 14.58007812 C-19.65446793 10.76264364 -16.04658981 6.82597711 -12.56274414 2.68164062 C-8.30942885 -1.89527481 -5.68614971 -0.99281979 0 0 Z " fill="#ffffff" transform="translate(702,166)"/>
<path d="M0 0 C0 2.31 0 4.62 0 7 C0.9075 6.154375 1.815 5.30875 2.75 4.4375 C5.67521228 2.00902188 5.67521228 2.00902188 8.25 1.9375 C10.4625299 3.28082172 10.93554348 4.68900887 12 7 C11.39671875 7.70125 10.7934375 8.4025 10.171875 9.125 C8.97304687 10.548125 8.97304687 10.548125 7.75 12 C6.96109375 12.928125 6.1721875 13.85625 5.359375 14.8125 C3.52571984 17.28975598 2.37380022 19.19779624 1.125 21.93359375 C-1.05118538 26.48842554 -4.12110492 29.6124088 -7.75 33.0625 C-8.3797876 33.67609375 -9.0095752 34.2896875 -9.65844727 34.921875 C-13.29136858 38.43902654 -16.99831419 41.84546304 -20.84521484 45.12768555 C-22.85617666 46.87503046 -24.80798755 48.66473661 -26.74609375 50.4921875 C-27.76231812 51.44641602 -27.76231812 51.44641602 -28.79907227 52.41992188 C-30.16721106 53.70841482 -31.53362869 54.99873814 -32.89819336 56.29101562 C-33.52733643 56.88333984 -34.15647949 57.47566406 -34.8046875 58.0859375 C-35.37171387 58.6226709 -35.93874023 59.1594043 -36.52294922 59.71240234 C-39.16413799 62.01482045 -41.08314778 62.15976581 -44.5 62.1875 C-45.2940625 62.20167969 -46.088125 62.21585938 -46.90625 62.23046875 C-49 62 -49 62 -51 60 C-50.43181818 54.43181818 -50.43181818 54.43181818 -49 53 C-48.89375507 50.7718078 -48.81523882 48.54226958 -48.75 46.3125 C-48.20848523 38.32717767 -48.20848523 38.32717767 -45.9375 35.5625 C-44.38041753 34.20419401 -42.82243389 32.84689059 -41.25756836 31.49755859 C-36.2447184 27.15415225 -31.42120092 22.64248775 -26.625 18.0625 C-7.54495286 0 -7.54495286 0 0 0 Z " fill="#ffffff" transform="translate(94,167)"/>
<path d="M0 0 C0 0.99 0 1.98 0 3 C1.32 3.33 2.64 3.66 4 4 C3.97503916 13.47264027 3.77862876 20.85665837 -3 28 C-6.61825131 31.56195602 -10.34949296 34.96462876 -14.14550781 38.33496094 C-16.75439632 40.67732792 -19.30757886 43.07679673 -21.86083984 45.47949219 C-23.77289176 47.27529977 -25.69801749 49.05617947 -27.625 50.8359375 C-29.60748331 52.67354703 -31.50194316 54.52340783 -33.375 56.4765625 C-37.7592119 60.91380922 -37.7592119 60.91380922 -41.69921875 61.1875 C-44.20733629 60.9636234 -46.55600275 60.59597474 -49 60 C-48.9278125 59.16597656 -48.855625 58.33195312 -48.78125 57.47265625 C-48.6884375 56.34730469 -48.595625 55.22195313 -48.5 54.0625 C-48.39945313 52.87398438 -48.29890625 51.68546875 -48.1953125 50.4609375 C-48.034157 47.60526207 -48.12633406 45.0222917 -48.375 42.1875 C-48.41718823 36.62749977 -44.66845351 33.78866523 -41 30 C-38.51077896 27.52412686 -35.95864095 25.12686046 -33.375 22.75 C-32.68494873 22.11030273 -31.99489746 21.47060547 -31.28393555 20.81152344 C-29.87448555 19.50560701 -28.46360827 18.20122924 -27.05126953 16.8984375 C-25.1065071 15.09857168 -23.17424321 13.2863817 -21.24609375 11.46875 C-20.10167237 10.39571614 -18.95714697 9.32279321 -17.8125 8.25 C-17.29671387 7.76112305 -16.78092773 7.27224609 -16.24951172 6.76855469 C-10.85064802 1.741965 -7.49203694 -0.44070806 0 0 Z " fill="#ffffff" transform="translate(289,358)"/>
</svg>
