<?xml version="1.0" encoding="utf-8"?>
<svg xmlns="http://www.w3.org/2000/svg" viewBox="0 0 50 50" width="100" height="100">
  <path d="M15 3C13.416667 3 12.101892 3.6297556 11.251953 4.5859375C10.402014 5.5421194 10 6.7777779 10 8C10 9.2222221 10.402014 10.457881 11.251953 11.414062C12.101892 12.370245 13.416667 13 15 13C16.583333 13 17.898108 12.370244 18.748047 11.414062C19.597986 10.457882 20 9.2222221 20 8C20 6.7777779 19.597986 5.5421194 18.748047 4.5859375C17.898108 3.6297556 16.583333 3 15 3 z M 32.96875 3.9863281 A 1.0001 1.0001 0 0 0 31.984375 5L31.984375 5.1796875L23.962891 6.7851562 A 1.0001 1.0001 0 0 0 22.96875 5.9863281 A 1.0001 1.0001 0 0 0 21.984375 7L21.984375 8L21.984375 12L21.984375 13 A 1.0001 1.0001 0 0 0 22.912109 14.009766L21.544922 16.287109L17.382812 14.830078C16.510371 14.316366 15.523457 14.026093 14.509766 14 A 1.0001 1.0001 0 0 0 14.484375 14C12.010938 14 9.984375 16.026563 9.984375 18.5L9.984375 28.820312C9.9851734 30.244757 10.821099 31.430959 11.984375 32.191406L11.984375 43.5C11.984375 44.583333 12.426631 45.523108 13.101562 46.123047C13.776495 46.722986 14.637153 47 15.484375 47C16.331597 47 17.192256 46.722986 17.867188 46.123047C18.542119 45.523108 18.984375 44.583333 18.984375 43.5L18.984375 21.585938L22.210938 22.525391C23.52393 22.907312 24.941456 22.344632 25.634766 21.166016L28.5 16.292969C28.891172 15.627985 28.97436 14.881955 28.828125 14.189453L31.984375 14.820312L31.984375 15 A 1.0001 1.0001 0 1 0 33.984375 15L33.984375 14L33.984375 6L33.984375 5 A 1.0001 1.0001 0 0 0 32.96875 3.9863281 z M 41.007812 3.9960938 A 1.0001 1.0001 0 0 0 40.742188 4.0292969L36.742188 5.0292969 A 1.0004594 1.0004594 0 1 0 37.226562 6.9707031L41.226562 5.9707031 A 1.0001 1.0001 0 0 0 41.007812 3.9960938 z M 15 5C16.083333 5 16.768559 5.3702444 17.251953 5.9140625C17.735347 6.4578806 18 7.2222221 18 8C18 8.7777779 17.735347 9.5421189 17.251953 10.085938C16.768559 10.629755 16.083333 11 15 11C13.916667 11 13.231441 10.629756 12.748047 10.085938C12.264653 9.5421189 12 8.7777779 12 8C12 7.2222221 12.264653 6.4578806 12.748047 5.9140625C13.231441 5.3702444 13.916667 5 15 5 z M 31.984375 7.21875L31.984375 12.78125L23.984375 11.179688L23.984375 8.8203125L31.984375 7.21875 z M 36.984375 9 A 1.0001 1.0001 0 1 0 36.984375 11L40.984375 11 A 1.0001 1.0001 0 1 0 40.984375 9L36.984375 9 z M 36.929688 12.998047 A 1.0001 1.0001 0 0 0 36.742188 14.970703L40.742188 15.970703 A 1.0004593 1.0004593 0 0 0 41.226562 14.029297L37.226562 13.029297 A 1.0001 1.0001 0 0 0 36.929688 12.998047 z M 25.851562 13.798828C25.955312 13.790977 26.061919 13.799659 26.167969 13.826172C26.831495 13.99206 27.124123 14.68978 26.777344 15.279297L23.910156 20.152344C23.675622 20.551049 23.213694 20.734666 22.769531 20.605469L18.4375 19.345703 A 1.0001 1.0001 0 0 0 18.083984 19.242188L15.164062 18.392578 A 1.0001 1.0001 0 1 0 14.605469 20.3125L16.984375 21.003906L16.984375 43.5C16.984375 44.083333 16.801631 44.393559 16.539062 44.626953C16.276494 44.860347 15.887153 45 15.484375 45C15.081597 45 14.692255 44.860347 14.429688 44.626953C14.167118 44.393559 13.984375 44.083333 13.984375 43.5L13.984375 31.767578 A 1.0001 1.0001 0 0 0 13.353516 30.839844C12.523803 30.509256 11.984876 29.713461 11.984375 28.820312L11.984375 18.5C11.984375 17.111263 13.087438 16.009959 14.474609 16.003906C15.144779 16.023922 15.796508 16.214362 16.373047 16.554688C16.37708 16.557068 16.38074 16.560104 16.384766 16.5625 A 1.0001 1.0001 0 0 0 16.630859 16.685547 A 1.0009949 1.0009949 0 0 0 16.640625 16.689453 A 1.0001 1.0001 0 0 0 16.654297 16.693359 A 1.0009949 1.0009949 0 0 0 16.730469 16.71875L21.654297 18.443359 A 1.0001 1.0001 0 0 0 22.841797 18.013672L25.085938 14.275391C25.254662 13.994183 25.540315 13.82238 25.851562 13.798828 z" fill="#3b80c3" />
</svg>