<?xml version="1.0" encoding="utf-8"?>
<svg xmlns="http://www.w3.org/2000/svg" viewBox="0 0 50 50" width="100" height="100">
  <path d="M16 2C14.355469 2 13 3.355469 13 5L13 7L3 7C2.96875 7 2.9375 7 2.90625 7C2.355469 7.027344 1.925781 7.496094 1.953125 8.046875C1.980469 8.597656 2.449219 9.027344 3 9L13 9L13 11C13 12.644531 14.355469 14 16 14L18 14C19.644531 14 21 12.644531 21 11L21 5C21 3.355469 19.644531 2 18 2 Z M 16 4L18 4C18.566406 4 19 4.433594 19 5L19 11C19 11.566406 18.566406 12 18 12L16 12C15.433594 12 15 11.566406 15 11L15 8.1875C15.027344 8.054688 15.027344 7.914063 15 7.78125L15 5C15 4.433594 15.433594 4 16 4 Z M 22 7L22 9L47 9C47.359375 9.003906 47.695313 8.816406 47.878906 8.503906C48.058594 8.191406 48.058594 7.808594 47.878906 7.496094C47.695313 7.183594 47.359375 6.996094 47 7 Z M 34 19C32.355469 19 31 20.355469 31 22L31 24L3 24C2.96875 24 2.9375 24 2.90625 24C2.355469 24.027344 1.925781 24.496094 1.953125 25.046875C1.980469 25.597656 2.449219 26.027344 3 26L31 26L31 28C31 29.644531 32.355469 31 34 31L36 31C37.644531 31 39 29.644531 39 28L39 22C39 20.355469 37.644531 19 36 19 Z M 34 21L36 21C36.566406 21 37 21.433594 37 22L37 28C37 28.566406 36.566406 29 36 29L34 29C33.433594 29 33 28.566406 33 28L33 25.1875C33.027344 25.054688 33.027344 24.914063 33 24.78125L33 22C33 21.433594 33.433594 21 34 21 Z M 40 24L40 26L47 26C47.359375 26.003906 47.695313 25.816406 47.878906 25.503906C48.058594 25.191406 48.058594 24.808594 47.878906 24.496094C47.695313 24.183594 47.359375 23.996094 47 24 Z M 13 36C11.355469 36 10 37.355469 10 39L10 41L3 41C2.96875 41 2.9375 41 2.90625 41C2.875 41 2.84375 41 2.8125 41C2.261719 41.050781 1.855469 41.542969 1.90625 42.09375C1.957031 42.644531 2.449219 43.050781 3 43L10 43L10 45C10 46.644531 11.355469 48 13 48L15 48C16.644531 48 18 46.644531 18 45L18 39C18 37.355469 16.644531 36 15 36 Z M 13 38L15 38C15.566406 38 16 38.433594 16 39L16 45C16 45.566406 15.566406 46 15 46L13 46C12.433594 46 12 45.566406 12 45L12 42.1875C12.027344 42.054688 12.027344 41.914063 12 41.78125L12 39C12 38.433594 12.433594 38 13 38 Z M 19 41L19 43L47 43C47.359375 43.003906 47.695313 42.816406 47.878906 42.503906C48.058594 42.191406 48.058594 41.808594 47.878906 41.496094C47.695313 41.183594 47.359375 40.996094 47 41Z" fill="#FFFFFF" />
</svg>