<?xml version="1.0" encoding="utf-8"?>
<svg xmlns="http://www.w3.org/2000/svg" viewBox="0 0 50 50" width="100" height="100">
  <path d="M13 6C11.35503 6 10 7.3550302 10 9L10 9.1953125C9.5369571 9.0254887 9.0307508 8.9537078 8.5039062 9.0390625C6.990639 9.2853725 6 10.655599 6 12.107422L6 13L6 26.546875L5.6230469 26.162109L5.7070312 26.261719C4.5598368 24.732608 2.2813398 24.570223 0.9296875 25.921875 A 1.0001 1.0001 0 0 0 0.64257812 26.519531C-0.006533875 27.539393 -0.17403521 28.811364 0.49414062 29.863281 A 1.0001 1.0001 0 0 0 0.51367188 29.894531L7.1152344 39.5 A 1.0001 1.0001 0 0 0 7.1230469 39.509766C8.2423499 41.096498 10.01408 42 11.894531 42L18 42C19.741009 42 21.234955 41.055664 22.291016 39.744141L24.300781 41.714844 A 1.0001 1.0001 0 0 0 25.699219 41.714844L27.707031 39.746094C28.762474 41.055891 30.259192 42 32 42L38.105469 42C39.98592 42 41.757653 41.096532 42.876953 39.509766 A 1.0001 1.0001 0 0 0 42.884766 39.5L49.486328 29.894531 A 1.0001 1.0001 0 0 0 49.505859 29.863281C50.174035 28.811364 50.006534 27.539393 49.357422 26.519531 A 1.0001 1.0001 0 0 0 49.070312 25.921875C47.71866 24.570223 45.440164 24.732608 44.292969 26.261719L44.376953 26.162109L44 26.546875L44 13L44 12.107422C44 10.655599 43.009361 9.2853725 41.496094 9.0390625C40.969249 8.9537078 40.463043 9.0254887 40 9.1953125L40 9C40 7.3550302 38.64497 6 37 6C35.62437 6 34.462434 6.9522592 34.115234 8.2246094C33.769012 8.0836538 33.394174 8 33 8C31.35503 8 30 9.3550302 30 11L30 12L30 12.195312C29.536957 12.025489 29.030751 11.953708 28.503906 12.039062C26.990639 12.285374 26 13.655599 26 15.107422L26 16L26 26.767578C25.647077 26.983044 25.307616 27.220289 25 27.496094C24.692475 27.220392 24.35288 26.983041 24 26.767578L24 16L24 15.107422C24 13.655056 23.008709 12.285267 21.496094 12.039062C20.969249 11.953708 20.463043 12.025489 20 12.195312L20 12L20 11C20 9.3550302 18.64497 8 17 8C16.605826 8 16.230988 8.0836538 15.884766 8.2246094C15.537566 6.9522592 14.37563 6 13 6 z M 13 8C13.56503 8 14 8.4349698 14 9L14 22 A 1.0001 1.0001 0 1 0 16 22L16 11C16 10.43497 16.43497 10 17 10C17.56503 10 18 10.43497 18 11L18 12L18 23 A 1.0001 1.0001 0 1 0 20 23L20 15C20 14.379239 20.504393 13.904899 21.175781 14.013672C21.629166 14.087468 22 14.565788 22 15.107422L22 16L22 26.035156C21.818701 26.013161 21.634444 26 21.445312 26C18.460509 26 16 28.399252 16 31.357422C16 32.863557 16.642381 34.230601 17.65625 35.199219L20.857422 38.337891C20.094122 39.360119 19.057454 40 18 40L11.894531 40C10.636982 40 9.5205119 39.438656 8.7578125 38.357422L2.1816406 28.791016L2.1816406 28.789062C1.8862541 28.322367 1.9523936 27.727293 2.34375 27.335938C2.8600977 26.81959 3.6686166 26.878001 4.1074219 27.462891 A 1.0001 1.0001 0 0 0 4.1933594 27.560547L6.2851562 29.699219 A 1.0001 1.0001 0 0 0 8 29L8 13L8 12.107422C8 11.567245 8.371486 11.087362 8.8242188 11.013672C9.4956074 10.904899 10 11.379239 10 12L10 23 A 1.0001 1.0001 0 1 0 12 23L12 10L12 9C12 8.4349698 12.43497 8 13 8 z M 37 8C37.56503 8 38 8.4349698 38 9L38 10L38 23 A 1.0001 1.0001 0 1 0 40 23L40 12C40 11.379239 40.504393 10.904899 41.175781 11.013672C41.628514 11.087362 42 11.567245 42 12.107422L42 13L42 29 A 1.0001 1.0001 0 0 0 43.714844 29.699219L45.806641 27.560547 A 1.0001 1.0001 0 0 0 45.892578 27.462891C46.331383 26.878001 47.139902 26.81959 47.65625 27.335938C48.047606 27.727293 48.113746 28.322321 47.818359 28.789062C47.818359 28.789062 47.818359 28.791016 47.818359 28.791016L41.242188 38.357422C40.479485 39.438614 39.363018 40 38.105469 40L32 40C30.942337 40 29.906842 39.360468 29.142578 38.337891L32.34375 35.199219C33.357619 34.230601 34 32.863557 34 31.357422C34 28.399252 31.539491 26 28.554688 26C28.365608 26 28.181264 26.01317 28 26.035156L28 16L28 15.107422C28 14.567245 28.371486 14.087362 28.824219 14.013672C29.495607 13.904899 30 14.379239 30 15L30 23 A 1.0001 1.0001 0 1 0 32 23L32 12L32 11C32 10.43497 32.43497 10 33 10C33.56503 10 34 10.43497 34 11L34 22 A 1.0001 1.0001 0 1 0 36 22L36 9C36 8.4349698 36.43497 8 37 8 z M 21.445312 28C22.586897 28 23.5735 28.541699 24.203125 29.371094 A 1.0001 1.0001 0 0 0 25.796875 29.371094C26.42626 28.542015 27.414321 28 28.554688 28C30.479883 28 32 29.501592 32 31.357422C32 32.299287 31.607022 33.138524 30.962891 33.753906 A 1.0001 1.0001 0 0 0 30.953125 33.763672L25 39.599609L19.046875 33.763672 A 1.0001 1.0001 0 0 0 19.037109 33.753906C18.393012 33.138558 18 32.299287 18 31.357422C18 29.501592 19.520117 28 21.445312 28 z" fill="#FFFFFF" />
</svg>