<svg xmlns="http://www.w3.org/2000/svg" width="804" height="532" viewBox="0 0 804 532" version="1.1"><path d="M 126.700 241.648 C 123.182 244.187, 114.770 254.603, 112.133 259.684 C 110.372 263.078, 110.761 264.915, 113.907 268.061 L 116.814 270.968 101.914 284.043 C 93.718 291.234, 84.844 299.228, 82.194 301.809 C 79.543 304.389, 70.683 312.125, 62.505 319 C 54.327 325.875, 44.858 333.975, 41.464 337 C 38.070 340.025, 29.608 347.450, 22.659 353.500 C 10.567 364.029, 10.026 364.666, 10.013 368.372 C 9.998 372.941, 8.657 373.723, 24.500 359.922 C 30.550 354.652, 40.675 345.951, 47 340.586 C 53.325 335.221, 59.400 329.827, 60.500 328.600 C 62.726 326.116, 82.731 308.707, 90.496 302.496 C 93.243 300.298, 102.035 292.875, 110.033 286 C 118.031 279.125, 129.604 270.350, 135.750 266.500 C 145.523 260.378, 146.929 259.155, 146.962 256.750 C 147.008 253.381, 146.520 253.366, 138.808 256.500 C 131.160 259.607, 129.274 259.616, 125.500 256.562 C 123.019 254.554, 122.689 253.820, 123.592 252.317 C 124.193 251.318, 125.977 249.867, 127.556 249.093 C 130.150 247.822, 130.806 247.893, 134.336 249.827 C 136.485 251.004, 138.639 251.723, 139.122 251.425 C 140.760 250.412, 140.085 243.387, 138.184 241.667 C 134.841 238.641, 130.873 238.635, 126.700 241.648 M 315.500 339.636 C 303.950 349.819, 291.350 360.690, 287.500 363.795 C 281.938 368.279, 250.006 396.058, 244.198 401.464 C 242.398 403.139, 241.732 409, 243.342 409 C 244.689 409, 289.682 370.631, 302.095 358.898 C 304.072 357.029, 312.955 349.200, 321.836 341.500 C 336.495 328.789, 337.983 327.201, 337.991 324.250 C 337.996 322.462, 337.663 321.027, 337.250 321.060 C 336.837 321.094, 327.050 329.453, 315.500 339.636" stroke="none" fill="#e81c3b" fill-rule="evenodd"/><path d="M 224.898 100.580 C 204.407 111.512, 180.832 137.192, 166.608 164.073 C 157.936 180.463, 155.063 190.220, 153.033 210.172 C 151.374 226.487, 154.004 235.254, 162.997 243.378 C 168.222 248.099, 170.861 249.140, 179.500 249.891 L 186.500 250.500 182.054 255.325 C 175.578 262.352, 157.022 277.660, 145.556 285.433 C 123.525 300.369, 105.683 306.478, 92.465 303.610 C 89.762 303.023, 88.264 304.039, 75.500 315.111 C 67.800 321.791, 61.367 327.807, 61.205 328.481 C 61.043 329.155, 62.614 333.248, 64.698 337.576 C 71.956 352.656, 84.013 362.310, 99.030 365.066 C 104.843 366.133, 106.609 366.025, 115.125 364.085 C 129.439 360.825, 140.354 355.051, 151.950 344.607 C 157.341 339.752, 144.078 354.581, 135.074 363.477 C 124.853 373.574, 124.389 377, 133.239 377 C 138.672 377, 179.318 367.022, 184.708 364.366 C 187.573 362.954, 190.985 360.382, 192.291 358.649 C 195.200 354.792, 202.586 342.183, 205.691 335.776 C 208.277 330.439, 215.896 305.823, 218.931 292.997 C 222.473 278.033, 227.889 241, 226.536 241 C 226.227 241, 223.971 242.463, 221.523 244.250 C 217.878 246.913, 215.967 249.669, 210.949 259.500 C 204.994 271.166, 193.054 292, 192.323 292 C 192.123 292, 192.936 290.087, 194.131 287.750 C 197.619 280.921, 204.744 258.683, 206.064 250.505 C 207.821 239.610, 206.821 222.065, 204.023 214.701 C 200.835 206.311, 198.753 204.474, 189.691 202.057 C 180.968 199.730, 172.183 195.642, 171.374 193.532 C 169.686 189.134, 180.599 175.192, 192.814 166.140 C 200.294 160.596, 219.691 150.727, 227.658 148.411 L 232.869 146.896 233.392 141.698 C 233.680 138.839, 234.153 131.100, 234.442 124.500 C 234.732 117.900, 235.268 109.013, 235.632 104.750 C 236.289 97.050, 236.278 97, 233.897 97.029 C 232.579 97.045, 228.529 98.643, 224.898 100.580 M 356.500 124.311 C 349.350 131.619, 340.730 139.826, 337.344 142.549 C 317.619 158.414, 299.913 173.416, 295.919 177.647 C 288.889 185.096, 285.189 190.926, 274.685 211.113 C 265.393 228.971, 263.728 232.904, 266.076 231.453 C 266.668 231.087, 265.030 233.648, 262.437 237.144 C 259.844 240.640, 256.667 245.750, 255.377 248.500 C 254.088 251.250, 253.243 252.375, 253.500 251 C 253.757 249.625, 254.882 234.550, 255.999 217.500 C 257.117 200.450, 258.468 182.131, 259.001 176.792 C 259.935 167.430, 259.666 164, 257.996 164 C 256.494 164, 245.093 182.709, 238.751 195.582 L 232.386 208.500 231.071 234.986 C 230.349 249.553, 229.578 263.053, 229.360 264.986 C 229.141 266.919, 228.690 282.225, 228.358 299 C 227.707 331.823, 228.429 340.286, 232.877 352 C 235.862 359.859, 238.809 362.568, 247.269 365.227 C 256.514 368.133, 278.226 368.498, 284 365.844 C 285.925 364.959, 298.471 354.619, 311.881 342.867 C 325.290 331.115, 336.652 321.350, 337.131 321.167 C 337.609 320.983, 337.998 322.333, 337.996 324.167 C 337.993 327.248, 336.552 328.750, 318.984 343.996 C 308.529 353.068, 300.362 360.621, 300.836 360.779 C 302.448 361.316, 316.471 355.748, 325 351.184 C 337.597 344.443, 343.963 339.887, 350.206 333.144 C 356.723 326.105, 360.032 319.808, 363.422 308 C 367.329 294.385, 368.306 287.470, 366.924 283.184 C 364.408 275.379, 364.429 275.380, 358.444 282.435 C 348.588 294.053, 331.627 307.434, 314.567 317.053 C 309.553 319.879, 308.755 320.096, 309.420 318.449 C 309.853 317.377, 311.771 310.425, 313.682 303 C 316.879 290.579, 317.125 288.581, 316.761 278 C 316.308 264.816, 314.368 259.032, 308.317 252.821 L 304.733 249.142 311.116 243.336 C 332.951 223.479, 342.514 212.818, 350.020 199.966 C 354.308 192.624, 360.716 177.880, 372.173 149 C 375.991 139.375, 379.362 130.938, 379.664 130.250 C 380.951 127.323, 377.898 129.602, 368.500 138.583 C 363 143.839, 353.903 152.176, 348.285 157.110 L 338.069 166.080 344.624 156.290 C 358.884 134.992, 371 114.379, 371 111.417 C 371 109.890, 367.997 112.561, 356.500 124.311 M 92 186.193 C 81.506 203.641, 79.390 207.549, 75.316 217 C 69.449 230.613, 63.321 250.554, 59.336 269 C 57.891 275.691, 57.500 281.863, 57.500 298 C 57.500 309.901, 57.919 319.192, 58.500 320.149 C 59.352 321.555, 61.362 320.186, 72.116 310.878 L 84.732 299.959 81.324 296.238 C 76.427 290.891, 74.517 283.719, 74.603 271 C 74.642 265.225, 75.232 257.800, 75.915 254.500 C 77.404 247.296, 86.005 219.863, 92.856 200.464 C 97.776 186.532, 100.021 176.978, 98.364 177.024 C 97.889 177.037, 95.025 181.163, 92 186.193 M 771.348 192.038 C 768.938 192.962, 768.989 192.896, 757.970 209.500 C 746.849 226.259, 746.985 227.099, 762.489 237.370 C 772.709 244.140, 774.039 243.911, 783.541 233.750 C 791.041 225.729, 796.997 215.882, 796.999 211.500 C 797 208.894, 784.706 197.236, 778.358 193.824 C 774.840 191.934, 772.906 191.441, 771.348 192.038 M 342.268 231.089 C 341.041 231.547, 337.970 235.202, 335.444 239.211 C 332.918 243.220, 328.635 249.728, 325.926 253.674 C 323.216 257.620, 321 261.955, 321 263.308 C 321 264.918, 322.414 267.045, 325.095 269.467 C 331.125 274.914, 340.957 281, 343.729 281 C 349.297 281, 366.649 260.034, 367.726 252.004 C 368.176 248.651, 367.801 247.877, 363.862 244.038 C 358.176 238.495, 350.152 232.385, 347 231.197 C 345.594 230.668, 343.523 230.620, 342.268 231.089 M 516.309 233.643 C 515.654 233.909, 512.170 238.286, 508.567 243.369 C 504.964 248.451, 500.683 253.888, 499.053 255.449 C 495.553 258.802, 495.321 258.703, 485.314 249.584 C 476.817 241.842, 474.473 240.704, 470.867 242.569 C 466.853 244.645, 454.573 262.395, 451.351 270.779 C 449.734 274.986, 449.746 275.102, 452.103 277.673 C 456.271 282.220, 470.083 292, 472.337 292 C 473.797 292.001, 477.956 288.343, 485.129 280.750 L 495.759 269.500 500.629 272.946 C 518.911 285.882, 519.223 285.917, 528.164 276.053 C 535.778 267.652, 542 257.655, 542 253.822 C 542 250.312, 537.132 244.762, 528.113 237.986 C 521.980 233.380, 519.341 232.409, 516.309 233.643 M 746.403 248.777 C 737.220 256.036, 735.165 258.636, 734.553 263.768 C 731.978 285.371, 731.037 288, 725.877 288 C 723.694 288, 721.783 286.983, 719.301 284.501 L 715.803 281.003 711.419 285.879 C 709.007 288.562, 705.496 291.486, 703.616 292.378 C 698.830 294.649, 692.885 294.473, 690.211 291.982 L 688.045 289.964 679.917 295.437 C 669.154 302.682, 661.666 303.773, 653.857 299.232 C 651.243 297.712, 651.100 297.794, 640.357 306.929 C 634.386 312.007, 627.260 317.310, 624.522 318.713 C 619.077 321.504, 609 325.190, 609 324.391 C 609 324.116, 610.823 321.206, 613.051 317.925 C 617.478 311.406, 621.579 302.832, 626.136 290.570 L 629.082 282.641 626.291 280.356 C 622.513 277.264, 621.206 277.429, 619.203 281.250 C 614.359 290.493, 599.028 300.233, 581.949 304.921 C 558.124 311.459, 524.462 314.556, 486.500 313.702 C 460.204 313.110, 447.263 311.529, 427.270 306.464 C 407.909 301.559, 395 291.437, 395 281.162 C 395 279.558, 394.331 277.689, 393.513 277.011 C 389.635 273.792, 386.593 279.355, 382.044 297.984 C 377.949 314.755, 375.729 330.346, 376.561 336.500 C 378.734 352.579, 385.102 358.784, 405 364.213 C 411.545 365.999, 416.321 366.319, 442.524 366.725 C 460.014 366.996, 476.712 366.754, 482.524 366.145 C 510.051 363.261, 532.766 359.785, 549.524 355.894 L 558.548 353.798 566.524 357.800 C 578.872 363.995, 586.628 367, 590.273 367 C 595.444 367, 612.846 356.231, 620.737 348.149 C 624.307 344.492, 628.603 339.587, 630.284 337.250 C 631.964 334.913, 633.641 333, 634.009 333 C 634.378 333, 638.576 334.350, 643.338 336 C 648.100 337.650, 652.754 339, 653.679 339 C 654.605 339, 660.009 336.250, 665.689 332.888 C 675.136 327.297, 676.716 326.698, 684.237 325.856 C 693.469 324.824, 701.155 321.753, 707.478 316.571 C 710.827 313.828, 713.256 312.886, 720.474 311.533 C 731.075 309.547, 733.507 308.395, 738.296 303.094 C 747.443 292.969, 756.638 265.617, 755.811 250.991 C 755.545 246.297, 755.196 245.457, 753.403 245.200 C 752.147 245.021, 749.338 246.456, 746.403 248.777 M 781.217 248.308 C 777.756 250.887, 775.698 253.933, 770.499 264.171 C 752.491 299.634, 724.615 337.986, 695.620 367.188 C 690.329 372.517, 686 377.489, 686 378.238 C 686 382.478, 692.552 383.109, 704.068 379.981 C 708.155 378.870, 718.487 376.233, 727.027 374.121 C 735.568 372.009, 743.957 369.557, 745.670 368.671 C 749.899 366.484, 753.720 361.426, 760.902 348.511 C 767.660 336.359, 769.881 330.199, 776.411 305.500 C 781.975 284.454, 788.371 244.871, 786.178 245.058 C 785.805 245.089, 783.572 246.552, 781.217 248.308 M 280.127 274.498 C 272.460 276.889, 266.904 284.499, 268.419 290.535 C 269.457 294.668, 274.670 299.579, 281.069 302.451 C 287.175 305.191, 287.205 305.193, 291.750 303.458 C 297.371 301.311, 303.841 295.610, 305.702 291.164 C 308.605 284.229, 302.609 276.154, 293.030 274.100 C 286.729 272.749, 285.626 272.783, 280.127 274.498 M 656.748 356.081 C 655.785 356.642, 653.358 359.666, 651.355 362.801 C 649.352 365.935, 646.140 370.423, 644.217 372.774 L 640.720 377.048 634.605 371.177 C 631.242 367.947, 627.032 364.551, 625.248 363.628 C 622.265 362.086, 621.808 362.079, 619.562 363.551 C 614.821 366.658, 600.084 390.489, 600.022 395.150 C 599.984 398.015, 618.061 413.067, 621.421 412.968 C 623.048 412.920, 624.858 411.226, 632.340 402.749 C 636.102 398.487, 639.572 395, 640.051 395 C 640.531 395, 644.558 397.475, 649 400.500 C 653.442 403.525, 657.842 406, 658.776 406 C 661.272 406, 672.917 393.367, 677.250 385.957 C 682.827 376.422, 682.521 373.432, 675.250 366.372 C 669.423 360.714, 661.480 354.975, 659.554 355.030 C 658.974 355.047, 657.712 355.520, 656.748 356.081" stroke="none" fill="#241c23" fill-rule="evenodd"/></svg>