<svg xmlns="http://www.w3.org/2000/svg" width="1341" height="886" viewBox="0 0 1341 886" version="1.1"><path d="M 304.500 246.377 C 302.300 247.737, 297.918 252.220, 294.761 256.339 C 291.605 260.459, 286.735 267.580, 283.939 272.164 C 281.143 276.749, 277.040 284.286, 274.822 288.912 C 272.603 293.539, 269.711 300.187, 268.394 303.685 C 267.077 307.183, 266 311.178, 266 312.563 C 266 313.947, 266.859 316.749, 267.908 318.790 C 268.958 320.830, 271.096 323.688, 272.658 325.140 C 274.221 326.592, 277.413 328.739, 279.750 329.910 C 282.087 331.082, 284 332.715, 284 333.540 C 284 334.365, 267.687 354.493, 247.750 378.270 C 227.812 402.046, 205.451 428.925, 198.059 438 C 190.666 447.075, 181.892 457.827, 178.559 461.894 C 175.227 465.960, 169.770 472.485, 166.433 476.394 C 163.097 480.302, 157.525 486.875, 154.052 491 C 150.579 495.125, 134.438 514.475, 118.184 534 C 101.929 553.525, 78.197 581.897, 65.445 597.049 C 52.693 612.200, 41.485 626.096, 40.537 627.928 C 39.590 629.759, 38.792 633.112, 38.763 635.379 C 38.734 637.645, 39.042 640.986, 39.446 642.803 C 39.851 644.620, 40.527 645.970, 40.949 645.803 C 41.371 645.636, 64.143 619.175, 91.554 587 C 118.965 554.825, 144.208 525.125, 147.649 521 C 151.089 516.875, 160.616 505.400, 168.819 495.500 C 177.022 485.600, 184.878 476.284, 186.275 474.797 C 187.673 473.311, 196.627 462.961, 206.172 451.797 C 215.718 440.634, 225.321 429.255, 227.514 426.511 C 229.706 423.767, 240.269 410.942, 250.986 398.011 C 261.703 385.080, 276.611 367.525, 284.114 359 C 291.618 350.475, 305.574 335.833, 315.129 326.462 C 324.683 317.091, 337.225 305.669, 343 301.080 C 348.775 296.491, 354.288 291.846, 355.250 290.757 C 356.212 289.669, 357 287.303, 357 285.500 C 357 283.697, 356.173 281.200, 355.161 279.951 L 353.322 277.680 338.515 286.508 C 330.371 291.363, 322.086 295.916, 320.104 296.624 C 318.122 297.333, 314.925 297.929, 313 297.951 C 311.075 297.972, 307.909 297.547, 305.965 297.007 C 304.021 296.467, 300.334 294.695, 297.771 293.069 C 295.207 291.444, 292.384 288.710, 291.497 286.994 L 289.883 283.873 292.066 279.364 C 293.601 276.193, 295.866 273.782, 299.700 271.236 C 303.968 268.402, 306.389 267.527, 310.856 267.204 C 315.496 266.868, 318.050 267.370, 324.531 269.891 C 328.914 271.596, 332.984 272.993, 333.577 272.995 C 334.323 272.999, 334.232 270.314, 333.280 264.250 C 332.524 259.438, 331.111 253.954, 330.138 252.065 C 329.114 250.074, 326.724 247.774, 324.456 246.597 C 322.171 245.412, 318.034 244.428, 314.520 244.234 C 309.504 243.959, 307.833 244.316, 304.500 246.377 M 1285.617 441.571 C 1276.966 451.982, 1267.244 463.650, 1264.013 467.500 C 1260.783 471.350, 1250.121 484.092, 1240.320 495.815 C 1230.519 507.539, 1221.150 518.775, 1219.500 520.785 C 1217.850 522.794, 1209.917 532.327, 1201.872 541.969 C 1193.826 551.611, 1179.262 568.950, 1169.508 580.500 C 1159.753 592.050, 1151.341 602.625, 1150.813 604 C 1150.285 605.375, 1150.139 608.413, 1150.488 610.750 C 1150.837 613.087, 1151.512 615, 1151.988 615 C 1152.464 615, 1164.249 601.546, 1178.177 585.102 C 1192.105 568.657, 1212.342 544.695, 1223.150 531.852 C 1233.957 519.008, 1248.785 501.300, 1256.100 492.500 C 1263.415 483.700, 1269.681 476.275, 1270.023 476 C 1270.366 475.725, 1277.402 467.625, 1285.659 458 C 1293.916 448.375, 1301.196 439.517, 1301.836 438.316 C 1302.476 437.114, 1302.968 433.964, 1302.930 431.316 C 1302.891 428.667, 1302.519 425.632, 1302.104 424.571 C 1301.474 422.963, 1298.727 425.796, 1285.617 441.571" stroke="none" fill="#eb1c3b" fill-rule="evenodd"/><path d="M 1178.250 253.515 C 1170.412 263.137, 1164 271.859, 1164 272.898 C 1164 273.936, 1164.725 275.064, 1165.612 275.404 C 1166.498 275.745, 1170.415 278.155, 1174.316 280.761 C 1178.217 283.368, 1185.610 289.509, 1190.746 294.408 C 1195.918 299.343, 1200.435 302.911, 1200.872 302.408 C 1201.306 301.909, 1208.344 294.371, 1216.513 285.657 L 1231.365 269.814 1230.024 267.657 C 1229.286 266.471, 1226.915 263.400, 1224.755 260.834 C 1222.595 258.267, 1217.379 253.265, 1213.164 249.717 C 1208.949 246.169, 1202.934 241.632, 1199.798 239.633 C 1196.662 237.635, 1193.737 236.005, 1193.298 236.010 C 1192.859 236.016, 1186.088 243.893, 1178.250 253.515 M 552.371 246.750 C 549.173 251.563, 542.646 260.701, 537.865 267.058 C 533.085 273.415, 525.617 282.647, 521.269 287.573 L 513.364 296.530 514.184 299.515 C 514.636 301.157, 516.584 310.198, 518.514 319.606 C 520.445 329.014, 522.888 344.314, 523.943 353.606 C 524.999 362.898, 526.568 381.525, 527.430 395 C 528.292 408.475, 529.680 434.013, 530.516 451.751 C 531.488 472.406, 532.728 488.047, 533.965 495.251 C 535.026 501.438, 536.859 509.650, 538.036 513.500 C 539.213 517.350, 541.793 523.425, 543.769 527 C 545.744 530.575, 549.727 535.816, 552.619 538.646 C 555.511 541.477, 560.267 544.958, 563.189 546.382 C 566.110 547.806, 572.100 549.948, 576.500 551.142 C 583.366 553.006, 587.263 553.324, 604 553.388 C 615.700 553.433, 627.100 552.921, 632.500 552.109 C 637.450 551.365, 645.230 549.682, 649.788 548.371 C 654.347 547.060, 661.322 544.354, 665.288 542.359 C 670.327 539.824, 674.789 536.436, 680.095 531.115 C 685.472 525.724, 688.625 521.532, 690.890 516.763 C 692.650 513.058, 694.981 506.502, 696.070 502.195 C 697.159 497.889, 698.427 490.120, 698.888 484.932 L 699.725 475.500 699.880 490.500 C 699.971 499.298, 700.645 508.382, 701.511 512.471 C 702.324 516.306, 704.539 522.709, 706.435 526.701 C 708.331 530.694, 711.940 536.159, 714.454 538.848 C 716.969 541.536, 721.608 545.107, 724.763 546.783 C 727.918 548.460, 733.425 550.649, 737 551.649 C 742.139 553.085, 746.955 553.452, 760 553.401 C 769.075 553.366, 780.100 552.777, 784.500 552.093 C 788.900 551.409, 796.100 549.956, 800.500 548.863 C 804.900 547.770, 812.104 545.143, 816.510 543.026 C 821.476 540.638, 826.985 536.913, 831.010 533.219 C 834.579 529.943, 839.202 524.391, 841.281 520.881 C 843.361 517.372, 846.182 510.900, 847.551 506.500 C 848.920 502.100, 850.626 493.325, 851.341 487 L 852.641 475.500 852.675 491 C 852.700 501.929, 853.201 508.535, 854.375 513.400 C 855.291 517.194, 857.393 523.134, 859.047 526.598 C 860.700 530.062, 864.267 535.320, 866.974 538.281 C 869.680 541.242, 874.506 545.053, 877.697 546.748 C 880.889 548.444, 886.425 550.637, 890 551.622 C 894.976 552.992, 900.018 553.397, 911.500 553.348 C 920.836 553.308, 930.073 552.650, 935.961 551.606 C 941.164 550.683, 949.489 548.569, 954.461 546.908 C 959.432 545.247, 965.975 542.509, 969 540.823 C 972.025 539.137, 976.418 536.203, 978.762 534.302 C 982.392 531.359, 983.504 530.951, 986.262 531.550 C 988.043 531.937, 1002.100 535.810, 1017.500 540.157 C 1032.900 544.503, 1049.775 549.451, 1055 551.151 C 1060.225 552.852, 1067.848 555.616, 1071.939 557.294 L 1079.378 560.344 1084.194 554.922 C 1086.843 551.940, 1091.146 546.350, 1093.755 542.500 C 1096.365 538.650, 1100.655 531.225, 1103.288 526 C 1105.922 520.775, 1109.406 512.253, 1111.031 507.062 C 1112.656 501.871, 1114.721 492.646, 1115.619 486.562 C 1116.737 478.991, 1117.078 472.187, 1116.699 465 C 1116.318 457.763, 1115.354 452.014, 1113.596 446.500 C 1112.193 442.100, 1109.230 435.734, 1107.012 432.353 C 1104.794 428.973, 1099.019 422.439, 1094.179 417.833 C 1089.339 413.227, 1080.906 406.481, 1075.439 402.842 C 1069.973 399.203, 1058.750 392.412, 1050.500 387.751 C 1042.250 383.090, 1024.700 373.512, 1011.500 366.466 C 998.300 359.420, 983.225 351.203, 978 348.206 C 972.775 345.208, 965.520 340.561, 961.878 337.878 C 958.235 335.195, 954.837 333, 954.325 333 C 953.813 333, 952.826 337.613, 952.131 343.250 C 951.436 348.887, 949.950 357.775, 948.829 363 C 947.708 368.225, 945.506 376.325, 943.935 381 C 942.364 385.675, 941.398 389.637, 941.789 389.804 C 942.180 389.971, 946.426 391.996, 951.225 394.304 L 959.950 398.500 955.511 404.376 C 953.070 407.607, 949.088 414.132, 946.662 418.876 C 944.236 423.619, 941.278 430.363, 940.089 433.861 C 938.899 437.360, 937.238 443.435, 936.397 447.361 C 935.556 451.288, 934.785 459, 934.684 464.500 C 934.583 470, 934.874 476.694, 935.330 479.376 L 936.160 484.252 918.330 483.718 C 906.125 483.352, 898.621 482.654, 894.543 481.506 C 891.267 480.584, 886.859 478.948, 884.748 477.871 C 882.637 476.795, 879.095 474.274, 876.877 472.270 C 874.659 470.266, 871.651 466.348, 870.193 463.563 L 867.542 458.500 867.021 441.500 L 866.500 424.500 863.750 424.184 C 861.646 423.941, 860.998 424.294, 860.991 425.684 C 860.986 426.683, 859.849 431.948, 858.464 437.385 C 857.079 442.821, 854.592 450.522, 852.937 454.497 C 851.282 458.471, 848.381 463.532, 846.489 465.741 C 844.598 467.951, 840.865 471.161, 838.194 472.875 C 835.524 474.589, 830.743 476.884, 827.571 477.975 C 824.399 479.067, 816.786 480.736, 810.652 481.685 C 802.396 482.962, 793.007 483.422, 774.500 483.455 C 756.306 483.488, 748.003 483.121, 744 482.107 C 740.975 481.342, 736.170 479.693, 733.322 478.444 C 730.474 477.195, 726.137 474.324, 723.685 472.064 C 721.233 469.803, 718.171 465.602, 716.881 462.727 L 714.535 457.500 714.182 440.692 L 713.830 423.884 711.285 424.192 L 708.741 424.500 705.876 436.304 C 704.300 442.797, 701.483 451.416, 699.615 455.457 C 697.747 459.499, 694.313 464.875, 691.982 467.403 C 689.596 469.992, 685.071 473.301, 681.623 474.978 C 678.255 476.617, 672.851 478.633, 669.613 479.459 C 666.375 480.286, 659.850 481.514, 655.113 482.188 C 650.323 482.870, 635.848 483.434, 622.500 483.457 C 605.324 483.488, 596.936 483.109, 593 482.123 C 589.975 481.366, 585.053 479.606, 582.062 478.212 C 579.071 476.818, 574.649 473.702, 572.234 471.287 C 569.820 468.873, 566.742 464.405, 565.395 461.358 C 564.048 458.312, 562.420 452.439, 561.778 448.308 C 560.884 442.562, 560.896 428.070, 561.828 386.648 C 562.498 356.867, 563.044 323.500, 563.042 312.500 C 563.039 301.500, 562.500 280.238, 561.844 265.250 C 560.956 244.960, 560.336 238, 559.418 238 C 558.739 238, 555.568 241.938, 552.371 246.750 M 813.657 346.976 C 805.596 356.864, 799.001 365.526, 799.002 366.226 C 799.004 366.927, 801.367 368.734, 804.254 370.242 C 807.141 371.751, 813.327 376.069, 818.001 379.839 C 822.676 383.609, 828.422 388.788, 830.771 391.347 C 833.119 393.906, 835.227 396, 835.453 396 C 835.680 396, 842.870 388.544, 851.431 379.431 L 866.996 362.862 865.855 360.681 C 865.227 359.481, 860.390 354.169, 855.107 348.877 C 849.823 343.584, 841.955 336.946, 837.622 334.127 C 833.289 331.307, 829.422 329, 829.028 329 C 828.635 329, 821.718 337.089, 813.657 346.976 M 1193.663 345.255 C 1191.553 351.990, 1187.217 364.475, 1184.028 373 C 1180.838 381.525, 1177.935 389.207, 1177.576 390.072 C 1177.084 391.256, 1179.088 392.957, 1185.711 396.976 C 1190.545 399.909, 1198.325 405.031, 1203 408.358 C 1207.675 411.685, 1215.775 417.754, 1221 421.845 C 1226.225 425.937, 1236.836 435.633, 1244.580 443.392 C 1254.857 453.689, 1259.341 458.946, 1261.179 462.853 L 1263.698 468.206 1267.349 463.750 C 1270.449 459.966, 1270.999 458.555, 1270.996 454.397 C 1270.994 451.704, 1270.323 445.373, 1269.504 440.328 C 1268.686 435.284, 1266.834 427.409, 1265.389 422.828 C 1263.943 418.248, 1260.509 410, 1257.756 404.500 C 1255.003 399, 1250.729 391.350, 1248.258 387.500 C 1245.787 383.650, 1241.248 377.350, 1238.172 373.500 C 1235.096 369.650, 1225.175 358.962, 1216.125 349.750 C 1207.075 340.538, 1199.182 333.002, 1198.585 333.005 C 1197.988 333.008, 1195.773 338.520, 1193.663 345.255 M 300.832 353.511 C 292.949 363.194, 286.378 371.878, 286.228 372.808 C 286.052 373.905, 287.459 375.346, 290.228 376.906 C 292.578 378.229, 296.975 381.225, 300 383.564 C 303.025 385.903, 308.560 390.671, 312.300 394.159 L 319.101 400.500 305.050 417.689 C 297.323 427.143, 291 435.346, 291 435.918 C 291 436.491, 292.913 437.932, 295.250 439.121 C 297.587 440.310, 302.200 443.351, 305.500 445.877 C 308.800 448.404, 315.164 453.981, 319.642 458.270 L 327.785 466.069 343.392 449.344 C 351.977 440.146, 359 432.361, 359 432.045 C 359 431.729, 356.741 428.680, 353.981 425.268 C 351.220 421.856, 345.707 416.316, 341.731 412.958 C 337.754 409.600, 332.375 405.468, 329.778 403.776 L 325.056 400.700 335.278 389.802 C 340.900 383.809, 347.252 376.880, 349.394 374.406 L 353.288 369.906 351.894 367.300 C 351.127 365.867, 347.350 361.488, 343.500 357.570 C 339.650 353.651, 333.800 348.393, 330.500 345.886 C 327.200 343.379, 322.399 340.107, 319.832 338.617 L 315.164 335.906 300.832 353.511 M 471.978 359.250 C 470.193 363.788, 465.253 374.700, 461.002 383.500 C 456.751 392.300, 451.661 401.609, 449.691 404.187 L 446.110 408.873 454.164 414.881 C 458.593 418.186, 466.408 424.550, 471.529 429.025 C 476.650 433.500, 483.039 439.712, 485.726 442.830 C 488.414 445.949, 491.375 449.613, 492.306 450.973 C 493.238 452.332, 494 454.467, 494 455.716 C 494 457.230, 492.582 459.034, 489.750 461.124 C 487.413 462.849, 482.618 465.588, 479.096 467.210 C 475.574 468.832, 468.599 471.499, 463.596 473.136 C 458.593 474.773, 446.850 477.649, 437.500 479.526 C 428.150 481.404, 414.875 483.614, 408 484.438 C 401.125 485.261, 388.308 486.400, 379.517 486.968 C 370.726 487.535, 352.726 487.994, 339.517 487.987 C 326.308 487.979, 304.025 487.530, 290 486.989 C 275.975 486.448, 257.300 485.535, 248.500 484.961 C 239.700 484.388, 228.450 483.467, 223.500 482.915 C 218.550 482.364, 211.350 480.993, 207.500 479.869 C 203.650 478.745, 197.656 476.696, 194.179 475.316 L 187.858 472.806 184.179 477.069 C 182.156 479.414, 174.125 489.002, 166.333 498.376 L 152.166 515.420 153.718 518.460 C 154.571 520.132, 158.696 524.887, 162.885 529.026 C 168.534 534.608, 172.824 537.748, 179.500 541.187 C 184.450 543.736, 191.210 546.733, 194.522 547.845 C 197.834 548.957, 205.709 550.558, 212.022 551.401 C 218.335 552.244, 229.575 553.399, 237 553.968 C 244.425 554.537, 259.050 555.440, 269.500 555.976 C 279.950 556.511, 301.100 557.241, 316.500 557.598 C 334.005 558.004, 351.434 557.816, 363 557.096 C 373.175 556.463, 387.800 555.036, 395.500 553.926 C 403.200 552.815, 414.225 550.759, 420 549.356 C 425.775 547.952, 434.356 545.322, 439.068 543.511 C 443.781 541.700, 450.081 538.986, 453.068 537.479 C 456.056 535.973, 461.803 532.465, 465.839 529.684 C 469.876 526.902, 476.099 521.448, 479.668 517.563 C 484.469 512.338, 487.551 507.637, 491.510 499.500 C 494.475 493.404, 497.772 484.711, 498.905 480 C 500.028 475.325, 501.458 466.325, 502.082 460 C 502.722 453.518, 502.930 443.918, 502.559 438 C 502.198 432.225, 501.237 423.225, 500.424 418 C 499.611 412.775, 497.619 403.501, 495.998 397.392 C 494.376 391.282, 490.604 380.257, 487.617 372.892 C 484.629 365.526, 481.355 357.592, 480.342 355.260 C 479.257 352.762, 477.827 351.016, 476.862 351.010 C 475.737 351.003, 474.210 353.580, 471.978 359.250 M 157.149 394.750 C 156.642 395.712, 154.865 400.775, 153.198 406 C 151.532 411.225, 149.257 419.100, 148.142 423.500 C 147.027 427.900, 145.329 436.675, 144.370 443 C 143.298 450.069, 142.601 460.664, 142.563 470.500 C 142.524 480.296, 143.029 489.117, 143.863 493.250 C 144.613 496.962, 145.571 500, 145.993 500 C 146.414 500, 148.483 497.863, 150.591 495.250 C 152.698 492.637, 158.459 485.775, 163.393 480 C 168.326 474.225, 173.017 468.722, 173.817 467.772 L 175.270 466.044 169.283 459.644 C 165.990 456.124, 162.314 451.215, 161.114 448.736 C 159.914 446.257, 158.501 441.590, 157.974 438.364 C 157.351 434.547, 157.374 428.661, 158.041 421.500 C 158.604 415.450, 159.950 406.752, 161.032 402.171 C 162.115 397.590, 163 393.653, 163 393.421 C 163 393.189, 161.891 393, 160.535 393 C 159.180 393, 157.656 393.788, 157.149 394.750 M 975.580 417.079 C 972.324 417.569, 966.884 419.270, 963.491 420.857 C 960.099 422.445, 955.683 425.384, 953.679 427.388 C 951.675 429.392, 949.267 432.487, 948.329 434.266 C 947.381 436.065, 946.624 439.718, 946.624 442.500 C 946.624 445.250, 947.351 448.877, 948.239 450.560 C 949.127 452.242, 951.768 455.533, 954.107 457.872 C 956.446 460.211, 961.516 463.999, 965.373 466.291 C 969.231 468.583, 977.049 472.332, 982.746 474.621 L 993.104 478.785 1000.745 475.843 C 1004.948 474.224, 1011.878 471.084, 1016.146 468.863 C 1020.681 466.504, 1025.633 462.952, 1028.065 460.314 L 1032.224 455.802 1031.562 451.659 C 1031.197 449.381, 1029.959 445.635, 1028.811 443.335 C 1027.662 441.035, 1024.647 437.043, 1022.111 434.463 C 1019.575 431.883, 1015.700 428.534, 1013.500 427.021 C 1011.300 425.507, 1007.242 423.129, 1004.483 421.736 C 1001.724 420.343, 997.674 418.743, 995.483 418.181 C 993.292 417.619, 989.250 416.941, 986.500 416.673 C 983.750 416.406, 978.836 416.588, 975.580 417.079 M 1039.590 439.223 C 1039.336 440.475, 1038.887 444.875, 1038.593 449 C 1038.298 453.125, 1037.137 460.100, 1036.013 464.500 C 1034.888 468.900, 1032.427 475.752, 1030.544 479.728 L 1027.120 486.955 1030.810 487.905 C 1032.839 488.427, 1041.475 490.668, 1050 492.885 C 1058.525 495.101, 1069.775 498.239, 1075 499.857 C 1080.225 501.475, 1087.591 503.969, 1091.369 505.400 C 1095.147 506.830, 1098.434 508, 1098.674 508 C 1098.914 508, 1100.306 505.413, 1101.768 502.250 C 1103.639 498.202, 1104.420 494.872, 1104.408 491 C 1104.397 487.366, 1103.671 484.120, 1102.269 481.433 C 1101.101 479.196, 1097.285 474.696, 1093.789 471.433 C 1090.293 468.170, 1083.622 462.982, 1078.966 459.904 C 1074.310 456.826, 1065.550 451.488, 1059.500 448.041 C 1053.450 444.594, 1046.599 440.687, 1044.276 439.360 L 1040.052 436.946 1039.590 439.223 M 1134.612 456.750 C 1134.311 458.262, 1133.397 465.575, 1132.580 473 C 1131.763 480.425, 1130.819 490.325, 1130.483 495 C 1130.147 499.675, 1130.366 507.459, 1130.970 512.299 C 1131.574 517.138, 1133.105 523.953, 1134.372 527.444 C 1135.639 530.934, 1138.320 536.030, 1140.329 538.767 C 1142.339 541.505, 1146.349 545.352, 1149.241 547.316 C 1152.134 549.280, 1157.425 551.869, 1161 553.069 C 1165.641 554.627, 1170.789 555.378, 1179 555.696 L 1190.500 556.141 1204.500 538.947 C 1212.200 529.490, 1220.175 519.860, 1222.221 517.546 C 1224.268 515.232, 1232.877 505.050, 1241.354 494.919 C 1249.830 484.789, 1256.689 476.409, 1256.596 476.297 C 1256.503 476.185, 1253.327 477.218, 1249.539 478.593 C 1245.751 479.969, 1237.442 482.019, 1231.076 483.150 C 1222.490 484.675, 1213.430 485.337, 1196 485.715 C 1177.463 486.117, 1170.625 485.898, 1163.621 484.677 C 1157.699 483.644, 1153.203 482.189, 1150.121 480.309 C 1146.778 478.270, 1144.761 476.033, 1142.827 472.222 C 1141.235 469.084, 1139.874 464.335, 1139.461 460.477 C 1138.891 455.157, 1138.445 454, 1136.963 454 C 1135.794 454, 1134.966 454.968, 1134.612 456.750 M 1255 493.726 C 1247.025 503.413, 1232.850 520.378, 1223.500 531.428 C 1214.150 542.477, 1205.924 552.251, 1205.219 553.148 L 1203.938 554.779 1211.183 553.399 C 1215.168 552.640, 1220.695 551.277, 1223.464 550.371 C 1226.234 549.465, 1230.530 547.708, 1233.010 546.466 C 1235.491 545.225, 1239.951 542.383, 1242.921 540.151 C 1245.892 537.919, 1250.297 533.710, 1252.711 530.797 C 1255.125 527.884, 1258.672 522.262, 1260.594 518.304 C 1262.516 514.346, 1265.174 506.825, 1266.502 501.592 C 1267.829 496.358, 1269.297 488.459, 1269.763 484.038 C 1270.229 479.617, 1270.361 476.026, 1270.055 476.057 C 1269.750 476.088, 1262.975 484.039, 1255 493.726 M 578.186 600.446 C 570.384 610.041, 564 618.516, 564 619.279 C 564 620.043, 567.526 622.964, 571.836 625.771 C 576.145 628.578, 584.220 635.199, 589.779 640.485 L 599.887 650.096 607.236 642.298 C 611.278 638.009, 617.206 631.703, 620.411 628.286 L 626.237 622.071 629.368 623.681 C 631.091 624.567, 635.200 627.357, 638.500 629.881 C 641.800 632.406, 648.155 637.972, 652.621 642.250 L 660.743 650.028 674.621 635.263 C 682.255 627.142, 689.340 619.504, 690.366 618.291 L 692.233 616.085 688.539 611.053 C 686.507 608.285, 681.617 603.059, 677.672 599.441 C 673.727 595.823, 667.200 590.643, 663.166 587.931 C 659.133 585.219, 655.243 583, 654.523 583 C 653.802 583, 647.934 589.525, 641.483 597.500 C 635.032 605.475, 629.634 612, 629.488 612 C 629.341 612, 625.010 607.831, 619.861 602.735 C 614.712 597.640, 606.975 591.115, 602.666 588.235 C 598.358 585.356, 594.279 583, 593.602 583 C 592.925 583, 585.988 590.851, 578.186 600.446" stroke="none" fill="#241c24" fill-rule="evenodd"/></svg>