<svg xmlns="http://www.w3.org/2000/svg" width="1341" height="886" viewBox="0 0 1341 886" version="1.1"><path d="M 409.500 266.347 C 407.850 267.112, 405.307 268.858, 403.850 270.228 C 402.392 271.598, 398.505 276.353, 395.212 280.795 C 391.919 285.237, 386.871 292.983, 383.994 298.010 C 381.118 303.036, 376.572 312.178, 373.891 318.324 C 370.665 325.724, 369.015 330.898, 369.009 333.637 C 369.002 336.662, 369.874 339.066, 372.250 342.580 C 374.512 345.925, 377.243 348.315, 381.235 350.443 C 384.388 352.124, 386.976 354.079, 386.985 354.786 C 386.993 355.494, 369.563 376.903, 348.250 402.362 C 326.938 427.821, 301.850 458.042, 292.500 469.519 C 283.150 480.997, 271.439 495.138, 266.476 500.944 C 261.512 506.750, 238.123 534.675, 214.501 563 C 190.878 591.325, 165.206 622.010, 157.452 631.188 C 148.093 642.266, 142.958 649.197, 142.177 651.804 C 141.530 653.964, 141.003 656.580, 141.006 657.616 C 141.009 658.652, 141.487 661.215, 142.070 663.312 C 142.652 665.409, 143.498 666.984, 143.951 666.812 C 144.403 666.640, 155.495 653.900, 168.599 638.500 C 181.703 623.100, 206.617 593.812, 223.963 573.415 C 241.308 553.019, 262.534 527.819, 271.131 517.415 C 279.727 507.012, 287.947 497.231, 289.398 495.680 C 290.848 494.129, 298.692 485.129, 306.829 475.680 C 314.965 466.231, 326.744 452.200, 333.003 444.500 C 339.262 436.800, 352.275 421.050, 361.920 409.500 C 371.566 397.950, 384.697 382.650, 391.101 375.500 C 397.504 368.350, 410.114 355.295, 419.122 346.489 C 428.130 337.683, 440.796 326.251, 447.270 321.084 C 454.221 315.536, 459.275 310.752, 459.615 309.398 C 459.931 308.138, 459.662 305.507, 459.018 303.553 C 458.237 301.189, 457.227 300, 455.999 300 C 454.984 300, 448.157 303.654, 440.827 308.120 C 433.497 312.586, 425.756 316.861, 423.624 317.620 C 421.493 318.379, 417.443 318.996, 414.624 318.990 C 411.373 318.984, 407.670 318.128, 404.493 316.649 C 401.739 315.366, 398.026 312.655, 396.243 310.624 C 394.459 308.592, 393 306.109, 393 305.105 C 393 304.101, 394.183 301.536, 395.628 299.406 C 397.074 297.276, 398.987 294.938, 399.878 294.212 C 400.770 293.485, 403.750 291.795, 406.500 290.455 C 409.377 289.054, 413.198 288.042, 415.500 288.073 C 417.700 288.103, 423.325 289.618, 428 291.440 C 434.341 293.910, 436.579 294.416, 436.813 293.431 C 436.985 292.705, 436.446 288.175, 435.616 283.365 C 434.786 278.556, 433.267 273.469, 432.239 272.060 C 431.212 270.652, 428.725 268.681, 426.712 267.681 C 424.700 266.680, 420.679 265.657, 417.777 265.409 C 414.469 265.125, 411.381 265.475, 409.500 266.347 M 1193.381 315.676 C 1190.146 319.456, 1180.228 331.312, 1171.339 342.024 C 1162.451 352.736, 1150.560 367.125, 1144.916 374 C 1139.272 380.875, 1130.682 390.844, 1125.827 396.153 C 1120.972 401.463, 1117 406.088, 1117 406.431 C 1117 406.774, 1113.063 411.838, 1108.250 417.686 C 1103.438 423.533, 1091.686 437.732, 1082.136 449.240 C 1072.586 460.748, 1061.857 473.389, 1058.295 477.332 C 1054.732 481.274, 1050.974 486.331, 1049.942 488.569 C 1048.646 491.381, 1048.252 493.781, 1048.668 496.343 C 1048.999 498.381, 1049.621 500.266, 1050.051 500.531 C 1050.480 500.797, 1054.807 496.225, 1059.666 490.372 C 1064.525 484.519, 1078.702 467.753, 1091.170 453.115 C 1103.639 438.477, 1118.840 420.710, 1124.951 413.634 C 1131.062 406.558, 1138.166 398.008, 1140.738 394.634 C 1143.311 391.260, 1149.259 384.026, 1153.958 378.557 C 1158.656 373.089, 1167.856 362.289, 1174.402 354.557 C 1180.948 346.826, 1189.091 337.350, 1192.498 333.500 C 1195.904 329.650, 1199.211 325.517, 1199.846 324.316 C 1200.481 323.114, 1200.993 319.739, 1200.985 316.816 C 1200.976 313.892, 1200.585 310.894, 1200.115 310.153 C 1199.483 309.154, 1197.737 310.586, 1193.381 315.676" stroke="none" fill="#eb1c3b" fill-rule="evenodd"/><path d="M 1083.623 259.916 C 1075.581 269.795, 1069 278.571, 1069 279.418 C 1069 280.266, 1070.752 281.853, 1072.893 282.945 C 1075.034 284.038, 1080.322 287.599, 1084.643 290.860 C 1088.964 294.120, 1095.316 299.725, 1098.757 303.315 L 1105.014 309.842 1120.507 293.350 C 1129.028 284.279, 1136 276.308, 1136 275.635 C 1136 274.963, 1133.862 271.902, 1131.250 268.833 C 1128.638 265.764, 1124.025 261.040, 1121 258.336 C 1117.975 255.632, 1113.700 252.045, 1111.500 250.365 C 1109.300 248.684, 1105.418 246.105, 1102.873 244.632 L 1098.247 241.955 1083.623 259.916 M 665.500 269.733 C 662.750 273.973, 655.953 283.529, 650.396 290.971 C 644.839 298.412, 637.019 308.001, 633.019 312.281 L 625.745 320.061 629.392 336.483 C 631.398 345.516, 633.692 357.315, 634.491 362.703 C 635.289 368.091, 636.626 379.475, 637.460 388 C 638.295 396.525, 639.642 414.750, 640.455 428.500 C 641.268 442.250, 642.421 464.750, 643.019 478.500 C 643.616 492.250, 644.773 508.330, 645.589 514.234 C 646.406 520.137, 647.964 528.462, 649.053 532.734 C 650.141 537.005, 652.587 543.783, 654.488 547.795 C 656.626 552.307, 660.116 557.367, 663.637 561.058 C 667.327 564.926, 671.734 568.229, 676.161 570.444 C 679.919 572.324, 686.482 574.681, 690.746 575.681 C 696.939 577.134, 702.525 577.489, 718.500 577.445 C 733.072 577.404, 741.214 576.905, 748.500 575.607 C 754 574.626, 761.875 572.705, 766 571.336 C 770.125 569.968, 776.039 567.496, 779.142 565.842 C 782.246 564.189, 787.259 560.630, 790.284 557.934 C 793.309 555.238, 797.448 550.526, 799.482 547.461 C 801.516 544.397, 804.471 538.352, 806.049 534.027 C 807.628 529.703, 809.427 522.190, 810.047 517.332 C 810.668 512.475, 811.474 506.499, 811.838 504.053 C 812.211 501.549, 812.508 506.793, 812.519 516.053 C 812.534 528.583, 812.956 534.031, 814.294 538.928 C 815.260 542.463, 817.493 548.288, 819.257 551.871 C 821.022 555.455, 824.723 560.699, 827.482 563.524 C 830.541 566.656, 835.141 569.921, 839.264 571.888 C 842.984 573.663, 849.734 575.822, 854.264 576.686 C 860.570 577.889, 866.015 578.118, 877.500 577.665 C 885.750 577.339, 896.775 576.332, 902 575.426 C 907.225 574.521, 915.203 572.540, 919.730 571.024 C 924.256 569.509, 930.532 566.746, 933.677 564.884 C 936.821 563.023, 942.179 558.747, 945.583 555.383 C 949.969 551.047, 952.979 546.824, 955.918 540.883 C 958.566 535.530, 960.772 529.066, 962.020 523 C 963.094 517.775, 963.980 510.462, 963.987 506.750 C 963.994 503.038, 964.337 500, 964.750 499.999 C 965.163 499.999, 965.344 506.059, 965.153 513.466 C 964.901 523.234, 965.263 529.209, 966.470 535.217 C 967.385 539.773, 969.665 546.698, 971.536 550.607 C 973.407 554.516, 976.949 559.951, 979.406 562.685 C 981.864 565.418, 986.490 569.042, 989.687 570.739 C 992.884 572.435, 998.200 574.650, 1001.500 575.661 L 1007.500 577.500 1035.500 577.451 C 1051.378 577.424, 1067.613 576.874, 1073 576.182 C 1078.225 575.510, 1087.225 574.020, 1093 572.870 C 1098.775 571.720, 1108.393 569.057, 1114.373 566.953 C 1120.353 564.848, 1128.834 560.960, 1133.221 558.313 C 1137.607 555.666, 1143.864 551.089, 1147.124 548.142 C 1150.385 545.195, 1155.012 540.020, 1157.407 536.642 C 1159.802 533.264, 1162.999 528.035, 1164.513 525.022 C 1166.026 522.010, 1168.131 517.060, 1169.191 514.022 C 1170.251 510.985, 1172.027 504.450, 1173.138 499.500 C 1174.679 492.634, 1175.288 485.352, 1175.709 468.783 C 1176.046 455.471, 1175.806 442.120, 1175.087 434.283 C 1174.442 427.253, 1173.261 417.657, 1172.463 412.960 C 1171.665 408.263, 1170.078 400.855, 1168.936 396.498 C 1167.795 392.141, 1165.513 385.080, 1163.865 380.807 C 1162.217 376.533, 1160.510 372.815, 1160.072 372.545 C 1159.634 372.274, 1156.176 375.740, 1152.388 380.247 C 1148.599 384.754, 1143.982 390.413, 1142.127 392.822 L 1138.754 397.202 1145.248 403.851 C 1148.819 407.508, 1152.916 412.279, 1154.351 414.453 C 1156.297 417.402, 1156.648 418.611, 1155.730 419.212 C 1155.054 419.655, 1150.900 421.123, 1146.500 422.476 C 1142.100 423.828, 1134.504 425.624, 1129.619 426.467 C 1124.734 427.310, 1118.853 428, 1116.549 428 L 1112.359 428 1090.680 453.438 C 1078.756 467.429, 1069 479.072, 1069 479.313 C 1069 479.553, 1072.263 480.818, 1076.250 482.125 C 1082.528 484.181, 1085.377 484.493, 1097.500 484.449 C 1107.711 484.412, 1113.259 483.916, 1118 482.614 C 1121.575 481.633, 1127.650 479.180, 1131.499 477.165 C 1135.571 475.033, 1140.893 471.069, 1144.226 467.686 C 1147.737 464.122, 1151.322 459.091, 1153.490 454.686 C 1155.435 450.734, 1157.687 444.350, 1158.496 440.500 C 1159.304 436.650, 1159.973 431.948, 1159.983 430.050 C 1159.993 427.893, 1160.352 426.956, 1160.938 427.550 C 1161.454 428.073, 1163.081 432.550, 1164.554 437.500 C 1166.817 445.109, 1167.310 449.010, 1167.745 462.736 L 1168.259 478.972 1165.747 482.236 C 1164.365 484.031, 1160.720 487.010, 1157.646 488.855 C 1154.572 490.700, 1149.457 493.259, 1146.279 494.543 C 1143.100 495.827, 1136 498.048, 1130.500 499.479 C 1125 500.910, 1115.100 502.945, 1108.500 504.002 C 1101.900 505.058, 1089.975 506.434, 1082 507.059 C 1073.541 507.723, 1056.043 508.004, 1040 507.736 C 1018.965 507.384, 1011.238 506.904, 1007.131 505.697 C 1004.178 504.829, 999.356 502.941, 996.417 501.503 C 993.477 500.065, 989.253 496.822, 987.030 494.297 C 984.360 491.263, 982.313 487.517, 980.995 483.248 C 979.393 478.062, 979 473.952, 979 462.395 L 979 448 976.519 448 C 974.631 448, 973.889 448.657, 973.412 450.750 C 973.068 452.262, 971.896 457.100, 970.809 461.500 C 969.721 465.900, 967.511 472.875, 965.899 477 C 964.286 481.125, 961.727 486.130, 960.211 488.123 C 958.695 490.116, 956.046 492.932, 954.325 494.380 C 952.603 495.829, 948.338 498.334, 944.847 499.947 C 941.356 501.560, 935.074 503.573, 930.887 504.420 C 926.700 505.268, 917.700 506.470, 910.887 507.092 C 904.050 507.716, 889.763 508.016, 879 507.761 L 859.500 507.299 851.500 504.665 C 846.935 503.162, 841.353 500.414, 838.500 498.266 C 834.800 495.479, 832.597 492.701, 830.027 487.578 L 826.554 480.657 826.159 464.328 L 825.765 448 823.537 448 L 821.309 448 818.207 460.452 C 816.501 467.300, 813.545 476.279, 811.639 480.405 C 809.503 485.028, 806.472 489.559, 803.738 492.216 C 801.299 494.587, 796.779 497.763, 793.695 499.273 C 790.610 500.783, 785.480 502.681, 782.293 503.491 C 779.107 504.300, 773.350 505.446, 769.500 506.037 C 765.650 506.629, 751.925 507.358, 739 507.657 C 719.825 508.102, 714.137 507.911, 708.094 506.622 C 704.021 505.753, 697.946 503.745, 694.594 502.158 C 691.242 500.572, 686.768 497.525, 684.652 495.387 C 682.536 493.249, 679.989 489.911, 678.994 487.970 C 677.998 486.028, 676.367 481.753, 675.369 478.470 L 673.554 472.500 673.800 443 C 673.936 426.775, 674.482 396.625, 675.014 376 C 675.647 351.463, 675.637 327.784, 674.986 307.500 C 674.439 290.450, 673.730 273.238, 673.410 269.250 C 673.047 264.720, 672.392 262.005, 671.665 262.013 C 671.024 262.020, 668.250 265.494, 665.500 269.733 M 1095.265 339.542 C 1092.385 340.317, 1087.876 342.043, 1085.243 343.377 C 1082.611 344.710, 1078.271 347.609, 1075.598 349.818 C 1072.925 352.027, 1068.766 356.234, 1066.356 359.167 C 1063.946 362.100, 1060.230 367.875, 1058.099 372 C 1055.968 376.125, 1053.060 383.006, 1051.637 387.290 C 1050.214 391.575, 1048.263 399, 1047.302 403.790 C 1046.047 410.046, 1045.547 417.430, 1045.528 430 C 1045.505 444.531, 1045.818 448.433, 1047.373 453 C 1048.403 456.025, 1050.177 460.075, 1051.315 462 C 1052.452 463.925, 1054.939 467.428, 1056.840 469.784 C 1058.741 472.140, 1060.669 473.940, 1061.124 473.784 C 1061.580 473.628, 1070.248 463.600, 1080.387 451.500 C 1091.678 438.025, 1098.372 429.261, 1097.661 428.884 C 1097.022 428.545, 1092.900 428.004, 1088.500 427.682 C 1084.100 427.359, 1077.575 426.179, 1074 425.058 C 1070.425 423.938, 1065.145 421.661, 1062.266 419.999 C 1059.387 418.337, 1056.300 415.861, 1055.405 414.496 C 1054.355 412.893, 1054.012 411.088, 1054.436 409.398 C 1054.797 407.959, 1057.406 404.336, 1060.233 401.347 C 1063.774 397.603, 1067.882 394.675, 1073.437 391.937 C 1077.872 389.751, 1084.875 387.252, 1089 386.384 C 1094.282 385.272, 1098.984 384.987, 1104.900 385.420 C 1109.971 385.791, 1116.646 387.154, 1121.745 388.860 L 1130.191 391.684 1142.226 377.270 L 1154.261 362.856 1152.915 360.341 C 1152.175 358.958, 1148.723 355.164, 1145.244 351.909 C 1141.765 348.655, 1136.800 344.919, 1134.209 343.608 C 1131.619 342.296, 1127.056 340.498, 1124.068 339.612 C 1120.707 338.614, 1115.180 338.025, 1109.568 338.066 C 1104.581 338.102, 1098.144 338.766, 1095.265 339.542 M 893.091 370.632 C 885.200 380.329, 878.564 388.992, 878.343 389.882 C 878.065 391.006, 879.707 392.471, 883.722 394.681 C 886.900 396.431, 893.177 400.822, 897.672 404.439 C 902.167 408.057, 907.662 413.081, 909.883 415.604 C 912.104 418.128, 914.305 420.037, 914.774 419.846 C 915.243 419.656, 922.511 412.172, 930.925 403.215 L 946.224 386.930 943.436 382.907 C 941.902 380.695, 936.917 375.353, 932.358 371.037 C 927.798 366.721, 920.640 360.897, 916.450 358.095 C 912.260 355.293, 908.519 353, 908.135 353 C 907.752 353, 900.982 360.934, 893.091 370.632 M 403.128 375.446 C 395.358 385.042, 389 393.517, 389 394.280 C 389 395.043, 392.488 397.947, 396.750 400.733 C 401.012 403.519, 408.237 409.280, 412.804 413.536 C 417.469 417.883, 420.892 421.840, 420.614 422.565 C 420.341 423.274, 414.242 431.054, 407.059 439.852 C 399.877 448.650, 394 456.503, 394 457.303 C 394 458.103, 395.449 459.358, 397.221 460.091 C 398.992 460.825, 403.830 463.996, 407.971 467.137 C 412.112 470.278, 418.638 476.032, 422.473 479.924 C 426.308 483.816, 429.765 487, 430.155 487 C 430.544 487, 437.858 479.526, 446.408 470.391 L 461.954 453.782 460.900 451.813 C 460.320 450.730, 456.618 446.446, 452.673 442.292 C 448.728 438.138, 441.574 431.807, 436.775 428.223 L 428.049 421.707 439.275 409.796 C 445.449 403.245, 451.786 396.330, 453.357 394.430 L 456.214 390.975 454.468 388.238 C 453.508 386.732, 448.809 381.645, 444.026 376.933 C 439.243 372.220, 431.843 366.033, 427.581 363.183 C 423.319 360.332, 419.253 358, 418.544 358 C 417.836 358, 410.899 365.851, 403.128 375.446 M 572.079 386.715 C 568.603 394.847, 563.305 406.225, 560.306 412 C 557.308 417.775, 553.492 424.217, 551.827 426.316 C 550.162 428.415, 548.957 430.272, 549.150 430.442 C 549.342 430.612, 554.225 434.284, 560 438.601 C 565.775 442.917, 575.688 451.636, 582.030 457.975 C 588.371 464.314, 594.430 471.176, 595.494 473.225 L 597.428 476.950 595.376 479.698 C 594.247 481.210, 590.214 484.134, 586.412 486.196 C 582.610 488.259, 574.036 491.735, 567.358 493.922 C 560.680 496.109, 548.530 499.231, 540.358 500.860 C 532.186 502.489, 520.100 504.526, 513.500 505.386 C 506.900 506.247, 495.200 507.410, 487.500 507.971 C 479.800 508.533, 458.425 508.989, 440 508.986 C 421.575 508.982, 396.375 508.535, 384 507.992 C 371.625 507.449, 354.750 506.544, 346.500 505.981 C 338.250 505.418, 327.900 504.491, 323.500 503.921 C 319.100 503.351, 312.370 501.964, 308.544 500.839 C 304.718 499.713, 299.103 497.693, 296.065 496.350 C 291.565 494.360, 290.352 494.154, 289.521 495.237 C 288.959 495.969, 281.574 504.877, 273.110 515.034 C 264.645 525.190, 257.035 534.291, 256.198 535.257 L 254.677 537.014 258.586 542.689 C 260.735 545.810, 265.420 550.787, 268.997 553.750 C 272.574 556.712, 280 561.354, 285.500 564.066 C 291 566.777, 298.144 569.661, 301.374 570.475 C 304.605 571.289, 313.380 572.636, 320.874 573.467 C 328.369 574.299, 340.800 575.420, 348.500 575.958 C 356.200 576.496, 375.325 577.458, 391 578.096 C 406.675 578.734, 432.100 579.003, 447.500 578.694 C 462.900 578.385, 480 577.644, 485.500 577.048 C 491 576.451, 501.800 574.827, 509.500 573.439 C 517.200 572.051, 528.730 569.169, 535.121 567.035 C 541.513 564.901, 550.063 561.488, 554.121 559.451 C 558.180 557.414, 563.905 554.157, 566.844 552.214 C 569.784 550.270, 574.648 546.432, 577.655 543.684 C 580.661 540.937, 585.107 535.906, 587.533 532.506 C 589.960 529.105, 593.531 522.984, 595.469 518.903 C 597.407 514.822, 600.204 506.987, 601.685 501.491 L 604.377 491.500 604.417 467.500 L 604.457 443.500 601.769 430.979 C 600.291 424.092, 597.282 413.241, 595.084 406.865 C 592.886 400.490, 588.856 390.149, 586.129 383.887 C 583.402 377.624, 580.547 372.372, 579.785 372.215 C 578.858 372.025, 576.307 376.825, 572.079 386.715 M 256.191 426.750 C 253.896 433.762, 251.143 443.325, 250.074 448 C 249.005 452.675, 247.549 460.100, 246.840 464.500 C 246.074 469.250, 245.578 480.624, 245.619 492.500 C 245.668 506.836, 246.096 513.885, 247.131 517.392 L 248.576 522.284 253.023 516.892 C 255.469 513.926, 260.402 508.125, 263.986 504 C 267.569 499.875, 272.227 494.381, 274.337 491.791 L 278.174 487.082 272.565 481.606 C 268.931 478.058, 265.819 473.730, 263.728 469.315 L 260.500 462.500 260.624 450 C 260.708 441.523, 261.434 434.223, 262.879 427.319 C 264.051 421.720, 265.281 416.432, 265.612 415.569 C 266.074 414.364, 265.535 414, 263.289 414 L 260.365 414 256.191 426.750 M 687.623 629.152 C 679.990 638.561, 673.550 647.004, 673.312 647.916 C 673.002 649.102, 675.085 650.972, 680.630 654.485 C 684.894 657.186, 693.033 663.875, 698.718 669.350 L 709.053 679.305 718.277 669.403 C 723.349 663.957, 729.375 657.484, 731.667 655.018 L 735.834 650.534 743.142 655.517 C 747.162 658.258, 754.867 664.735, 760.265 669.911 C 765.718 675.139, 770.430 678.916, 770.870 678.411 C 771.305 677.910, 778.295 670.422, 786.405 661.772 C 799.018 648.316, 801.045 645.716, 800.430 643.780 C 800.035 642.535, 795.389 637.217, 790.106 631.961 C 784.823 626.706, 776.975 620.065, 772.666 617.203 C 768.358 614.341, 764.287 612, 763.621 612 C 762.954 612, 757.040 618.650, 750.478 626.779 L 738.547 641.557 732.023 634.614 C 728.436 630.795, 722.187 625.028, 718.138 621.799 C 714.090 618.569, 709.045 615.043, 706.928 613.963 C 704.812 612.884, 702.724 612.010, 702.290 612.023 C 701.855 612.035, 695.255 619.743, 687.623 629.152" stroke="none" fill="#241c24" fill-rule="evenodd"/></svg>