<svg xmlns="http://www.w3.org/2000/svg" width="1341" height="886" viewBox="0 0 1341 886" version="1.1"><path d="M 342.099 241.286 C 338.758 241.963, 336.536 243.370, 332.879 247.124 C 330.230 249.844, 325.048 256.598, 321.364 262.131 C 317.680 267.665, 312.147 277.220, 309.068 283.364 C 305.990 289.508, 302.379 297.742, 301.045 301.661 L 298.619 308.786 299.836 312.848 C 300.506 315.082, 302.236 318.316, 303.682 320.034 C 305.128 321.753, 308.716 324.516, 311.656 326.175 C 314.595 327.834, 317 329.795, 317 330.533 C 317 331.272, 301.408 350.466, 282.352 373.188 C 263.296 395.910, 237.778 426.650, 225.647 441.500 C 213.516 456.350, 199.728 473, 195.006 478.500 C 190.284 484, 185.313 489.889, 183.960 491.587 C 182.607 493.284, 162.334 517.584, 138.910 545.587 C 115.485 573.589, 91.274 602.497, 85.106 609.827 C 78.938 617.157, 73.466 624.274, 72.946 625.642 C 72.426 627.011, 72 630.322, 72 633 C 72 635.678, 72.452 639.058, 73.004 640.511 L 74.008 643.152 85.754 629.338 C 92.214 621.739, 117.300 592.258, 141.500 563.824 C 165.700 535.389, 193.503 502.534, 203.284 490.812 C 213.064 479.091, 225.602 464.325, 231.145 458 C 236.688 451.675, 246.073 440.650, 252 433.500 C 257.927 426.350, 273.024 408.154, 285.549 393.065 C 298.074 377.976, 313.756 359.526, 320.399 352.065 C 327.042 344.604, 338.419 332.590, 345.682 325.366 C 352.944 318.142, 364.424 307.644, 371.193 302.036 C 377.962 296.428, 384.962 290.589, 386.750 289.060 C 389.240 286.930, 390 285.481, 390 282.862 C 390 280.983, 389.282 278.420, 388.405 277.168 C 387.527 275.915, 386.290 275.027, 385.655 275.195 C 385.020 275.363, 377.955 279.434, 369.955 284.242 C 359.528 290.510, 353.834 293.301, 349.842 294.103 C 345.194 295.036, 343.301 294.939, 338.396 293.513 C 333.911 292.209, 331.371 290.656, 327.674 286.959 C 323.756 283.042, 322.956 281.673, 323.493 279.807 C 323.858 278.538, 325.377 275.706, 326.867 273.513 C 328.615 270.940, 331.602 268.490, 335.280 266.609 C 338.809 264.804, 342.606 263.669, 345.241 263.631 C 347.794 263.594, 353.015 264.915, 358.275 266.927 C 363.101 268.773, 367.224 270.108, 367.439 269.892 C 367.653 269.676, 367.059 265.175, 366.119 259.888 C 365.180 254.601, 363.639 249.098, 362.696 247.659 C 361.753 246.219, 359.629 244.343, 357.977 243.488 C 356.325 242.634, 353.066 241.588, 350.736 241.164 C 348.406 240.741, 344.519 240.795, 342.099 241.286 M 1261.121 429.134 C 1257.757 433.185, 1247.916 444.978, 1239.252 455.341 C 1230.588 465.703, 1219.082 479.428, 1213.682 485.841 C 1208.281 492.253, 1199.859 502.225, 1194.966 508 C 1190.072 513.775, 1171.091 536.515, 1152.784 558.533 C 1134.478 580.551, 1118.851 599.377, 1118.058 600.367 C 1117.240 601.388, 1116.615 604.302, 1116.615 607.092 C 1116.615 609.800, 1117.078 612.478, 1117.642 613.042 C 1118.345 613.745, 1133.013 597.186, 1164.085 560.612 C 1189.063 531.210, 1212.650 503.258, 1216.500 498.495 C 1220.350 493.733, 1228.600 483.686, 1234.834 476.168 C 1241.068 468.651, 1250.743 457.397, 1256.334 451.159 C 1261.925 444.921, 1267.047 438.846, 1267.715 437.659 C 1268.383 436.472, 1268.938 433.025, 1268.949 430 C 1268.960 426.975, 1268.580 423.885, 1268.104 423.134 C 1267.458 422.114, 1265.684 423.639, 1261.121 429.134" stroke="none" fill="#eb1c3b" fill-rule="evenodd"/><path d="M 605.025 243.250 C 602.027 247.787, 594.985 257.575, 589.377 265 C 583.769 272.425, 576.175 281.767, 572.501 285.759 L 565.821 293.019 568.850 306.759 C 570.517 314.317, 572.591 324.309, 573.460 328.964 C 574.328 333.619, 575.913 345.994, 576.981 356.464 C 578.048 366.934, 579.607 387.200, 580.444 401.500 C 581.281 415.800, 582.450 438.300, 583.041 451.500 C 583.633 464.700, 584.757 480.450, 585.541 486.500 C 586.324 492.550, 587.903 501.100, 589.049 505.500 C 590.194 509.900, 592.687 516.747, 594.587 520.716 C 596.561 524.838, 600.448 530.530, 603.653 533.991 C 607.699 538.362, 611.247 540.995, 616.381 543.436 C 620.297 545.297, 627.100 547.648, 631.500 548.660 C 638.132 550.185, 643.434 550.480, 662.500 550.384 C 675.150 550.320, 691.350 549.729, 698.500 549.070 C 705.650 548.411, 716.606 547.001, 722.847 545.936 C 729.088 544.872, 739.078 542.378, 745.047 540.396 C 751.016 538.413, 758.735 535.150, 762.200 533.145 C 765.665 531.140, 771.477 526.570, 775.115 522.988 C 779.132 519.034, 782.959 514.044, 784.856 510.285 C 786.575 506.879, 789.078 500.311, 790.417 495.688 C 791.757 491.066, 793.395 482.618, 794.058 476.916 C 794.803 470.510, 795.052 460.235, 794.709 450.024 C 794.404 440.936, 793.447 429.675, 792.583 425 C 791.719 420.325, 789.662 411.953, 788.012 406.396 C 786.362 400.839, 782.495 390.039, 779.420 382.396 C 776.344 374.753, 773.123 366.813, 772.262 364.750 C 771.401 362.688, 770.067 361, 769.297 361 C 768.528 361, 767.208 362.688, 766.364 364.750 C 765.520 366.813, 763.044 372.715, 760.861 377.866 C 758.679 383.018, 754.907 391.397, 752.481 396.486 C 750.055 401.576, 745.992 408.836, 743.454 412.620 L 738.839 419.500 742.139 422 C 743.954 423.375, 749.727 427.939, 754.969 432.142 C 760.211 436.344, 768.282 443.544, 772.904 448.142 C 777.526 452.739, 782.571 458.474, 784.116 460.886 C 786.193 464.131, 786.682 465.726, 785.991 467.016 C 785.478 467.975, 783.358 469.440, 781.279 470.271 C 779.201 471.103, 773.225 472.706, 768 473.833 C 762.775 474.960, 752.200 476.570, 744.500 477.412 C 736.800 478.253, 719.938 479.458, 707.029 480.091 C 694.120 480.723, 675.895 481.009, 666.529 480.726 C 653.846 480.343, 647.810 479.718, 642.877 478.275 C 639.235 477.210, 634.217 475.145, 631.726 473.685 C 629.236 472.226, 625.368 468.953, 623.132 466.413 C 620.896 463.873, 618.118 459.258, 616.958 456.158 C 615.798 453.058, 614.472 447.157, 614.011 443.044 C 613.549 438.931, 613.559 415.526, 614.032 391.033 C 614.505 366.540, 615.157 339.007, 615.479 329.849 C 615.802 320.691, 615.600 298.866, 615.029 281.349 C 614.459 263.832, 613.730 246.238, 613.411 242.250 C 613.045 237.687, 612.393 235, 611.653 235 C 611.005 235, 608.023 238.713, 605.025 243.250 M 994.721 236.250 C 994.451 236.938, 990.291 243.125, 985.477 250 C 980.663 256.875, 973.321 266.775, 969.160 272 C 964.999 277.225, 959.173 284.055, 956.213 287.179 L 950.832 292.857 952.389 302.179 C 953.245 307.305, 954.844 318.700, 955.942 327.500 C 957.040 336.300, 959.068 354.075, 960.450 367 C 961.831 379.925, 963.861 400.400, 964.960 412.500 C 966.059 424.600, 967.863 446.425, 968.968 461 C 970.074 475.575, 971.433 495.537, 971.989 505.361 C 972.545 515.184, 973 530.822, 973 540.111 L 973 557 975 557 C 976.100 557, 977 556.357, 977 555.570 C 977 554.784, 980.415 544.546, 984.589 532.820 C 988.763 521.094, 993.251 507.450, 994.562 502.500 C 995.874 497.550, 997.607 489, 998.415 483.500 C 999.223 478, 1000.461 466.975, 1001.168 459 C 1002.010 449.489, 1002.444 427.124, 1002.429 394 C 1002.416 365.587, 1001.653 322.944, 1000.684 296.500 C 999.737 270.650, 998.707 246.238, 998.396 242.250 C 998.004 237.235, 997.426 235, 996.522 235 C 995.802 235, 994.992 235.563, 994.721 236.250 M 1243.500 242.733 C 1240.750 246.973, 1233.953 256.529, 1228.396 263.971 C 1222.839 271.412, 1215.085 280.931, 1211.165 285.124 L 1204.038 292.748 1206.476 309.124 C 1207.818 318.131, 1210.267 337.650, 1211.920 352.500 C 1213.573 367.350, 1216.051 391.650, 1217.426 406.500 C 1218.802 421.350, 1220.639 442.483, 1221.510 453.463 C 1222.380 464.442, 1223.254 473.587, 1223.451 473.784 C 1223.648 473.982, 1230.686 465.930, 1239.091 455.892 L 1254.372 437.640 1255.126 433.070 C 1255.541 430.556, 1255.896 415.450, 1255.915 399.500 C 1255.935 383.550, 1255.535 357.450, 1255.027 341.500 C 1254.519 325.550, 1253.604 296.975, 1252.993 278 C 1252.383 259.025, 1251.657 241.588, 1251.380 239.250 C 1251.103 236.904, 1250.345 235.006, 1249.689 235.013 C 1249.035 235.020, 1246.250 238.494, 1243.500 242.733 M 1103 330.370 C 1103 330.573, 1101.621 335.380, 1099.937 341.052 C 1098.252 346.723, 1094.008 359.044, 1090.506 368.432 C 1087.005 377.819, 1083.860 386.222, 1083.518 387.105 C 1083.052 388.310, 1084.718 389.782, 1090.198 393.004 C 1094.214 395.365, 1101.698 400.202, 1106.830 403.753 C 1111.961 407.304, 1120.736 413.845, 1126.330 418.288 C 1131.923 422.732, 1142.031 431.778, 1148.790 438.391 C 1155.550 445.003, 1162.667 452.804, 1164.606 455.726 C 1166.545 458.647, 1168.376 462.544, 1168.675 464.385 L 1169.218 467.732 1165.859 470.287 C 1164.012 471.692, 1160.148 473.767, 1157.273 474.898 C 1154.398 476.028, 1147.648 477.840, 1142.273 478.924 C 1136.898 480.008, 1126.746 481.427, 1119.712 482.078 C 1112.218 482.771, 1099.179 483.048, 1088.212 482.747 C 1072.724 482.321, 1068.327 481.858, 1062.692 480.058 C 1057.941 478.541, 1054.761 476.761, 1052.168 474.168 C 1050.062 472.062, 1047.882 468.550, 1047.137 466.062 C 1046.414 463.648, 1045.572 459.249, 1045.266 456.286 L 1044.710 450.899 1042.619 451.199 L 1040.528 451.500 1038.711 466 C 1037.712 473.975, 1036.822 487.700, 1036.734 496.500 C 1036.607 509.191, 1036.945 513.844, 1038.371 519 C 1039.359 522.575, 1041.367 527.714, 1042.834 530.420 C 1044.300 533.126, 1047.471 537.311, 1049.880 539.721 C 1052.290 542.131, 1056.960 545.465, 1060.259 547.131 C 1063.558 548.796, 1069.912 550.855, 1074.378 551.706 C 1080.381 552.850, 1085.803 553.100, 1095.162 552.664 C 1102.126 552.339, 1112.251 551.171, 1117.662 550.069 C 1123.073 548.966, 1130.420 546.877, 1133.989 545.427 C 1137.558 543.976, 1142.825 541.232, 1145.693 539.328 C 1148.561 537.424, 1153.306 533.276, 1156.237 530.111 C 1159.168 526.945, 1163.200 521.238, 1165.197 517.428 C 1167.194 513.617, 1169.748 507.575, 1170.873 504 C 1171.997 500.425, 1173.623 493.675, 1174.487 489 C 1175.350 484.325, 1176.332 474.425, 1176.668 467 C 1177.038 458.821, 1176.812 449.499, 1176.094 443.350 C 1175.442 437.767, 1173.804 429.069, 1172.453 424.020 C 1171.101 418.971, 1167.579 409.757, 1164.626 403.543 C 1161.672 397.329, 1157.120 388.928, 1154.510 384.873 C 1151.901 380.818, 1147.248 374.350, 1144.172 370.500 C 1141.096 366.650, 1131.175 355.962, 1122.125 346.750 C 1113.075 337.538, 1105.069 330, 1104.335 330 C 1103.601 330, 1103 330.166, 1103 330.370 M 333.558 350.743 C 325.576 360.509, 319.035 369.288, 319.023 370.250 C 319.010 371.212, 319.412 372, 319.916 372 C 320.420 372, 324.133 374.219, 328.166 376.931 C 332.200 379.643, 339.221 385.381, 343.769 389.681 L 352.037 397.500 338.055 414.500 C 330.365 423.850, 324.057 431.950, 324.038 432.500 C 324.018 433.050, 326.298 434.790, 329.104 436.366 C 331.910 437.942, 336.747 441.261, 339.853 443.743 C 342.959 446.224, 348.903 451.591, 353.063 455.668 L 360.627 463.082 372.114 450.791 C 378.433 444.031, 385.538 436.374, 387.905 433.775 L 392.208 429.051 388.542 424.058 C 386.526 421.311, 381.867 416.293, 378.188 412.906 C 374.510 409.520, 368.526 404.649, 364.890 402.083 L 358.280 397.417 372.140 382.492 C 379.763 374.284, 386 367.103, 385.999 366.534 C 385.999 365.965, 384.005 362.960, 381.568 359.855 C 379.130 356.751, 374.023 351.532, 370.218 348.257 C 366.414 344.982, 361.320 340.948, 358.900 339.292 C 356.480 337.636, 353.053 335.540, 351.285 334.633 L 348.070 332.985 333.558 350.743 M 504.495 357.250 C 502.410 362.337, 497.874 372.473, 494.414 379.773 C 490.954 387.073, 486.099 395.941, 483.625 399.480 L 479.127 405.915 485.806 410.681 C 489.480 413.303, 496.989 419.354, 502.493 424.128 C 507.997 428.902, 514.133 434.539, 516.130 436.654 C 518.126 438.769, 521.389 442.672, 523.380 445.327 C 525.371 447.981, 527 451.040, 527 452.124 C 527 453.208, 525.763 455.247, 524.250 456.655 C 522.737 458.063, 518.125 460.903, 514 462.966 C 509.875 465.029, 502.900 467.884, 498.500 469.311 C 494.100 470.738, 487.800 472.576, 484.500 473.395 C 481.200 474.215, 473.775 475.826, 468 476.976 C 462.225 478.125, 450.750 479.933, 442.500 480.993 C 434.250 482.052, 418.275 483.443, 407 484.084 C 394.120 484.815, 374.792 485.013, 355 484.614 C 337.675 484.266, 313.825 483.515, 302 482.947 C 290.175 482.378, 273.341 481.252, 264.591 480.443 C 255.841 479.634, 245.941 478.264, 242.591 477.398 C 239.241 476.532, 232.967 474.463, 228.648 472.800 C 222.052 470.260, 220.589 469.994, 219.504 471.138 C 218.794 471.887, 210.759 481.462, 201.648 492.416 L 185.084 512.333 186.792 515.295 C 187.731 516.925, 190.472 520.469, 192.882 523.172 C 195.292 525.876, 200.089 530.103, 203.542 532.567 C 206.994 535.031, 213.258 538.636, 217.461 540.577 C 221.664 542.519, 228.395 544.950, 232.418 545.979 C 236.441 547.008, 246.655 548.543, 255.116 549.391 C 263.577 550.238, 277.925 551.390, 287 551.951 C 296.075 552.511, 318.442 553.467, 336.704 554.075 C 361.053 554.886, 375.557 554.883, 391.093 554.065 C 402.744 553.452, 417.503 552.269, 423.889 551.435 C 430.275 550.602, 440 549.013, 445.500 547.904 C 451 546.794, 460.225 544.324, 466 542.414 C 471.775 540.504, 480.624 536.880, 485.665 534.361 C 490.705 531.843, 498.453 526.917, 502.881 523.415 C 507.310 519.913, 512.975 514.450, 515.470 511.274 C 517.965 508.098, 521.611 502.450, 523.572 498.723 C 525.533 494.995, 528.246 488.695, 529.601 484.723 C 530.956 480.750, 532.688 473.900, 533.450 469.500 C 534.212 465.100, 535.146 457, 535.527 451.500 C 535.923 445.776, 535.723 435.941, 535.061 428.500 C 534.425 421.350, 532.765 410.325, 531.373 404 C 529.982 397.675, 527.571 388.675, 526.017 384 C 524.464 379.325, 520.562 369.313, 517.346 361.752 C 513.293 352.220, 511.007 348.004, 509.892 348.002 C 508.804 348.001, 507.061 350.987, 504.495 357.250 M 190.170 391.750 C 189.675 392.712, 187.878 397.775, 186.178 403 C 184.479 408.225, 182.176 416.142, 181.063 420.593 C 179.949 425.044, 178.280 433.594, 177.353 439.593 C 176.326 446.244, 175.635 456.939, 175.584 467 C 175.532 477.300, 176.012 486.037, 176.863 490.250 C 177.613 493.962, 178.605 497, 179.067 497 C 179.530 497, 181.391 495.066, 183.204 492.702 C 185.017 490.339, 191.225 482.887, 197 476.142 C 202.775 469.398, 207.637 463.497, 207.803 463.030 C 207.970 462.562, 205.822 460.043, 203.029 457.431 C 199.737 454.351, 196.649 450.045, 194.248 445.186 L 190.544 437.692 190.705 426.080 C 190.806 418.846, 191.645 410.704, 192.931 404.484 C 194.067 398.993, 195.274 393.488, 195.614 392.250 C 196.140 390.338, 195.846 390, 193.652 390 C 192.203 390, 190.675 390.768, 190.170 391.750 M 891.340 416.676 C 890.981 417.679, 889.381 421.875, 887.785 426 C 886.189 430.125, 881.797 439.800, 878.026 447.500 C 874.255 455.200, 869.294 464.575, 867.002 468.333 C 864.709 472.092, 862.983 475.268, 863.167 475.392 C 863.350 475.516, 867.550 478.718, 872.500 482.507 C 877.450 486.297, 885.543 492.795, 890.484 496.949 C 895.425 501.102, 902.090 507.115, 905.294 510.310 C 908.499 513.506, 912.443 518.206, 914.060 520.756 C 915.677 523.306, 917 526.671, 917 528.236 C 917 529.800, 916.044 532.954, 914.875 535.245 C 913.706 537.536, 910.219 542.067, 907.125 545.313 C 904.031 548.559, 897.675 554.246, 893 557.952 C 888.325 561.658, 880.450 567.394, 875.500 570.699 C 870.550 574.004, 862.037 579.283, 856.583 582.430 C 851.128 585.577, 841.411 590.786, 834.990 594.005 C 828.568 597.224, 818.492 601.918, 812.598 604.435 C 806.705 606.952, 797.330 610.597, 791.765 612.534 C 786.201 614.470, 777.565 617.110, 772.574 618.398 C 766.515 619.963, 763.398 621.255, 763.193 622.285 C 763.014 623.187, 763.846 624.120, 765.193 624.529 C 766.462 624.915, 775.871 629.214, 786.102 634.084 C 796.333 638.954, 808.933 644.374, 814.102 646.128 C 821.801 648.741, 825.537 649.402, 834.768 649.785 C 841.412 650.061, 848.594 649.764, 852.268 649.062 C 855.696 648.407, 862.590 645.901, 867.588 643.492 C 874.282 640.267, 878.712 637.212, 884.398 631.902 C 888.645 627.936, 894.066 621.948, 896.445 618.595 C 898.823 615.243, 902.794 608.450, 905.269 603.500 C 907.743 598.550, 911.130 590.640, 912.795 585.921 C 914.460 581.203, 916.955 572.203, 918.338 565.921 C 919.722 559.640, 921.431 550.225, 922.136 545 C 922.846 539.743, 923.418 525.898, 923.416 514 C 923.414 495.550, 923.100 491.054, 921.200 482.310 C 919.983 476.706, 917.389 467.256, 915.437 461.310 C 913.485 455.365, 908.195 442.630, 903.680 433.011 C 898.229 421.394, 894.889 415.410, 893.733 415.187 C 892.741 414.996, 891.713 415.636, 891.340 416.676 M 1239.391 470.662 L 1224.500 488.324 1224.626 492.912 C 1224.695 495.435, 1225.105 510.887, 1225.536 527.250 L 1226.320 557 1227.959 557 C 1229.109 557, 1230.220 554.988, 1231.686 550.250 C 1232.834 546.538, 1236.557 535.625, 1239.959 526 C 1243.360 516.375, 1247.212 504.092, 1248.519 498.705 C 1249.826 493.319, 1251.577 482.969, 1252.410 475.705 C 1253.243 468.442, 1254.057 460.363, 1254.219 457.750 C 1254.382 455.137, 1254.462 453, 1254.398 453 C 1254.334 453, 1247.581 460.948, 1239.391 470.662 M 632.500 601.450 C 624.800 610.989, 618.360 619.489, 618.188 620.339 C 618.001 621.264, 619.206 622.557, 621.188 623.558 C 623.010 624.478, 627.650 627.584, 631.500 630.460 C 635.350 633.336, 642.074 639.187, 646.441 643.463 L 654.382 651.237 658.441 646.868 C 660.674 644.465, 666.654 638.039, 671.730 632.590 L 680.961 622.681 687.730 627.192 C 691.454 629.674, 697.650 634.547, 701.500 638.023 C 705.350 641.498, 709.962 645.952, 711.749 647.921 L 714.997 651.500 718.749 647.404 C 720.812 645.152, 727.788 637.674, 734.250 630.786 C 740.712 623.899, 746 617.575, 746 616.733 C 746 615.891, 742.737 611.703, 738.750 607.425 C 734.763 603.148, 728.187 597.011, 724.138 593.787 C 720.090 590.564, 715.045 587.043, 712.928 585.963 C 710.812 584.884, 708.724 584.011, 708.290 584.026 C 707.855 584.040, 702.171 590.677, 695.657 598.776 L 683.814 613.500 673.657 603.446 C 668.071 597.916, 660.289 591.278, 656.366 588.696 C 652.442 586.113, 648.617 584.024, 647.866 584.053 C 647.114 584.081, 640.200 591.910, 632.500 601.450" stroke="none" fill="#241c24" fill-rule="evenodd"/></svg>