<svg xmlns="http://www.w3.org/2000/svg" width="804" height="532" viewBox="0 0 804 532" version="1.1"><path d="M 141.005 250.615 C 138.701 252.696, 134.833 257.178, 132.409 260.576 C 129.840 264.176, 128 267.869, 128 269.425 C 128 270.979, 129.031 273.051, 130.467 274.382 L 132.934 276.668 117.307 290.584 C 108.713 298.238, 97.140 308.455, 91.591 313.289 C 86.041 318.123, 70.813 331.376, 57.750 342.738 L 34 363.398 34 366.873 L 34 370.349 36.250 368.350 C 37.487 367.252, 48.557 357.611, 60.849 346.926 C 73.142 336.242, 89.117 322.388, 96.349 316.141 C 103.582 309.893, 116.388 298.868, 124.806 291.641 C 133.412 284.252, 144.448 275.874, 150.018 272.500 L 159.925 266.500 159.963 263.750 C 159.983 262.238, 159.853 261, 159.672 261 C 159.492 261, 156.576 262.125, 153.192 263.500 C 149.808 264.875, 146.215 266, 145.207 266 C 144.199 266, 142.160 264.733, 140.677 263.184 L 137.979 260.368 140.304 258.184 C 141.583 256.983, 143.751 256, 145.123 256 C 146.495 256, 148.491 256.661, 149.559 257.468 C 150.626 258.276, 152.063 258.951, 152.750 258.968 C 153.539 258.988, 154 257.581, 154 255.155 C 154 252.761, 153.340 250.715, 152.250 249.733 C 151.287 248.866, 149.306 247.858, 147.846 247.494 C 145.683 246.954, 144.418 247.531, 141.005 250.615 M 311.884 342.802 C 298.896 354.186, 279.438 371.150, 268.645 380.500 L 249.021 397.500 249.010 400.809 C 249.005 402.629, 249.391 403.876, 249.869 403.581 C 250.347 403.285, 261.520 393.696, 274.699 382.272 C 287.877 370.847, 307.061 354.135, 317.329 345.132 L 336 328.764 336 325.382 C 336 323.522, 335.887 322.023, 335.750 322.052 C 335.613 322.080, 324.873 331.418, 311.884 342.802" stroke="none" fill="#e81c3b" fill-rule="evenodd"/><path d="M 232.410 119.970 C 229.159 121.603, 222.675 126.030, 218 129.808 C 213.325 133.585, 206.829 139.562, 203.565 143.088 C 200.301 146.615, 195.064 152.958, 191.928 157.185 C 188.791 161.412, 183.966 168.837, 181.207 173.685 C 178.447 178.533, 175.009 185.327, 173.568 188.783 C 172.126 192.239, 169.989 198.989, 168.818 203.783 C 167.244 210.225, 166.664 215.893, 166.594 225.500 C 166.514 236.564, 166.795 239.096, 168.479 242.500 C 169.568 244.700, 172.338 248.382, 174.634 250.681 C 177.073 253.123, 180.410 255.292, 182.655 255.894 C 184.770 256.461, 188.638 257.195, 191.252 257.524 L 196.004 258.123 194.993 260.013 C 194.437 261.052, 189.823 265.578, 184.741 270.070 C 179.658 274.562, 171.797 281.017, 167.271 284.415 C 162.746 287.813, 155.428 292.743, 151.011 295.371 C 146.593 297.999, 140.179 301.286, 136.758 302.676 C 133.337 304.067, 127.501 305.837, 123.790 306.611 C 118.722 307.668, 115.897 307.761, 112.445 306.988 L 107.849 305.958 94.466 317.548 L 81.083 329.138 83.084 334.213 C 84.184 337.004, 86.723 341.756, 88.725 344.773 C 90.727 347.789, 94.871 352.230, 97.933 354.641 C 100.995 357.052, 105.975 359.965, 109 361.114 C 113.617 362.868, 116.025 363.128, 124 362.734 C 129.972 362.439, 135.630 361.503, 139.237 360.213 C 142.393 359.084, 147.739 356.481, 151.117 354.429 C 154.496 352.377, 160.014 348.444, 163.380 345.689 L 169.500 340.681 166.020 344.591 C 164.106 346.741, 157.873 353.277, 152.171 359.116 C 145.013 366.444, 141.913 370.315, 142.160 371.616 C 142.438 373.077, 143.527 373.560, 147.009 373.768 C 149.896 373.941, 159.275 372.086, 173.266 368.575 C 186.612 365.226, 196.185 362.293, 198.013 360.991 C 199.653 359.823, 202.281 356.985, 203.853 354.684 C 205.425 352.383, 208.607 347.030, 210.925 342.788 C 213.242 338.547, 216.492 331.122, 218.146 326.288 C 219.799 321.455, 222.656 311.650, 224.493 304.500 C 226.331 297.350, 228.969 284.975, 230.356 277 C 231.743 269.025, 233.189 259.399, 233.570 255.610 C 234.145 249.889, 234.028 248.860, 232.882 249.547 C 232.122 250.003, 230.002 251.528, 228.171 252.938 C 225.979 254.625, 223.008 259.132, 219.468 266.140 C 216.512 271.993, 211.805 280.655, 209.008 285.390 C 206.211 290.126, 203.750 294, 203.540 294 C 203.329 294, 204.674 290.237, 206.528 285.639 C 208.383 281.040, 210.818 273.771, 211.941 269.485 C 213.064 265.199, 214.445 257.969, 215.010 253.419 C 215.686 247.980, 215.712 242.273, 215.085 236.758 C 214.561 232.145, 213.347 226.374, 212.388 223.935 C 211.428 221.496, 210.065 218.591, 209.358 217.481 C 208.508 216.145, 205.606 214.837, 200.786 213.616 C 196.779 212.601, 191.345 210.859, 188.710 209.745 C 186.076 208.631, 183.520 206.972, 183.031 206.059 C 182.437 204.949, 182.776 202.982, 184.052 200.132 C 185.103 197.786, 188.783 192.927, 192.231 189.333 C 195.679 185.740, 202.138 180.379, 206.583 177.419 C 211.029 174.459, 217.329 170.848, 220.583 169.394 C 223.838 167.940, 229.425 165.752, 233 164.533 L 239.500 162.316 240.681 142.908 C 241.330 132.234, 242.089 122.037, 242.368 120.250 L 242.874 117 240.597 117 C 239.344 117, 235.660 118.336, 232.410 119.970 M 353 141.919 C 346.125 148.972, 332.858 160.988, 323.518 168.621 C 314.178 176.255, 303.687 185.187, 300.204 188.470 C 296.721 191.754, 292.102 197.091, 289.939 200.329 C 287.776 203.568, 282.167 213.819, 277.474 223.109 C 272.781 232.399, 269.419 240, 270.003 240 C 270.587 240, 269.281 242.363, 267.102 245.250 C 264.922 248.137, 262.012 252.933, 260.635 255.906 L 258.131 261.311 258.644 253.406 C 258.926 249.058, 260.246 231.100, 261.578 213.500 C 262.910 195.900, 263.999 180.938, 264 180.250 C 264 179.563, 263.424 179, 262.719 179 C 262.015 179, 258.557 183.613, 255.036 189.250 C 251.515 194.887, 246.525 204, 243.949 209.500 L 239.264 219.500 236.996 263.440 C 235.497 292.493, 234.924 312.653, 235.307 322.940 C 235.663 332.527, 236.516 340.803, 237.529 344.500 C 238.433 347.800, 240.294 352.571, 241.665 355.102 C 243.292 358.108, 245.384 360.289, 247.692 361.390 C 249.637 362.318, 255.586 363.820, 260.913 364.729 L 270.598 366.382 279.394 365.073 L 288.190 363.765 304.845 349.185 C 314.005 341.166, 324.762 331.714, 328.750 328.180 L 336 321.755 336 325.282 L 336 328.809 318.500 344 C 308.875 352.355, 301 359.363, 301 359.574 C 301 359.785, 304.262 358.785, 308.250 357.353 C 312.238 355.921, 318.650 353.178, 322.500 351.259 C 326.350 349.339, 332.460 345.813, 336.078 343.422 C 339.696 341.031, 344.723 336.865, 347.250 334.164 C 349.776 331.463, 353.203 326.560, 354.864 323.270 C 356.525 319.979, 358.795 313.720, 359.908 309.361 C 361.021 305.002, 362.220 298.975, 362.573 295.968 C 362.942 292.822, 362.728 288.695, 362.069 286.250 C 361.438 283.913, 360.570 282, 360.138 282 C 359.707 282, 357.441 284.363, 355.104 287.250 C 352.766 290.137, 348.106 294.908, 344.747 297.852 C 341.388 300.795, 336.232 304.982, 333.290 307.155 C 330.349 309.328, 323.918 313.557, 319.001 316.553 C 314.083 319.549, 309.842 322, 309.574 322 C 309.307 322, 309.771 320.087, 310.606 317.750 C 311.440 315.413, 312.966 309.900, 313.995 305.500 C 315.025 301.100, 316.157 294.125, 316.510 290 C 316.870 285.804, 316.662 279.471, 316.037 275.624 C 315.424 271.843, 314.196 267.343, 313.309 265.624 C 312.422 263.906, 310.231 261.150, 308.441 259.500 L 305.186 256.500 313.174 249.500 C 317.567 245.650, 325.063 238.420, 329.831 233.434 C 334.599 228.448, 340.645 221.231, 343.267 217.397 C 345.888 213.562, 350.234 205.492, 352.924 199.462 C 355.614 193.433, 361.457 179.548, 365.907 168.606 C 370.358 157.664, 374 148.022, 374 147.179 C 374 146.319, 370.374 149.139, 365.750 153.594 C 361.212 157.966, 353.173 165.471, 347.884 170.271 C 342.595 175.072, 337.969 179, 337.604 179 C 337.238 179, 339.129 175.738, 341.805 171.750 C 344.482 167.762, 350.130 159.024, 354.357 152.330 C 358.583 145.637, 362.963 138.078, 364.088 135.533 C 365.214 132.988, 365.992 130.499, 365.818 130.001 C 365.643 129.504, 359.875 134.867, 353 141.919 M 728.310 166.496 C 727.135 167.318, 722.720 173.244, 718.498 179.664 C 714.276 186.085, 710.412 192.416, 709.911 193.734 C 709.352 195.203, 709.368 196.819, 709.951 197.908 C 710.474 198.886, 713.289 201.488, 716.207 203.691 C 719.125 205.894, 722.949 208.440, 724.706 209.348 C 726.463 210.257, 729.235 211, 730.867 211 C 733.277 211, 735.127 209.595, 740.734 203.511 C 744.529 199.392, 748.586 194.104, 749.748 191.761 C 750.910 189.417, 752.174 186.234, 752.555 184.686 L 753.249 181.872 748.227 177.032 C 745.465 174.369, 740.802 170.573, 737.866 168.596 C 734.929 166.618, 732.058 165, 731.486 165 C 730.913 165, 729.484 165.673, 728.310 166.496 M 112.571 194.782 C 110.960 197.377, 106.441 204.938, 102.529 211.585 C 96.882 221.181, 94.246 227.156, 89.736 240.585 C 86.612 249.888, 82.825 262.900, 81.322 269.500 L 78.588 281.500 78.544 301.199 C 78.516 313.821, 78.881 321.280, 79.562 321.961 C 80.311 322.711, 83.902 320.177, 91.764 313.349 L 102.904 303.675 100.300 300.587 C 98.869 298.889, 97.108 296.094, 96.388 294.376 C 95.668 292.658, 94.614 288.345, 94.047 284.792 C 93.340 280.368, 93.337 275.678, 94.038 269.916 C 94.601 265.287, 95.971 257.900, 97.082 253.500 C 98.193 249.100, 102.835 234.475, 107.399 221 C 111.962 207.525, 115.978 195.037, 116.323 193.250 C 116.668 191.463, 116.624 190.014, 116.225 190.032 C 115.826 190.049, 114.182 192.186, 112.571 194.782 M 275 234.500 C 272.571 236.975, 270.809 239, 271.084 239 C 271.359 239, 273.571 236.975, 276 234.500 C 278.429 232.025, 280.191 230, 279.916 230 C 279.641 230, 277.429 232.025, 275 234.500 M 337.473 242.250 C 336.581 243.488, 332.510 249.618, 328.426 255.874 C 323.546 263.348, 321 268.234, 321 270.126 C 321 272.499, 322.097 273.812, 327.250 277.607 C 330.688 280.139, 335.165 283.061, 337.199 284.100 C 339.859 285.458, 341.545 285.741, 343.199 285.108 C 344.465 284.624, 348.009 281.589, 351.076 278.364 C 354.142 275.139, 357.864 270.663, 359.347 268.418 C 360.830 266.173, 362.467 262.857, 362.986 261.049 C 363.681 258.627, 363.552 257.034, 362.496 254.993 C 361.709 253.470, 358.237 249.988, 354.782 247.256 C 351.327 244.524, 347.517 241.774, 346.316 241.144 C 345.114 240.515, 342.998 240, 341.612 240 C 340.147 240, 338.416 240.941, 337.473 242.250 M 497.360 245.750 C 495.852 247.813, 492.935 251.750, 490.878 254.500 C 488.821 257.250, 485.815 260.766, 484.197 262.314 L 481.257 265.128 474.980 259.814 C 471.527 256.891, 467.423 253.457, 465.858 252.183 C 464.054 250.713, 462.016 249.982, 460.287 250.183 C 458.248 250.420, 456.092 252.394, 451.748 258 C 448.551 262.125, 444.276 268.825, 442.247 272.889 L 438.559 280.277 443.461 284.716 C 446.158 287.157, 450.195 290.408, 452.432 291.940 C 454.669 293.472, 457.548 295.054, 458.829 295.456 C 460.853 296.089, 462.412 294.860, 470.704 286.093 C 475.955 280.542, 480.687 276, 481.220 276 C 481.754 276, 486.227 278.700, 491.161 282 C 496.095 285.300, 501.110 288, 502.306 288 C 503.694 288, 506.785 285.560, 510.855 281.250 C 514.361 277.538, 518.523 272.250, 520.105 269.500 C 521.902 266.376, 522.985 263.052, 522.991 260.642 C 522.999 257.320, 522.339 256.169, 518.250 252.365 C 515.638 249.935, 511.510 246.608, 509.079 244.973 C 506.647 243.338, 503.632 242, 502.379 242 C 500.902 242, 499.139 243.317, 497.360 245.750 M 745.400 246.893 C 743.255 248.484, 739.973 251.095, 738.106 252.695 L 734.711 255.604 733.421 266.225 C 732.712 272.066, 731.443 278.176, 730.603 279.801 C 729.762 281.427, 728.378 283.025, 727.528 283.351 C 726.678 283.677, 724.974 283.558, 723.741 283.087 C 722.509 282.615, 720.678 281.317, 719.674 280.202 L 717.847 278.174 719.533 268.092 C 720.461 262.546, 720.936 256.882, 720.591 255.505 C 720.245 254.127, 719.243 253, 718.365 253 C 717.487 253, 714.683 254.537, 712.134 256.416 C 709.585 258.294, 706.214 261.181, 704.643 262.832 C 702.161 265.439, 701.663 266.992, 700.850 274.666 C 700.335 279.525, 699.466 284.908, 698.919 286.629 C 698.372 288.350, 697.095 290.509, 696.080 291.428 C 694.826 292.563, 693.396 292.887, 691.615 292.439 C 690.173 292.078, 687.858 290.432, 686.469 288.781 L 683.945 285.781 679.999 290.264 C 677.828 292.730, 674.510 295.479, 672.625 296.374 C 670.740 297.268, 667.663 298, 665.787 298 C 663.752 298, 661.506 297.188, 660.215 295.986 L 658.054 293.972 653.277 297.635 C 650.650 299.649, 646.700 302.120, 644.500 303.127 C 642.300 304.133, 638.597 304.966, 636.270 304.978 C 633.944 304.990, 630.238 304.279, 628.034 303.397 L 624.028 301.794 613.764 310.462 C 608.119 315.229, 600.800 320.404, 597.500 321.961 C 594.200 323.518, 589.983 325.112, 588.129 325.502 L 584.758 326.212 587.748 321.856 C 589.393 319.460, 592.540 313.900, 594.743 309.500 C 596.945 305.100, 599.898 298.299, 601.303 294.386 L 603.859 287.272 600.970 285.136 C 599.381 283.961, 597.852 283, 597.571 283 C 597.291 283, 595.531 285.393, 593.660 288.317 C 591.462 291.753, 588.180 295.016, 584.380 297.544 C 581.146 299.694, 574.565 302.935, 569.756 304.744 C 564.947 306.554, 557.297 308.911, 552.756 309.983 C 548.215 311.054, 539.325 312.652, 533 313.534 C 525.894 314.524, 510.540 315.352, 492.817 315.701 C 473.871 316.074, 459.783 315.858, 451.317 315.063 C 444.268 314.401, 434.900 313.198, 430.500 312.390 C 426.100 311.582, 418.764 309.753, 414.197 308.326 C 409.630 306.899, 403.240 304.016, 399.997 301.920 C 396.754 299.823, 392.914 296.316, 391.464 294.126 C 390.015 291.935, 388.587 288.338, 388.291 286.131 C 387.995 283.924, 387.146 281.886, 386.405 281.602 C 385.664 281.318, 384.377 281.766, 383.544 282.599 C 382.711 283.432, 380.867 287.927, 379.445 292.588 C 378.023 297.249, 375.730 306.336, 374.350 312.782 C 372.379 321.986, 371.924 326.538, 372.230 334 C 372.525 341.220, 373.134 344.490, 374.765 347.624 C 375.946 349.893, 378.391 352.993, 380.199 354.514 C 382.006 356.035, 385.513 358.154, 387.992 359.224 C 390.472 360.294, 395.875 361.894, 400 362.780 C 405.955 364.059, 413.781 364.394, 438 364.408 C 461.200 364.421, 471.966 364, 482.981 362.649 C 490.946 361.673, 501.296 360.229, 505.981 359.441 C 510.667 358.654, 520.024 356.819, 526.776 355.366 L 539.052 352.722 548.276 357.295 C 553.349 359.811, 559.743 362.604, 562.484 363.502 C 565.274 364.416, 568.811 364.883, 570.521 364.562 C 572.200 364.247, 577.619 361.374, 582.562 358.177 C 587.505 354.980, 593.271 350.595, 595.375 348.433 C 597.479 346.270, 601.264 341.955, 603.786 338.843 L 608.370 333.187 616.253 336.093 C 620.589 337.692, 625.088 339, 626.252 339 C 627.415 339, 632.447 336.544, 637.433 333.542 L 646.500 328.084 654.700 327.076 C 659.210 326.522, 664.385 325.444, 666.200 324.680 C 668.015 323.916, 671.732 321.582, 674.460 319.492 C 677.187 317.403, 681.012 315.351, 682.960 314.934 C 684.907 314.516, 689.092 313.652, 692.260 313.014 C 695.721 312.317, 699.270 310.802, 701.153 309.218 C 703.449 307.286, 705.651 306.494, 709.393 306.253 C 712.202 306.073, 717.768 305.276, 721.761 304.483 C 725.755 303.689, 730.319 302.369, 731.904 301.550 C 733.488 300.731, 736.182 298.296, 737.889 296.140 C 739.597 293.983, 742.569 288.903, 744.494 284.851 C 746.418 280.799, 749.119 273.042, 750.496 267.613 C 751.967 261.814, 753 254.910, 753 250.872 L 753 244 751.150 244 C 750.133 244, 747.545 245.302, 745.400 246.893 M 280.271 280.964 C 277.829 282.072, 275.189 284.282, 274.024 286.192 C 272.915 288.011, 272.006 291.022, 272.004 292.882 C 272.001 295.535, 272.915 297.170, 276.250 300.475 C 278.587 302.792, 282.646 305.497, 285.269 306.487 L 290.038 308.286 294.269 306.393 C 296.596 305.352, 300.162 303.008, 302.194 301.184 C 304.226 299.360, 306.389 296.350, 307.002 294.495 C 307.884 291.820, 307.812 290.541, 306.652 288.311 C 305.848 286.765, 304.135 284.517, 302.845 283.317 C 301.555 282.116, 299.233 280.653, 297.685 280.067 C 296.137 279.480, 292.537 279.010, 289.685 279.022 C 286.752 279.034, 282.663 279.878, 280.271 280.964 M 688.200 363.572 C 687.084 364.354, 683.672 368.559, 680.619 372.917 C 677.565 377.275, 674.591 381.134, 674.011 381.493 C 673.430 381.852, 669.760 379.188, 665.856 375.573 C 661.951 371.958, 658.107 369, 657.313 369 C 656.518 369, 654.957 369.488, 653.843 370.084 C 652.729 370.680, 648.693 375.968, 644.874 381.834 C 641.055 387.700, 637.405 394.254, 636.763 396.397 L 635.595 400.294 640.548 404.722 C 643.271 407.158, 647.501 410.466, 649.946 412.075 C 652.391 413.684, 655.155 415, 656.088 415 C 657.020 415, 661.031 411.175, 665 406.500 C 668.969 401.825, 672.591 398, 673.049 398 C 673.507 398, 674.161 398.452, 674.503 399.005 C 674.845 399.558, 677.854 401.864, 681.191 404.130 C 684.528 406.396, 688.426 408.250, 689.853 408.250 C 691.708 408.250, 693.845 406.730, 697.353 402.914 C 700.052 399.979, 703.830 395.213, 705.749 392.323 C 707.902 389.081, 709.427 385.393, 709.731 382.696 L 710.224 378.324 707.122 374.791 C 705.416 372.848, 701.653 369.467, 698.760 367.277 C 695.867 365.087, 692.764 363.038, 691.865 362.723 C 690.965 362.408, 689.316 362.791, 688.200 363.572" stroke="none" fill="#241c24" fill-rule="evenodd"/></svg>