<svg xmlns="http://www.w3.org/2000/svg" width="1341" height="886" viewBox="0 0 1341 886" version="1.1"><path d="M 247 87.008 C 245.075 88.181, 242.456 90.347, 241.181 91.820 C 239.905 93.294, 236.277 98.325, 233.119 103 C 229.960 107.675, 225.797 114.425, 223.866 118 C 221.935 121.575, 218.700 128.373, 216.678 133.108 C 214.655 137.842, 213 142.927, 213 144.407 C 213 145.888, 213.637 148.314, 214.415 149.800 C 215.193 151.285, 217.330 153.912, 219.165 155.638 C 220.999 157.364, 223.963 159.513, 225.750 160.414 C 227.537 161.314, 229 162.426, 229 162.885 C 229 163.343, 227.283 165.694, 225.184 168.109 C 223.086 170.524, 214.223 181.050, 205.489 191.500 C 196.754 201.950, 186.178 214.550, 181.986 219.500 C 177.795 224.450, 165.727 239.075, 155.171 252 C 144.614 264.925, 133.764 278.200, 131.059 281.500 C 128.355 284.800, 122.848 291.371, 118.821 296.102 C 114.794 300.833, 97.804 321.083, 81.064 341.102 C 64.325 361.121, 45.902 383.125, 40.125 390 C 34.348 396.875, 27.254 405.224, 24.360 408.554 C 21.467 411.884, 18.627 415.851, 18.050 417.369 C 17.472 418.888, 17.006 421.788, 17.014 423.815 C 17.021 425.842, 17.299 428.512, 17.630 429.750 C 17.962 430.988, 18.577 432, 18.997 432 C 19.417 432, 40.164 408.061, 65.102 378.803 C 90.040 349.544, 115.378 319.507, 121.409 312.053 C 127.440 304.599, 135.066 295.350, 138.356 291.500 C 141.647 287.650, 145.050 283.825, 145.919 283 C 146.789 282.175, 152.923 275.200, 159.551 267.500 C 166.180 259.800, 176.741 247.200, 183.021 239.500 C 189.302 231.800, 200.272 218.525, 207.399 210 C 214.527 201.475, 224.731 189.550, 230.074 183.500 C 235.417 177.450, 247.149 165.293, 256.145 156.484 C 265.140 147.675, 276.887 136.962, 282.250 132.676 C 290.696 125.927, 292 124.483, 292 121.877 C 292 120.222, 291.534 117.998, 290.965 116.934 C 290.395 115.870, 289.252 115, 288.424 115 C 287.596 115, 285.700 115.843, 284.210 116.873 C 282.719 117.903, 276.846 121.482, 271.158 124.826 C 264.743 128.597, 259.128 131.158, 256.370 131.572 C 253.692 131.973, 250.082 131.723, 247.295 130.943 C 244.364 130.122, 241.043 128.091, 238.240 125.405 C 234.601 121.919, 233.942 120.749, 234.538 118.832 C 234.936 117.549, 236.133 115.264, 237.197 113.754 C 238.260 112.243, 241.014 109.904, 243.315 108.556 C 245.617 107.207, 249.317 105.813, 251.539 105.458 C 254.729 104.948, 257.316 105.482, 263.856 108.005 C 268.410 109.761, 272.287 111.041, 272.473 110.849 C 272.659 110.657, 272.207 107.046, 271.470 102.825 C 270.733 98.604, 269.418 93.774, 268.548 92.092 C 267.678 90.410, 265.573 88.313, 263.871 87.433 C 262.168 86.553, 258.463 85.617, 255.637 85.354 C 251.579 84.977, 249.765 85.324, 247 87.008 M 1317.337 201.750 C 1312.412 207.662, 1306.614 214.750, 1304.452 217.500 C 1302.291 220.250, 1294.814 229.250, 1287.837 237.500 C 1280.861 245.750, 1271.279 257, 1266.544 262.500 C 1261.809 268, 1256.262 274.653, 1254.218 277.285 C 1252.173 279.917, 1243.369 290.700, 1234.653 301.246 C 1225.937 311.793, 1218.256 320.889, 1217.584 321.461 C 1216.911 322.032, 1212.763 326.775, 1208.365 332 C 1203.967 337.225, 1199.611 342.613, 1198.684 343.973 C 1197.758 345.332, 1197 348.343, 1197 350.663 C 1197 352.984, 1197.518 355.202, 1198.151 355.593 C 1198.817 356.005, 1200.400 354.998, 1201.901 353.210 C 1203.331 351.508, 1209.225 344.408, 1215 337.433 C 1220.775 330.457, 1233.037 315.919, 1242.250 305.125 C 1251.462 294.331, 1262.172 281.900, 1266.049 277.500 C 1269.926 273.100, 1275.889 265.957, 1279.299 261.627 C 1282.710 257.297, 1290.450 247.809, 1296.500 240.543 C 1302.550 233.276, 1311.507 222.869, 1316.404 217.415 C 1321.302 211.962, 1326.137 206.150, 1327.150 204.500 C 1328.164 202.850, 1328.994 199.849, 1328.996 197.832 C 1328.998 195.814, 1328.727 193.452, 1328.393 192.582 C 1328.059 191.712, 1327.450 191, 1327.039 191 C 1326.628 191, 1322.262 195.838, 1317.337 201.750 M 248.500 468.339 C 246.850 469.092, 243.575 471.801, 241.223 474.361 C 238.871 476.920, 234.445 482.850, 231.389 487.539 C 228.332 492.228, 223.118 501.737, 219.802 508.669 C 216.486 515.602, 213.543 522.989, 213.262 525.086 C 212.866 528.033, 213.359 529.937, 215.431 533.472 C 217.313 536.685, 219.731 538.960, 223.555 541.118 C 226.550 542.808, 229 544.579, 229 545.053 C 229 545.528, 225.269 550.322, 220.710 555.708 C 216.150 561.094, 201.859 578.100, 188.950 593.500 C 176.042 608.900, 159.599 628.700, 152.411 637.500 C 145.223 646.300, 136.259 657.324, 132.492 661.997 C 128.725 666.671, 122.753 673.871, 119.222 677.997 C 115.690 682.124, 111.577 686.850, 110.080 688.500 C 108.583 690.150, 91.439 710.625, 71.981 734 C 52.523 757.375, 32.424 781.409, 27.317 787.410 C 21.025 794.801, 17.825 799.417, 17.392 801.723 C 17.041 803.595, 16.999 806.953, 17.298 809.184 C 17.597 811.416, 18.216 813.616, 18.673 814.073 C 19.129 814.529, 21.977 811.893, 25.002 808.215 C 28.026 804.536, 38.396 792.295, 48.048 781.013 C 57.699 769.731, 73.674 751.035, 83.548 739.468 C 93.421 727.900, 104.279 715.075, 107.675 710.968 C 111.071 706.860, 120.296 695.785, 128.175 686.356 C 136.054 676.927, 150.600 659.806, 160.500 648.310 C 170.400 636.814, 184.350 620.243, 191.500 611.485 C 198.650 602.727, 211.235 587.673, 219.467 578.031 C 227.700 568.389, 242.100 552.799, 251.467 543.387 C 260.835 533.975, 273.788 521.916, 280.250 516.589 C 290.221 508.371, 292 506.475, 292 504.063 C 292 502.500, 291.182 500.212, 290.183 498.978 L 288.366 496.734 275.933 504.182 C 269.095 508.278, 261.970 512.163, 260.101 512.815 C 258.231 513.467, 254.856 513.990, 252.601 513.978 C 250.345 513.966, 246.696 513.137, 244.491 512.135 C 242.287 511.133, 239.025 508.653, 237.242 506.623 L 234.002 502.932 235.520 499.216 C 236.355 497.172, 238.267 494.466, 239.769 493.202 C 241.271 491.939, 244.075 490.220, 246 489.383 C 247.925 488.546, 251.300 487.857, 253.500 487.853 C 255.700 487.848, 260.779 489.063, 264.787 490.552 C 268.795 492.041, 272.240 493.088, 272.442 492.880 C 272.645 492.671, 272.182 488.900, 271.413 484.500 C 270.645 480.100, 269.178 475.375, 268.154 474 C 267.129 472.625, 264.949 470.714, 263.309 469.753 C 261.668 468.793, 258.340 467.773, 255.913 467.488 C 253.230 467.173, 250.324 467.507, 248.500 468.339 M 1189.286 556.750 C 1186.584 559.913, 1178.342 569.700, 1170.970 578.500 C 1163.597 587.300, 1157.213 594.650, 1156.783 594.833 C 1156.352 595.017, 1156 595.591, 1156 596.110 C 1156 596.630, 1150.499 603.680, 1143.775 611.777 C 1137.051 619.875, 1129.739 628.366, 1127.525 630.646 C 1125.311 632.926, 1118.550 640.959, 1112.500 648.496 C 1106.450 656.033, 1095.696 669.243, 1088.602 677.850 C 1081.508 686.458, 1073.545 695.750, 1070.908 698.500 C 1068.270 701.250, 1065.627 704.793, 1065.034 706.373 C 1064.441 707.954, 1064.241 710.766, 1064.589 712.623 C 1064.938 714.481, 1065.564 716, 1065.981 716 C 1066.399 716, 1068.405 714.087, 1070.441 711.750 C 1072.476 709.413, 1082.262 697.836, 1092.187 686.025 C 1102.112 674.214, 1110.792 664.089, 1111.476 663.525 C 1112.160 662.961, 1118.070 656.155, 1124.610 648.400 C 1131.149 640.646, 1138.525 631.687, 1141 628.493 C 1143.475 625.298, 1148.425 619.238, 1152 615.025 C 1155.575 610.812, 1166.757 597.789, 1176.848 586.085 C 1187.287 573.977, 1195.595 563.446, 1196.122 561.652 C 1196.632 559.919, 1196.773 556.813, 1196.436 554.750 C 1196.100 552.688, 1195.458 551, 1195.011 551 C 1194.564 551, 1191.987 553.587, 1189.286 556.750 M 1306.918 574.386 C 1296.238 587.248, 1283 603.290, 1277.500 610.034 C 1272 616.778, 1265.110 625.042, 1262.190 628.398 C 1259.269 631.754, 1255.853 635.625, 1254.599 637 C 1253.346 638.375, 1247.581 645.192, 1241.789 652.148 C 1235.997 659.104, 1229.966 666.529, 1228.387 668.648 C 1226.808 670.767, 1222.852 675.650, 1219.596 679.500 C 1216.341 683.350, 1213.361 686.725, 1212.975 687 C 1212.588 687.275, 1209.042 691.325, 1205.095 696 C 1201.148 700.675, 1197.679 705.450, 1197.386 706.612 C 1197.092 707.773, 1196.998 710.213, 1197.176 712.035 C 1197.354 713.856, 1197.953 715.494, 1198.508 715.676 C 1199.062 715.857, 1202.887 711.944, 1207.008 706.980 C 1211.128 702.017, 1219.900 691.609, 1226.500 683.852 C 1233.100 676.095, 1244.575 662.649, 1252 653.971 C 1259.425 645.292, 1268.875 634.024, 1273 628.929 C 1277.125 623.834, 1283.425 616.192, 1287 611.947 C 1290.575 607.702, 1301.150 595.362, 1310.500 584.526 C 1319.850 573.689, 1327.806 564.076, 1328.180 563.162 C 1328.554 562.248, 1328.891 559.849, 1328.930 557.832 C 1328.968 555.814, 1328.727 553.452, 1328.393 552.582 C 1328.059 551.712, 1327.460 551, 1327.061 551 C 1326.662 551, 1317.598 561.524, 1306.918 574.386" stroke="none" fill="#eb1c3b" fill-rule="evenodd"/><path d="M 570.451 90.163 C 567.256 95.202, 562.409 102.065, 559.678 105.413 C 556.948 108.761, 551.653 114.650, 547.911 118.500 L 541.107 125.500 542.508 132.104 C 543.278 135.736, 544.658 145.629, 545.575 154.088 C 546.693 164.410, 547.076 173.913, 546.739 182.984 C 546.462 190.418, 545.694 198.868, 545.032 201.763 L 543.829 207.026 539.275 201.763 C 536.770 198.868, 526.781 188.625, 517.078 179 C 507.375 169.375, 490.900 154.211, 480.468 145.303 C 470.036 136.395, 455.883 124.580, 449.017 119.047 C 442.152 113.515, 436.149 109.117, 435.678 109.274 C 435.207 109.431, 434.665 116.521, 434.474 125.030 C 434.282 133.538, 433.407 145.317, 432.528 151.205 C 431.650 157.093, 430.310 163.976, 429.550 166.500 L 428.169 171.089 429.835 172.065 C 430.751 172.603, 435.701 175.061, 440.835 177.529 C 445.970 179.997, 455.195 184.781, 461.335 188.159 C 467.476 191.538, 477.225 197.237, 483 200.824 C 488.775 204.412, 498.450 211.016, 504.500 215.500 C 510.550 219.984, 519.186 226.720, 523.691 230.468 L 531.883 237.283 527.738 243.391 C 525.458 246.751, 519.522 253.713, 514.547 258.863 C 509.571 264.012, 501.450 271.254, 496.500 274.954 C 491.550 278.655, 483.900 283.852, 479.500 286.504 C 475.100 289.156, 467.225 293.443, 462 296.032 C 456.775 298.621, 449.169 302.194, 445.097 303.973 C 441.026 305.751, 434.951 308.235, 431.597 309.492 C 427.426 311.056, 425.421 312.366, 425.250 313.639 C 425.075 314.942, 426.573 316.449, 430.250 318.667 C 433.138 320.409, 441.270 326.145, 448.323 331.415 C 455.375 336.685, 464.203 342.783, 467.941 344.965 C 471.678 347.148, 478.270 350.087, 482.588 351.497 C 486.907 352.907, 494.542 354.486, 499.554 355.006 C 505.157 355.587, 511.715 355.598, 516.583 355.034 C 520.937 354.530, 527.650 353.146, 531.500 351.958 C 535.350 350.771, 541.039 348.266, 544.141 346.393 C 547.244 344.520, 552.424 340.164, 555.653 336.712 C 558.881 333.261, 563.232 327.184, 565.322 323.207 C 567.411 319.231, 570.250 311.595, 571.629 306.239 C 573.426 299.263, 574.300 292.635, 574.712 282.877 L 575.287 269.255 573 259.877 C 571.742 254.720, 568.807 246.450, 566.479 241.500 C 564.150 236.550, 561.559 231.612, 560.722 230.526 L 559.200 228.553 562.602 221.797 C 564.473 218.082, 567.292 211.770, 568.867 207.771 C 570.441 203.772, 572.917 195.956, 574.369 190.401 C 575.821 184.847, 577.694 175.172, 578.531 168.901 C 579.368 162.631, 580.337 151.745, 580.683 144.711 C 581.029 137.678, 580.721 120.465, 579.998 106.461 C 579.040 87.911, 578.354 81, 577.472 81 C 576.805 81, 573.646 85.123, 570.451 90.163 M 884.363 120.221 C 881.138 124.192, 875.462 131.192, 871.750 135.775 C 868.038 140.359, 865 144.525, 865 145.034 C 865 145.543, 866.789 146.872, 868.975 147.987 C 871.161 149.103, 876.978 153.395, 881.901 157.525 C 886.824 161.655, 891.981 166.377, 893.361 168.017 C 894.741 169.658, 896.237 170.982, 896.685 170.960 C 897.133 170.938, 902.431 165.575, 908.458 159.042 L 919.416 147.164 922.458 148.718 C 924.131 149.573, 928.200 152.427, 931.500 155.059 C 934.800 157.691, 939.960 162.354, 942.966 165.422 C 945.972 168.490, 948.716 171, 949.063 171 C 949.411 171, 955.614 164.705, 962.847 157.012 C 970.081 149.319, 976 142.280, 976 141.371 C 976 140.462, 971.837 135.564, 966.750 130.486 C 961.663 125.408, 954.618 119.397, 951.095 117.127 C 947.572 114.857, 944.197 113.021, 943.595 113.048 C 942.993 113.074, 938.020 118.699, 932.545 125.548 C 927.070 132.396, 922.479 138, 922.344 138 C 922.208 138, 918.813 134.716, 914.798 130.702 C 910.784 126.688, 904.167 121.063, 900.093 118.202 C 896.019 115.341, 892.133 113, 891.456 113 C 890.779 113, 887.587 116.249, 884.363 120.221 M 242.653 180.528 C 235.694 189.068, 230 196.429, 230 196.885 C 230 197.342, 232.677 199.368, 235.948 201.387 C 239.220 203.406, 245.520 208.467, 249.948 212.633 C 254.377 216.799, 257.999 220.499, 257.998 220.854 C 257.997 221.209, 252.832 227.800, 246.520 235.500 C 240.208 243.200, 235.034 250.020, 235.022 250.655 C 235.010 251.290, 236.912 252.934, 239.250 254.307 C 241.588 255.681, 245.300 258.228, 247.500 259.968 C 249.700 261.708, 254.815 266.364, 258.868 270.315 L 266.235 277.500 279.141 264 C 286.239 256.575, 292.498 249.720, 293.049 248.767 C 293.873 247.344, 292.657 245.572, 286.276 238.887 C 281.999 234.407, 275.800 228.702, 272.500 226.209 C 269.200 223.716, 266.101 221.327, 265.613 220.901 C 265.124 220.474, 270.074 214.443, 276.613 207.499 C 283.151 200.555, 288.617 194.550, 288.760 194.156 C 288.904 193.761, 286.879 190.931, 284.260 187.867 C 281.642 184.803, 277.042 180.133, 274.037 177.489 C 271.033 174.845, 265.900 170.953, 262.632 168.841 C 259.364 166.728, 256.378 165, 255.998 165 C 255.617 165, 249.612 171.987, 242.653 180.528 M 393.077 179.250 C 392.597 180.488, 391.283 183.815, 390.158 186.645 C 389.032 189.475, 385.439 197.420, 382.173 204.300 C 378.906 211.180, 374.528 219.378, 372.444 222.518 L 368.655 228.227 370.420 229.215 C 371.392 229.759, 376.532 233.702, 381.843 237.977 C 387.154 242.253, 395.222 249.631, 399.770 254.373 C 404.319 259.116, 408.546 264.103, 409.162 265.457 C 410.060 267.427, 409.953 268.422, 408.629 270.443 C 407.663 271.919, 403.137 274.825, 397.738 277.439 C 392.127 280.154, 383.199 283.278, 375 285.393 C 367.575 287.309, 355.650 289.787, 348.500 290.899 C 341.350 292.011, 330.550 293.501, 324.500 294.209 C 317.103 295.076, 300.071 295.473, 272.500 295.421 C 249.950 295.379, 222.500 294.801, 211.500 294.138 C 200.500 293.474, 186.775 292.447, 181 291.855 C 175.225 291.264, 167.125 289.924, 163 288.879 C 158.875 287.834, 153.398 285.945, 150.829 284.681 L 146.158 282.384 139.639 290.054 C 136.054 294.272, 129.003 302.766, 123.971 308.928 L 114.821 320.131 117.361 323.969 C 118.758 326.080, 121.611 329.476, 123.701 331.515 C 125.790 333.554, 129.446 336.567, 131.825 338.211 C 134.204 339.855, 139.461 342.729, 143.506 344.598 C 147.552 346.467, 153.705 348.637, 157.181 349.420 C 160.656 350.203, 171.150 351.542, 180.500 352.394 C 189.850 353.247, 206.950 354.472, 218.500 355.117 C 230.050 355.761, 252.550 356.315, 268.500 356.346 C 285.128 356.379, 302.406 355.876, 309 355.166 C 315.325 354.485, 325.755 353.039, 332.177 351.953 C 338.599 350.866, 347.824 348.844, 352.677 347.460 C 357.530 346.075, 365.649 342.956, 370.720 340.528 C 375.791 338.101, 382.541 334.331, 385.720 332.151 C 388.899 329.970, 393.581 326.007, 396.123 323.343 C 398.666 320.679, 402.387 316.025, 404.391 313 C 406.395 309.975, 409.343 304.114, 410.943 299.975 C 412.542 295.837, 414.647 288.412, 415.620 283.475 C 416.855 277.207, 417.384 269.825, 417.374 259 C 417.364 247.210, 416.833 240.748, 415.155 232 C 413.943 225.675, 411.553 216.225, 409.846 211 C 408.139 205.775, 405.173 197.675, 403.254 193 C 401.335 188.325, 398.909 182.813, 397.862 180.750 C 396.816 178.688, 395.507 177, 394.955 177 C 394.402 177, 393.558 178.012, 393.077 179.250 M 1060.526 194.099 C 1053.940 195.142, 1042.915 197.545, 1036.026 199.437 C 1029.137 201.330, 1020.386 204.164, 1016.580 205.735 C 1012.774 207.306, 1009.332 209.246, 1008.931 210.046 C 1008.530 210.846, 1006.964 214.875, 1005.452 219 C 1003.939 223.125, 1000.232 232.266, 997.214 239.313 C 993.435 248.136, 992.048 252.448, 992.760 253.160 C 993.472 253.872, 996.665 253.059, 1003.011 250.549 C 1008.081 248.544, 1013.415 246.696, 1014.864 246.441 L 1017.500 245.977 1032.499 266.986 C 1040.749 278.540, 1047.634 288.402, 1047.800 288.901 C 1047.966 289.399, 1046.392 290.078, 1044.301 290.410 C 1042.211 290.741, 1034.425 291.459, 1027 292.004 C 1019.575 292.549, 1001.944 292.996, 987.820 292.998 L 962.141 293 964.506 288.750 C 965.807 286.413, 967.842 281.125, 969.028 277 C 970.496 271.893, 971.345 265.512, 971.690 257 C 972.102 246.832, 971.812 242.635, 970.133 234.500 C 968.838 228.222, 966.709 221.812, 964.413 217.280 C 962.110 212.732, 958.766 208.178, 955.381 204.976 C 952.424 202.180, 947.417 198.679, 944.253 197.196 L 938.500 194.500 927.478 194.500 L 916.455 194.500 909.978 197.708 C 906.415 199.473, 901.132 203, 898.237 205.547 C 895.343 208.094, 890.926 213.048, 888.422 216.556 C 885.919 220.065, 882.354 226.052, 880.500 229.862 C 878.646 233.671, 876.007 240.548, 874.635 245.144 C 873.263 249.740, 871.619 256.130, 870.980 259.344 C 870.342 262.558, 869.747 270.208, 869.660 276.344 C 869.572 282.480, 869.846 288.738, 870.269 290.250 L 871.038 293 785.586 293 L 700.135 293 699.645 291.250 C 699.376 290.288, 698.622 285.450, 697.970 280.500 C 697.317 275.550, 695.204 266.567, 693.273 260.538 C 691.343 254.509, 687.904 246.232, 685.632 242.144 C 683.359 238.056, 678.877 232.037, 675.671 228.769 C 671.605 224.623, 667.523 221.719, 662.171 219.163 L 654.500 215.500 643 215.500 L 631.500 215.500 624.586 218.774 C 619.573 221.148, 615.682 224.071, 610.436 229.403 C 604.671 235.262, 602.159 238.865, 598.077 247.128 C 595.142 253.073, 591.935 261.569, 590.565 267.032 C 589.251 272.275, 587.655 281.853, 587.018 288.316 C 586.160 297.032, 586.147 302.422, 586.968 309.178 C 587.578 314.189, 588.994 321.036, 590.116 324.394 C 591.238 327.752, 593.510 332.625, 595.164 335.222 C 596.819 337.820, 599.726 341.308, 601.623 342.974 C 603.521 344.640, 607.195 347.066, 609.787 348.365 C 612.379 349.664, 616.975 351.350, 620 352.113 C 623.718 353.051, 630.684 353.449, 641.500 353.343 C 650.300 353.257, 662.900 352.468, 669.500 351.591 C 676.100 350.713, 682.625 349.709, 684 349.359 L 686.500 348.722 683 352.492 C 681.075 354.565, 675.450 359.265, 670.500 362.936 C 665.550 366.607, 658.543 371.455, 654.928 373.708 C 651.313 375.962, 642.988 380.496, 636.428 383.783 C 629.868 387.070, 618.200 392.242, 610.500 395.276 C 602.800 398.310, 591.547 402.381, 585.493 404.323 C 579.439 406.266, 569.314 409.032, 562.993 410.471 C 556.672 411.910, 550.712 413.323, 549.750 413.611 C 548.788 413.899, 548 414.562, 548 415.084 C 548 415.605, 549.462 416.681, 551.250 417.474 C 553.038 418.266, 561.700 421.922, 570.500 425.597 C 579.300 429.272, 590.325 433.579, 595 435.167 C 599.675 436.756, 607.577 438.480, 612.560 439 C 618.061 439.574, 624.542 439.592, 629.060 439.045 C 633.152 438.550, 637.850 437.711, 639.500 437.181 C 641.150 436.650, 644.641 435.282, 647.257 434.141 C 649.873 432.999, 654.598 430.305, 657.757 428.153 C 660.916 426.001, 666.040 421.570, 669.144 418.306 C 672.247 415.042, 676.349 409.926, 678.258 406.936 C 680.167 403.946, 683.105 398.770, 684.786 395.434 C 686.467 392.098, 689.398 384.898, 691.300 379.434 C 693.201 373.970, 695.292 366.800, 695.947 363.500 C 696.602 360.200, 697.353 356.740, 697.617 355.811 L 698.096 354.123 782.298 353.700 C 853.226 353.344, 867.808 353.031, 874.795 351.712 C 879.357 350.851, 885.882 348.836, 889.295 347.233 C 892.708 345.630, 896.987 343.062, 898.804 341.525 C 900.621 339.989, 903.884 336.117, 906.054 332.921 C 908.224 329.725, 910 326.635, 910 326.055 C 910 325.475, 910.373 325, 910.829 325 C 911.285 325, 912.734 327.297, 914.049 330.105 C 915.369 332.922, 918.587 337.140, 921.228 339.515 C 923.978 341.988, 929.201 345.146, 933.498 346.935 C 937.815 348.732, 945.321 350.736, 951.240 351.673 C 958.040 352.749, 967.739 353.291, 980 353.280 C 991.996 353.270, 1002.107 352.699, 1008.760 351.657 C 1014.403 350.773, 1022.503 348.855, 1026.760 347.395 C 1031.017 345.934, 1037.200 343.391, 1040.500 341.742 C 1043.800 340.093, 1049.650 336.718, 1053.500 334.242 C 1057.350 331.765, 1063.132 327.742, 1066.349 325.302 C 1069.567 322.862, 1072.306 321.008, 1072.437 321.183 C 1072.569 321.357, 1074.044 323.525, 1075.715 326 C 1077.387 328.475, 1080.954 332.556, 1083.642 335.070 C 1086.330 337.583, 1090.719 340.923, 1093.395 342.491 C 1096.071 344.060, 1101.240 346.426, 1104.880 347.750 C 1108.521 349.074, 1116.225 350.775, 1122 351.531 C 1127.775 352.287, 1138.800 353.202, 1146.500 353.565 C 1155.178 353.974, 1163.492 353.799, 1168.371 353.106 C 1172.700 352.490, 1178.213 351.115, 1180.622 350.049 C 1183.031 348.984, 1187.463 345.783, 1190.472 342.938 C 1193.481 340.092, 1197.317 335.623, 1198.996 333.006 C 1200.675 330.389, 1203.331 324.705, 1204.898 320.374 C 1206.465 316.043, 1209.682 304.515, 1212.046 294.755 C 1214.410 284.996, 1216.512 277.179, 1216.718 277.385 C 1216.924 277.591, 1216.397 282.084, 1215.546 287.369 C 1214.696 292.654, 1214 300.052, 1214 303.808 C 1214 307.564, 1214.701 312.998, 1215.558 315.883 C 1216.415 318.768, 1217.486 320.987, 1217.938 320.814 C 1218.390 320.641, 1225.789 312.076, 1234.380 301.779 C 1242.971 291.483, 1249.995 282.708, 1249.989 282.279 C 1249.983 281.851, 1247.293 279.954, 1244.011 278.065 C 1240.729 276.175, 1236.370 272.915, 1234.323 270.819 L 1230.603 267.009 1232.644 264.254 C 1233.767 262.740, 1236.542 260.075, 1238.811 258.334 C 1241.079 256.593, 1245.537 254.162, 1248.718 252.932 C 1253.383 251.128, 1256.683 250.674, 1265.803 250.582 L 1277.105 250.468 1290.544 234.484 C 1297.935 225.693, 1303.986 218.153, 1303.991 217.728 C 1303.996 217.304, 1301.270 215.192, 1297.933 213.035 C 1294.359 210.725, 1289.540 208.631, 1286.204 207.939 C 1283.090 207.292, 1277.748 206.987, 1274.335 207.261 C 1270.916 207.536, 1266.062 208.760, 1263.528 209.986 C 1260.998 211.211, 1256.454 214.474, 1253.431 217.237 C 1250.409 219.999, 1245.072 226.589, 1241.572 231.880 C 1238.073 237.171, 1232.551 246.537, 1229.301 252.694 L 1223.392 263.888 1220.446 261.480 C 1218.826 260.155, 1217.191 259.056, 1216.814 259.036 C 1216.436 259.016, 1214.146 263.163, 1211.724 268.250 C 1209.204 273.541, 1205.308 279.723, 1202.618 282.694 C 1199.298 286.360, 1196.237 288.555, 1192.208 290.155 L 1186.500 292.421 1157.507 292.793 C 1140.455 293.012, 1124.737 292.719, 1119.340 292.083 C 1114.294 291.488, 1109.566 290.784, 1108.833 290.519 C 1108.009 290.221, 1114.762 282.650, 1126.500 270.712 L 1145.500 251.388 1148.896 241.944 C 1150.765 236.750, 1154.702 227.372, 1157.646 221.104 C 1160.591 214.836, 1163 209.523, 1163 209.297 C 1163 209.071, 1159.737 207.404, 1155.750 205.592 C 1151.763 203.781, 1143.713 200.879, 1137.863 199.145 C 1132.012 197.411, 1121.437 195.098, 1114.363 194.007 C 1105.591 192.653, 1096.888 192.050, 1087 192.111 C 1078.073 192.166, 1067.898 192.930, 1060.526 194.099 M 115.797 225.250 C 113.797 231.438, 111.249 240.550, 110.136 245.500 C 109.024 250.450, 107.638 258.870, 107.056 264.211 C 106.475 269.551, 106 277.565, 106 282.019 C 106 286.473, 106.497 293.353, 107.105 297.308 C 107.712 301.264, 108.539 305.100, 108.941 305.834 C 109.461 306.781, 110.947 305.623, 114.070 301.834 C 116.488 298.900, 122.235 292.110, 126.842 286.744 L 135.218 276.988 129.359 270.708 C 125.625 266.706, 122.864 262.628, 121.745 259.464 C 120.536 256.044, 119.996 251.545, 120.008 245 C 120.019 239.489, 120.855 231.511, 122 226 C 123.086 220.775, 123.980 215.938, 123.987 215.250 C 123.994 214.563, 122.973 214, 121.717 214 L 119.435 214 115.797 225.250 M 1297.662 238.975 C 1291.248 246.661, 1286 253.172, 1286 253.444 C 1286 253.716, 1288.436 255.131, 1291.413 256.589 C 1294.391 258.047, 1298.940 260.986, 1301.523 263.121 C 1304.107 265.255, 1307.579 268.689, 1309.241 270.751 C 1310.902 272.813, 1313.324 276.750, 1314.621 279.500 C 1315.919 282.250, 1316.985 285.683, 1316.990 287.129 C 1316.998 289.151, 1316.250 290.074, 1313.750 291.129 C 1311.531 292.065, 1306.535 292.470, 1298 292.405 C 1289.085 292.338, 1282.919 291.706, 1276.500 290.204 C 1271.550 289.045, 1265.607 287.427, 1263.293 286.608 L 1259.086 285.119 1242.370 304.810 C 1233.177 315.639, 1224.945 325.336, 1224.077 326.357 L 1222.500 328.214 1227.792 333.082 C 1230.703 335.759, 1235.878 339.491, 1239.292 341.376 C 1242.706 343.261, 1248.740 345.955, 1252.701 347.362 C 1256.661 348.770, 1264.038 350.639, 1269.095 351.516 C 1274.152 352.394, 1282.162 353.195, 1286.895 353.297 C 1294.062 353.451, 1296.187 353.116, 1299.613 351.291 C 1301.874 350.086, 1305.817 346.772, 1308.375 343.928 C 1310.932 341.084, 1314.620 335.395, 1316.569 331.287 C 1318.519 327.178, 1320.969 320.370, 1322.013 316.158 C 1323.057 311.946, 1324.437 304.225, 1325.078 299 C 1325.771 293.354, 1326.002 284.227, 1325.648 276.500 C 1325.321 269.350, 1324.182 259.675, 1323.118 255 C 1322.054 250.325, 1320.215 244.025, 1319.032 241 C 1317.850 237.975, 1315.463 233.137, 1313.730 230.250 C 1311.996 227.363, 1310.296 225, 1309.951 225 C 1309.606 225, 1304.076 231.289, 1297.662 238.975 M 1056 236.936 C 1048.575 237.968, 1038.535 239.817, 1033.688 241.045 C 1028.842 242.272, 1025.242 243.615, 1025.688 244.029 C 1026.135 244.442, 1037.408 252.717, 1050.740 262.418 C 1064.072 272.118, 1075.583 280.287, 1076.320 280.569 C 1077.057 280.852, 1083.024 278.215, 1089.580 274.708 C 1096.136 271.202, 1105.775 265.931, 1111 262.995 C 1116.225 260.058, 1124.775 255.216, 1130 252.233 C 1135.225 249.251, 1139.896 246.435, 1140.380 245.975 C 1140.865 245.515, 1136.815 243.768, 1131.380 242.093 C 1125.946 240.417, 1117.225 238.327, 1112 237.449 C 1106.775 236.570, 1095.075 235.673, 1086 235.455 C 1073.532 235.155, 1066.201 235.517, 1056 236.936 M 910.174 238.120 C 907.245 238.607, 901.414 240.435, 897.218 242.182 C 891.885 244.402, 887.994 246.902, 884.294 250.486 C 879.888 254.753, 879 256.200, 879 259.111 C 879 261.231, 880.111 264.360, 881.822 267.054 C 883.373 269.499, 887.044 273.658, 889.979 276.294 C 892.914 278.931, 897.995 282.660, 901.271 284.579 C 904.547 286.499, 909.797 289.152, 912.939 290.474 L 918.651 292.879 927.576 290.597 C 932.484 289.342, 939.875 286.843, 944 285.044 C 948.125 283.244, 952.973 280.667, 954.773 279.317 C 956.573 277.968, 959.161 275.661, 960.523 274.192 C 962.196 272.387, 962.993 270.382, 962.978 268.010 C 962.966 266.080, 962.074 262.556, 960.996 260.181 C 959.918 257.805, 956.636 253.530, 953.702 250.681 C 950.768 247.831, 945.384 244.030, 941.738 242.234 C 938.092 240.438, 932.773 238.526, 929.918 237.984 C 927.063 237.443, 922.651 237.053, 920.114 237.117 C 917.576 237.181, 913.103 237.632, 910.174 238.120 M 541.112 252.843 C 539.998 254.407, 535.226 259.019, 530.506 263.093 C 525.787 267.167, 518.005 273.108, 513.213 276.296 C 508.421 279.483, 499.244 284.738, 492.820 287.974 L 481.140 293.856 487.820 294.573 C 491.494 294.968, 503.275 295.014, 514 294.676 C 524.725 294.338, 537.915 293.380, 543.311 292.546 C 548.706 291.713, 555.647 290.371, 558.733 289.565 C 561.819 288.759, 565.194 287.250, 566.232 286.212 C 567.635 284.809, 567.938 283.602, 567.413 281.508 C 567.024 279.959, 564.107 274.823, 560.930 270.095 C 557.754 265.368, 552.834 258.913, 549.997 255.750 C 547.161 252.588, 544.457 250, 543.988 250 C 543.520 250, 542.225 251.279, 541.112 252.843 M 622.265 259.480 C 619.385 260.289, 614.885 262.052, 612.265 263.397 C 609.644 264.742, 606 266.965, 604.168 268.339 C 602.335 269.712, 599.747 272.310, 598.418 274.112 C 596.975 276.066, 596 278.763, 596 280.794 C 596 283.305, 596.854 285.051, 599.250 287.440 C 601.038 289.222, 605.104 291.652, 608.287 292.840 C 611.469 294.028, 618.444 295.499, 623.787 296.110 C 630.184 296.842, 642.547 296.983, 660 296.525 C 674.575 296.143, 686.700 295.630, 686.945 295.387 C 687.189 295.143, 686.233 292.594, 684.819 289.722 C 683.405 286.850, 680.393 282.025, 678.126 279 C 675.859 275.975, 671.198 271.376, 667.768 268.779 C 664.338 266.183, 658.375 262.863, 654.516 261.402 C 649.073 259.342, 645.258 258.664, 637.500 258.377 C 630.708 258.127, 625.820 258.480, 622.265 259.480 M 594.456 459.792 C 593.890 460.181, 591.243 464.037, 588.574 468.361 C 585.904 472.684, 581.154 479.434, 578.018 483.361 C 574.883 487.287, 569.402 493.622, 565.840 497.438 L 559.363 504.376 561.152 515.938 C 562.135 522.297, 563.453 534.025, 564.080 542 C 564.707 549.975, 564.916 560.550, 564.545 565.500 C 564.174 570.450, 563.337 577.053, 562.685 580.173 L 561.500 585.845 555 578.326 C 551.425 574.191, 541.727 564.206, 533.450 556.136 C 525.172 548.067, 511.897 535.808, 503.950 528.893 C 496.002 521.978, 481.706 509.948, 472.181 502.160 C 462.656 494.372, 454.331 488, 453.681 488 C 452.837 488, 452.445 492.069, 452.308 502.250 C 452.203 510.088, 451.439 521.225, 450.612 527 C 449.784 532.775, 448.444 540.328, 447.634 543.784 L 446.161 550.069 462.331 558.155 C 471.224 562.602, 483.900 569.402, 490.500 573.266 C 497.100 577.129, 508.024 584.118, 514.777 588.797 C 521.529 593.475, 531.879 601.315, 537.777 606.219 C 543.674 611.123, 548.651 615.559, 548.837 616.077 C 549.022 616.596, 547.488 619.378, 545.429 622.260 C 543.369 625.142, 539.167 630.388, 536.092 633.919 C 533.016 637.449, 526.450 643.717, 521.500 647.849 C 516.550 651.980, 508.543 657.959, 503.706 661.137 C 498.869 664.314, 488.294 670.247, 480.206 674.321 C 472.118 678.395, 460.212 683.876, 453.750 686.500 C 447.288 689.125, 442 691.803, 442 692.452 C 442 693.101, 443.687 694.584, 445.750 695.748 C 447.813 696.911, 456.925 703.334, 466 710.020 C 475.075 716.707, 485.444 723.671, 489.043 725.497 C 492.642 727.323, 498.942 729.870, 503.043 731.158 L 510.500 733.500 526 733.469 L 541.500 733.438 549.284 730.815 C 553.565 729.372, 560.004 726.278, 563.592 723.940 C 567.181 721.602, 572.124 717.396, 574.576 714.594 C 577.028 711.792, 580.783 706.125, 582.920 702 C 585.057 697.875, 587.547 692.025, 588.455 689 C 589.362 685.975, 590.747 678.775, 591.533 673 C 592.318 667.225, 592.970 659.444, 592.980 655.708 C 592.991 651.972, 592.289 645.447, 591.420 641.208 C 590.551 636.969, 588.502 630.125, 586.868 626 C 585.233 621.875, 582.353 615.895, 580.468 612.712 L 577.040 606.924 580.435 600.212 C 582.301 596.520, 585.011 590.575, 586.456 587 C 587.901 583.425, 590.370 575.550, 591.942 569.500 C 593.514 563.450, 595.296 555.125, 595.902 551 C 596.508 546.875, 597.413 537.200, 597.913 529.500 C 598.488 520.642, 598.439 505.399, 597.779 488 C 597.205 472.875, 596.454 460.181, 596.109 459.792 C 595.765 459.402, 595.021 459.402, 594.456 459.792 M 786.787 507.197 C 781.642 513.413, 775.761 520.571, 773.717 523.103 C 771.672 525.635, 770.013 528.110, 770.030 528.603 C 770.046 529.096, 772.816 531.075, 776.185 533 C 779.555 534.925, 786.696 540.665, 792.055 545.756 L 801.799 555.012 813.035 543.006 C 819.215 536.403, 824.609 531, 825.022 531 C 825.434 531, 828.415 532.765, 831.645 534.922 C 834.875 537.079, 841.323 542.450, 845.974 546.858 L 854.431 554.872 863.515 545.186 C 868.512 539.859, 874.527 533.384, 876.883 530.798 C 880.290 527.058, 881.019 525.635, 880.448 523.837 C 880.054 522.595, 876.141 518.031, 871.752 513.695 C 867.363 509.359, 860.367 503.588, 856.206 500.872 C 850.147 496.916, 848.405 496.188, 847.465 497.216 C 846.818 497.922, 842.089 503.675, 836.954 510 C 831.819 516.325, 827.538 521.629, 827.439 521.787 C 827.340 521.945, 824.237 518.944, 820.544 515.118 C 816.850 511.292, 811.279 506.307, 808.164 504.039 C 805.049 501.771, 801.069 499.011, 799.321 497.905 L 796.141 495.893 786.787 507.197 M 906.808 513.053 C 900.039 521.332, 894.354 528.758, 894.176 529.557 C 893.996 530.364, 895.272 531.783, 897.051 532.754 C 898.811 533.714, 902.796 536.376, 905.906 538.670 C 909.017 540.963, 914.655 545.858, 918.436 549.547 L 925.310 556.254 932.859 548.377 C 937.011 544.045, 943.316 537.488, 946.871 533.807 L 953.334 527.113 949.431 522.307 C 947.285 519.663, 943.272 515.343, 940.514 512.707 C 937.756 510.071, 932.200 505.683, 928.166 502.957 C 924.133 500.231, 920.446 498, 919.974 498 C 919.502 498, 913.577 504.774, 906.808 513.053 M 242.966 562.411 C 236.110 570.914, 230.392 578.462, 230.261 579.185 C 230.129 579.908, 232.649 581.999, 235.861 583.831 C 239.072 585.663, 245.393 590.560, 249.906 594.714 C 254.690 599.115, 257.900 602.818, 257.604 603.591 C 257.324 604.320, 252.123 610.983, 246.047 618.398 C 239.971 625.812, 235.013 632.469, 235.030 633.189 C 235.046 633.910, 237.812 636.075, 241.177 638 C 244.541 639.925, 251.456 645.438, 256.543 650.250 C 261.631 655.063, 266.177 658.958, 266.647 658.907 C 267.116 658.855, 273.422 652.444, 280.660 644.659 L 293.821 630.505 292.160 627.665 C 291.247 626.103, 286.900 621.368, 282.500 617.144 C 278.100 612.919, 272.379 608.121, 269.787 606.481 C 267.194 604.842, 265.057 603.233, 265.037 602.906 C 265.016 602.580, 270.390 596.558, 276.978 589.523 L 288.956 576.734 287.228 573.777 C 286.278 572.150, 282.090 567.555, 277.923 563.564 C 273.755 559.574, 267.577 554.429, 264.193 552.131 C 260.809 549.833, 257.453 547.727, 256.736 547.452 C 255.944 547.148, 250.540 553.019, 242.966 562.411 M 393.629 560.791 C 393.360 561.226, 391.046 566.485, 388.487 572.477 C 385.928 578.469, 381.787 587.451, 379.286 592.436 C 376.786 597.421, 373.448 603.381, 371.870 605.680 C 370.291 607.979, 369 610.040, 369 610.261 C 369 610.481, 371.137 612.175, 373.750 614.027 C 376.363 615.878, 382.343 620.630, 387.041 624.586 C 391.738 628.543, 398.191 634.599, 401.380 638.044 C 404.569 641.489, 407.892 645.803, 408.764 647.632 L 410.350 650.956 408.528 652.969 C 407.526 654.076, 404.787 656.107, 402.441 657.482 C 400.095 658.857, 394.674 661.330, 390.395 662.977 C 386.116 664.625, 375.839 667.528, 367.557 669.429 C 359.276 671.330, 346.824 673.599, 339.888 674.471 C 332.951 675.343, 321.476 676.481, 314.388 676.999 C 307.299 677.517, 290.475 677.945, 277 677.950 C 263.525 677.955, 241.925 677.524, 229 676.993 C 216.075 676.462, 198.975 675.544, 191 674.952 C 183.025 674.361, 173.655 673.441, 170.178 672.908 C 166.700 672.375, 159.840 670.427, 154.932 668.580 L 146.009 665.222 140.183 671.861 C 136.978 675.512, 129.946 683.827, 124.557 690.339 L 114.757 702.178 116.129 704.808 C 116.883 706.255, 120.004 709.957, 123.066 713.035 C 126.127 716.113, 131.418 720.324, 134.824 722.393 C 138.231 724.463, 143.806 727.248, 147.215 728.584 C 150.623 729.920, 157.031 731.674, 161.456 732.483 C 165.880 733.291, 175.125 734.394, 182 734.932 C 188.875 735.471, 203.725 736.451, 215 737.109 C 226.275 737.768, 250.350 738.324, 268.500 738.345 C 294.108 738.375, 304.748 737.988, 316 736.616 C 323.975 735.644, 333.650 734.199, 337.500 733.404 C 341.350 732.610, 348.550 730.817, 353.500 729.420 C 358.450 728.024, 367.666 724.327, 373.979 721.205 L 385.459 715.530 394.616 706.515 C 402.552 698.702, 404.379 696.234, 408.317 688 C 411.085 682.213, 413.736 674.591, 415.099 668.500 C 416.944 660.249, 417.331 655.526, 417.307 641.500 C 417.283 627.120, 416.877 622.574, 414.673 612 C 413.239 605.125, 410.762 595.675, 409.167 591 C 407.572 586.325, 404.136 577.438, 401.532 571.250 C 398.848 564.873, 396.217 560, 395.457 560 C 394.721 560, 393.898 560.356, 393.629 560.791 M 815.212 576.429 C 811.140 578.401, 805.456 582.283, 802.329 585.229 C 799.251 588.128, 794.574 593.564, 791.935 597.309 C 789.297 601.054, 785.780 607.379, 784.121 611.365 C 782.461 615.351, 779.937 622.637, 778.510 627.556 C 776.918 633.046, 775.574 641.004, 775.029 648.164 C 774.541 654.579, 774.308 660.654, 774.511 661.664 C 774.715 662.674, 775.090 665.413, 775.345 667.750 L 775.810 672 756.905 672 L 738 672 738 669.176 C 738 667.623, 737.291 662.111, 736.424 656.926 C 735.557 651.742, 733.321 642.974, 731.457 637.441 C 729.592 631.909, 726.364 624.316, 724.283 620.568 C 722.202 616.820, 717.679 610.903, 714.232 607.419 C 710.211 603.357, 705.694 600.002, 701.638 598.066 C 698.160 596.406, 692.127 594.501, 688.232 593.833 C 682.836 592.908, 679.695 592.890, 675.029 593.757 C 671.662 594.384, 666.439 596.026, 663.421 597.407 C 660.404 598.789, 655.918 601.572, 653.453 603.592 C 650.987 605.613, 646.883 610.018, 644.333 613.383 C 641.783 616.747, 637.930 623.239, 635.772 627.810 C 633.614 632.380, 630.759 640.480, 629.428 645.810 C 628.097 651.139, 626.498 660.788, 625.874 667.252 C 625.023 676.056, 625.027 681.247, 625.886 687.951 C 626.517 692.872, 627.916 699.755, 628.994 703.246 C 630.073 706.737, 632.659 712.048, 634.742 715.047 C 637.044 718.362, 640.957 722.131, 644.720 724.660 C 648.913 727.477, 653.167 729.332, 657.903 730.410 C 662.617 731.482, 669.781 732, 679.896 732 C 688.147 732, 700.208 731.309, 706.699 730.465 C 713.189 729.621, 720.075 728.514, 722 728.006 L 725.500 727.081 718.363 733.939 C 714.438 737.711, 707.238 743.474, 702.363 746.747 C 697.488 750.020, 690.350 754.479, 686.500 756.656 C 682.650 758.833, 673.875 763.234, 667 766.435 C 660.125 769.637, 647.790 774.706, 639.588 777.700 C 631.387 780.694, 619.015 784.695, 612.095 786.592 C 605.174 788.488, 596.697 790.559, 593.256 791.193 C 589.244 791.932, 587 792.829, 587 793.694 C 587 794.436, 588.013 795.454, 589.250 795.957 C 590.487 796.459, 598.543 799.843, 607.152 803.476 C 615.761 807.108, 627.461 811.675, 633.152 813.624 C 641.884 816.614, 645.324 817.255, 655.180 817.728 C 662.667 818.087, 669.128 817.844, 673.180 817.051 C 676.656 816.371, 682.650 814.349, 686.500 812.558 C 690.350 810.768, 696.374 807.125, 699.887 804.463 C 703.400 801.802, 708.838 796.399, 711.970 792.457 C 715.103 788.515, 719.942 780.837, 722.724 775.395 C 725.505 769.953, 729.365 760.550, 731.301 754.500 C 733.237 748.450, 735.138 740.913, 735.526 737.750 L 736.230 732 752.439 732 C 762.577 732, 772.178 731.408, 778.074 730.419 C 783.489 729.510, 790.390 727.524, 794.292 725.751 C 799.246 723.500, 802.644 720.997, 806.851 716.500 C 810.024 713.109, 813.209 708.909, 813.931 707.167 C 814.652 705.425, 815.570 704, 815.969 704 C 816.369 704, 817.532 705.854, 818.554 708.120 C 819.576 710.386, 822.353 714.238, 824.726 716.679 C 827.252 719.278, 832.048 722.546, 836.298 724.564 C 840.290 726.460, 847.144 728.775, 851.528 729.708 C 857.769 731.037, 864.819 731.409, 884 731.425 L 908.500 731.446 918.271 729.298 C 923.950 728.050, 931.488 725.477, 936.271 723.152 C 940.797 720.953, 946.860 716.981, 949.744 714.327 C 952.629 711.672, 956.579 706.805, 958.523 703.511 C 960.467 700.217, 962.999 694.367, 964.149 690.511 C 965.300 686.655, 966.576 680.350, 966.985 676.500 L 967.728 669.500 967.864 679.685 C 967.939 685.286, 968.688 693.142, 969.530 697.142 C 970.371 701.142, 972.601 707.170, 974.484 710.538 C 976.367 713.905, 979.909 718.505, 982.355 720.759 C 984.800 723.013, 988.632 725.792, 990.869 726.933 C 993.106 728.075, 997.764 729.675, 1001.219 730.489 C 1004.673 731.304, 1011.165 731.977, 1015.645 731.985 C 1021.032 731.995, 1026.007 731.315, 1030.339 729.977 C 1035.306 728.443, 1038.275 726.690, 1042.620 722.727 C 1045.772 719.852, 1050.044 714.887, 1052.112 711.693 C 1054.180 708.500, 1057.227 701.750, 1058.881 696.693 C 1060.536 691.637, 1063.524 680.750, 1065.521 672.500 C 1067.519 664.250, 1069.523 657.118, 1069.975 656.651 C 1070.427 656.185, 1070.113 658.885, 1069.276 662.651 C 1068.439 666.418, 1067.704 674.675, 1067.643 681 C 1067.558 689.634, 1067.928 693.340, 1069.125 695.868 L 1070.719 699.237 1085.594 681.506 C 1093.775 671.754, 1101.040 662.960, 1101.738 661.963 L 1103.008 660.151 1097.754 657.141 C 1094.864 655.485, 1090.588 652.491, 1088.250 650.488 C 1085.912 648.484, 1084 646.419, 1084 645.900 C 1084 645.380, 1085.782 643.022, 1087.960 640.660 C 1090.137 638.297, 1094.353 635.172, 1097.327 633.716 C 1100.302 632.259, 1104.925 630.577, 1107.600 629.978 C 1110.275 629.378, 1116.227 628.978, 1120.827 629.089 L 1129.189 629.290 1142.677 613.081 C 1150.655 603.494, 1155.946 596.303, 1155.630 595.479 C 1155.336 594.712, 1153.387 593.022, 1151.298 591.723 C 1149.209 590.423, 1145.578 588.604, 1143.230 587.680 C 1140.586 586.640, 1136.126 586, 1131.517 586 C 1126.423 586, 1122.317 586.658, 1118.503 588.085 C 1114.989 589.399, 1110.779 592.162, 1107.106 595.563 C 1103.902 598.529, 1099.029 604.228, 1096.278 608.228 C 1093.526 612.228, 1088.236 621.125, 1084.521 628 C 1080.807 634.875, 1077.397 640.900, 1076.944 641.390 C 1076.478 641.893, 1074.718 641.099, 1072.888 639.559 L 1069.655 636.839 1064.946 646.814 C 1062.287 652.444, 1058.423 658.756, 1056.072 661.306 C 1053.782 663.790, 1049.961 666.738, 1047.580 667.857 C 1045.199 668.976, 1039.301 670.418, 1034.473 671.060 C 1029.506 671.721, 1022.614 671.935, 1018.598 671.553 C 1014.694 671.182, 1008.678 670.234, 1005.229 669.448 C 1001.779 668.662, 997.259 667.153, 995.184 666.094 C 993.108 665.035, 989.552 662.153, 987.281 659.689 C 985.010 657.225, 982.626 653.475, 981.983 651.355 C 981.341 649.235, 980.574 641.313, 980.279 633.750 L 979.744 620 977.622 620.016 L 975.500 620.031 972.841 630.977 C 971.378 636.998, 969.067 644.357, 967.706 647.332 C 966.344 650.306, 963.517 654.635, 961.425 656.952 C 959.332 659.268, 955.002 662.485, 951.802 664.100 C 947.903 666.068, 942.112 667.707, 934.242 669.071 C 925.260 670.627, 915.956 671.247, 894.656 671.710 L 866.812 672.315 869.973 666.053 C 871.712 662.609, 874.048 655.675, 875.166 650.645 C 876.847 643.075, 877.107 639.261, 876.674 628.500 C 876.386 621.350, 875.435 612.800, 874.560 609.500 C 873.686 606.200, 871.416 600.316, 869.517 596.424 C 867.478 592.248, 863.946 587.231, 860.896 584.182 C 858.054 581.340, 853.202 577.774, 850.114 576.257 L 844.500 573.500 833.500 573.200 L 822.500 572.900 815.212 576.429 M 1258.870 594.060 C 1256.874 594.532, 1252.824 595.989, 1249.870 597.298 C 1246.917 598.607, 1241.833 602.112, 1238.574 605.089 C 1235.315 608.065, 1230.503 613.781, 1227.881 617.791 C 1225.259 621.802, 1221.748 628.623, 1220.079 632.951 C 1218.411 637.278, 1216.089 645.022, 1214.920 650.159 C 1213.587 656.017, 1212.592 664.675, 1212.253 673.382 C 1211.895 682.551, 1212.054 687.134, 1212.723 686.882 C 1213.280 686.672, 1216.909 682.737, 1220.788 678.137 L 1227.840 669.774 1224.420 666.354 C 1221.920 663.853, 1221 662.053, 1221 659.661 C 1221 657.750, 1222.029 654.994, 1223.474 653.036 C 1224.834 651.191, 1228.348 647.980, 1231.281 645.899 C 1234.215 643.818, 1240.043 640.964, 1244.234 639.558 C 1248.424 638.151, 1252.673 636.983, 1253.676 636.963 C 1254.679 636.942, 1256.625 635.402, 1258 633.541 C 1259.375 631.680, 1266.675 622.831, 1274.222 613.876 L 1287.944 597.596 1285.140 596.417 C 1283.598 595.768, 1279.988 594.734, 1277.119 594.119 C 1274.249 593.503, 1269.786 593.045, 1267.201 593.100 C 1264.615 593.156, 1260.867 593.587, 1258.870 594.060 M 119.170 597.750 C 118.674 598.712, 117.105 603.100, 115.682 607.500 C 114.259 611.900, 112.359 618.417, 111.460 621.982 C 110.561 625.548, 109.185 632.073, 108.404 636.482 C 107.622 640.892, 106.695 650.390, 106.344 657.589 C 105.924 666.202, 106.132 673.418, 106.952 678.690 C 107.637 683.097, 108.591 687.332, 109.071 688.101 C 109.767 689.216, 110.299 688.993, 111.695 687 C 112.659 685.625, 116.165 681.350, 119.487 677.500 C 122.809 673.650, 127.698 667.930, 130.351 664.790 L 135.175 659.080 130.216 654.120 C 127.488 651.393, 124.186 646.987, 122.878 644.331 C 120.993 640.501, 120.430 637.520, 120.162 629.949 C 119.947 623.846, 120.444 616.986, 121.539 610.949 C 122.482 605.752, 123.473 600.263, 123.740 598.750 C 124.143 596.476, 123.867 596, 122.149 596 C 121.006 596, 119.665 596.788, 119.170 597.750 M 1285.961 613.179 C 1280.832 619.406, 1274.416 627.111, 1271.704 630.302 C 1268.991 633.494, 1266.935 636.213, 1267.136 636.346 C 1267.336 636.478, 1271.100 637.610, 1275.500 638.860 C 1279.900 640.111, 1285.525 642.312, 1288 643.752 C 1290.475 645.192, 1294.850 648.590, 1297.722 651.303 C 1300.593 654.016, 1304.370 658.459, 1306.113 661.177 C 1307.934 664.014, 1308.904 666.476, 1308.392 666.962 C 1307.901 667.426, 1303.889 668.935, 1299.476 670.315 C 1295.063 671.695, 1287.750 673.366, 1283.224 674.028 C 1277.917 674.804, 1269.051 675.030, 1258.248 674.665 C 1249.037 674.353, 1240.140 673.815, 1238.479 673.469 L 1235.457 672.840 1225.479 684.594 C 1219.990 691.058, 1215.169 696.892, 1214.764 697.559 C 1214.360 698.225, 1214.896 701.290, 1215.955 704.368 C 1217.014 707.447, 1219.231 711.929, 1220.882 714.328 C 1222.532 716.727, 1225.497 720.107, 1227.469 721.839 C 1229.442 723.571, 1232.829 725.892, 1234.996 726.998 C 1237.164 728.104, 1241.764 729.675, 1245.219 730.489 C 1248.673 731.304, 1255.686 731.977, 1260.803 731.985 C 1265.919 731.993, 1273.344 731.276, 1277.303 730.391 C 1281.261 729.506, 1287.187 727.369, 1290.472 725.641 C 1293.757 723.913, 1298.766 720.181, 1301.604 717.347 C 1304.442 714.512, 1308.010 709.562, 1309.534 706.347 C 1311.058 703.131, 1312.906 698.250, 1313.640 695.500 C 1314.375 692.750, 1315.010 688.700, 1315.052 686.500 C 1315.113 683.214, 1315.282 682.884, 1315.995 684.652 C 1316.473 685.836, 1317.398 691.402, 1318.051 697.022 C 1318.704 702.642, 1318.969 709.208, 1318.639 711.614 C 1318.310 714.019, 1316.845 718.353, 1315.385 721.244 C 1313.924 724.135, 1309.751 729.425, 1306.112 733 C 1302.472 736.575, 1294.770 742.705, 1288.997 746.621 C 1283.224 750.538, 1273.325 756.475, 1267 759.815 C 1260.675 763.154, 1251.675 767.520, 1247 769.516 C 1242.325 771.513, 1234.450 774.657, 1229.500 776.504 C 1224.550 778.350, 1215.550 781.420, 1209.500 783.325 C 1203.450 785.231, 1193.325 788.001, 1187 789.481 C 1180.675 790.962, 1174.945 792.342, 1174.267 792.549 C 1173.589 792.755, 1173.284 793.576, 1173.589 794.372 C 1173.895 795.168, 1175.201 796.085, 1176.493 796.409 C 1177.784 796.733, 1186.189 800.101, 1195.170 803.893 C 1204.152 807.685, 1215.775 812.250, 1221 814.037 C 1228.908 816.741, 1232.427 817.364, 1242 817.755 C 1248.327 818.013, 1256.199 817.731, 1259.500 817.127 C 1262.800 816.524, 1269.672 813.974, 1274.771 811.461 C 1281.046 808.369, 1286.167 804.905, 1290.615 800.743 C 1294.230 797.362, 1299.130 791.873, 1301.503 788.547 C 1303.877 785.221, 1307.723 778.683, 1310.051 774.017 C 1312.379 769.352, 1315.570 761.730, 1317.142 757.079 C 1318.714 752.428, 1320.869 744.096, 1321.930 738.562 C 1322.991 733.028, 1324.402 722.875, 1325.064 716 C 1325.808 708.286, 1326.043 696.800, 1325.678 686 C 1325.309 675.107, 1324.297 664.159, 1322.998 657 C 1321.851 650.675, 1319.387 641.087, 1317.524 635.693 C 1315.660 630.299, 1312.110 622.649, 1309.634 618.693 C 1307.158 614.737, 1302.917 609.331, 1300.209 606.679 L 1295.287 601.858 1285.961 613.179 M 1154.726 611.750 C 1150.651 616.563, 1145.212 623.091, 1142.641 626.258 L 1137.964 632.015 1141.732 633.734 C 1143.804 634.679, 1148.029 637.127, 1151.120 639.175 C 1154.211 641.223, 1158.660 645.059, 1161.005 647.699 C 1163.351 650.340, 1166.330 654.750, 1167.625 657.500 C 1168.921 660.250, 1169.985 663.890, 1169.990 665.589 C 1169.998 667.918, 1169.385 668.959, 1167.505 669.816 C 1166.133 670.441, 1161.521 671.231, 1157.255 671.571 C 1152.138 671.980, 1146.268 671.658, 1140 670.626 C 1134.775 669.766, 1126.900 668.090, 1122.500 666.901 C 1118.100 665.713, 1113.562 664.687, 1112.416 664.621 C 1110.874 664.531, 1105.694 669.943, 1092.490 685.435 L 1074.648 706.371 1080.059 711.141 C 1083.035 713.765, 1088.627 717.707, 1092.485 719.901 C 1096.343 722.094, 1102.875 725.008, 1107 726.376 C 1111.125 727.744, 1118.550 729.567, 1123.500 730.428 C 1128.450 731.289, 1136.100 731.985, 1140.500 731.975 C 1146.089 731.962, 1149.706 731.405, 1152.500 730.129 C 1154.700 729.124, 1158.344 726.293, 1160.598 723.838 C 1162.852 721.383, 1165.903 717.316, 1167.377 714.801 C 1168.851 712.286, 1171.366 706.640, 1172.966 702.255 C 1174.567 697.870, 1176.579 689.548, 1177.438 683.763 C 1178.297 677.977, 1179 667.955, 1179 661.491 C 1179 655.027, 1178.277 645.191, 1177.393 639.634 C 1176.510 634.076, 1174.666 626.372, 1173.296 622.514 C 1171.925 618.656, 1169.180 612.688, 1167.194 609.250 C 1165.209 605.813, 1163.258 603, 1162.860 603 C 1162.462 603, 1158.801 606.938, 1154.726 611.750 M 812.764 617.030 C 810.709 617.543, 806.209 619.140, 802.764 620.578 C 799.319 622.017, 794.208 624.911, 791.407 627.011 C 788.606 629.110, 785.742 632.209, 785.043 633.897 C 784.293 635.706, 784.039 638.394, 784.423 640.441 C 784.781 642.352, 786.781 646.072, 788.866 648.707 C 790.951 651.343, 795.225 655.479, 798.363 657.898 C 801.501 660.317, 807.971 664.255, 812.740 666.648 C 817.509 669.042, 822.618 671, 824.094 671 C 825.569 671, 830.764 669.867, 835.638 668.482 C 840.512 667.097, 848.153 664.180, 852.619 661.999 C 857.585 659.573, 862.147 656.473, 864.369 654.014 C 866.999 651.103, 868 649.084, 868 646.693 C 868 644.878, 866.840 641.064, 865.422 638.219 C 864.003 635.373, 860.516 630.941, 857.672 628.371 C 854.827 625.800, 849.125 622.083, 845 620.111 L 837.500 616.526 827 616.312 C 821.225 616.193, 814.819 616.517, 812.764 617.030 M 552.278 637.915 C 547.206 642.770, 538.971 649.541, 533.977 652.962 C 528.983 656.382, 518.957 662.281, 511.698 666.071 L 498.500 672.961 508 673.181 C 513.225 673.303, 524.250 673.284, 532.500 673.139 C 540.750 672.995, 552.732 672.232, 559.126 671.444 C 565.521 670.656, 573.679 669.107, 577.256 668.003 C 580.834 666.898, 584.305 665.337, 584.971 664.536 C 585.893 663.424, 585.912 662.263, 585.050 659.653 C 584.429 657.770, 581.289 652.457, 578.073 647.848 C 574.857 643.238, 570.108 637.112, 567.520 634.234 C 564.932 631.355, 562.519 629.020, 562.157 629.044 C 561.796 629.068, 557.350 633.061, 552.278 637.915 M 660.105 638.583 C 657.137 639.381, 652.518 641.226, 649.839 642.684 C 647.160 644.142, 643.164 646.880, 640.958 648.768 C 638.752 650.656, 636.256 653.538, 635.410 655.173 C 634.483 656.966, 634.116 659.252, 634.485 660.932 C 634.822 662.465, 636.313 664.856, 637.799 666.245 C 639.284 667.635, 642.001 669.530, 643.836 670.456 C 645.671 671.383, 650.171 672.776, 653.836 673.553 C 658.730 674.590, 668.201 674.955, 689.500 674.925 C 705.450 674.903, 720.180 674.573, 722.233 674.192 L 725.967 673.500 723.624 668.500 C 722.336 665.750, 719.232 660.800, 716.727 657.500 C 714.223 654.200, 709.957 649.819, 707.247 647.765 C 704.538 645.710, 700.113 643.053, 697.415 641.860 C 694.718 640.666, 690.258 639.090, 687.505 638.357 C 684.752 637.624, 678.675 637.048, 674 637.078 C 669.325 637.107, 663.072 637.785, 660.105 638.583" stroke="none" fill="#231c23" fill-rule="evenodd"/></svg>