<?xml version="1.0" standalone="no"?>
<!DOCTYPE svg PUBLIC "-//W3C//DTD SVG 20010904//EN"
 "http://www.w3.org/TR/2001/REC-SVG-20010904/DTD/svg10.dtd">
<svg version="1.0" xmlns="http://www.w3.org/2000/svg"
 width="1452.000000pt" height="719.000000pt" viewBox="0 0 1452.000000 719.000000"
 preserveAspectRatio="xMidYMid meet">

<g transform="translate(0.000000,719.000000) scale(0.100000,-0.100000)"
fill="#000000" stroke="none">
<path d="M4715 6583 c-16 -3 -34 -9 -39 -14 -6 -5 -16 -9 -22 -9 -18 0 -53
-16 -99 -45 -22 -14 -46 -28 -54 -32 -49 -23 -179 -120 -300 -223 -124 -105
-381 -370 -431 -444 -16 -24 -134 -184 -148 -201 -16 -20 -151 -242 -182 -300
-18 -33 -40 -76 -51 -95 -28 -53 -95 -202 -104 -230 -4 -14 -11 -29 -15 -35
-5 -5 -11 -27 -15 -48 -4 -20 -11 -40 -16 -43 -5 -3 -9 -18 -9 -34 0 -16 -4
-31 -9 -34 -5 -4 -12 -30 -16 -59 -3 -28 -10 -61 -15 -72 -5 -11 -14 -65 -20
-120 -6 -55 -15 -143 -21 -195 -12 -111 -6 -327 10 -343 6 -6 11 -17 11 -25 0
-19 39 -100 65 -134 11 -14 31 -41 45 -60 36 -48 86 -93 128 -114 20 -11 39
-22 42 -25 6 -6 40 -21 55 -24 6 0 17 -4 25 -7 31 -13 88 -20 188 -25 58 -2
102 -9 102 -14 0 -14 -270 -281 -360 -356 -115 -95 -203 -167 -226 -183 -12
-8 -55 -41 -97 -72 -42 -32 -79 -58 -83 -58 -4 0 -26 -16 -50 -35 -23 -19 -45
-35 -47 -35 -3 0 -32 -17 -64 -38 -114 -76 -400 -222 -433 -222 -5 0 -20 -5
-33 -12 -45 -23 -55 -27 -93 -34 -22 -3 -45 -12 -53 -18 -9 -7 -77 -11 -195
-11 -151 0 -185 3 -204 16 -23 17 -22 17 190 200 117 100 260 224 318 274 136
119 189 156 413 295 167 103 187 118 193 147 12 61 3 60 -208 -26 -42 -17 -87
-31 -100 -31 -30 0 -102 46 -148 94 -34 36 -34 37 -18 64 9 15 38 42 63 60 66
45 121 44 200 -3 32 -20 59 -34 60 -33 2 2 4 36 6 77 l4 74 -37 30 c-51 41
-122 48 -171 18 -72 -44 -243 -247 -303 -358 -41 -77 -21 -152 52 -195 19 -11
34 -26 34 -32 0 -7 -62 -67 -137 -132 -76 -66 -225 -196 -331 -288 -108 -94
-198 -166 -206 -163 -23 9 -104 111 -136 171 -16 32 -33 77 -36 100 -4 22 -11
47 -17 54 -15 19 -21 320 -8 422 20 162 32 235 41 252 6 10 10 29 10 42 0 14
4 27 9 30 4 3 11 25 15 48 7 42 31 126 46 163 5 11 12 36 16 55 3 19 10 40 14
45 3 6 15 37 25 70 10 33 21 65 25 70 4 6 11 27 14 49 4 21 12 47 17 57 5 11
13 27 18 37 5 10 12 33 16 52 4 19 11 40 15 45 4 6 11 26 15 45 4 19 12 43 18
55 22 44 26 54 32 89 4 20 11 38 15 41 5 3 11 23 15 45 4 22 10 42 15 45 5 3
11 23 15 45 4 22 11 42 16 46 5 3 9 16 9 30 0 13 4 24 9 24 5 0 13 25 16 55 4
30 11 58 16 61 11 6 12 44 2 44 -5 -1 -30 -37 -58 -82 -27 -44 -60 -97 -73
-117 -12 -20 -26 -46 -32 -58 -5 -11 -14 -24 -20 -28 -7 -4 -18 -22 -26 -39
-15 -33 -26 -52 -59 -101 -11 -16 -25 -39 -31 -50 -6 -11 -26 -47 -44 -80 -55
-100 -60 -110 -60 -122 0 -7 -3 -13 -7 -13 -5 0 -17 -29 -28 -65 -10 -36 -22
-65 -26 -65 -4 0 -10 -18 -14 -40 -4 -22 -10 -42 -15 -45 -5 -3 -11 -23 -15
-45 -4 -22 -11 -40 -16 -40 -5 0 -9 -10 -9 -23 0 -13 -4 -27 -8 -33 -5 -5 -18
-43 -31 -84 -12 -41 -27 -83 -32 -92 -5 -9 -12 -35 -15 -58 -4 -22 -11 -43
-15 -46 -5 -3 -9 -16 -9 -29 0 -13 -4 -26 -9 -29 -5 -4 -12 -29 -16 -58 -4
-29 -11 -59 -16 -68 -7 -14 -22 -82 -36 -170 -3 -19 -9 -39 -13 -45 -4 -5 -11
-39 -14 -75 -4 -36 -11 -74 -16 -85 -27 -60 -51 -585 -31 -680 6 -27 14 -86
20 -130 5 -44 12 -89 15 -100 8 -23 42 9 -584 -535 -427 -371 -410 -354 -410
-407 0 -24 5 -43 10 -43 8 0 240 192 375 311 17 15 167 144 335 288 231 198
306 257 308 244 2 -10 8 -22 13 -27 5 -6 9 -16 9 -24 0 -31 73 -177 135 -272
36 -54 183 -206 236 -245 94 -68 200 -116 304 -136 112 -22 398 -8 429 22 6 5
19 9 30 9 29 0 98 26 196 73 89 42 213 116 218 129 2 4 8 8 12 8 12 0 72 41
150 103 117 94 385 370 482 498 10 12 21 19 25 15 4 -4 3 -10 -3 -14 -8 -6
-42 -48 -86 -107 -51 -67 -156 -193 -301 -359 -93 -108 -276 -299 -403 -421
-128 -124 -146 -155 -110 -184 26 -22 269 -2 336 26 8 4 40 12 70 19 30 7 73
18 95 24 22 6 65 17 95 23 30 7 60 15 65 18 6 4 35 10 65 14 30 4 60 11 65 15
6 4 26 10 45 14 19 3 44 9 55 11 11 3 38 8 60 11 22 4 45 10 50 14 6 4 26 11
45 15 41 9 136 59 168 88 66 61 258 387 332 562 11 28 25 57 30 66 5 9 12 33
15 53 4 20 11 39 16 42 5 3 9 16 9 29 0 13 4 26 9 29 5 4 12 24 16 46 4 22 10
42 15 45 4 3 11 28 15 55 4 27 11 52 16 56 5 3 9 18 9 34 0 16 4 31 9 35 5 3
13 30 16 60 4 31 11 57 15 60 5 3 11 29 15 58 4 28 10 57 14 62 3 6 11 35 18
65 6 30 15 69 18 85 4 17 9 37 13 45 3 8 12 51 19 95 7 44 20 121 29 170 8 50
17 106 20 125 3 19 9 44 14 55 16 34 48 395 35 395 -4 0 -31 -20 -59 -45 -29
-25 -58 -45 -64 -45 -21 0 -92 -116 -92 -149 0 -6 -4 -11 -10 -11 -5 0 -10 -6
-10 -12 0 -7 -7 -26 -16 -43 -47 -87 -74 -141 -74 -152 0 -7 -3 -13 -7 -13 -5
0 -13 -10 -19 -23 -16 -34 -75 -141 -84 -152 -6 -9 -41 -70 -74 -130 -6 -11
-20 -34 -31 -50 -37 -56 -46 -70 -51 -87 -4 -10 -9 -18 -13 -18 -4 0 -15 -17
-26 -37 -11 -21 -31 -54 -45 -73 -14 -19 -29 -42 -35 -51 -9 -15 -99 -147
-142 -209 -10 -14 -21 -26 -25 -28 -5 -2 -8 -9 -8 -16 0 -15 -38 -52 -45 -44
-3 3 1 11 10 18 8 7 15 18 15 25 0 8 4 15 8 17 10 4 122 185 122 197 0 5 4 11
8 13 7 3 110 208 147 293 10 22 26 58 36 79 11 22 19 45 19 50 0 6 7 24 15 39
8 15 17 43 21 63 3 19 10 37 15 40 5 3 9 16 9 29 0 13 4 26 9 29 5 4 12 25 16
49 4 23 11 47 15 52 4 6 11 35 15 65 4 30 11 60 15 65 4 6 10 28 13 50 4 22
11 76 17 120 15 102 8 491 -9 508 -6 6 -11 19 -11 30 0 23 -30 119 -41 131 -5
6 -9 16 -9 24 0 16 -29 80 -45 100 -31 40 -48 52 -74 52 -17 0 -32 4 -36 9 -3
5 -30 13 -60 16 -31 4 -58 11 -61 16 -3 5 -14 9 -24 9 -19 0 -97 23 -135 40
-11 5 -45 20 -75 34 -30 13 -70 38 -89 56 -32 30 -33 33 -27 83 4 28 11 54 15
57 5 3 12 16 16 28 15 49 103 160 214 269 62 62 119 113 126 113 6 0 20 9 30
20 9 10 49 41 89 67 39 26 73 50 76 53 18 19 343 180 363 180 9 0 17 5 17 10
0 6 7 10 16 10 9 0 30 6 47 14 18 8 59 22 92 32 33 9 64 21 69 26 6 4 18 8 28
8 31 0 39 46 48 255 15 358 31 590 40 613 14 34 13 92 -2 91 -7 -1 -26 -4 -43
-6z m-1081 -4278 c-7 -16 -24 -21 -24 -6 0 8 7 13 27 20 1 1 0 -6 -3 -14z
m-44 -60 c-7 -8 -17 -15 -22 -15 -6 0 -5 7 2 15 7 8 17 15 22 15 6 0 5 -7 -2
-15z"/>
<path d="M7324 6185 c-191 -202 -271 -281 -394 -387 -158 -136 -215 -184 -270
-228 -25 -19 -65 -54 -91 -77 -25 -24 -49 -43 -54 -43 -4 0 -42 -30 -86 -67
-43 -38 -104 -88 -136 -113 -89 -70 -91 -71 -166 -135 -134 -114 -219 -208
-305 -336 -64 -94 -62 -92 -248 -449 -16 -30 -32 -56 -36 -58 -5 -2 -8 -9 -8
-15 0 -7 -7 -25 -16 -42 -50 -92 -111 -215 -108 -215 2 0 42 37 88 83 47 45
130 123 186 172 55 50 116 104 134 120 19 17 62 53 96 80 34 28 95 77 135 110
73 59 201 163 220 177 6 4 25 19 43 34 45 36 40 13 -5 -26 -104 -88 -152 -130
-210 -180 -34 -30 -117 -102 -183 -160 -271 -236 -422 -385 -540 -536 -59 -76
-170 -246 -170 -261 0 -7 -4 -13 -10 -13 -5 0 -10 -8 -10 -17 -1 -10 -9 -36
-20 -58 -11 -22 -20 -47 -20 -55 -1 -17 -24 -50 -35 -50 -4 0 -4 24 -1 53 3
28 10 140 15 247 6 107 13 222 16 255 9 94 23 272 40 495 8 113 22 291 31 395
20 259 27 375 19 375 -8 0 -54 -53 -55 -63 0 -4 -4 -13 -10 -20 -42 -52 -60
-76 -60 -80 0 -3 -18 -33 -40 -66 -22 -33 -45 -71 -50 -83 -10 -24 -31 -59
-40 -68 -9 -9 -133 -251 -195 -380 -40 -85 -53 -176 -60 -415 -3 -121 -10
-247 -15 -280 -5 -33 -15 -179 -21 -325 -6 -146 -15 -335 -19 -420 -24 -461
-31 -781 -21 -940 14 -213 21 -283 31 -295 4 -5 10 -35 14 -65 4 -30 11 -59
15 -65 5 -5 12 -27 15 -49 4 -21 11 -46 16 -55 5 -9 23 -45 40 -81 44 -90 89
-133 158 -155 31 -10 64 -21 73 -25 9 -5 42 -11 75 -15 32 -4 64 -11 69 -15
38 -29 443 -29 510 0 11 5 51 13 89 18 l70 9 -30 -25 c-105 -91 -394 -341
-474 -412 -53 -47 -160 -140 -238 -208 l-142 -124 0 -55 0 -55 98 83 c104 89
111 95 655 562 197 169 364 307 372 307 8 0 15 4 15 9 0 5 18 11 40 15 23 3
49 10 58 15 29 15 64 28 135 53 37 12 67 26 67 30 0 5 5 8 11 8 13 0 186 84
264 128 28 15 66 37 85 47 19 11 51 32 71 47 20 16 40 28 44 28 12 0 109 84
187 162 87 88 162 206 218 343 7 17 16 37 20 45 4 9 11 35 15 58 4 23 10 44
15 47 4 3 11 32 15 65 4 33 11 63 16 66 5 3 9 19 9 35 0 17 4 38 10 48 5 10
12 56 16 102 4 46 11 90 17 97 6 8 6 16 -1 25 -6 7 -14 32 -18 55 -4 23 -11
45 -15 48 -5 3 -9 13 -9 23 0 9 -5 22 -12 29 -9 9 -16 5 -32 -17 -67 -92 -114
-145 -193 -222 -48 -47 -98 -92 -109 -100 -12 -8 -53 -41 -92 -74 -39 -33 -86
-71 -106 -85 -55 -38 -75 -53 -106 -78 -15 -12 -31 -22 -35 -22 -4 0 -24 -12
-44 -27 -48 -37 -72 -52 -93 -59 -10 -4 -18 -10 -18 -14 0 -4 -8 -10 -17 -14
-19 -6 -54 -27 -63 -37 -3 -3 -12 -9 -20 -12 -8 -4 -42 -23 -75 -42 -33 -20
-68 -38 -77 -42 -10 -3 -18 -9 -18 -14 0 -5 -7 -9 -15 -9 -12 0 -14 7 -9 28 4
15 10 32 14 37 5 6 11 27 15 48 4 20 11 40 16 43 5 3 9 16 9 29 0 13 4 27 10
30 5 3 12 28 16 56 4 27 10 52 15 54 4 3 11 31 15 63 3 31 10 62 14 67 4 6 11
30 14 55 21 151 25 199 25 330 -1 175 -14 277 -45 347 -8 17 -14 35 -15 40 -1
24 -92 133 -137 163 -28 19 -51 41 -52 47 0 7 17 25 38 41 59 42 309 272 461
422 136 136 253 273 331 390 8 13 24 35 36 49 41 52 114 185 114 209 0 6 5 12
10 12 6 0 10 5 10 11 0 11 13 42 61 145 16 33 29 65 29 70 0 6 8 28 19 50 37
78 61 133 61 142 0 4 8 26 19 48 39 82 61 133 61 144 0 5 4 18 10 28 5 9 16
35 26 57 23 57 30 74 53 127 12 26 21 54 21 62 0 8 4 17 9 20 5 3 12 18 15 33
6 25 42 109 65 153 5 9 12 30 15 48 4 17 12 34 17 37 12 8 12 38 0 33 -5 -1
-70 -61 -144 -133 -75 -71 -188 -177 -252 -235 -65 -58 -132 -118 -150 -135
-18 -16 -72 -64 -120 -105 -47 -41 -111 -96 -141 -122 -59 -52 -95 -66 -51
-20 15 15 27 32 27 36 0 5 14 25 30 45 31 37 38 45 55 73 6 9 41 63 80 120 38
57 74 111 80 120 11 20 111 177 137 217 10 14 21 33 25 41 4 8 11 20 15 25 22
27 98 147 98 155 0 6 4 10 8 10 5 0 35 53 66 118 32 64 62 125 67 135 20 38
-12 12 -107 -88z m-1409 -3055 c38 -6 72 -15 75 -19 3 -5 16 -12 30 -16 31 -9
87 -51 120 -89 43 -50 63 -98 64 -156 1 -75 -28 -133 -108 -212 -65 -65 -159
-119 -253 -148 -45 -14 -42 -15 -160 36 -17 8 -34 14 -39 14 -4 0 -22 11 -40
25 -18 14 -37 25 -42 25 -18 0 -142 130 -142 149 0 11 -4 23 -10 26 -5 3 -10
30 -10 60 0 137 147 287 298 302 29 3 55 10 58 15 6 10 38 8 159 -12z"/>
<path d="M13544 4752 c-48 -44 -236 -208 -278 -243 -17 -13 -57 -49 -91 -79
-33 -30 -88 -77 -120 -105 -33 -27 -85 -72 -115 -100 -31 -27 -70 -61 -86 -74
-16 -14 -65 -56 -110 -95 -120 -106 -295 -258 -328 -286 -17 -14 -55 -47 -86
-75 -31 -27 -83 -72 -115 -100 -32 -27 -88 -76 -124 -107 -36 -32 -68 -58 -72
-58 -4 0 -10 21 -12 48 -11 93 -24 158 -40 192 -21 48 -97 123 -144 142 -94
38 -165 49 -178 28 -3 -5 -15 -10 -26 -10 -11 0 -56 -17 -102 -39 -129 -60
-154 -71 -166 -71 -6 0 -11 -4 -11 -10 0 -5 -5 -10 -11 -10 -29 0 -119 -55
-160 -97 -45 -47 -79 -106 -79 -136 0 -9 -4 -18 -9 -21 -5 -4 -12 -24 -16 -46
-4 -22 -11 -42 -16 -46 -5 -3 -9 -16 -9 -29 0 -13 -4 -27 -10 -30 -5 -3 -12
-28 -16 -56 -4 -27 -11 -52 -15 -55 -13 -7 -11 -101 2 -143 22 -70 57 -135 99
-184 26 -31 104 -87 121 -87 5 0 9 -4 9 -9 0 -5 15 -13 33 -16 17 -4 37 -11
42 -15 27 -21 135 -27 263 -15 42 4 72 3 72 -2 0 -24 -325 -213 -365 -213 -6
0 -34 -11 -61 -25 -27 -14 -59 -25 -71 -25 -13 0 -23 -4 -23 -9 0 -5 -19 -11
-42 -15 -23 -4 -47 -10 -53 -14 -15 -11 -74 -30 -120 -38 -22 -3 -44 -10 -50
-14 -5 -4 -35 -11 -65 -15 -30 -4 -61 -11 -70 -15 -15 -9 -123 -29 -195 -37
-22 -2 -49 -8 -60 -13 -27 -13 -209 -29 -464 -42 -288 -14 -714 9 -941 51 -30
6 -91 16 -135 23 -44 7 -84 16 -90 19 -5 4 -32 10 -60 13 -27 4 -63 11 -80 16
-16 5 -57 17 -90 26 -33 10 -64 21 -70 25 -5 4 -27 10 -47 14 -21 4 -38 11
-38 16 0 5 -8 9 -18 9 -37 0 -227 108 -362 206 -82 59 -194 192 -234 277 -24
53 -51 47 -86 -18 -15 -28 -31 -66 -35 -85 -4 -19 -10 -39 -14 -45 -6 -10 -28
-97 -37 -150 -3 -16 -9 -39 -14 -50 -22 -47 -33 -196 -33 -425 0 -230 9 -344
32 -395 42 -95 70 -145 96 -173 32 -35 109 -92 126 -92 5 0 9 -4 9 -10 0 -5 5
-10 11 -10 5 0 35 -11 64 -25 30 -13 67 -27 82 -31 16 -4 33 -10 38 -14 6 -5
39 -13 75 -19 134 -24 155 -28 170 -34 33 -14 465 -31 780 -31 309 1 704 15
775 29 37 8 139 21 270 35 55 6 107 14 115 17 8 4 49 12 90 19 41 7 95 18 120
24 25 6 70 16 100 22 30 6 60 14 65 18 6 5 31 11 58 15 26 4 50 11 53 16 3 5
16 9 29 9 13 0 27 5 30 10 3 6 14 10 23 10 9 0 29 6 43 14 14 7 38 16 54 20
16 4 54 19 85 33 102 47 118 53 129 53 6 0 11 4 11 9 0 5 14 12 30 16 17 4 30
11 30 16 0 5 4 9 10 9 13 0 114 62 118 72 2 4 8 8 14 8 24 0 183 159 246 245
4 6 19 27 35 47 15 20 27 40 27 44 0 4 6 15 14 23 13 14 30 46 102 178 12 24
30 64 40 90 10 27 24 59 31 73 7 14 13 33 13 43 0 9 5 17 10 17 6 0 10 11 10
24 0 14 4 27 9 30 5 4 12 29 16 56 4 27 11 52 15 55 5 3 12 30 15 60 4 31 11
57 15 60 5 3 11 33 15 67 4 35 11 68 15 73 11 14 21 101 25 215 l3 95 44 40
c42 38 161 142 224 194 16 14 63 54 105 90 42 36 134 115 205 176 71 60 149
127 174 150 25 22 72 63 105 90 33 28 82 70 111 95 42 37 148 129 251 216 12
11 77 66 145 124 67 58 144 125 171 150 l48 45 -3 62 -3 62 -41 -37z"/>
<path d="M10819 4750 c-34 -18 -67 -52 -159 -165 -69 -85 -114 -138 -150 -180
-124 -142 -150 -182 -150 -234 0 -33 47 -122 87 -166 10 -11 33 -39 52 -63 34
-44 190 -172 248 -204 32 -19 103 -25 103 -9 0 5 12 11 28 14 27 6 172 149
255 254 21 26 50 62 63 78 70 85 114 163 114 203 0 36 -5 45 -42 74 -57 44
-243 233 -293 297 -47 61 -104 121 -113 121 -4 -1 -23 -9 -43 -20z"/>
<path d="M6899 3934 c-33 -18 -56 -42 -80 -82 -29 -50 -134 -211 -171 -266
-15 -22 -64 -86 -78 -103 -32 -38 -73 -132 -74 -170 -1 -35 5 -48 33 -77 19
-20 39 -36 44 -36 4 0 29 -18 55 -39 45 -37 205 -141 218 -141 3 0 22 -8 41
-17 28 -13 39 -14 54 -5 10 7 25 12 32 12 12 0 233 219 284 282 27 33 66 98
94 158 12 25 26 53 30 62 5 10 9 36 9 58 0 35 -7 47 -67 111 -94 99 -305 258
-343 259 -9 0 -20 4 -25 9 -6 6 -27 1 -56 -15z"/>
<path d="M13085 3911 c-158 -39 -350 -202 -477 -406 -53 -85 -152 -274 -208
-400 -52 -115 -154 -321 -176 -356 -13 -21 -24 -41 -24 -43 0 -2 18 -2 40 1
56 8 51 -10 -12 -42 -72 -36 -180 -118 -227 -171 -31 -36 -151 -256 -151 -278
0 -7 -60 -106 -75 -123 -5 -7 -26 -34 -45 -60 -44 -60 -326 -342 -449 -448
-130 -113 -236 -206 -446 -390 -236 -208 -477 -428 -602 -551 -94 -91 -114
-128 -75 -140 9 -3 27 -10 38 -16 36 -17 219 15 419 72 22 7 65 17 95 24 30 7
62 15 70 18 14 6 85 22 155 35 17 3 35 9 40 13 6 4 35 11 65 15 30 4 60 11 65
15 6 4 31 11 57 14 52 8 86 21 171 68 48 27 78 61 132 147 6 9 27 43 48 75 21
32 43 68 48 80 9 22 31 58 39 66 7 7 134 265 160 325 12 28 36 82 55 120 18
39 36 78 39 88 3 9 14 20 23 24 10 3 42 17 71 29 29 13 56 24 60 24 4 0 19 6
33 14 14 7 38 16 52 20 24 6 64 22 174 72 17 8 34 14 37 14 3 0 29 11 58 24
29 13 69 29 88 37 82 33 262 129 342 182 172 114 389 329 511 508 78 115 257
405 257 418 0 5 3 11 8 13 4 2 18 23 31 48 63 119 211 300 246 300 5 0 30 10
54 23 42 21 46 27 83 122 22 55 46 114 54 132 8 17 14 35 14 41 0 5 7 23 15
38 14 28 14 29 -13 37 -15 4 -72 15 -127 22 -135 20 -278 42 -345 54 -341 60
-339 60 -405 59 -33 0 -73 -3 -90 -7z m-44 -405 c67 -18 79 -22 154 -56 160
-73 255 -122 255 -133 0 -18 -166 -177 -250 -239 -135 -99 -350 -221 -430
-242 -14 -4 -34 -11 -45 -16 -11 -5 -47 -16 -80 -25 -33 -9 -71 -21 -85 -26
-22 -8 -72 -20 -152 -36 -15 -3 -35 -2 -44 1 -14 5 -12 12 12 54 15 26 39 70
52 97 13 28 54 111 89 185 92 190 137 263 206 332 67 67 155 113 221 117 23 1
67 -5 97 -13z"/>
</g>
</svg>
