<svg xmlns="http://www.w3.org/2000/svg" width="1341" height="886" viewBox="0 0 1341 886" version="1.1"><path d="M 211.049 342.806 C 207.997 345.999, 203.116 352.473, 200.203 357.193 C 197.289 361.912, 192.879 370.212, 190.402 375.637 C 186.698 383.749, 185.977 386.270, 186.336 389.836 C 186.658 393.029, 187.660 395.102, 190.137 397.705 C 191.987 399.648, 194.963 401.866, 196.750 402.633 C 198.537 403.399, 199.995 404.358, 199.989 404.763 C 199.984 405.169, 186.596 421.515, 170.239 441.090 C 153.883 460.664, 135.325 483.069, 129 490.878 C 122.675 498.688, 113.083 510.347, 107.684 516.789 C 102.286 523.230, 96.629 529.850, 95.114 531.500 C 93.598 533.150, 76.640 553.321, 57.429 576.325 C 38.218 599.329, 20.589 620.479, 18.253 623.325 C 15.917 626.171, 13.730 629.962, 13.392 631.750 C 13.054 633.538, 13.073 636.575, 13.434 638.500 C 13.795 640.425, 14.490 642, 14.978 642 C 15.466 642, 23.429 633.112, 32.673 622.250 C 41.918 611.388, 60.061 590.097, 72.991 574.937 C 85.921 559.777, 101.981 540.652, 108.680 532.437 C 115.380 524.222, 125.505 512.284, 131.180 505.908 C 136.856 499.533, 145.185 489.858, 149.690 484.408 C 154.194 478.959, 164.971 465.950, 173.638 455.500 C 182.305 445.050, 193.916 431.325, 199.439 425 C 204.963 418.675, 214.667 408.325, 221.003 402 C 227.340 395.675, 237.362 386.522, 243.275 381.659 C 249.189 376.797, 254.471 371.989, 255.013 370.975 C 255.662 369.763, 255.662 368.242, 255.015 366.540 C 254.473 365.115, 253.407 363.710, 252.645 363.417 C 251.883 363.125, 247.038 365.452, 241.880 368.589 C 236.721 371.726, 230.700 375.117, 228.500 376.125 C 226.300 377.132, 223.023 377.966, 221.218 377.978 C 219.413 377.990, 216.263 377.301, 214.218 376.447 C 212.173 375.593, 209.262 373.709, 207.750 372.260 C 206.238 370.811, 205 368.569, 205 367.278 C 205 365.986, 205.739 363.802, 206.642 362.424 C 207.545 361.046, 210.219 358.784, 212.585 357.397 C 215.076 355.938, 218.490 354.860, 220.693 354.837 C 222.787 354.816, 227.581 355.965, 231.347 357.391 L 238.194 359.984 237.487 353.742 C 237.098 350.309, 236.181 346.047, 235.450 344.272 C 234.719 342.496, 232.631 340.136, 230.810 339.026 C 228.562 337.655, 225.751 337.006, 222.049 337.004 L 216.598 337 211.049 342.806 M 1311.154 470.564 C 1308.869 473.075, 1306.983 475.437, 1306.962 475.814 C 1306.941 476.191, 1301.551 482.800, 1294.985 490.500 C 1288.419 498.200, 1264.957 526.100, 1242.848 552.500 C 1220.739 578.900, 1202.210 601.658, 1201.672 603.074 C 1201.135 604.489, 1200.997 606.852, 1201.366 608.324 C 1201.736 609.796, 1202.394 611, 1202.829 611 C 1203.264 611, 1218.218 593.851, 1236.060 572.891 C 1253.902 551.932, 1270.075 532.841, 1272 530.467 C 1273.925 528.093, 1277.725 523.304, 1280.445 519.825 C 1283.165 516.346, 1290.140 507.975, 1295.945 501.222 C 1301.750 494.469, 1308.862 486.251, 1311.750 482.961 L 1317 476.978 1317 471.489 C 1317 468.470, 1316.619 466, 1316.154 466 C 1315.688 466, 1313.438 468.054, 1311.154 470.564" stroke="none" fill="#eb1c3b" fill-rule="evenodd"/><path d="M 399.105 346.968 C 394.535 353.551, 387.024 363.338, 382.413 368.718 C 377.802 374.098, 374.023 378.953, 374.015 379.507 C 374.007 380.060, 375.111 385.460, 376.469 391.507 C 377.827 397.553, 379.644 407.225, 380.508 413 C 381.371 418.775, 382.712 431.600, 383.486 441.500 C 384.261 451.400, 385.393 471.425, 386.003 486 C 386.613 500.575, 387.765 517.773, 388.562 524.218 C 389.360 530.663, 391.119 539.438, 392.471 543.718 C 393.824 547.998, 396.217 553.525, 397.790 556 C 399.362 558.475, 402.316 561.960, 404.352 563.744 C 406.389 565.528, 409.758 567.856, 411.838 568.917 C 413.918 569.978, 418.358 571.556, 421.704 572.423 C 426.090 573.560, 432.493 573.996, 444.644 573.984 C 457.576 573.972, 463.686 573.507, 470.890 571.987 C 476.054 570.897, 483.681 568.369, 487.838 566.370 C 492.552 564.102, 497.332 560.798, 500.541 557.590 C 503.506 554.624, 507.005 549.680, 508.801 545.917 C 510.514 542.327, 512.495 536.340, 513.202 532.612 L 514.488 525.834 515.607 535.667 C 516.223 541.075, 517.720 548.086, 518.934 551.247 C 520.233 554.629, 523.152 559.193, 526.029 562.341 C 529.290 565.910, 533.011 568.657, 537.209 570.595 L 543.500 573.500 564 573.497 C 579.431 573.495, 586.972 573.046, 594.500 571.682 C 600 570.686, 609.450 568.601, 615.500 567.049 C 621.550 565.497, 634.375 562.103, 644 559.508 C 653.625 556.913, 664.425 554.019, 668 553.078 L 674.500 551.366 677.383 545.933 C 678.969 542.945, 682.954 536.102, 686.238 530.726 C 689.523 525.350, 695.102 517.118, 698.636 512.432 C 702.171 507.745, 704.827 503.529, 704.538 503.062 C 704.250 502.595, 700.523 503.290, 696.257 504.607 C 691.991 505.923, 683.550 507.882, 677.500 508.959 C 671.450 510.037, 659.975 511.443, 652 512.084 C 644.025 512.725, 633.450 512.980, 628.500 512.652 C 623.550 512.323, 616.800 511.346, 613.500 510.480 C 610.200 509.614, 605.171 507.842, 602.325 506.542 C 599.479 505.243, 595.056 502.250, 592.498 499.891 C 589.940 497.533, 587.153 494.262, 586.305 492.623 C 585.457 490.983, 584.731 487.481, 584.691 484.841 C 584.632 480.939, 585.183 479.333, 587.631 476.270 C 589.288 474.196, 592.755 471.068, 595.334 469.317 C 597.914 467.567, 602.607 465.162, 605.762 463.974 C 608.918 462.786, 614.650 461.139, 618.500 460.314 C 623.518 459.240, 629.464 458.932, 639.500 459.228 C 651.236 459.575, 654.306 460.002, 658.488 461.870 C 661.231 463.095, 664.493 465.054, 665.738 466.223 C 666.982 467.392, 668 469.170, 668 470.174 C 668 471.178, 668.662 472, 669.472 472 C 670.400 472, 671.550 469.915, 672.585 466.356 C 673.768 462.288, 674.106 458.167, 673.796 451.606 C 673.450 444.274, 672.851 441.499, 670.723 437.362 C 669.269 434.536, 666.185 430.602, 663.869 428.620 C 661.553 426.638, 657.148 424.026, 654.079 422.815 C 649.648 421.068, 646.442 420.614, 638.500 420.612 C 629.999 420.610, 627.469 421.014, 621.623 423.308 C 617.840 424.792, 611.871 428.057, 608.359 430.563 C 604.846 433.070, 599.750 437.791, 597.035 441.054 C 594.319 444.318, 590.294 450.028, 588.091 453.744 C 585.888 457.460, 582.966 463.481, 581.598 467.124 C 580.231 470.768, 578.364 477.438, 577.450 481.948 C 576.280 487.724, 575.908 493.453, 576.191 501.324 C 576.512 510.223, 577.036 513.390, 578.764 516.869 L 580.933 521.237 565.217 520.772 C 551.944 520.380, 548.567 519.949, 543.500 518.005 C 539.876 516.615, 535.861 514.076, 533.361 511.594 C 530.506 508.759, 528.722 505.802, 527.611 502.061 C 526.581 498.594, 526 492.888, 526 486.249 L 526 475.861 523.893 476.180 C 522.131 476.448, 521.399 478.030, 519.437 485.814 C 518.145 490.936, 516.019 497.464, 514.711 500.320 C 513.404 503.176, 510.854 506.992, 509.045 508.801 C 507.236 510.610, 503.674 513.143, 501.128 514.431 C 498.583 515.719, 492.675 517.590, 488 518.588 C 481.341 520.011, 474.844 520.414, 458 520.452 C 439.677 520.493, 435.692 520.228, 431.033 518.659 C 428.026 517.646, 423.913 515.630, 421.894 514.178 C 419.875 512.727, 417.226 510.084, 416.007 508.305 C 414.788 506.526, 413.080 503.142, 412.212 500.785 C 410.842 497.063, 410.691 491.050, 411.067 455 C 411.305 432.175, 411.399 398.650, 411.276 380.500 C 411.153 362.350, 410.780 344.688, 410.446 341.250 C 410.068 337.347, 409.385 335, 408.627 335 C 407.959 335, 403.674 340.386, 399.105 346.968 M 738.492 342.250 C 735.851 346.238, 731.657 352.200, 729.172 355.500 C 726.687 358.800, 721.321 365.442, 717.247 370.260 L 709.840 379.020 711.934 388.260 C 713.086 393.342, 714.708 401.325, 715.540 406 C 716.371 410.675, 717.718 421.250, 718.533 429.500 C 719.348 437.750, 720.907 461.825, 721.998 483 C 723.089 504.175, 724.255 523.525, 724.589 526 C 724.923 528.475, 726.088 534.092, 727.179 538.482 C 728.269 542.873, 730.237 548.739, 731.553 551.520 C 732.868 554.300, 735.569 558.473, 737.556 560.794 C 739.543 563.115, 743.118 566.157, 745.503 567.554 C 747.887 568.951, 752.911 570.977, 756.669 572.056 C 761.562 573.462, 766.762 574.041, 775 574.098 C 783.233 574.155, 787.759 573.721, 790.931 572.569 C 793.369 571.685, 796.744 569.907, 798.432 568.620 C 800.120 567.332, 803.216 564.528, 805.312 562.389 C 807.408 560.250, 810.647 555.350, 812.509 551.500 C 814.372 547.650, 817.322 539.325, 819.064 533 C 820.807 526.675, 822.882 519.089, 823.676 516.143 C 824.469 513.196, 825.269 510.946, 825.453 511.143 C 825.637 511.339, 825.170 514.425, 824.415 518 C 823.660 521.575, 823.037 528.550, 823.031 533.500 C 823.021 540.956, 823.438 543.399, 825.458 547.737 C 826.799 550.618, 829.999 555.223, 832.569 557.971 C 835.139 560.718, 839.623 564.547, 842.533 566.478 C 845.443 568.410, 851.192 571.339, 855.309 572.987 C 859.425 574.635, 865.956 576.649, 869.821 577.462 C 873.686 578.275, 880.399 579.237, 884.740 579.599 C 891.560 580.167, 893.296 579.963, 897.529 578.090 C 900.223 576.899, 903.297 575.153, 904.360 574.212 C 905.423 573.270, 907.732 570.250, 909.491 567.500 C 911.250 564.750, 913.659 559.601, 914.844 556.059 C 916.029 552.516, 917.493 545.766, 918.097 541.059 C 918.702 536.351, 919.456 531.375, 919.774 530 C 920.176 528.256, 920.569 529.465, 921.074 534 C 921.472 537.575, 922.778 543.425, 923.977 547 C 925.175 550.575, 927.510 555.625, 929.164 558.222 C 930.819 560.820, 933.722 564.304, 935.614 565.966 C 937.507 567.628, 940.956 570.003, 943.278 571.244 L 947.500 573.500 965.500 573.500 C 979.443 573.500, 985.190 573.092, 991 571.690 C 995.125 570.694, 1001.650 568.356, 1005.500 566.495 C 1009.350 564.634, 1014.113 561.765, 1016.084 560.119 C 1018.056 558.474, 1021.314 554.736, 1023.325 551.814 C 1025.336 548.891, 1027.889 543.914, 1028.998 540.753 C 1030.108 537.592, 1031.410 532.642, 1031.891 529.753 L 1032.766 524.500 1032.891 529.500 C 1032.959 532.250, 1033.474 537.327, 1034.035 540.783 C 1034.595 544.238, 1036.136 549.512, 1037.459 552.502 C 1038.781 555.493, 1041.926 560.145, 1044.447 562.840 C 1047.284 565.873, 1051.408 568.839, 1055.266 570.620 L 1061.500 573.500 1078.625 573.831 C 1092.353 574.096, 1098.106 573.761, 1107.630 572.143 C 1114.165 571.034, 1123.784 568.705, 1129.006 566.968 C 1134.228 565.231, 1142.196 562.090, 1146.714 559.987 C 1151.232 557.884, 1159.107 553.362, 1164.214 549.939 C 1169.321 546.516, 1178.450 539.811, 1184.500 535.039 C 1190.550 530.266, 1198.232 524.291, 1201.570 521.761 C 1204.909 519.230, 1210.534 515.589, 1214.070 513.668 C 1217.607 511.748, 1222.750 509.425, 1225.500 508.507 C 1228.250 507.589, 1233.150 506.537, 1236.388 506.169 L 1242.277 505.500 1246.388 498.766 C 1248.650 495.063, 1253.425 488.149, 1257 483.402 C 1260.575 478.656, 1263.950 474.136, 1264.500 473.358 C 1265.196 472.374, 1265.113 471.701, 1264.229 471.149 C 1263.529 470.713, 1260.604 470.265, 1257.729 470.154 C 1254.853 470.043, 1248.900 469.253, 1244.500 468.399 C 1240.100 467.544, 1232.335 465.729, 1227.245 464.364 C 1222.155 463, 1210.455 459.163, 1201.245 455.838 C 1192.035 452.513, 1177.439 447.372, 1168.809 444.414 C 1160.180 441.457, 1149.830 438.526, 1145.809 437.902 C 1141.789 437.278, 1135.940 437, 1132.810 437.284 C 1129.681 437.567, 1124.993 438.857, 1122.393 440.150 C 1119.632 441.522, 1116.035 444.559, 1113.747 447.448 C 1111.592 450.170, 1108.576 454.895, 1107.045 457.948 C 1105.513 461.002, 1103.106 466.875, 1101.696 471 C 1100.285 475.125, 1098.232 481.755, 1097.134 485.733 C 1095.707 490.901, 1095.457 493.164, 1096.256 493.659 C 1096.872 494.039, 1097.854 493.514, 1098.438 492.491 C 1099.022 491.468, 1101.198 488.740, 1103.273 486.429 C 1105.404 484.055, 1109.320 481.241, 1112.273 479.961 C 1115.430 478.593, 1120.369 477.506, 1124.745 477.217 C 1128.729 476.953, 1134.804 477.280, 1138.245 477.943 C 1141.685 478.606, 1148.100 480.191, 1152.500 481.465 C 1156.900 482.738, 1167.202 485.871, 1175.393 488.427 C 1183.583 490.983, 1194.383 494.150, 1199.393 495.467 C 1204.402 496.783, 1211.313 498.400, 1214.750 499.060 C 1218.188 499.720, 1220.994 500.539, 1220.988 500.880 C 1220.981 501.221, 1217.268 502.769, 1212.738 504.320 C 1208.207 505.871, 1200.225 508.462, 1195 510.077 C 1189.775 511.692, 1180.550 513.903, 1174.500 514.988 C 1168.450 516.074, 1156.525 517.721, 1148 518.648 C 1136.950 519.849, 1123.170 520.357, 1100 520.417 L 1067.500 520.500 1061.500 518.102 C 1058.021 516.711, 1053.761 513.977, 1051.361 511.594 C 1048.506 508.759, 1046.722 505.802, 1045.611 502.061 C 1044.581 498.594, 1044 492.888, 1044 486.249 L 1044 475.861 1041.893 476.180 C 1040.131 476.448, 1039.399 478.030, 1037.437 485.814 C 1036.145 490.936, 1034.019 497.464, 1032.711 500.320 C 1031.404 503.176, 1028.854 506.992, 1027.045 508.801 C 1025.236 510.610, 1021.674 513.143, 1019.128 514.431 C 1016.583 515.719, 1010.675 517.592, 1006 518.593 C 999.360 520.015, 992.902 520.423, 976.485 520.457 L 955.469 520.500 948.784 517.211 C 944.204 514.959, 940.428 512.078, 936.797 508.065 C 933.881 504.843, 929.520 498.447, 927.105 493.853 C 924.691 489.259, 920.225 481.277, 917.180 476.115 C 914.135 470.953, 909.216 464.107, 906.250 460.903 C 902.981 457.373, 898.617 453.977, 895.178 452.288 C 890.242 449.864, 888.324 449.500, 880.500 449.500 L 871.500 449.500 865.781 452.308 C 862.099 454.116, 858.064 457.322, 854.452 461.308 C 851.367 464.714, 846.678 471.100, 844.034 475.500 C 841.389 479.900, 837.546 486.875, 835.495 491 C 833.444 495.125, 831.592 498.689, 831.379 498.921 C 831.166 499.152, 829.952 498.364, 828.682 497.171 C 827.411 495.977, 825.950 495.004, 825.436 495.008 C 824.921 495.013, 822.946 497.943, 821.046 501.519 C 819.147 505.095, 815.813 509.873, 813.638 512.137 C 811.463 514.401, 807.617 517.208, 805.091 518.376 L 800.500 520.500 786 520.450 L 771.500 520.400 765.581 518.065 C 762.326 516.781, 757.730 513.949, 755.368 511.772 C 752.670 509.284, 750.230 505.711, 748.803 502.157 L 746.532 496.500 747.016 461.500 C 747.282 442.250, 747.465 409.850, 747.422 389.500 C 747.379 369.150, 747.001 348.563, 746.582 343.750 C 746.061 337.769, 745.421 335, 744.557 335 C 743.862 335, 741.133 338.262, 738.492 342.250 M 1296.492 342.250 C 1293.851 346.238, 1289.657 352.200, 1287.172 355.500 C 1284.687 358.800, 1279.318 365.446, 1275.241 370.268 L 1267.827 379.036 1269.381 388.768 C 1270.236 394.121, 1271.614 404.350, 1272.443 411.500 C 1273.272 418.650, 1274.415 428.775, 1274.982 434 C 1275.550 439.225, 1277.136 455.317, 1278.507 469.760 C 1279.878 484.203, 1281 498.041, 1281 500.510 C 1281 502.980, 1281.437 505, 1281.971 505 C 1282.504 505, 1288.467 498.387, 1295.221 490.305 L 1307.500 475.609 1307.322 447.555 C 1307.224 432.125, 1306.661 404.200, 1306.070 385.500 C 1305.479 366.800, 1304.719 347.788, 1304.380 343.250 C 1303.965 337.703, 1303.359 335, 1302.528 335 C 1301.849 335, 1299.133 338.262, 1296.492 342.250 M 970.167 360.358 C 968.504 363.305, 963.471 369.595, 958.983 374.337 L 950.822 382.958 959.554 391.229 C 964.357 395.778, 969.122 400.088, 970.143 400.807 C 971.164 401.525, 972 402.593, 972 403.180 C 972 403.766, 970.018 407.003, 967.595 410.373 C 965.172 413.743, 960.368 419.336, 956.920 422.803 L 950.651 429.106 953.076 431.448 C 954.409 432.736, 960.161 438.112, 965.857 443.395 C 971.553 448.678, 976.667 453, 977.222 453 C 977.776 453, 981.815 449.512, 986.197 445.250 C 990.579 440.988, 995.927 434.861, 998.082 431.636 C 1000.237 428.411, 1002 425.197, 1002 424.494 C 1002 423.791, 997.077 419.234, 991.060 414.368 L 980.121 405.520 987.403 398.010 C 991.408 393.879, 996.385 387.927, 998.462 384.783 C 1000.540 381.639, 1002.001 378.445, 1001.710 377.686 C 1001.419 376.927, 995.251 371.513, 988.003 365.653 C 980.756 359.794, 974.458 355, 974.008 355 C 973.559 355, 971.830 357.411, 970.167 360.358 M 212.080 420.492 C 205.986 427.912, 201 434.550, 201 435.243 C 201 435.936, 203.033 437.582, 205.517 438.900 C 208.001 440.217, 213.614 444.717, 217.991 448.898 L 225.948 456.500 215.498 469 C 209.751 475.875, 205.038 482.020, 205.024 482.655 C 205.011 483.290, 207.411 485.170, 210.358 486.833 C 213.305 488.496, 219.560 493.496, 224.260 497.944 L 232.803 506.032 238.760 499.766 C 242.037 496.320, 247.368 490.639, 250.609 487.142 C 253.849 483.645, 256.629 480.446, 256.787 480.032 C 256.944 479.619, 253.925 475.910, 250.078 471.791 C 246.231 467.672, 240.590 462.584, 237.542 460.484 C 234.494 458.385, 232 456.324, 232 455.904 C 232 455.484, 236.704 450.086, 242.453 443.909 L 252.907 432.678 251.036 430.050 C 250.007 428.605, 246.448 424.777, 243.128 421.542 C 239.807 418.308, 234.290 413.713, 230.868 411.331 C 227.445 408.949, 224.310 407, 223.902 407 C 223.494 407, 218.174 413.071, 212.080 420.492 M 344.674 418.750 C 344.430 419.163, 342.989 422.650, 341.471 426.500 C 339.954 430.350, 336.254 438.450, 333.250 444.500 C 330.245 450.550, 326.710 456.932, 325.394 458.683 C 324.077 460.434, 323 462.060, 323 462.296 C 323 462.532, 326.262 465.142, 330.250 468.096 C 334.238 471.049, 341.445 477.257, 346.266 481.891 C 351.088 486.525, 355.982 491.853, 357.143 493.732 C 358.856 496.504, 359.050 497.595, 358.171 499.524 C 357.468 501.068, 354.183 503.304, 348.794 505.908 C 344.232 508.113, 335.144 511.295, 328.598 512.980 C 322.052 514.665, 311.252 516.914, 304.598 517.978 C 297.944 519.043, 285.300 520.443, 276.500 521.091 C 265.865 521.874, 248.093 522.063, 223.500 521.654 C 203.150 521.317, 180.200 520.570, 172.500 519.995 C 164.800 519.420, 154.950 518.481, 150.612 517.908 C 146.274 517.335, 139.749 515.742, 136.112 514.368 C 132.475 512.993, 128.811 511.647, 127.968 511.375 C 126.924 511.038, 122.314 515.845, 113.468 526.498 C 106.336 535.088, 100.360 542.964, 100.188 544.001 C 99.983 545.237, 102.224 548.249, 106.688 552.739 C 111.101 557.179, 115.966 560.854, 120.500 563.173 C 124.350 565.142, 129.750 567.474, 132.500 568.355 C 135.250 569.236, 143.350 570.630, 150.500 571.454 C 157.650 572.277, 178.125 573.653, 196 574.511 C 213.875 575.370, 233.675 576.004, 240 575.920 C 246.325 575.837, 258.700 575.187, 267.500 574.476 C 276.300 573.766, 287.550 572.420, 292.500 571.486 C 297.450 570.552, 305.100 568.740, 309.500 567.461 C 313.900 566.181, 320.200 563.936, 323.500 562.473 C 326.800 561.009, 332.495 557.823, 336.155 555.392 C 339.815 552.962, 345.302 548.281, 348.348 544.991 C 351.394 541.701, 355.487 535.744, 357.444 531.754 C 359.401 527.764, 361.933 520.900, 363.072 516.500 C 364.310 511.717, 365.373 503.582, 365.716 496.269 C 366.059 488.952, 365.805 480.315, 365.083 474.769 C 364.419 469.671, 362.746 461, 361.365 455.500 C 359.984 450, 356.299 439.313, 353.177 431.750 C 350.055 424.188, 346.964 418.001, 346.309 418 C 345.654 418, 344.918 418.337, 344.674 418.750 M 99.678 461.750 C 97.671 468.212, 95.306 477.100, 94.424 481.500 C 93.541 485.900, 92.579 496.475, 92.286 505 C 91.936 515.177, 92.163 522.475, 92.947 526.250 C 93.604 529.413, 94.452 532, 94.830 532 C 95.209 532, 96.044 531.159, 96.687 530.130 C 97.329 529.102, 102.162 523.277, 107.427 517.187 C 112.692 511.097, 117 505.943, 117 505.736 C 117 505.528, 115.069 503.343, 112.709 500.880 C 110.349 498.417, 107.537 494.624, 106.459 492.451 C 104.813 489.130, 104.512 486.506, 104.577 476 C 104.629 467.652, 105.210 461.459, 106.327 457.356 C 107.247 453.976, 108 450.939, 108 450.606 C 108 450.273, 106.949 450, 105.664 450 L 103.327 450 99.678 461.750 M 858.132 488.078 C 855.729 488.550, 851.859 489.858, 849.532 490.985 C 847.205 492.111, 843.658 494.676, 841.650 496.683 C 839.643 498.691, 838 500.887, 838 501.563 C 838 502.239, 839.467 504.077, 841.259 505.646 C 843.052 507.216, 846.845 509.989, 849.688 511.809 C 852.532 513.629, 858.694 516.682, 863.383 518.593 C 868.072 520.505, 876.091 522.988, 881.204 524.111 C 887.723 525.544, 893.093 526.056, 899.178 525.827 C 906.177 525.563, 908.403 525.085, 910.678 523.357 C 912.690 521.829, 913.443 520.442, 913.301 518.528 C 913.191 517.050, 912.147 513.869, 910.980 511.459 C 909.813 509.048, 906.367 504.584, 903.322 501.540 C 899.918 498.136, 895.035 494.654, 890.643 492.501 C 886.714 490.574, 881.076 488.548, 878.114 487.999 C 875.151 487.449, 870.426 487.049, 867.614 487.110 C 864.801 487.170, 860.534 487.605, 858.132 488.078 M 1294.324 502.905 C 1287.641 510.826, 1282.305 518.025, 1282.466 518.903 C 1282.627 519.781, 1283.052 525.675, 1283.411 532 C 1283.770 538.325, 1284.274 550.700, 1284.532 559.500 C 1284.790 568.300, 1285.001 576.550, 1285.001 577.833 C 1285 579.117, 1285.505 579.998, 1286.123 579.792 C 1286.741 579.586, 1289.695 572.461, 1292.688 563.959 C 1295.682 555.457, 1298.992 545.777, 1300.044 542.449 C 1301.097 539.120, 1302.618 532.946, 1303.425 528.727 C 1304.232 524.508, 1305.414 514.594, 1306.052 506.695 C 1306.689 498.796, 1307.045 491.472, 1306.842 490.419 C 1306.566 488.983, 1303.434 492.107, 1294.324 502.905 M 1120.049 608.682 C 1114.367 615.657, 1109.533 622.071, 1109.307 622.935 C 1109.032 623.985, 1111.013 625.899, 1115.262 628.693 C 1118.764 630.995, 1124.972 636.048, 1129.058 639.921 L 1136.488 646.963 1148.193 634.732 C 1154.631 628.004, 1159.921 621.978, 1159.949 621.340 C 1159.977 620.702, 1158.213 617.919, 1156.030 615.157 C 1153.846 612.395, 1149.009 607.715, 1145.280 604.758 C 1141.551 601.801, 1137.278 598.621, 1135.785 597.691 C 1134.292 596.761, 1132.465 596, 1131.725 596 C 1130.986 596, 1125.731 601.707, 1120.049 608.682 M 428 612.068 C 422.225 619.211, 417.369 625.643, 417.209 626.361 C 417.048 627.080, 419.785 629.523, 423.290 631.789 C 426.795 634.056, 433.001 639.107, 437.081 643.014 L 444.500 650.118 454.695 639.381 L 464.889 628.643 470.195 632.173 C 473.113 634.115, 478.960 638.938, 483.188 642.893 L 490.876 650.082 498.760 641.791 C 503.096 637.231, 508.571 631.374, 510.926 628.775 L 515.208 624.051 512.088 620.111 C 510.371 617.944, 506.411 613.835, 503.288 610.980 C 500.164 608.125, 495.340 604.262, 492.568 602.395 C 489.795 600.528, 486.992 599, 486.338 599 C 485.684 599, 481.085 603.910, 476.117 609.912 L 467.086 620.824 460.187 614.047 C 456.393 610.320, 450.548 605.409, 447.199 603.135 C 443.850 600.861, 440.523 599.018, 439.805 599.041 C 439.087 599.064, 433.775 604.926, 428 612.068" stroke="none" fill="#231c23" fill-rule="evenodd"/></svg>