<svg xmlns="http://www.w3.org/2000/svg" width="1341" height="886" viewBox="0 0 1341 886" version="1.1"><path d="M 1241.751 299.750 C 1229.892 313.913, 1219.247 326.494, 1218.095 327.708 C 1216.943 328.923, 1216 330.220, 1216 330.591 C 1216 330.962, 1210.487 337.788, 1203.750 345.760 C 1197.013 353.733, 1189.132 363.190, 1186.237 366.777 C 1183.343 370.364, 1180.363 373.793, 1179.616 374.399 C 1178.868 375.005, 1167.962 387.814, 1155.378 402.865 C 1142.795 417.916, 1131.150 432.023, 1129.500 434.214 C 1127.151 437.333, 1126.521 439.163, 1126.597 442.646 C 1126.650 445.092, 1127.106 447.506, 1127.610 448.010 C 1128.165 448.565, 1134.437 441.970, 1143.513 431.289 C 1151.756 421.589, 1161.462 410.243, 1165.081 406.076 C 1168.701 401.909, 1176.126 393.053, 1181.581 386.396 C 1187.037 379.738, 1197.237 367.472, 1204.250 359.138 C 1211.263 350.803, 1217 344.313, 1217 344.715 C 1217 345.116, 1217.764 344.332, 1218.698 342.973 C 1219.632 341.613, 1224.900 335.100, 1230.406 328.500 C 1235.912 321.900, 1245.657 310.425, 1252.061 303 C 1258.465 295.575, 1264.221 288.517, 1264.852 287.316 C 1265.484 286.114, 1265.994 283.639, 1265.986 281.816 C 1265.979 279.992, 1265.701 277.488, 1265.370 276.250 C 1265.038 275.012, 1264.440 274, 1264.040 274 C 1263.640 274, 1253.610 285.587, 1241.751 299.750 M 256.464 277.822 C 254.245 278.861, 250.591 281.913, 248.344 284.605 C 246.097 287.297, 241.688 293.452, 238.545 298.282 C 235.403 303.113, 230.212 312.563, 227.011 319.282 C 223.810 326.002, 220.732 333.196, 220.171 335.269 C 219.562 337.518, 219.495 340.239, 220.004 342.015 C 220.474 343.652, 221.837 346.366, 223.033 348.046 C 224.229 349.726, 227.636 352.470, 230.604 354.145 C 233.572 355.820, 236 357.762, 236 358.459 C 236 359.156, 230.504 366.201, 223.788 374.114 C 217.071 382.026, 200.308 402.016, 186.538 418.536 C 172.767 435.056, 156.100 455.215, 149.500 463.334 C 142.900 471.453, 133.075 483.362, 127.667 489.798 C 122.258 496.234, 114.530 505.325, 110.493 510 C 106.456 514.675, 93.815 529.750, 82.400 543.500 C 70.986 557.250, 54.870 576.600, 46.587 586.500 C 38.304 596.400, 27.593 609.111, 22.784 614.746 C 17.975 620.381, 13.764 626.231, 13.427 627.746 C 13.090 629.261, 12.661 631.175, 12.473 632 C 12.286 632.825, 12.442 635.263, 12.820 637.418 C 13.198 639.573, 13.992 641.497, 14.584 641.695 C 15.176 641.892, 28 627.569, 43.080 609.865 C 58.161 592.162, 79.193 567.512, 89.817 555.088 C 100.441 542.665, 114.235 526.200, 120.470 518.500 C 126.706 510.800, 135.788 499.904, 140.654 494.287 C 145.519 488.670, 156.250 476.299, 164.500 466.796 C 172.750 457.294, 183.296 444.789, 187.935 439.009 C 192.575 433.229, 202.216 421.525, 209.362 413 C 216.507 404.475, 228.461 390.551, 235.926 382.057 C 243.392 373.563, 254.636 361.476, 260.914 355.197 C 267.191 348.917, 276.906 339.891, 282.503 335.140 C 288.100 330.388, 294.772 324.793, 297.331 322.707 C 299.890 320.621, 302.263 317.800, 302.605 316.438 C 302.947 315.076, 302.671 312.620, 301.992 310.981 C 301.313 309.341, 300.092 308, 299.279 308 C 298.467 308, 295.034 309.653, 291.651 311.673 C 288.268 313.693, 282.800 317.041, 279.500 319.114 C 276.200 321.186, 272.150 323.397, 270.500 324.027 C 268.850 324.657, 264.923 325.179, 261.772 325.186 C 257.909 325.195, 254.580 324.491, 251.546 323.022 C 249.071 321.824, 245.911 319.495, 244.523 317.845 C 243.136 316.196, 242 314.048, 242 313.071 C 242 312.095, 243.019 309.783, 244.265 307.935 C 245.510 306.087, 248.323 303.334, 250.515 301.817 C 252.707 300.301, 256.411 298.645, 258.746 298.137 C 262.407 297.342, 264.304 297.671, 272.496 300.524 L 282 303.833 282 301.600 C 282 300.372, 281.512 296.697, 280.915 293.434 C 280.318 290.170, 279.131 286.015, 278.277 284.200 C 277.349 282.228, 275.172 280.108, 272.866 278.931 C 270.743 277.849, 267.092 276.731, 264.753 276.449 C 261.794 276.091, 259.272 276.509, 256.464 277.822" stroke="none" fill="#eb1c3b" fill-rule="evenodd"/><path d="M 485.695 277.250 C 484.323 279.587, 478.503 287.827, 472.762 295.560 C 467.021 303.292, 459.104 313.274, 455.167 317.742 L 448.010 325.864 450.438 336.182 C 451.774 341.857, 453.776 352.125, 454.888 359 C 456 365.875, 457.584 378.025, 458.408 386 C 459.232 393.975, 460.580 411.525, 461.404 425 C 462.228 438.475, 463.166 457.375, 463.487 467 C 463.808 476.625, 464.536 489.450, 465.103 495.500 C 465.671 501.550, 467.197 510.775, 468.496 516 C 469.794 521.225, 472.170 528.426, 473.775 532.002 C 475.380 535.578, 479.054 541.086, 481.939 544.243 C 485.627 548.278, 489.308 551.012, 494.342 553.454 C 498.279 555.363, 504.969 557.617, 509.208 558.463 C 514.065 559.431, 522.387 559.998, 531.708 559.994 C 539.844 559.991, 551 559.317, 556.500 558.498 C 562 557.678, 569.650 556.064, 573.500 554.912 C 577.350 553.759, 583.649 551.170, 587.497 549.158 C 591.345 547.146, 596.970 543.024, 599.997 539.997 C 603.024 536.970, 607.180 531.294, 609.233 527.384 C 611.286 523.473, 613.658 517.289, 614.504 513.641 C 615.349 509.993, 616.421 503.069, 616.886 498.254 L 617.730 489.500 617.829 504 C 617.895 513.511, 618.453 520.481, 619.453 524.257 C 620.292 527.423, 622.359 532.748, 624.046 536.091 C 625.733 539.433, 628.945 544.155, 631.184 546.584 C 633.423 549.013, 638.010 552.340, 641.377 553.978 C 644.745 555.617, 650.182 557.641, 653.460 558.478 C 657.301 559.459, 664.056 559.999, 672.460 559.997 C 679.632 559.996, 689.550 559.500, 694.500 558.896 C 699.450 558.292, 707.775 556.718, 713 555.399 C 718.324 554.055, 726.899 550.818, 732.508 548.035 C 738.013 545.304, 747.174 539.791, 752.867 535.784 C 758.560 531.778, 764.145 527.831, 765.280 527.014 C 766.954 525.808, 767.426 525.779, 767.786 526.858 C 768.030 527.590, 770.315 530.950, 772.865 534.325 C 775.538 537.864, 780.577 542.664, 784.770 545.666 C 788.769 548.529, 794.489 551.788, 797.482 552.907 C 800.475 554.027, 807.328 555.896, 812.712 557.060 C 820.735 558.796, 827.206 559.274, 848.597 559.712 C 865.450 560.057, 878.201 559.837, 884.597 559.089 C 890.044 558.452, 898.579 556.890, 903.564 555.618 C 908.549 554.346, 915.973 551.549, 920.063 549.402 C 924.456 547.097, 929.768 543.196, 933.047 539.868 C 936.098 536.771, 939.992 531.596, 941.700 528.368 C 943.408 525.141, 945.781 519.350, 946.973 515.500 C 948.166 511.650, 949.447 504.225, 949.821 499 L 950.499 489.500 951.125 506 C 951.610 518.818, 952.197 523.738, 953.752 528.048 C 954.853 531.100, 956.663 535.375, 957.774 537.548 C 958.885 539.722, 961.665 543.621, 963.950 546.213 C 966.483 549.087, 970.524 552.105, 974.303 553.946 C 977.711 555.607, 983.425 557.707, 987 558.613 C 992.315 559.959, 996.600 560.154, 1010.500 559.681 C 1021.916 559.292, 1030.713 558.419, 1037.281 557.024 C 1042.661 555.881, 1049.300 554.064, 1052.035 552.986 C 1054.770 551.908, 1059.932 549.179, 1063.506 546.922 C 1067.080 544.665, 1072.047 540.497, 1074.544 537.659 C 1077.040 534.822, 1080.407 529.800, 1082.025 526.500 C 1083.643 523.200, 1085.693 517.617, 1086.581 514.094 C 1087.469 510.571, 1088.542 504.721, 1088.966 501.094 L 1089.737 494.500 1089.883 505.500 C 1089.964 511.550, 1090.713 519.401, 1091.549 522.947 C 1092.385 526.493, 1094.510 532.343, 1096.273 535.947 C 1098.035 539.551, 1101.626 544.665, 1104.252 547.312 C 1106.879 549.958, 1111.385 553.200, 1114.264 554.515 C 1117.144 555.830, 1122.182 557.602, 1125.460 558.453 C 1130.430 559.743, 1139.235 559.999, 1178.460 559.996 C 1215.164 559.993, 1227.477 559.668, 1234.500 558.517 C 1239.450 557.706, 1246.875 556.104, 1251 554.958 C 1255.125 553.811, 1262.471 550.875, 1267.325 548.433 C 1272.179 545.991, 1278.219 542.569, 1280.748 540.830 C 1283.276 539.090, 1288.633 534.543, 1292.652 530.725 C 1296.671 526.907, 1302.442 520.120, 1305.475 515.642 C 1308.508 511.164, 1312.744 503.194, 1314.887 497.930 C 1317.030 492.667, 1319.608 484.792, 1320.616 480.430 C 1322.007 474.411, 1322.451 468.404, 1322.458 455.500 L 1322.468 438.500 1320.152 431 C 1318.879 426.875, 1316.333 420.789, 1314.496 417.476 C 1312.659 414.163, 1308.520 408.939, 1305.298 405.866 C 1302.077 402.794, 1297.880 399.472, 1295.971 398.484 C 1294.062 397.497, 1290.250 396.089, 1287.500 395.356 C 1284.750 394.623, 1279.095 394.018, 1274.934 394.012 C 1270.772 394.005, 1264.697 394.478, 1261.434 395.061 C 1258.170 395.645, 1251.882 397.895, 1247.461 400.062 C 1243.039 402.229, 1235.728 406.957, 1231.213 410.570 C 1226.697 414.182, 1220.088 420.370, 1216.526 424.319 C 1212.963 428.269, 1206.654 435.775, 1202.505 441 C 1198.356 446.225, 1190.852 456.575, 1185.829 464 C 1180.806 471.425, 1176.255 477.950, 1175.715 478.500 C 1175.176 479.050, 1175.996 477.250, 1177.539 474.500 C 1179.082 471.750, 1180.673 469.050, 1181.075 468.500 C 1181.477 467.950, 1185.416 461.145, 1189.829 453.378 C 1194.242 445.611, 1200.195 434.589, 1203.058 428.885 C 1205.921 423.180, 1209.817 414.235, 1211.716 409.006 C 1213.616 403.778, 1215.806 396.198, 1216.585 392.162 C 1217.510 387.367, 1218 377.981, 1218 365.079 C 1218 354.219, 1217.740 345.073, 1217.422 344.755 C 1217.104 344.437, 1212.189 349.733, 1206.500 356.523 C 1200.811 363.313, 1192.747 372.879, 1188.579 377.779 L 1181 386.690 1181.643 407.595 C 1182.073 421.560, 1181.886 431.920, 1181.080 438.803 C 1180.416 444.469, 1178.967 452.569, 1177.858 456.803 C 1176.749 461.036, 1174.432 468.068, 1172.709 472.430 C 1170.985 476.791, 1167.511 483.766, 1164.989 487.930 L 1160.402 495.500 1148.951 495.790 C 1141.239 495.985, 1135.192 495.568, 1130.429 494.512 C 1126.397 493.617, 1120.709 491.376, 1117.194 489.296 C 1113.803 487.291, 1109.918 484.041, 1108.561 482.075 C 1107.203 480.109, 1105.396 475.818, 1104.546 472.540 C 1103.558 468.733, 1103 462.140, 1103 454.290 L 1103 442 1100.658 442 L 1098.315 442 1096.050 451.250 C 1094.804 456.337, 1092.636 463.425, 1091.232 467 C 1089.829 470.575, 1087.511 475.280, 1086.082 477.455 C 1084.653 479.631, 1081.589 482.856, 1079.274 484.622 C 1076.959 486.387, 1072.463 488.810, 1069.282 490.005 C 1066.102 491.200, 1060.350 492.849, 1056.500 493.669 C 1051.848 494.660, 1040.947 495.334, 1024 495.678 C 1002.898 496.106, 997.334 495.922, 991.741 494.610 C 988.024 493.738, 982.764 491.901, 980.054 490.527 C 977.343 489.154, 973.533 486.390, 971.586 484.386 C 969.640 482.381, 967.136 478.308, 966.024 475.333 C 964.345 470.848, 964 467.531, 964 455.896 L 964 441.867 961.313 442.184 L 958.627 442.500 955.971 453.740 C 954.480 460.046, 951.697 468.252, 949.629 472.436 C 947.336 477.075, 944.404 481.210, 941.867 483.382 C 939.625 485.301, 934.800 488.069, 931.145 489.532 C 927.490 490.996, 921.350 492.885, 917.500 493.730 C 911.968 494.945, 900.908 495.361, 864.763 495.713 C 833.811 496.014, 816.691 495.796, 811.805 495.038 C 807.833 494.421, 804.398 493.732, 804.172 493.505 C 803.945 493.278, 811.817 485.084, 821.666 475.296 C 831.514 465.508, 840.752 455.925, 842.194 454 C 843.635 452.075, 846.941 444.875, 849.540 438 C 852.139 431.125, 856.246 421.541, 858.666 416.703 L 863.068 407.905 856.784 405.063 C 853.328 403.499, 846.585 400.841, 841.800 399.156 C 837.015 397.471, 827.115 394.853, 819.800 393.339 L 806.500 390.587 783.500 390.582 L 760.500 390.578 745.130 393.755 C 736.677 395.503, 723.959 398.924, 716.869 401.358 C 709.779 403.793, 702.858 406.518, 701.489 407.415 C 700.120 408.312, 699 409.755, 699 410.621 C 699 411.488, 696.705 417.890, 693.901 424.848 C 691.096 431.807, 687.200 441.006, 685.243 445.292 C 682.526 451.240, 681.960 453.360, 682.853 454.253 C 683.746 455.146, 685.144 454.994, 688.761 453.608 C 691.368 452.610, 696.929 450.516, 701.119 448.955 L 708.739 446.116 711.809 450.808 C 713.498 453.389, 720.947 463.825, 728.362 474 C 737.003 485.858, 741.423 492.729, 740.672 493.138 C 740.027 493.489, 734.301 494.277, 727.947 494.888 C 721.593 495.500, 704.718 495.993, 690.447 495.985 C 670.843 495.974, 662.934 495.601, 658.093 494.460 C 654.569 493.630, 648.987 491.512, 645.689 489.753 C 642.098 487.839, 638.546 484.975, 636.836 482.615 C 635.265 480.447, 633.310 476.415, 632.490 473.655 C 631.494 470.301, 631 464.199, 631 455.252 L 631 441.867 628.399 442.184 L 625.799 442.500 623.028 453.500 C 621.504 459.550, 618.920 467.425, 617.285 471 C 615.651 474.575, 612.502 479.352, 610.289 481.615 C 608.076 483.878, 603.843 486.875, 600.882 488.274 C 597.922 489.674, 592.800 491.517, 589.500 492.371 C 586.200 493.225, 579.199 494.431, 573.942 495.050 C 568.399 495.704, 555.375 496.005, 542.942 495.768 L 521.500 495.359 515.767 493.239 C 512.614 492.073, 508.090 489.782, 505.713 488.147 C 503.337 486.512, 500.144 483.372, 498.617 481.169 C 497.090 478.966, 494.933 474.314, 493.822 470.832 L 491.804 464.500 492.652 407 C 493.118 375.375, 493.414 344.325, 493.309 338 C 493.204 331.675, 492.815 314.462, 492.446 299.750 L 491.773 273 489.982 273 C 488.932 273, 487.157 274.760, 485.695 277.250 M 1206.500 280.763 C 1203.750 285.018, 1197.602 293.675, 1192.837 300 C 1188.072 306.325, 1181.258 314.670, 1177.693 318.545 L 1171.213 325.590 1174.004 341.045 C 1175.539 349.545, 1177.341 360.459, 1178.008 365.297 C 1178.674 370.135, 1179.584 373.960, 1180.030 373.797 C 1180.475 373.634, 1183.238 370.520, 1186.170 366.878 C 1189.101 363.236, 1197.125 353.592, 1204 345.447 L 1216.500 330.638 1216.323 316.069 C 1216.226 308.056, 1215.842 295.087, 1215.469 287.250 C 1214.885 274.955, 1214.566 273.002, 1213.146 273.013 C 1212.198 273.020, 1209.380 276.307, 1206.500 280.763 M 251 376.622 C 244.125 385.155, 238.368 392.915, 238.207 393.866 C 238.003 395.069, 240.139 397.018, 245.207 400.256 C 249.218 402.819, 255.966 408.102, 260.202 411.995 L 267.905 419.075 255.467 434.288 C 248.627 442.654, 243.023 450.185, 243.015 451.023 C 243.007 451.860, 244.680 453.435, 246.733 454.523 C 248.787 455.610, 252.949 458.470, 255.983 460.878 C 259.018 463.285, 264.687 468.374, 268.582 472.186 L 275.664 479.116 283.124 471.308 C 287.227 467.014, 293.832 460.086, 297.802 455.914 L 305.020 448.328 302.166 444.414 C 300.596 442.261, 295.905 437.275, 291.741 433.334 C 287.578 429.393, 281.836 424.596, 278.981 422.673 L 273.790 419.178 286.581 405.511 L 299.371 391.845 297.480 388.333 C 296.440 386.401, 291.969 381.409, 287.544 377.239 C 283.120 373.069, 276.496 367.710, 272.825 365.329 C 269.154 362.948, 265.554 361.024, 264.825 361.054 C 264.096 361.083, 257.875 368.089, 251 376.622 M 406.553 383.250 C 404.425 388.337, 400.450 397.225, 397.719 403 C 394.987 408.775, 390.759 416.589, 388.323 420.363 C 385.887 424.138, 384.030 427.306, 384.197 427.404 C 384.364 427.501, 387.200 429.552, 390.500 431.961 C 393.800 434.370, 400.889 440.137, 406.253 444.777 C 411.617 449.417, 418.256 455.907, 421.007 459.199 C 423.758 462.491, 426.270 466.226, 426.589 467.499 C 426.909 468.772, 426.673 470.742, 426.066 471.877 C 425.459 473.012, 420.358 476.218, 414.731 479.003 C 407.516 482.574, 400.373 485.105, 390.500 487.589 C 382.800 489.527, 370.200 492.184, 362.500 493.493 C 354.800 494.802, 340.850 496.413, 331.500 497.072 C 319.777 497.899, 299.446 498.084, 266 497.667 C 239.325 497.334, 210.975 496.612, 203 496.063 C 195.025 495.513, 184.450 494.549, 179.500 493.920 C 174.173 493.242, 166.010 491.183, 159.500 488.874 L 148.500 484.973 145.659 488.237 C 144.097 490.031, 136.765 498.797, 129.366 507.715 L 115.913 523.931 117.358 526.715 C 118.153 528.247, 120.985 531.767, 123.652 534.537 C 126.318 537.308, 130.633 541.039, 133.241 542.829 C 135.848 544.619, 141.698 547.866, 146.241 550.045 C 151.348 552.495, 157.553 554.541, 162.500 555.404 C 166.900 556.173, 175.450 557.297, 181.500 557.903 C 187.550 558.509, 199.025 559.439, 207 559.969 C 214.975 560.500, 235.520 561.457, 252.656 562.096 C 275.954 562.966, 288.852 562.975, 303.799 562.134 C 314.792 561.516, 327.322 560.540, 331.643 559.965 C 335.965 559.391, 345.350 557.771, 352.500 556.366 C 359.650 554.960, 369.775 552.222, 375 550.282 C 380.225 548.341, 386.750 545.628, 389.500 544.251 C 392.250 542.875, 397.514 539.737, 401.197 537.277 C 404.881 534.817, 410.133 530.438, 412.867 527.547 C 415.602 524.655, 419.500 519.693, 421.530 516.521 C 423.559 513.349, 426.236 508.447, 427.479 505.627 C 428.723 502.807, 430.654 496.675, 431.772 492 C 432.889 487.325, 434.107 481.317, 434.478 478.648 C 434.849 475.980, 435.132 467.205, 435.106 459.148 C 435.078 450.583, 434.409 440.762, 433.494 435.500 C 432.633 430.550, 431.038 422.723, 429.949 418.107 C 428.861 413.491, 425.661 403.816, 422.840 396.607 C 420.018 389.398, 416.643 381.363, 415.338 378.750 C 414.034 376.137, 412.393 374, 411.693 374 C 410.993 374, 408.680 378.163, 406.553 383.250 M 119.904 414.750 C 119.328 416.262, 117.326 422.549, 115.455 428.720 C 113.584 434.891, 111.109 444.341, 109.955 449.720 C 108.494 456.526, 107.687 464.829, 107.299 477.022 C 106.929 488.687, 107.150 496.960, 107.961 501.769 C 108.631 505.742, 109.547 509.220, 109.996 509.497 C 110.445 509.775, 112.756 507.639, 115.132 504.751 C 117.508 501.863, 123.400 494.924, 128.226 489.331 C 133.052 483.738, 137 478.887, 137 478.550 C 137 478.214, 135.399 476.533, 133.441 474.814 C 131.484 473.096, 128.597 469.821, 127.025 467.536 C 125.453 465.252, 123.394 460.725, 122.450 457.476 C 121.084 452.776, 120.867 449.523, 121.388 441.535 C 121.748 436.016, 122.927 427.225, 124.008 422 C 125.089 416.775, 125.980 412.387, 125.987 412.250 C 125.994 412.113, 124.864 412, 123.475 412 C 121.641 412, 120.664 412.753, 119.904 414.750 M 756.500 436.165 C 752.100 436.661, 743.100 438.170, 736.500 439.517 C 729.900 440.864, 722.802 442.447, 720.727 443.036 L 716.954 444.107 724.727 449.891 C 729.002 453.073, 740.825 461.733, 751 469.136 C 761.175 476.539, 770.050 482.931, 770.722 483.340 C 771.437 483.775, 778.279 480.709, 787.222 475.947 C 795.625 471.472, 808.125 464.621, 815 460.724 C 821.875 456.826, 830.379 451.953, 833.897 449.894 L 840.294 446.149 830.397 443.095 C 824.954 441.414, 817.350 439.389, 813.500 438.595 C 809.650 437.800, 802.130 436.666, 796.789 436.075 C 791.449 435.484, 781.999 435.059, 775.789 435.131 C 769.580 435.203, 760.900 435.668, 756.500 436.165 M 1252.500 443.949 C 1249.200 444.371, 1244.475 445.274, 1242 445.954 C 1239.525 446.635, 1233.225 448.997, 1228 451.203 C 1222.775 453.410, 1214.856 457.406, 1210.403 460.083 C 1205.949 462.760, 1199.649 467.011, 1196.403 469.529 C 1193.156 472.048, 1187.675 476.849, 1184.222 480.199 C 1180.770 483.548, 1176.115 488.474, 1173.879 491.144 L 1169.814 496 1211.233 496 C 1234.014 496, 1257.568 495.525, 1263.576 494.944 C 1269.584 494.363, 1278.550 493.205, 1283.500 492.371 C 1288.450 491.537, 1296.002 489.698, 1300.281 488.284 C 1305.699 486.495, 1308.813 484.823, 1310.531 482.780 C 1311.889 481.167, 1313 479.069, 1313 478.120 C 1313 477.170, 1311.826 474.037, 1310.392 471.158 C 1308.957 468.279, 1305.523 463.451, 1302.761 460.429 C 1299.999 457.407, 1294.761 453.181, 1291.120 451.039 C 1287.479 448.896, 1282.025 446.461, 1279 445.628 C 1275.975 444.796, 1270.125 443.904, 1266 443.648 C 1261.875 443.391, 1255.800 443.526, 1252.500 443.949 M 508.136 601.173 C 500.911 610.015, 495.012 617.980, 495.026 618.874 C 495.040 619.782, 498.146 622.466, 502.060 624.952 C 505.916 627.401, 513.282 633.357, 518.429 638.189 L 527.789 646.973 539.757 634.263 L 551.725 621.554 554.112 622.651 C 555.426 623.255, 558.975 625.611, 562 627.887 C 565.025 630.163, 571.008 635.439, 575.296 639.613 L 583.092 647.201 592.836 636.850 C 598.195 631.158, 604.765 624.133, 607.436 621.240 L 612.293 615.980 607.792 610.240 C 605.317 607.083, 599.738 601.494, 595.396 597.821 C 591.053 594.147, 585.180 589.807, 582.344 588.176 L 577.188 585.211 574.259 588.356 C 572.649 590.085, 567.606 596.112, 563.053 601.750 C 558.500 607.388, 554.626 612, 554.444 612 C 554.262 612, 551.725 609.456, 548.807 606.346 C 545.888 603.237, 540.187 598.045, 536.138 594.810 C 532.090 591.574, 527.088 588.065, 525.024 587.012 L 521.271 585.098 508.136 601.173 M 820.690 601.687 C 813.261 610.832, 807.383 618.806, 807.628 619.407 C 807.873 620.008, 811.223 622.504, 815.072 624.952 C 818.921 627.401, 826.282 633.357, 831.429 638.189 L 840.789 646.973 852.762 634.258 L 864.735 621.543 868.474 623.521 C 870.530 624.610, 875.523 628.312, 879.570 631.749 C 883.617 635.186, 888.947 640.105, 891.415 642.680 L 895.902 647.363 904.695 637.931 C 909.531 632.744, 916.081 625.759, 919.250 622.409 L 925.012 616.317 921.852 611.954 C 920.114 609.555, 916.398 605.382, 913.596 602.682 C 910.793 599.981, 906.025 595.863, 903 593.530 C 899.975 591.197, 895.720 588.379, 893.545 587.267 L 889.591 585.247 880.545 596.322 C 875.570 602.414, 870.571 608.494, 869.435 609.834 L 867.370 612.271 861.935 606.482 C 858.946 603.298, 853.187 598.045, 849.138 594.810 C 845.090 591.574, 840.071 588.057, 837.987 586.993 L 834.197 585.060 820.690 601.687 M 1024.827 588.750 C 1023.426 590.263, 1017.492 597.435, 1011.640 604.688 C 1005.788 611.941, 1001.009 618.466, 1001.019 619.188 C 1001.030 619.910, 1003.888 622.166, 1007.370 624.202 C 1010.853 626.237, 1018.295 632.270, 1023.909 637.608 C 1032.447 645.727, 1034.320 647.083, 1035.368 645.907 C 1036.057 645.133, 1042.613 638.092, 1049.936 630.259 L 1063.251 616.018 1060.752 612.759 C 1059.378 610.967, 1055.834 607.010, 1052.877 603.966 C 1049.920 600.922, 1044.800 596.375, 1041.500 593.862 C 1038.200 591.348, 1034.060 588.551, 1032.300 587.646 C 1030.539 586.741, 1028.711 586, 1028.237 586 C 1027.762 586, 1026.228 587.237, 1024.827 588.750" stroke="none" fill="#241c23" fill-rule="evenodd"/></svg>