<svg xmlns="http://www.w3.org/2000/svg" width="804" height="532" viewBox="0 0 804 532" version="1.1"><path d="M 210.500 247.842 C 208.850 248.851, 204.910 252.478, 201.745 255.901 C 198.579 259.325, 194.161 264.818, 191.927 268.108 C 189.693 271.398, 187.396 275.433, 186.824 277.075 C 186.065 279.252, 186.118 280.872, 187.021 283.051 C 187.702 284.695, 189.621 287.186, 191.285 288.587 L 194.311 291.133 192.406 292.972 C 191.358 293.984, 181.906 302.391, 171.401 311.656 C 160.897 320.920, 146.497 333.696, 139.401 340.046 C 132.306 346.396, 121.550 355.838, 115.500 361.028 C 109.450 366.218, 90.213 383.023, 72.750 398.374 L 41 426.283 41 430.642 C 41 433.039, 41.337 434.986, 41.750 434.969 C 42.163 434.953, 57.854 421.565, 76.619 405.219 C 95.385 388.874, 119.462 367.850, 130.125 358.500 C 140.787 349.150, 153.333 338.276, 158.005 334.335 C 162.677 330.395, 174.993 319.768, 185.374 310.721 C 200.191 297.807, 207.657 292.146, 220.104 284.385 L 235.960 274.500 235.980 271.250 C 235.994 268.967, 235.537 268, 234.443 268 C 233.587 268, 229.082 269.575, 224.432 271.500 C 219.781 273.425, 214.690 275, 213.117 275 C 211.216 275, 208.799 273.706, 205.905 271.138 L 201.553 267.276 202.697 264.766 C 203.326 263.385, 205.842 261.287, 208.288 260.102 C 211.898 258.355, 213.257 258.147, 215.499 259 C 217.018 259.577, 219.509 260.939, 221.035 262.025 C 222.561 263.111, 224.302 264, 224.904 264 C 225.573 264, 226 261.730, 226 258.174 C 226 253.407, 225.591 251.976, 223.750 250.299 C 222.512 249.172, 220.517 247.744, 219.316 247.125 C 218.114 246.506, 216.314 246.002, 215.316 246.004 C 214.317 246.006, 212.150 246.833, 210.500 247.842 M 471.748 392.250 C 452.757 408.887, 422.552 435.325, 404.625 451 L 372.032 479.500 372.016 483.750 C 372.007 486.087, 372.394 488, 372.875 488 C 373.356 488, 391.247 472.813, 412.631 454.250 C 434.016 435.688, 452.418 419.600, 453.525 418.500 C 454.631 417.400, 467.116 406.431, 481.268 394.125 L 507 371.749 507 366.875 C 507 364.194, 506.837 362, 506.638 362 C 506.439 362, 490.738 375.613, 471.748 392.250" stroke="none" fill="#ea1c3b" fill-rule="evenodd"/><path d="M 356 44.937 C 354.625 45.358, 351.025 46.957, 348 48.490 C 344.975 50.023, 340.025 52.968, 337 55.034 C 333.975 57.101, 327.225 62.378, 322 66.762 C 316.775 71.146, 309.068 78.330, 304.873 82.727 C 300.679 87.123, 294.413 94.270, 290.949 98.610 C 287.485 102.949, 281.106 111.900, 276.773 118.500 C 272.440 125.100, 266.014 136.350, 262.493 143.500 C 258.971 150.650, 254.693 160.549, 252.986 165.498 C 251.278 170.447, 249.043 179.447, 248.019 185.498 C 246.995 191.549, 245.661 201.548, 245.054 207.717 C 244.265 215.744, 244.255 220.835, 245.019 225.621 C 245.607 229.300, 247.235 234.735, 248.637 237.699 C 250.039 240.663, 253.652 245.751, 256.666 249.006 C 260.012 252.620, 264.355 256.009, 267.822 257.712 C 272.500 260.009, 275.261 260.594, 283.500 261.032 L 293.500 261.564 280.500 274.561 C 273.350 281.710, 262.775 291.312, 257 295.901 C 251.225 300.489, 242.450 307.057, 237.500 310.496 C 232.550 313.935, 224.172 319.236, 218.883 322.277 C 213.593 325.318, 205.570 329.431, 201.053 331.417 C 196.536 333.403, 189.198 335.972, 184.747 337.126 C 178.212 338.820, 174.906 339.113, 167.577 338.648 C 162.585 338.332, 157.528 337.944, 156.341 337.786 C 154.771 337.578, 148.719 342.231, 134.140 354.856 L 114.097 372.212 116.453 378.470 C 117.748 381.912, 119.591 386.252, 120.549 388.114 C 121.506 389.976, 123.992 394.016, 126.074 397.091 C 128.155 400.166, 133.010 405.599, 136.861 409.165 C 140.713 412.731, 146.524 417.067, 149.775 418.800 C 153.026 420.532, 158.569 422.630, 162.093 423.460 C 165.617 424.291, 172.006 424.977, 176.292 424.985 C 180.578 424.993, 187.525 424.289, 191.730 423.421 C 195.935 422.552, 202.274 420.750, 205.818 419.417 C 209.362 418.083, 215.690 414.923, 219.880 412.395 C 224.071 409.867, 230.777 405.347, 234.782 402.351 C 238.787 399.355, 245.312 393.902, 249.282 390.233 C 253.252 386.565, 255.355 384.899, 253.955 386.531 C 252.555 388.164, 247.845 393.550, 243.487 398.500 C 239.130 403.450, 229.362 413.849, 221.782 421.608 C 214.202 429.368, 208 436.430, 208 437.301 C 208 438.173, 209 439.587, 210.223 440.443 C 211.445 441.299, 214.285 442, 216.535 442 C 218.784 442, 235.780 438.220, 254.303 433.601 C 277.192 427.892, 289.395 424.372, 292.396 422.614 C 294.824 421.191, 298.257 418.201, 300.024 415.970 C 301.790 413.739, 306.557 406.223, 310.616 399.268 C 314.675 392.312, 319.764 382.094, 321.923 376.561 C 324.083 371.027, 327.446 361.100, 329.396 354.500 C 331.346 347.900, 334.739 335.027, 336.937 325.894 C 339.135 316.761, 342.509 300.074, 344.435 288.813 C 346.360 277.551, 348.245 263.947, 348.622 258.582 L 349.307 248.826 342.562 253.663 L 335.816 258.500 330.581 269.500 C 327.702 275.550, 322.080 286.323, 318.088 293.439 C 314.096 300.556, 307.877 311.131, 304.268 316.939 C 300.659 322.748, 297.337 327.913, 296.885 328.418 C 296.434 328.923, 298.713 323.523, 301.951 316.418 C 305.189 309.313, 309.665 297.970, 311.897 291.210 C 314.129 284.451, 316.959 273.876, 318.187 267.710 C 319.899 259.113, 320.419 253.004, 320.420 241.500 C 320.420 232.846, 319.866 223.962, 319.110 220.500 C 318.389 217.200, 316.479 211.302, 314.866 207.392 C 313.252 203.483, 310.935 199.397, 309.716 198.311 C 308.497 197.226, 302.804 195.107, 297.064 193.602 C 291.324 192.097, 283.924 189.766, 280.619 188.423 C 277.313 187.080, 273.572 185.007, 272.304 183.816 C 271.037 182.626, 270 180.555, 270 179.216 C 270 177.876, 271.457 174.046, 273.238 170.705 C 275.019 167.364, 280.040 160.865, 284.396 156.264 C 288.752 151.662, 296.182 144.980, 300.908 141.415 C 305.714 137.790, 315.888 131.742, 324 127.688 C 331.975 123.703, 342.887 118.942, 348.250 117.110 C 353.613 115.277, 358.002 113.265, 358.005 112.639 C 358.008 112.012, 358.455 102.950, 358.998 92.500 C 359.542 82.050, 360.466 67.650, 361.052 60.500 C 361.637 53.350, 362.346 46.712, 362.626 45.750 C 363.011 44.427, 362.570 44.021, 360.817 44.086 C 359.543 44.133, 357.375 44.516, 356 44.937 M 549.500 66.197 C 547.850 68.046, 542.333 74.129, 537.241 79.715 C 532.148 85.302, 522.698 94.543, 516.241 100.251 C 509.783 105.960, 496.625 117.132, 487 125.078 C 477.375 133.024, 466.277 142.126, 462.337 145.305 C 458.397 148.484, 451.950 154.479, 448.009 158.627 C 444.069 162.776, 438.387 169.940, 435.384 174.547 C 432.380 179.155, 424.090 194.348, 416.962 208.310 C 409.833 222.272, 404 233.886, 404 234.119 C 404 234.353, 409.537 229.134, 416.304 222.522 C 423.071 215.910, 432.858 206.974, 438.054 202.664 L 447.500 194.827 440 201.645 C 435.875 205.396, 427.621 213.197, 421.658 218.982 C 415.695 224.767, 407.773 233.550, 404.054 238.500 C 400.334 243.450, 396.131 249.355, 394.714 251.622 C 393.296 253.890, 390.959 258.390, 389.521 261.622 L 386.906 267.500 387.483 254 C 387.800 246.575, 389.186 225.425, 390.564 207 C 391.941 188.575, 393.670 166.525, 394.406 158 C 395.142 149.475, 395.521 141.918, 395.249 141.208 C 394.976 140.497, 394.247 140.067, 393.627 140.252 C 393.007 140.437, 389.563 144.953, 385.973 150.287 C 382.383 155.621, 376.453 165.501, 372.796 172.243 C 369.140 178.984, 364.381 188.550, 362.222 193.500 L 358.296 202.500 357.644 213 C 357.286 218.775, 355.812 244.875, 354.370 271 C 352.809 299.290, 351.703 330.430, 351.637 348 C 351.546 371.932, 351.847 379.209, 353.229 386.554 C 354.166 391.534, 356.052 398.918, 357.421 402.963 C 358.789 407.009, 361.169 412.384, 362.710 414.909 C 364.654 418.096, 366.950 420.215, 370.214 421.836 C 372.802 423.121, 380.449 425.307, 387.209 426.693 C 397.443 428.792, 401.258 429.125, 410 428.683 C 415.775 428.391, 423.698 427.421, 427.608 426.528 L 434.716 424.904 469.861 394.009 C 489.191 377.017, 505.455 362.837, 506.003 362.498 C 506.614 362.120, 507 363.793, 507 366.822 L 507 371.763 480.102 395.131 C 465.308 407.984, 453.535 418.626, 453.940 418.779 C 454.344 418.933, 458.686 417.656, 463.588 415.942 C 468.489 414.228, 477.992 410.126, 484.704 406.827 C 491.417 403.528, 501.092 398.075, 506.204 394.708 C 511.317 391.342, 518.650 385.414, 522.500 381.535 C 526.665 377.338, 531.297 371.295, 533.937 366.612 C 536.377 362.283, 539.821 353.962, 541.590 348.120 C 543.359 342.279, 545.723 332.100, 546.843 325.500 L 548.880 313.500 546.690 306.259 C 545.486 302.277, 544.275 299.024, 544 299.031 C 543.725 299.037, 542.156 300.946, 540.513 303.271 C 538.870 305.597, 534.145 311.045, 530.013 315.377 C 525.881 319.709, 518 326.881, 512.500 331.314 C 507 335.746, 496.875 343.037, 490 347.516 C 483.125 351.994, 474.970 357.085, 471.878 358.829 C 468.786 360.573, 466.002 362, 465.692 362 C 465.381 362, 466.463 358.063, 468.097 353.250 C 469.730 348.438, 472.240 338.875, 473.674 332 C 475.740 322.093, 476.300 316.492, 476.375 305 C 476.433 296.208, 475.944 288.138, 475.134 284.500 C 474.399 281.200, 472.618 276.310, 471.176 273.633 C 469.734 270.956, 466.389 266.871, 463.743 264.556 L 458.931 260.347 472.191 248.423 C 479.484 241.866, 489.565 232.450, 494.595 227.500 C 499.624 222.550, 507.834 212.979, 512.839 206.231 C 517.843 199.483, 523.051 192.058, 524.411 189.731 C 525.772 187.404, 530.111 178.075, 534.054 169 C 537.997 159.925, 546.798 138.612, 553.612 121.638 C 560.425 104.664, 566 90.336, 566 89.798 C 566 89.259, 558.701 95.722, 549.781 104.159 C 540.860 112.597, 531.073 121.770, 528.031 124.544 C 524.989 127.318, 518.485 133.168, 513.579 137.544 C 508.672 141.920, 505.072 144.811, 505.579 143.970 C 506.085 143.128, 509.238 138.403, 512.585 133.470 C 515.931 128.536, 524.672 115.050, 532.008 103.500 C 539.345 91.950, 547.099 78.770, 549.240 74.212 C 551.380 69.653, 552.990 65.229, 552.816 64.379 C 552.585 63.248, 551.697 63.735, 549.500 66.197 M 158.272 172.250 C 153.388 180.088, 147.300 190.103, 144.743 194.507 C 142.187 198.910, 138.780 205.435, 137.172 209.007 C 135.565 212.578, 131.480 223.559, 128.095 233.410 C 124.711 243.260, 120.614 256.310, 118.991 262.410 C 117.368 268.509, 115.111 278, 113.976 283.500 C 112.840 289, 111.264 298, 110.474 303.500 C 109.683 309, 109.028 320.555, 109.018 329.178 C 109.008 337.800, 109.480 348.304, 110.066 352.519 C 110.652 356.733, 111.440 361.003, 111.816 362.007 C 112.387 363.531, 115.403 361.281, 130.084 348.380 L 147.668 332.928 144.293 329.349 C 142.436 327.380, 139.867 323.684, 138.583 321.135 C 137.299 318.586, 135.518 313.261, 134.625 309.303 C 133.731 305.344, 133.003 297.919, 133.006 292.803 C 133.009 287.686, 133.690 279, 134.518 273.500 C 135.346 268, 137.346 258.550, 138.963 252.500 C 140.579 246.450, 147.304 225.525, 153.907 206 C 160.510 186.475, 166.568 167.688, 167.368 164.250 C 168.168 160.813, 168.447 158, 167.987 158 C 167.528 158, 163.156 164.412, 158.272 172.250 M 724.891 176.140 C 722.638 178.538, 715.868 188.004, 709.847 197.176 C 703.159 207.361, 698.674 215.235, 698.322 217.406 C 697.937 219.776, 698.264 221.755, 699.303 223.340 C 700.161 224.649, 704.156 228.194, 708.181 231.218 C 712.206 234.242, 718.109 238.186, 721.299 239.981 C 725.964 242.608, 727.806 243.131, 730.726 242.657 C 733.143 242.265, 735.838 240.637, 738.796 237.784 C 741.239 235.428, 746.058 230.229, 749.505 226.231 C 752.952 222.233, 757.399 215.867, 759.386 212.084 C 761.929 207.246, 763 203.919, 763 200.861 L 763 196.515 755.688 189.459 C 751.666 185.578, 745.245 180.322, 741.419 177.779 C 737.593 175.235, 733.231 172.845, 731.725 172.467 C 729.375 171.877, 728.408 172.397, 724.891 176.140 M 511.789 236.087 C 510.298 237.200, 507.403 240.898, 505.357 244.305 C 503.310 247.712, 497.906 256.009, 493.348 262.743 C 488.790 269.477, 484.664 276.452, 484.179 278.243 C 483.553 280.555, 483.704 282.311, 484.698 284.296 C 485.468 285.833, 490.014 290.004, 494.799 293.563 C 499.585 297.123, 505.838 301.194, 508.697 302.609 C 512.449 304.467, 514.716 305.002, 516.853 304.532 C 518.818 304.101, 523.013 300.583, 529.341 294.062 C 534.582 288.662, 540.431 281.803, 542.338 278.820 C 544.246 275.838, 546.525 271.678, 547.403 269.577 C 548.282 267.475, 549 264.127, 549 262.136 L 549 258.515 541.675 251.447 C 537.646 247.560, 530.859 242.044, 526.591 239.189 C 522.324 236.335, 517.858 234.014, 516.666 234.032 C 515.475 234.049, 513.280 234.974, 511.789 236.087 M 637.655 253.562 L 631.810 257.977 623.110 275.239 C 618.324 284.732, 610.210 299.475, 605.077 308 C 599.945 316.525, 591.924 329.125, 587.252 336 C 582.581 342.875, 574.364 354.350, 568.994 361.500 C 563.624 368.650, 554.371 380.305, 548.432 387.401 C 542.493 394.496, 530.067 408.073, 520.817 417.572 C 511.156 427.494, 504 435.642, 504 436.721 C 504 437.754, 504.540 439.140, 505.200 439.800 C 505.862 440.462, 509.041 441, 512.286 441 C 516.299 441, 528.389 438.457, 550.264 433.011 C 567.915 428.618, 582.480 425.147, 582.632 425.298 C 582.783 425.450, 578.316 428.086, 572.704 431.157 C 567.092 434.228, 561.487 437.054, 560.250 437.437 C 559.013 437.821, 558 438.724, 558 439.445 C 558 440.166, 558.744 441.373, 559.654 442.128 C 560.961 443.212, 566.572 443.494, 586.404 443.473 L 611.500 443.446 621.083 441.291 C 626.354 440.106, 636.479 437.252, 643.583 434.949 C 650.688 432.645, 659.200 429.531, 662.500 428.027 C 666.604 426.157, 670.441 423.255, 674.644 418.843 C 678.023 415.296, 683.409 408.374, 686.611 403.461 C 689.813 398.548, 694.547 389.792, 697.130 384.004 C 699.713 378.215, 703.287 368.706, 705.072 362.873 L 708.319 352.266 716.330 351.134 C 721.666 350.379, 726.036 349.050, 729.420 347.153 C 732.334 345.520, 736.541 341.791, 739.286 338.407 C 741.919 335.163, 746.292 328.007, 749.005 322.504 C 751.717 317.002, 755.330 307.625, 757.033 301.666 C 758.735 295.708, 760.775 287.456, 761.564 283.328 C 762.354 279.201, 762.993 272.376, 762.985 268.162 C 762.976 263.948, 762.553 259.841, 762.044 259.036 C 761.331 257.909, 760.472 257.795, 758.309 258.540 L 755.500 259.508 751.824 270.812 C 749.803 277.029, 746.995 283.629, 745.585 285.477 C 744.176 287.325, 741.390 289.376, 739.395 290.035 C 737.178 290.766, 733.575 290.983, 730.134 290.593 C 727.035 290.242, 722.091 289.318, 719.147 288.540 C 716.202 287.763, 713.604 286.937, 713.372 286.706 C 713.141 286.474, 712.034 282.958, 710.913 278.892 C 709.792 274.827, 707.291 268.196, 705.356 264.157 L 701.836 256.815 697.296 254.807 C 694.479 253.561, 691.685 253.013, 689.931 253.364 C 688.378 253.674, 679.995 257.116, 671.303 261.012 C 662.611 264.908, 653.828 269.195, 651.785 270.539 C 649.040 272.344, 647.007 275.139, 643.998 281.241 C 641.759 285.783, 640.140 288.600, 640.401 287.500 C 640.662 286.400, 641.554 281, 642.383 275.500 C 643.212 270, 644.198 261.788, 644.574 257.250 C 644.956 252.643, 644.870 249.032, 644.379 249.073 C 643.896 249.114, 640.870 251.134, 637.655 253.562 M 426.500 295.392 C 424.300 296.085, 421.375 297.233, 420 297.944 C 418.625 298.655, 415.799 300.863, 413.720 302.851 C 411.345 305.121, 409.418 308.221, 408.537 311.186 C 407.498 314.688, 407.396 316.850, 408.144 319.558 C 408.698 321.566, 411 325.214, 413.258 327.664 C 415.953 330.588, 420.245 333.513, 425.740 336.173 C 432.038 339.222, 434.850 340.080, 437.078 339.634 C 438.707 339.309, 442.594 337.795, 445.716 336.271 C 448.838 334.747, 453.510 331.385, 456.099 328.799 C 459.185 325.718, 461.383 322.362, 462.481 319.058 L 464.155 314.018 461.698 308.652 C 460.271 305.535, 457.737 302.138, 455.651 300.548 C 453.677 299.042, 449.307 296.952, 445.942 295.905 C 442.576 294.857, 437.724 294.030, 435.161 294.067 C 432.597 294.104, 428.700 294.700, 426.500 295.392 M 629.564 337.750 C 627.997 344.212, 624.786 355.448, 622.428 362.719 C 620.070 369.989, 615.893 380.564, 613.145 386.219 C 610.398 391.873, 605.600 400.550, 602.485 405.500 C 599.369 410.450, 595.623 415.811, 594.160 417.413 C 592.464 419.269, 595.307 417.734, 602 413.177 C 607.775 409.245, 617.450 402.186, 623.500 397.490 C 629.550 392.794, 639.675 384.491, 646 379.039 C 652.325 373.587, 661.203 365.385, 665.728 360.813 L 673.956 352.500 666.966 352.381 C 661.298 352.285, 658.766 351.667, 653.579 349.114 C 649.358 347.035, 645.293 343.924, 641.625 339.962 C 638.360 336.435, 635.577 332.319, 634.876 329.980 C 634.220 327.791, 633.397 326, 633.048 326 C 632.698 326, 631.130 331.288, 629.564 337.750" stroke="none" fill="#241c24" fill-rule="evenodd"/></svg>