<svg xmlns="http://www.w3.org/2000/svg" width="1341" height="886" viewBox="0 0 1341 886" version="1.1"><path d="M 377.327 244.397 C 375.582 245.190, 372.282 247.768, 369.994 250.126 C 367.706 252.483, 362.977 258.707, 359.485 263.956 C 355.994 269.205, 351.115 277.325, 348.644 282 C 346.174 286.675, 342.543 294.412, 340.576 299.193 C 338.609 303.975, 337 309.532, 337 311.542 C 337 313.553, 337.696 316.664, 338.546 318.456 C 339.397 320.248, 341.313 322.883, 342.804 324.312 C 344.296 325.741, 347.506 327.963, 349.939 329.250 C 352.372 330.536, 354.532 332.095, 354.738 332.714 C 354.945 333.334, 346.882 343.664, 336.822 355.670 C 326.761 367.677, 309.073 388.787, 297.515 402.583 C 285.957 416.379, 269.075 436.825, 260 448.018 C 250.925 459.211, 240.770 471.549, 237.433 475.435 C 234.097 479.321, 228.528 485.875, 225.058 490 C 221.589 494.125, 198.824 521.350, 174.470 550.500 C 150.116 579.650, 125.865 608.647, 120.579 614.937 C 114.983 621.596, 110.503 627.925, 109.856 630.087 C 109.240 632.143, 109.037 635.743, 109.401 638.150 C 109.762 640.543, 110.483 643.175, 111.001 644 C 111.777 645.236, 112.457 644.879, 114.859 641.975 C 116.463 640.036, 141.563 610.505, 170.637 576.350 C 199.712 542.194, 230.313 505.979, 238.639 495.871 C 246.965 485.764, 255.435 475.695, 257.460 473.497 C 259.485 471.299, 269.183 460.050, 279.011 448.500 C 288.839 436.950, 306.516 415.800, 318.293 401.500 C 330.070 387.200, 346.236 368.075, 354.217 359 C 362.198 349.925, 376.551 334.843, 386.114 325.484 C 395.676 316.125, 408.774 304.261, 415.219 299.120 C 421.664 293.978, 427.217 288.890, 427.559 287.813 C 427.901 286.737, 427.879 284.653, 427.510 283.183 C 427.141 281.714, 426.370 279.946, 425.797 279.256 C 425.224 278.565, 424.176 278, 423.469 278 C 422.762 278, 415.954 281.752, 408.341 286.337 C 400.729 290.922, 392.970 295.197, 391.101 295.837 C 389.231 296.477, 385.683 297, 383.217 297 C 380.750 297, 376.947 296.465, 374.764 295.811 C 372.582 295.157, 368.592 292.641, 365.898 290.219 C 362.899 287.522, 361.002 284.978, 361.005 283.657 C 361.008 282.471, 362.020 279.847, 363.255 277.826 C 364.490 275.805, 366.706 273.210, 368.180 272.058 C 369.654 270.907, 372.804 269.083, 375.180 268.004 C 377.556 266.926, 381.075 266.049, 383 266.055 C 384.925 266.061, 390.537 267.602, 395.471 269.479 C 400.405 271.356, 404.625 272.708, 404.849 272.484 C 405.073 272.260, 404.687 268.347, 403.991 263.788 C 403.295 259.230, 401.882 253.819, 400.850 251.763 C 399.641 249.358, 397.508 247.279, 394.859 245.928 C 392.596 244.774, 388.440 243.633, 385.622 243.393 C 382.415 243.119, 379.314 243.495, 377.327 244.397 M 1165.087 282.750 C 1163.423 284.813, 1153.020 297.300, 1141.970 310.500 C 1130.919 323.700, 1116.211 341.250, 1109.284 349.500 C 1102.357 357.750, 1094.847 366.569, 1092.595 369.097 C 1090.343 371.625, 1085.350 377.669, 1081.500 382.527 C 1077.650 387.385, 1067.899 399.266, 1059.830 408.930 C 1051.762 418.593, 1039.281 433.436, 1032.095 441.913 C 1023.173 452.438, 1018.836 458.359, 1018.418 460.585 C 1018.082 462.377, 1018.111 465.229, 1018.483 466.922 C 1018.855 468.615, 1019.528 470, 1019.979 470 C 1020.430 470, 1028.607 460.718, 1038.150 449.373 C 1047.692 438.028, 1060.900 422.435, 1067.500 414.723 C 1074.100 407.010, 1086.700 392.258, 1095.500 381.940 C 1104.300 371.623, 1115.390 358.303, 1120.145 352.341 C 1124.900 346.378, 1134.494 334.750, 1141.466 326.500 C 1148.437 318.250, 1157.280 308.022, 1161.118 303.772 C 1164.956 299.522, 1168.746 294.797, 1169.542 293.272 C 1170.337 291.747, 1170.984 288.925, 1170.980 287 C 1170.976 285.075, 1170.701 282.488, 1170.370 281.250 C 1170.038 280.012, 1169.395 279, 1168.940 279 C 1168.485 279, 1166.751 280.688, 1165.087 282.750" stroke="none" fill="#eb1c3b" fill-rule="evenodd"/><path d="M 627.679 251.848 C 622.888 258.915, 614.882 269.828, 609.888 276.098 C 604.893 282.369, 598.589 289.776, 595.878 292.558 C 593.167 295.339, 591.147 297.814, 591.390 298.058 C 591.632 298.301, 593.427 305.925, 595.378 315 C 597.328 324.075, 599.594 336, 600.411 341.500 C 601.229 347, 602.578 358.925, 603.410 368 C 604.241 377.075, 605.393 392.375, 605.970 402 C 606.547 411.625, 607.694 433.900, 608.518 451.500 C 609.343 469.100, 610.693 488, 611.519 493.500 C 612.345 499, 613.943 506.875, 615.069 511 C 616.195 515.125, 618.688 521.774, 620.608 525.775 C 622.820 530.384, 626.189 535.178, 629.800 538.854 C 633.326 542.443, 637.979 545.860, 642 547.811 C 645.575 549.546, 651.650 551.749, 655.500 552.705 C 661.049 554.084, 666.852 554.441, 683.500 554.427 C 699.363 554.413, 706.946 553.965, 714.500 552.597 C 720 551.600, 728.203 549.544, 732.730 548.027 C 737.256 546.510, 743.535 543.746, 746.682 541.884 C 749.829 540.023, 755.143 535.754, 758.490 532.399 C 762.363 528.515, 765.929 523.608, 768.299 518.899 C 770.347 514.829, 772.920 507.900, 774.016 503.500 C 775.112 499.100, 776.396 491.450, 776.869 486.500 L 777.730 477.500 777.882 492 C 777.970 500.360, 778.660 509.452, 779.511 513.471 C 780.324 517.306, 782.539 523.709, 784.435 527.701 C 786.331 531.694, 790.006 537.230, 792.601 540.004 C 795.577 543.186, 799.936 546.336, 804.409 548.537 C 808.309 550.456, 814.650 552.687, 818.500 553.496 C 822.350 554.304, 829.809 554.973, 835.076 554.983 C 840.343 554.992, 849.568 554.506, 855.576 553.902 C 861.584 553.299, 870.775 551.732, 876 550.421 C 881.225 549.111, 889.756 545.939, 894.957 543.373 C 902.517 539.643, 905.932 537.183, 911.985 531.104 C 917.497 525.567, 920.575 521.426, 923.305 515.871 C 925.367 511.675, 928.163 503.870, 929.518 498.527 C 930.874 493.184, 932.506 482.564, 933.146 474.927 C 934.038 464.283, 934.031 457.711, 933.117 446.771 C 932.462 438.922, 931.059 428.551, 930.001 423.725 C 928.942 418.898, 926.237 409.448, 923.990 402.725 C 921.743 396.001, 917.563 384.989, 914.702 378.252 C 911.218 370.050, 908.985 366.004, 907.939 366.002 C 906.883 366.001, 904.494 370.442, 900.546 379.750 C 897.338 387.313, 892.342 398.251, 889.444 404.059 C 886.546 409.866, 882.599 416.682, 880.672 419.207 L 877.169 423.796 885.834 430.274 C 890.600 433.837, 898.704 440.470, 903.841 445.013 C 908.979 449.557, 915.636 456.249, 918.634 459.884 C 921.632 463.519, 924.342 467.513, 924.654 468.759 C 924.967 470.006, 924.682 471.678, 924.021 472.475 C 923.359 473.272, 920.496 474.793, 917.659 475.854 C 914.822 476.915, 908.207 478.714, 902.961 479.850 C 897.714 480.986, 886.814 482.610, 878.739 483.458 C 870.664 484.306, 856.884 485, 848.116 485 C 838.243 485, 829.252 484.441, 824.494 483.530 C 820.268 482.722, 814.413 480.962, 811.481 479.620 C 808.549 478.277, 804.142 475.329, 801.688 473.067 C 799.219 470.791, 796.190 466.620, 794.907 463.727 L 792.587 458.500 792.191 442.250 L 791.794 426 789.070 426 L 786.346 426 785.112 432.750 C 784.434 436.462, 782.551 443.479, 780.928 448.342 C 779.305 453.205, 776.860 459.090, 775.495 461.419 C 774.130 463.748, 771.322 467.352, 769.256 469.428 C 767.190 471.503, 762.905 474.516, 759.734 476.123 C 756.562 477.730, 750.262 479.914, 745.734 480.975 C 741.205 482.036, 731.845 483.426, 724.934 484.062 C 717.903 484.709, 703.808 485.019, 692.934 484.766 C 676.531 484.384, 672.462 483.975, 666.842 482.145 C 663.180 480.952, 658.005 478.480, 655.342 476.651 C 652.679 474.822, 649.082 471.475, 647.349 469.214 C 645.616 466.953, 643.141 462.043, 641.849 458.302 L 639.500 451.500 640 407 C 640.275 382.525, 640.500 343.150, 640.500 319.500 C 640.500 295.850, 640.114 268.063, 639.642 257.750 C 639.028 244.341, 638.442 239, 637.587 239 C 636.928 239, 632.470 244.782, 627.679 251.848 M 1151.916 248.250 C 1148.507 253.338, 1141.992 262.480, 1137.439 268.566 C 1132.885 274.652, 1125.600 283.666, 1121.248 288.597 L 1113.336 297.562 1115.584 312.531 C 1116.821 320.764, 1118.124 329.646, 1118.481 332.269 C 1118.837 334.892, 1119.523 336.795, 1120.006 336.497 C 1120.488 336.198, 1130.201 324.832, 1141.589 311.237 L 1162.295 286.520 1161.648 270.100 C 1161.291 261.069, 1161 250.377, 1161 246.340 C 1161 240.612, 1160.683 239, 1159.558 239 C 1158.764 239, 1155.326 243.162, 1151.916 248.250 M 1154.942 310.685 C 1150.785 315.533, 1141.387 326.629, 1134.057 335.342 L 1120.730 351.184 1123.391 376.842 C 1124.855 390.954, 1126.923 412.175, 1127.987 424 C 1129.051 435.825, 1130.834 458.100, 1131.948 473.500 C 1133.063 488.900, 1134.391 513.425, 1134.901 528 C 1135.410 542.575, 1135.753 556.064, 1135.663 557.975 C 1135.551 560.372, 1135.970 561.544, 1137.015 561.753 C 1138.138 561.978, 1139.609 558.875, 1142.693 549.778 C 1144.983 543.025, 1149.125 530.889, 1151.897 522.809 C 1154.670 514.729, 1157.835 503.704, 1158.932 498.309 C 1160.028 492.914, 1161.729 481.525, 1162.713 473 L 1164.500 457.500 1164.339 390 C 1164.250 352.875, 1163.800 317.858, 1163.339 312.185 L 1162.500 301.869 1154.942 310.685 M 1019.545 340.750 C 1018.666 343.913, 1015.410 353.700, 1012.310 362.500 C 1009.209 371.300, 1005.374 381.650, 1003.788 385.500 L 1000.905 392.500 1002.918 394 C 1004.026 394.825, 1008.979 397.944, 1013.926 400.931 C 1018.872 403.918, 1028.214 410.331, 1034.686 415.181 C 1041.158 420.031, 1046.699 424, 1046.999 424 C 1047.300 424, 1053.499 416.839, 1060.773 408.086 C 1068.048 399.333, 1074 391.884, 1074 391.531 C 1074 391.179, 1072.158 388.177, 1069.906 384.862 C 1067.654 381.546, 1063.068 375.608, 1059.714 371.667 C 1056.360 367.725, 1047.072 357.863, 1039.073 349.750 C 1031.074 341.637, 1023.768 335, 1022.836 335 C 1021.625 335, 1020.686 336.641, 1019.545 340.750 M 371.367 353.072 C 363.740 362.462, 357.366 371.155, 357.201 372.390 C 356.983 374.031, 357.655 374.977, 359.701 375.909 C 361.241 376.610, 365.200 379.111, 368.500 381.468 C 371.800 383.824, 377.762 388.775, 381.750 392.470 C 385.738 396.164, 389 399.495, 389 399.870 C 389 400.246, 382.942 407.966, 375.537 417.026 C 368.133 426.087, 362.058 434.215, 362.037 435.089 C 362.017 435.964, 363.238 437.242, 364.750 437.931 C 366.262 438.620, 370.425 441.266, 374 443.811 C 377.575 446.357, 384.371 452.165, 389.102 456.720 C 393.833 461.274, 397.962 465, 398.277 465 C 398.592 465, 405.839 457.510, 414.383 448.355 L 429.916 431.710 426.708 427.222 C 424.944 424.754, 419.958 419.439, 415.630 415.410 C 411.301 411.382, 405.135 406.379, 401.927 404.293 C 398.719 402.207, 396.185 400.212, 396.297 399.861 C 396.409 399.509, 402.688 392.568, 410.250 384.436 C 417.813 376.303, 424 369.366, 424 369.019 C 424 368.673, 421.563 365.434, 418.584 361.823 C 415.605 358.211, 409.959 352.611, 406.037 349.378 C 402.116 346.145, 396.351 341.813, 393.225 339.750 C 390.100 337.688, 387.023 336, 386.388 336 C 385.753 336, 378.994 343.683, 371.367 353.072 M 545.015 352.461 C 544.500 353.814, 542.524 358.678, 540.624 363.268 C 538.724 367.859, 534.725 376.764, 531.739 383.058 C 528.752 389.351, 524.202 397.615, 521.627 401.423 C 519.052 405.230, 517.295 408.646, 517.723 409.014 C 518.150 409.381, 521.932 412.227, 526.127 415.337 C 530.321 418.447, 537.833 424.596, 542.819 429.001 C 547.805 433.407, 554.423 440.004, 557.526 443.662 C 560.629 447.319, 563.592 451.428, 564.111 452.791 C 564.787 454.571, 564.656 455.866, 563.646 457.385 C 562.872 458.548, 559.677 461.038, 556.546 462.917 C 553.414 464.796, 546.723 467.886, 541.676 469.784 C 536.629 471.682, 528.225 474.323, 523 475.653 C 517.775 476.983, 507.650 479.152, 500.500 480.473 C 493.350 481.794, 481.200 483.624, 473.500 484.541 C 463.737 485.703, 447.697 486.362, 420.500 486.718 C 398.336 487.008, 369.629 486.737, 354 486.089 C 338.875 485.463, 320.200 484.500, 312.500 483.950 C 304.800 483.400, 294.900 482.475, 290.500 481.894 C 286.100 481.313, 278.675 479.579, 274 478.041 C 269.325 476.502, 263.880 474.536, 261.900 473.671 L 258.300 472.099 240.900 493.060 C 231.330 504.590, 223.345 514.483, 223.155 515.045 C 222.966 515.607, 224.672 518.533, 226.947 521.546 C 229.222 524.560, 234.046 529.469, 237.667 532.455 C 241.288 535.442, 247.470 539.476, 251.406 541.421 C 255.342 543.366, 261.249 545.882, 264.531 547.013 C 267.814 548.144, 274.775 549.696, 280 550.462 C 285.225 551.229, 295.125 552.332, 302 552.913 C 308.875 553.495, 323.500 554.515, 334.500 555.181 C 345.500 555.847, 373.850 556.416, 397.500 556.446 C 426.905 556.483, 444.294 556.080, 452.500 555.172 C 459.100 554.441, 470.575 552.734, 478 551.377 C 485.425 550.021, 496.730 547.166, 503.121 545.033 C 509.513 542.900, 518.063 539.488, 522.121 537.451 C 526.180 535.414, 531.905 532.157, 534.844 530.214 C 537.784 528.270, 542.648 524.432, 545.655 521.684 C 548.661 518.937, 553.129 513.874, 555.584 510.435 C 558.038 506.995, 561.587 500.847, 563.469 496.773 C 565.351 492.700, 567.809 485.796, 568.931 481.433 C 570.052 477.070, 571.418 470.350, 571.965 466.500 C 572.513 462.650, 572.967 452.975, 572.974 445 C 572.982 437.025, 572.311 426, 571.482 420.500 C 570.654 415, 568.861 405.871, 567.499 400.213 C 566.136 394.556, 563.286 385.331, 561.166 379.713 C 559.046 374.096, 555.378 365.113, 553.013 359.750 C 550.564 354.194, 548.120 350, 547.332 350 C 546.572 350, 545.529 351.107, 545.015 352.461 M 224.700 402.697 C 222.733 408.639, 220.204 417.100, 219.082 421.500 C 217.960 425.900, 216.263 433.775, 215.311 439 C 214.013 446.124, 213.585 453.877, 213.598 470 C 213.612 486.137, 213.981 492.601, 215.077 495.914 L 216.538 500.329 220.995 494.914 C 223.447 491.936, 229.482 484.775, 234.408 479 C 239.333 473.225, 243.976 467.768, 244.725 466.873 L 246.087 465.247 240.229 459.373 C 236.928 456.063, 233.091 450.882, 231.436 447.500 L 228.500 441.500 228.588 428 C 228.651 418.322, 229.264 411.811, 230.753 405 C 231.896 399.775, 232.982 394.825, 233.166 394 C 233.385 393.015, 232.603 392.396, 230.889 392.197 L 228.278 391.894 224.700 402.697 M 1066.685 415.422 L 1054.063 430.176 1065.627 441.293 C 1071.988 447.408, 1079.199 455.223, 1081.651 458.660 C 1084.104 462.097, 1086.360 466.442, 1086.664 468.315 C 1087.100 471.003, 1086.742 472.162, 1084.966 473.817 C 1083.729 474.970, 1080.810 476.809, 1078.481 477.904 C 1076.152 478.999, 1070.703 480.775, 1066.373 481.852 C 1062.043 482.929, 1055.402 484.326, 1051.617 484.957 C 1047.831 485.589, 1037.013 486.481, 1027.577 486.941 C 1018.142 487.401, 1005.255 487.423, 998.941 486.989 C 992.627 486.556, 985.448 485.659, 982.986 484.996 C 980.525 484.334, 976.847 482.942, 974.814 481.905 C 972.780 480.867, 970.020 478.552, 968.682 476.759 C 967.343 474.967, 965.759 471.925, 965.161 470 C 964.564 468.075, 963.775 464.137, 963.409 461.250 C 962.875 457.046, 962.373 456, 960.890 456 C 959.784 456, 958.838 456.906, 958.540 458.250 C 958.266 459.488, 957.294 467.025, 956.380 475 C 955.467 482.975, 954.710 495.350, 954.699 502.500 C 954.685 511.238, 955.219 517.716, 956.327 522.259 C 957.234 525.976, 959.143 531.323, 960.571 534.140 C 961.998 536.957, 965.320 541.415, 967.952 544.048 C 970.585 546.680, 975.043 550.002, 977.860 551.429 C 980.677 552.857, 986.024 554.742, 989.741 555.618 C 995.103 556.883, 999.910 557.099, 1013 556.664 C 1024.251 556.290, 1032.363 555.466, 1038.500 554.074 C 1043.810 552.869, 1051.343 550.138, 1056.873 547.411 C 1063.850 543.972, 1067.813 541.206, 1072.373 536.592 C 1075.743 533.183, 1080.020 527.827, 1081.877 524.689 C 1083.735 521.551, 1086.362 515.949, 1087.717 512.242 C 1089.071 508.534, 1091.048 501.225, 1092.110 496 C 1093.316 490.065, 1094.258 480.120, 1094.622 469.500 C 1095.063 456.588, 1094.823 450.025, 1093.621 442.207 C 1092.752 436.546, 1090.694 427.897, 1089.049 422.988 C 1087.405 418.079, 1084.540 411.049, 1082.683 407.365 L 1079.307 400.668 1066.685 415.422 M 666.096 587.250 C 662.834 591.237, 656.303 599.221, 651.583 604.991 C 646.862 610.761, 643 616.037, 643 616.715 C 643 617.394, 644.462 618.687, 646.250 619.590 C 648.038 620.493, 652.687 623.608, 656.583 626.514 C 660.479 629.419, 667.221 635.249, 671.565 639.468 L 679.464 647.140 684.482 641.819 C 687.242 638.893, 693.233 632.509, 697.797 627.634 L 706.093 618.769 712.797 623.236 C 716.483 625.693, 722.650 630.524, 726.500 633.971 C 730.350 637.418, 734.968 641.872, 736.762 643.869 L 740.024 647.500 745.762 641.349 C 748.918 637.966, 756.118 630.251, 761.763 624.205 L 772.026 613.212 768.153 608.356 C 766.022 605.685, 761.404 600.764, 757.890 597.421 C 754.375 594.077, 748.744 589.318, 745.375 586.844 C 742.007 584.370, 737.827 581.757, 736.086 581.036 C 733.348 579.901, 732.759 579.940, 731.711 581.321 C 731.045 582.199, 725.634 588.899, 719.686 596.209 L 708.872 609.500 698.686 599.446 C 693.084 593.916, 685.289 587.278, 681.366 584.696 C 677.442 582.113, 673.735 580, 673.128 580 C 672.522 580, 669.357 583.263, 666.096 587.250 M 843.186 597.446 C 835.384 607.041, 829 615.733, 829 616.761 C 829 617.926, 830.372 619.284, 832.644 620.367 C 834.649 621.323, 839.036 624.213, 842.394 626.788 C 845.753 629.364, 852.157 634.974, 856.627 639.256 L 864.755 647.040 872.127 639.292 C 876.182 635.031, 882.668 628.159, 886.541 624.022 C 890.413 619.885, 894.180 615.713, 894.912 614.751 L 896.242 613.003 892.149 607.581 C 889.897 604.599, 884.390 598.929, 879.911 594.982 C 875.432 591.035, 869.049 586.049, 865.728 583.903 C 862.407 581.756, 859.168 580, 858.531 580 C 857.893 580, 850.988 587.851, 843.186 597.446" stroke="none" fill="#241c24" fill-rule="evenodd"/></svg>