<svg xmlns="http://www.w3.org/2000/svg" width="804" height="532" viewBox="0 0 804 532" version="1.1"><path d="M 205.160 245.595 C 200.864 249.272, 190.088 262.627, 186.179 269.118 C 182.547 275.149, 183.502 280.199, 189.192 285.049 L 192.183 287.598 169.609 307.350 C 157.193 318.214, 145.505 328.542, 143.637 330.301 C 141.768 332.060, 132.938 339.800, 124.014 347.500 C 115.090 355.200, 91.411 375.806, 71.394 393.292 L 35 425.084 35 429.625 C 35 432.123, 35.419 434.017, 35.930 433.833 C 36.746 433.541, 54.295 418.437, 130.500 352.440 C 198.728 293.351, 200.622 291.800, 217.798 280.940 C 232.286 271.781, 234.544 270.008, 234.828 267.568 C 235.009 266.022, 234.784 264.401, 234.328 263.966 C 233.873 263.531, 229.225 264.913, 224 267.037 C 211.479 272.127, 209.405 272.097, 203.503 266.750 L 198.813 262.500 200.995 259.730 C 203.575 256.454, 207.969 254, 211.255 254 C 212.549 254, 215.737 255.350, 218.339 257 C 220.941 258.650, 223.279 260, 223.535 260 C 223.791 260, 224 256.887, 224 253.082 C 224 246.305, 223.931 246.120, 220.632 244.082 C 215.317 240.797, 210.179 241.299, 205.160 245.595 M 489.500 380.102 C 476.850 391.189, 455.702 409.540, 442.505 420.880 C 429.308 432.221, 408.833 450.017, 397.005 460.428 L 375.500 479.355 375.195 484.258 C 374.945 488.275, 375.148 489.011, 376.315 488.330 C 377.887 487.414, 455.150 420.782, 457.828 418.033 C 459.143 416.683, 511.587 371.277, 512.806 370.433 C 512.974 370.317, 512.974 367.908, 512.806 365.082 L 512.500 359.942 489.500 380.102" stroke="none" fill="#e91c3b" fill-rule="evenodd"/><path d="M 355.500 36.892 C 339.869 42.582, 312.399 65.188, 293.772 87.688 C 277.686 107.121, 260.397 136.337, 253.200 156.250 C 247.045 173.282, 242.107 206.749, 243.896 219.308 C 245.969 233.859, 256.080 248.058, 268.288 253.561 C 273.143 255.749, 276.576 256.486, 284 256.932 L 293.500 257.503 284.500 266.867 C 274.121 277.665, 255.695 293.356, 241.369 303.596 C 206.034 328.854, 175.234 340.557, 157.013 335.648 L 151.526 334.170 145.013 339.710 C 141.431 342.757, 132.050 350.864, 124.167 357.726 C 107.853 371.925, 108.561 370.102, 114.470 382.691 C 121.101 396.818, 129.965 407.309, 142.052 415.334 C 163.614 429.651, 194.436 426.918, 223.040 408.155 C 233.723 401.147, 236.990 398.653, 248.133 389 L 254.482 383.500 245.177 394.186 C 240.060 400.063, 229.151 411.831, 220.936 420.336 C 212.721 428.842, 206 436.465, 206 437.278 C 206 443.265, 215.816 442.542, 250.109 434.028 C 297.296 422.313, 294.921 423.435, 305.191 408 C 319.971 385.787, 327.661 366.396, 337.510 326.500 C 345.252 295.143, 353.334 245, 350.646 245 C 350.294 245, 347.198 247.067, 343.766 249.593 C 337.681 254.073, 337.290 254.649, 327.997 272.843 C 319.174 290.115, 303.517 317.150, 298.948 323 C 297.874 324.375, 298.962 321.225, 301.365 316 C 311.966 292.952, 318.612 271.209, 321.054 251.586 C 322.596 239.201, 321.754 222.140, 319.092 211.803 C 316.955 203.507, 312.811 193.918, 310.553 192.044 C 309.783 191.405, 304.282 189.600, 298.327 188.032 C 283.256 184.064, 276.238 181.253, 272.330 177.619 C 269.183 174.693, 269.039 174.276, 269.995 170.894 C 270.556 168.910, 272.835 164.470, 275.061 161.027 C 288.412 140.370, 319.276 119.388, 351.181 109.278 L 359.917 106.510 360.421 101.505 C 360.699 98.752, 361.185 89.750, 361.501 81.500 C 362.060 66.963, 363.350 49.496, 364.585 39.750 C 365.155 35.256, 365.061 35.002, 362.844 35.036 C 361.555 35.056, 358.250 35.891, 355.500 36.892 M 551.987 63.108 C 533.835 83.359, 523.266 92.911, 478.593 129.435 C 456.195 147.748, 447.744 156.104, 440.309 167.288 C 436.179 173.499, 406.764 229.097, 407.315 229.649 C 407.444 229.777, 413.404 224.171, 420.560 217.191 C 427.716 210.211, 437.830 200.974, 443.036 196.664 C 452.364 188.940, 452.392 188.925, 445 195.642 C 416.924 221.154, 403.381 236.845, 394.649 253.980 L 389.797 263.500 390.443 251 C 391.235 235.673, 394.334 192.978, 397.068 159.739 C 398.188 146.120, 398.829 134.532, 398.493 133.989 C 397.178 131.861, 395.695 133.399, 388.596 144.250 C 380.281 156.959, 372.496 171.034, 365.479 186.045 C 359.953 197.867, 360.830 189.502, 356.567 271 C 352.939 340.339, 352.614 352.508, 353.940 369.338 C 356.372 400.190, 363.923 418.489, 375.861 422.454 C 392.127 427.857, 413.441 429.320, 429.666 426.147 C 438.482 424.424, 439.093 424.126, 445.666 418.363 C 454.467 410.645, 508.950 363.144, 511.250 361.183 C 512.886 359.787, 512.996 360.043, 512.933 365.095 L 512.866 370.500 485.509 394 C 470.463 406.925, 458.748 417.637, 459.476 417.804 C 461.691 418.313, 479.801 411.128, 492.301 404.781 C 521.698 389.855, 535.378 377.410, 544.965 356.873 C 548.445 349.419, 553.266 331.022, 555.058 318.356 C 556.246 309.966, 556.190 309.082, 554.077 302.731 C 552.845 299.029, 551.483 296, 551.051 296 C 550.619 296, 549.010 297.913, 547.476 300.250 C 542.788 307.391, 525.199 324.041, 511.791 334.031 C 500.604 342.366, 476.251 357.932, 471.952 359.496 C 470.732 359.940, 471.099 357.929, 473.683 350.020 C 478.882 334.108, 481.079 322.026, 481.691 306 C 482.624 281.523, 479.714 270.749, 469.581 261.165 L 464.177 256.054 480.758 240.823 C 489.878 232.446, 500.390 222.541, 504.119 218.812 C 514.132 208.799, 529.371 187.967, 534.576 177.176 C 542.773 160.185, 574.704 82.371, 573.836 81.503 C 573.613 81.280, 566.448 87.713, 557.914 95.799 C 545.166 107.877, 525.224 125.974, 513.126 136.445 C 511.820 137.575, 514.128 133.550, 518.254 127.500 C 526.308 115.692, 547.249 83.027, 552.551 74 C 556.507 67.267, 561.230 56.190, 560.755 54.764 C 560.562 54.187, 556.617 57.942, 551.987 63.108 M 696.135 137.148 C 680.835 154.423, 672.765 168.871, 667.993 187.526 C 664.371 201.689, 663.005 217.695, 660.955 270 C 660.922 270.825, 660.013 269.250, 658.935 266.500 C 653.299 252.132, 638.798 241.115, 621.256 237.871 C 616.843 237.054, 615.339 237.204, 611.756 238.815 C 603.332 242.602, 600.811 247.640, 593.039 276.215 C 590.304 286.272, 586.083 300.800, 583.658 308.500 C 575.832 333.353, 573.598 344.071, 573.546 357 C 573.511 365.824, 573.925 369.601, 575.326 373.232 C 577.641 379.231, 584.443 385.370, 590.451 386.883 C 604.011 390.298, 614.962 386.100, 629.129 372.056 C 642.402 358.899, 648.981 347.529, 656.645 324.500 C 659.890 314.748, 659.961 314.637, 659.514 320 C 659.262 323.025, 658.809 329.550, 658.508 334.500 C 657.997 342.909, 654.637 361.171, 651.855 370.660 L 650.635 374.820 656.817 381.794 C 660.218 385.630, 663 389.095, 663 389.495 C 663 390.655, 641.139 414.519, 629.574 425.982 C 618.660 436.801, 617.005 439.862, 620.934 441.965 C 624.912 444.094, 633.445 442.831, 661.129 436.014 C 700.794 426.247, 702.239 425.757, 707.938 420.162 C 717.296 410.975, 730.813 386.011, 737.534 365.500 C 746.176 339.126, 756.228 293.741, 759.005 268.557 C 759.554 263.576, 760.225 257.540, 760.497 255.145 C 761.085 249.959, 760.760 249.998, 752.612 256.091 C 747.342 260.032, 746.369 261.425, 740.497 273.438 C 729.246 296.456, 712.242 324.676, 695.872 347.496 C 684.475 363.385, 683.331 364.651, 686.832 357.500 C 691.266 348.443, 695.736 334.247, 698.588 320.163 C 701.870 303.951, 702.840 283.654, 703.970 207.500 C 704.661 160.934, 705.143 148.021, 706.414 142 C 708.383 132.673, 708.384 132.695, 706.209 130.009 L 704.417 127.797 696.135 137.148 M 153.724 167.750 C 137.963 192.974, 133.751 201.124, 127.196 219.082 C 110.991 263.475, 103.993 296.134, 104.006 327.301 C 104.011 338.938, 106.075 360.408, 107.307 361.641 C 107.476 361.809, 113.906 356.446, 121.596 349.723 C 129.286 343.001, 137.476 335.879, 139.796 333.898 L 144.015 330.295 140.466 326.532 C 126.783 312.024, 125.040 283.742, 135.503 246 C 137.408 239.125, 144.559 217.051, 151.393 196.946 C 162.446 164.431, 166.338 151, 164.708 151 C 164.423 151, 159.480 158.537, 153.724 167.750 M 518.241 231.451 C 516.639 232.799, 511.631 239.661, 507.113 246.701 C 502.594 253.740, 497.112 261.952, 494.929 264.948 C 492.747 267.945, 490.444 272.123, 489.812 274.234 C 488.344 279.134, 489.822 281.293, 500.086 289.240 C 515.789 301.397, 523.079 303.496, 529.644 297.750 C 537.525 290.853, 549.164 276.376, 553.051 268.634 C 557.379 260.013, 557.691 258.237, 555.587 254.169 C 551.969 247.172, 528.327 229, 522.842 229 C 521.913 229, 519.843 230.103, 518.241 231.451 M 433.355 290.992 C 418.701 294.059, 408.669 306.277, 411.913 317.105 C 412.607 319.419, 414.887 322.841, 417.307 325.201 C 422.220 329.992, 436.019 337, 440.537 337 C 445.129 337, 455.805 331.290, 461.087 326.008 C 470.728 316.368, 471.034 307.605, 462.033 298.874 C 455.115 292.163, 443.290 288.913, 433.355 290.992 M 603.495 296.183 C 597.024 301.273, 589.025 317.980, 590.413 323.509 C 591.494 327.817, 596.753 332.757, 602.175 334.558 C 609.283 336.919, 626.219 336.148, 634.146 333.103 C 641.360 330.332, 651.389 323.863, 653.525 320.602 C 659.044 312.179, 643.666 300.665, 620.518 295.888 C 608.935 293.497, 606.864 293.533, 603.495 296.183" stroke="none" fill="#241c24" fill-rule="evenodd"/></svg>