<?xml version="1.0" encoding="UTF-8"?>
<svg id="Layer_2" xmlns="http://www.w3.org/2000/svg" viewBox="0 0 374.64 101.78">
  <defs>
    <style>
      .cls-1 {
        fill: #231f20;
      }

      .cls-2 {
        fill: #ec1f3b;
      }
    </style>
  </defs>
  <g id="Layer_1-2" data-name="Layer_1">
    <path class="cls-1" d="M289.58,89.38c-1.8-1.59-3.5-2.79-5.11-3.58l-6.93,8.51v.53c1.29.56,2.78,1.56,4.48,3.01s3.04,2.76,4.04,3.93l7.46-7.99c-.82-1.35-2.13-2.82-3.93-4.41Z"/>
    <path class="cls-1" d="M274.97,89.38c-1.8-1.59-3.5-2.79-5.11-3.58l-6.93,8.51v.53c1.29.56,2.78,1.56,4.48,3.01s3.04,2.76,4.04,3.93l7.46-7.99c-.82-1.35-2.13-2.82-3.93-4.41Z"/>
    <path class="cls-1" d="M157.03,89.38c-1.8-1.59-3.5-2.79-5.11-3.58l-6.93,8.51v.53c1.29.56,2.78,1.56,4.48,3.01s3.04,2.76,4.04,3.93l7.46-7.99c-.82-1.35-2.13-2.82-3.93-4.41Z"/>
    <path class="cls-1" d="M142.42,89.38c-1.8-1.59-3.5-2.79-5.11-3.58l-6.93,8.51v.53c1.29.56,2.78,1.56,4.48,3.01s3.04,2.76,4.04,3.93l7.46-7.99c-.82-1.35-2.13-2.82-3.93-4.41Z"/>
    <path class="cls-1" d="M108.55,37.88c-.69-1.84-1.48-3.79-2.39-5.84-.15-.35-.29-.68-.44-.99s-.26-.59-.35-.86h-.53c-1.03,2.66-2.19,5.35-3.49,8.07-1.3,2.72-2.45,4.64-3.45,5.75,1.73,1.17,3.49,2.53,5.29,4.08s3.28,2.99,4.45,4.32c1.17,1.33,1.76,2.26,1.76,2.79,0,.85-1.4,1.9-4.19,3.16-2.79,1.26-6.98,2.37-12.55,3.33s-12.34,1.45-20.29,1.45c-6.17,0-26.98-.58-31.25-1.73-4.27-1.16-7.47-2.73-9.61-4.74-2.14-2-3.2-4.28-3.2-6.82,0-1.64.1-3.19.31-4.65.2-1.46.56-3.1,1.05-4.91h-1.05c-1.46,3.89-2.45,7.34-2.96,10.35-.51,3.01-.77,5.95-.77,8.82,0,4.53,1.02,8.28,3.07,11.23,2.05,2.95,5.3,5.18,9.76,6.69,4.46,1.51,25.88,2.26,33.07,2.26,9.97,0,17.91-.98,23.82-2.94,5.91-1.96,10.15-4.88,12.72-8.75,2.57-3.88,3.86-8.84,3.86-14.9,0-2.98-.27-5.8-.81-8.45-.54-2.65-1.15-4.89-1.84-6.73Z"/>
    <path class="cls-1" d="M72.77,45.23c-1.8-1.59-3.5-2.79-5.11-3.58l-6.93,8.51v.53c1.29.56,2.78,1.56,4.48,3.01s3.04,2.76,4.04,3.93l7.46-7.99c-.82-1.35-2.13-2.82-3.93-4.41Z"/>
    <path class="cls-1" d="M71.44,30.26c-1.8-1.59-3.5-2.79-5.11-3.58l-6.93,8.51v.53c1.29.56,2.78,1.56,4.48,3.01s3.04,2.76,4.04,3.93l7.46-7.99c-.82-1.35-2.13-2.82-3.93-4.41Z"/>
    <path class="cls-2" d="M27.23,64.21c4.6-5.29,9.12-10.65,13.48-16.14,5.96-7.1,11.91-14.21,17.87-21.3.61-.72.73-1.23-.35-1.64-.68-.26-1.36-.66-1.9-1.15-1.38-1.23-2.12-2.68-1.38-4.62,1.78-4.62,4.12-8.92,7.23-12.78,1.18-1.46,2.6-2.45,4.68-1.98,2.33.52,3.2,1.4,3.52,3.8.12.92.29,1.83.47,3-1.48-.56-2.72-1.08-4-1.5-2.41-.78-6.1,1.39-6.61,3.85-.1.46.02.84.31,1.21,2.04,2.63,5.57,3.3,8.45,1.58,1.7-1.02,3.38-2.09,5.12-3.04.5-.27,1.24-1.18,1.68-.41.43.75.81,1.89-.17,2.73-.09.08-.18.18-.28.25-11.19,8.45-19.7,19.45-28.59,30.08-.87,1.04-1.7,2.13-2.54,3.2-3.74,4.37-7.49,8.74-11.22,13.13-1.48,1.74-2.91,3.53-4.37,5.29-7.02,8.23-14.04,16.46-21.06,24.69-2.32,2.72-4.63,5.44-7.07,8.32-.84-2.19-.64-3.73.82-5.45,8.42-9.91,16.7-19.93,25.02-29.92.32-.38.6-.79.89-1.19Z"/>
    <path class="cls-1" d="M139.28,79.34c-4.19,0-7.51-.64-9.98-1.93s-4.3-3.46-5.51-6.51-1.92-7.29-2.14-12.72c-.31-9.92-.64-17.56-1-22.93-.36-5.36-.76-9.5-1.21-12.42-.45-2.91-1.09-6.14-1.93-9.67,1.7-1.64,3.47-3.7,5.3-6.16,1.83-2.46,3.44-4.8,4.84-7h.56c0,1.27.06,3.41.19,6.42.25,4.53.37,8.82.37,12.88,0,3.07-.09,8.12-.28,15.16-.19,7.47-.28,13.15-.28,17.02,0,2.85.46,5.17,1.37,6.95.91,1.78,2.38,3.12,4.39,4,2.02.88,4.65,1.33,7.91,1.33l-2.6,15.58Z"/>
    <path class="cls-1" d="M177.13,79.34c-2.95,0-5.51-.57-7.7-1.72-2.19-1.15-3.83-3.12-4.93-5.91-1.1-2.79-1.39-6.54-.86-11.25h-.6c-.16,4.5-1.08,8.13-2.77,10.91-1.69,2.78-4.24,4.8-7.65,6.07-3.41,1.27-7.84,1.91-13.3,1.91-.93,0-1.6-.42-2.02-1.26s-.63-2.11-.63-3.81c0-3.47.45-6.09,1.35-7.86.9-1.77,2.19-2.65,3.86-2.65,6.23,0,10.87-.43,13.9-1.28,3.04-.85,5.2-2.33,6.49-4.42,1.29-2.09,2.32-5.35,3.09-9.79h1.02v5.3c0,2.23.42,4.09,1.26,5.58.84,1.49,2.22,2.63,4.16,3.42,1.94.79,4.55,1.19,7.83,1.19l-2.51,15.58Z"/>
    <path class="cls-1" d="M240.61,59.2c0,6.42-1.12,11.38-3.37,14.88-2.25,3.5-5.54,5.25-9.88,5.25-2.54,0-4.65-.5-6.33-1.49-1.67-.99-2.88-2.5-3.63-4.53-.74-2.03-.95-4.58-.6-7.65h-.56c-.59,4.53-2.09,7.94-4.51,10.23-2.42,2.29-5.38,3.44-8.88,3.44s-5.95-1.15-7.6-3.44c-1.66-2.29-2.16-5.7-1.51-10.23h-.56c-.87,4.65-2.64,8.09-5.33,10.32-2.68,2.23-6.27,3.35-10.77,3.35-.84,0-1.49-.42-1.95-1.26s-.7-2.11-.7-3.81c0-3.44.46-6.05,1.37-7.84.91-1.78,2.19-2.67,3.84-2.67,3.35,0,6.07-.35,8.16-1.05,2.09-.7,3.79-1.94,5.09-3.72,1.3-1.78,2.29-4.29,2.98-7.51h1.07c0,.16-.02.32-.05.49-.03.17-.06.37-.09.58-.25,1.74-.54,3.8-.86,6.19-.33,2.39-.57,4-.72,4.84l-.51-3.16c.87,1.05,2.17,1.88,3.91,2.46,1.74.59,3.81.88,6.23.88,2.88,0,5.21-.39,6.98-1.16,1.77-.78,3.17-2.04,4.21-3.79,1.04-1.75,1.82-4.19,2.35-7.32h1.12c0,.16-.02.32-.05.49-.03.17-.06.37-.09.58-.25,1.74-.54,3.8-.86,6.19-.33,2.39-.57,4-.72,4.84v-3.16c.87,1.05,2.24,1.88,4.12,2.46,1.88.59,4.05.88,6.53.88,1.77,0,3.46-.17,5.07-.51,1.61-.34,2.91-.78,3.88-1.33.98-.54,1.46-1.06,1.46-1.56,0-.87-.76-2.16-2.28-3.88-1.52-1.72-4.22-4.1-8.09-7.14,1.05-1.58,2.15-3.54,3.3-5.86,1.15-2.33,2.08-4.59,2.79-6.79h.56c.09.25.19.5.3.74s.24.54.4.88c.9,2.05,1.67,3.97,2.3,5.77.63,1.8,1.21,4.01,1.72,6.63.51,2.62.77,5.45.77,8.49Z"/>
    <path class="cls-1" d="M273.3,79.34c-4.19,0-7.51-.64-9.98-1.93s-4.3-3.46-5.51-6.51-1.92-7.29-2.14-12.72c-.31-9.92-.64-17.56-1-22.93-.36-5.36-.76-9.5-1.21-12.42-.45-2.91-1.09-6.14-1.93-9.67,1.71-1.64,3.47-3.7,5.3-6.16,1.83-2.46,3.44-4.8,4.84-7h.56c0,1.27.06,3.41.19,6.42.25,4.53.37,8.82.37,12.88,0,3.07-.09,8.12-.28,15.16-.19,7.47-.28,13.15-.28,17.02,0,2.85.46,5.17,1.37,6.95.91,1.78,2.38,3.12,4.39,4,2.01.88,4.65,1.33,7.91,1.33l-2.6,15.58Z"/>
    <path class="cls-1" d="M311.16,79.34c-2.95,0-5.51-.57-7.7-1.72-2.19-1.15-3.83-3.12-4.93-5.91-1.1-2.79-1.39-6.54-.86-11.25h-.61c-.16,4.5-1.08,8.13-2.77,10.91-1.69,2.78-4.24,4.8-7.65,6.07s-7.84,1.91-13.3,1.91c-.93,0-1.6-.42-2.02-1.26-.42-.84-.63-2.11-.63-3.81,0-3.47.45-6.09,1.35-7.86.9-1.77,2.19-2.65,3.86-2.65,6.23,0,10.87-.43,13.91-1.28,3.04-.85,5.2-2.33,6.49-4.42,1.29-2.09,2.32-5.35,3.09-9.79h1.02v5.3c0,2.23.42,4.09,1.26,5.58.84,1.49,2.22,2.63,4.16,3.42,1.94.79,4.55,1.19,7.84,1.19l-2.51,15.58Z"/>
    <path class="cls-1" d="M374.64,59.2c0,6.42-1.12,11.38-3.37,14.88-2.25,3.5-5.54,5.25-9.88,5.25-2.54,0-4.65-.5-6.33-1.49-1.67-.99-2.88-2.5-3.63-4.53-.74-2.03-.95-4.58-.6-7.65h-.56c-.59,4.53-2.09,7.94-4.51,10.23-2.42,2.29-5.38,3.44-8.88,3.44s-5.95-1.15-7.6-3.44c-1.66-2.29-2.16-5.7-1.51-10.23h-.56c-.87,4.65-2.64,8.09-5.33,10.32-2.68,2.23-6.27,3.35-10.77,3.35-.84,0-1.49-.42-1.95-1.26s-.7-2.11-.7-3.81c0-3.44.46-6.05,1.37-7.84.92-1.78,2.19-2.67,3.84-2.67,3.35,0,6.07-.35,8.16-1.05,2.09-.7,3.79-1.94,5.09-3.72,1.3-1.78,2.29-4.29,2.98-7.51h1.07c0,.16-.02.32-.05.49-.03.17-.06.37-.09.58-.25,1.74-.54,3.8-.86,6.19-.33,2.39-.57,4-.72,4.84l-.51-3.16c.87,1.05,2.17,1.88,3.91,2.46,1.74.59,3.81.88,6.23.88,2.88,0,5.21-.39,6.98-1.16,1.77-.78,3.17-2.04,4.21-3.79,1.04-1.75,1.82-4.19,2.35-7.32h1.12c0,.16-.02.32-.05.49-.03.17-.06.37-.09.58-.25,1.74-.54,3.8-.86,6.19-.33,2.39-.57,4-.72,4.84v-3.16c.87,1.05,2.24,1.88,4.12,2.46,1.88.59,4.05.88,6.53.88,1.77,0,3.46-.17,5.07-.51,1.61-.34,2.91-.78,3.88-1.33.98-.54,1.46-1.06,1.46-1.56,0-.87-.76-2.16-2.28-3.88-1.52-1.72-4.22-4.1-8.09-7.14,1.05-1.58,2.15-3.54,3.3-5.86,1.15-2.33,2.08-4.59,2.79-6.79h.56c.09.25.19.5.3.74s.24.54.4.88c.9,2.05,1.67,3.97,2.3,5.77.63,1.8,1.21,4.01,1.72,6.63.51,2.62.77,5.45.77,8.49Z"/>
  </g>
</svg>