<svg xmlns="http://www.w3.org/2000/svg" width="1362" height="1101" viewBox="0 0 1362 1101" version="1.1"><path d="" stroke="none" fill="#FF2E31" fill-rule="evenodd"/><path d="M 747.374 214.250 C 745.713 216.037, 739.083 223.888, 732.640 231.694 C 726.197 239.501, 720.010 246.180, 718.890 246.535 C 717.771 246.890, 715.828 246.923, 714.572 246.607 C 713.315 246.292, 706.958 241.751, 700.443 236.517 C 692.341 230.007, 687.782 227, 686.015 227 C 684.209 227, 681.905 228.580, 678.360 232.250 C 675.571 235.137, 670.411 241.100, 666.894 245.500 C 663.376 249.900, 656.561 258.702, 651.749 265.060 C 646.937 271.418, 643 276.916, 643 277.279 C 643 277.642, 650.080 283.598, 658.734 290.513 C 670.881 300.221, 675.042 303.021, 676.984 302.794 C 678.857 302.575, 683.716 297.568, 696 283.199 L 712.500 263.897 714.886 266.699 C 716.198 268.239, 721.962 274.799, 727.695 281.276 L 738.119 293.052 744.810 284.776 C 748.489 280.225, 757.236 269.300, 764.247 260.500 C 771.257 251.700, 777.268 243.488, 777.605 242.250 C 777.941 241.012, 777.933 238.870, 777.586 237.488 C 777.240 236.106, 772.387 229.919, 766.803 223.738 C 761.218 217.557, 756.166 212.169, 755.575 211.765 C 754.984 211.361, 753.576 211.024, 752.446 211.015 C 751.317 211.007, 749.034 212.463, 747.374 214.250 M 446.062 232.304 C 443.621 235.712, 437.893 243.954, 433.334 250.620 C 428.775 257.286, 424.006 263.421, 422.737 264.253 C 421.467 265.085, 418.085 266.598, 415.222 267.615 L 410.016 269.464 406.652 267.652 C 404.801 266.655, 397.260 260.485, 389.894 253.941 C 382.527 247.397, 375.954 242.033, 375.286 242.021 C 374.619 242.010, 371.796 244.736, 369.012 248.081 C 366.229 251.425, 361.797 257.388, 359.163 261.331 C 356.529 265.274, 352.323 272.100, 349.816 276.500 C 347.310 280.900, 343.850 287.300, 342.129 290.721 C 340.408 294.143, 339 297.843, 339 298.944 C 339 300.284, 343.378 304.628, 352.250 312.091 C 359.538 318.221, 367.430 324.112, 369.790 325.183 C 373.330 326.789, 374.656 326.939, 377.375 326.041 C 379.187 325.443, 381.889 323.681, 383.379 322.126 C 384.869 320.571, 391.588 311.469, 398.310 301.899 C 406.403 290.379, 411.218 284.401, 412.561 284.207 C 414.117 283.983, 417.153 287.131, 425.578 297.707 C 431.621 305.293, 438.755 314.313, 441.430 317.750 C 444.106 321.188, 446.624 324, 447.026 324 C 447.429 324, 450.789 320.787, 454.493 316.860 C 458.198 312.933, 464.117 305.311, 467.648 299.922 C 471.179 294.534, 476.164 285.709, 478.726 280.312 C 481.288 274.916, 483.387 269.129, 483.392 267.454 C 483.398 265.258, 481.686 262.156, 477.262 256.345 C 473.887 251.910, 467.031 243.269, 462.027 237.141 C 457.023 231.013, 452.382 226.024, 451.714 226.054 C 451.046 226.084, 448.503 228.896, 446.062 232.304 M 596.159 227.750 C 595.024 228.713, 587.961 238.500, 580.464 249.500 C 572.966 260.500, 565.223 271.857, 563.258 274.738 C 560.514 278.760, 559.895 280.419, 560.592 281.881 C 561.091 282.928, 567.338 289.272, 574.473 295.977 C 581.609 302.683, 588.291 308.620, 589.322 309.172 C 590.881 310.007, 591.943 309.374, 595.627 305.418 C 598.064 302.802, 605.828 292.075, 612.880 281.580 C 619.933 271.086, 626.259 260.801, 626.938 258.724 L 628.172 254.948 625.836 251.213 C 624.551 249.159, 618.487 242.646, 612.360 236.739 C 606.233 230.833, 600.546 226, 599.721 226 C 598.896 226, 597.293 226.787, 596.159 227.750 M 1241.314 257.250 C 1240.194 258.488, 1235.985 264.450, 1231.958 270.500 C 1227.932 276.550, 1221.994 285.205, 1218.764 289.732 L 1212.889 297.965 1208.329 291.232 C 1205.820 287.530, 1202.583 283.226, 1201.134 281.670 C 1199.685 280.113, 1195.520 276.626, 1191.878 273.920 C 1188.235 271.214, 1184.520 269, 1183.621 269 C 1182.722 269, 1181.051 270.076, 1179.908 271.391 C 1178.764 272.706, 1175.704 277.319, 1173.107 281.641 C 1170.510 285.963, 1163.799 296.978, 1158.193 306.117 C 1152.587 315.256, 1148 323.605, 1148 324.671 C 1148 325.736, 1149.463 327.971, 1151.250 329.638 C 1153.037 331.305, 1159.083 336.370, 1164.685 340.894 L 1174.869 349.119 1178.185 347.421 C 1180.008 346.487, 1184.650 342.513, 1188.500 338.590 C 1192.350 334.666, 1197.075 328.612, 1199 325.136 C 1200.925 321.660, 1203.435 317.664, 1204.579 316.257 C 1206.172 314.295, 1207.236 313.842, 1209.137 314.319 C 1210.701 314.712, 1215.967 320.120, 1223.405 328.971 C 1229.889 336.687, 1235.550 343, 1235.986 343 C 1236.422 343, 1237.667 342.212, 1238.754 341.250 C 1239.841 340.288, 1243.884 335.675, 1247.740 331 C 1251.595 326.325, 1257.293 318.753, 1260.401 314.173 C 1263.510 309.592, 1267.616 302.741, 1269.526 298.948 C 1271.756 294.521, 1273 290.623, 1273 288.066 C 1273 284.653, 1272.126 283.039, 1266.897 276.791 C 1263.540 272.781, 1257.716 266.238, 1253.954 262.250 C 1250.170 258.238, 1246.274 255, 1245.232 255 C 1244.196 255, 1242.433 256.012, 1241.314 257.250 M 777.629 287.250 C 776.279 289.587, 774.045 294.215, 772.666 297.533 C 771.286 300.851, 767.392 310.976, 764.012 320.033 C 760.632 329.090, 756.529 341.225, 754.896 347 C 752.628 355.014, 751.587 361.761, 750.497 375.500 C 749.711 385.400, 748.146 405.200, 747.018 419.500 C 745.891 433.800, 743.831 455.175, 742.440 467 C 741.050 478.825, 739.486 491.200, 738.964 494.500 C 738.442 497.800, 738.012 504.227, 738.008 508.781 C 738.001 515.616, 738.293 517.175, 739.679 517.707 C 740.851 518.157, 742.388 517.166, 744.773 514.426 C 746.651 512.267, 749.270 508.378, 750.593 505.785 C 751.916 503.192, 755.283 495.542, 758.076 488.785 C 760.869 482.028, 764.909 469.664, 767.055 461.308 C 769.201 452.952, 771.623 441.027, 772.438 434.808 C 773.253 428.589, 774.624 413.600, 775.484 401.500 C 776.345 389.400, 778.614 362.257, 780.525 341.182 C 782.436 320.107, 784 299.106, 784 294.514 C 784 289.921, 783.727 285.452, 783.393 284.582 C 783.059 283.712, 782.178 283, 781.435 283 C 780.692 283, 778.979 284.913, 777.629 287.250 M 531.878 305.640 C 530.987 306.663, 529.794 308.400, 529.229 309.500 C 528.664 310.600, 525.872 317.125, 523.026 324 C 520.180 330.875, 515.230 343.025, 512.026 351 C 508.822 358.975, 503.019 374.725, 499.131 386 C 495.244 397.275, 489.780 414.600, 486.990 424.500 C 484.200 434.400, 479.930 452.400, 477.500 464.500 C 475.070 476.600, 472.420 492.575, 471.611 500 C 470.802 507.425, 469.857 519.575, 469.510 527 C 469.161 534.474, 469.321 543.531, 469.870 547.290 C 470.415 551.025, 471.876 556.200, 473.118 558.790 C 474.359 561.381, 477.963 566.049, 481.126 569.165 C 484.699 572.685, 489.646 576.183, 494.189 578.402 C 498.803 580.656, 504.266 582.390, 509 583.103 C 513.321 583.754, 519.968 583.952, 524.681 583.570 C 529.181 583.205, 537.281 581.832, 542.681 580.518 C 548.082 579.205, 558.575 576.261, 566 573.976 C 573.425 571.692, 584.450 567.799, 590.500 565.327 C 596.550 562.855, 606.225 558.337, 612 555.288 C 617.775 552.240, 626.325 547.270, 631 544.245 C 635.675 541.220, 643.100 535.939, 647.500 532.508 C 651.900 529.077, 660.014 521.581, 665.530 515.850 C 671.047 510.118, 678.084 501.845, 681.169 497.464 C 684.254 493.084, 689.505 484.550, 692.838 478.500 C 696.172 472.450, 701.378 461.182, 704.407 453.460 C 707.437 445.738, 710.576 436.884, 711.384 433.785 C 712.191 430.686, 713.650 423.504, 714.626 417.825 C 715.960 410.064, 716.413 401.793, 716.450 384.518 L 716.500 361.537 714.891 361.222 C 713.809 361.011, 711.979 363.132, 709.299 367.704 C 707.108 371.442, 702.816 379.900, 699.763 386.500 C 696.709 393.100, 692.167 404.800, 689.670 412.500 C 687.173 420.200, 683.956 432.575, 682.521 440 C 681.087 447.425, 679.463 455.804, 678.912 458.620 C 678.362 461.436, 676.350 466.999, 674.441 470.982 C 672.114 475.839, 668.751 480.524, 664.235 485.202 C 660.531 489.039, 654.575 494.110, 651 496.471 C 647.425 498.832, 642.138 501.949, 639.250 503.399 C 636.362 504.848, 634 505.539, 634 504.934 C 634 504.330, 635.381 500.688, 637.070 496.841 C 638.758 492.994, 640.825 486.619, 641.662 482.673 C 642.705 477.762, 643.041 472.190, 642.728 465 C 642.402 457.489, 641.652 452.885, 640.093 448.828 C 638.725 445.264, 636.465 441.846, 634.017 439.634 C 631.802 437.633, 627.857 435.441, 624.878 434.556 C 621.995 433.700, 617.966 433, 615.924 433 C 613.882 433, 609.318 433.893, 605.783 434.985 C 602.248 436.077, 596.618 438.740, 593.273 440.902 C 589.927 443.064, 585.279 446.559, 582.944 448.667 C 580.609 450.775, 577.017 454.774, 574.963 457.554 C 572.908 460.333, 569.827 465.380, 568.117 468.769 C 566.406 472.158, 561.587 482.919, 557.408 492.682 C 553.229 502.446, 548.545 512.924, 546.999 515.967 C 545.454 519.010, 542.909 522.709, 541.344 524.186 C 539.780 525.664, 537.233 527.351, 535.685 527.936 C 534.137 528.521, 530.087 528.996, 526.685 528.990 C 522.301 528.983, 519.025 528.294, 515.435 526.622 C 512.649 525.324, 508.742 522.834, 506.753 521.088 C 504.763 519.341, 502.097 515.794, 500.827 513.206 L 498.519 508.500 498.538 486.500 L 498.557 464.500 501.722 449.500 C 503.462 441.250, 506.491 426.850, 508.453 417.500 C 510.415 408.150, 513.856 392.400, 516.099 382.500 C 518.343 372.600, 523.310 351.503, 527.137 335.619 C 530.965 319.734, 533.962 306.072, 533.798 305.258 C 533.555 304.054, 533.198 304.125, 531.878 305.640 M 1079.309 324.250 C 1078.864 324.938, 1077.002 329.550, 1075.171 334.500 C 1073.340 339.450, 1068.697 352.275, 1064.852 363 C 1061.008 373.725, 1055.831 389.475, 1053.350 398 C 1050.868 406.525, 1046.379 424.300, 1043.375 437.500 C 1040.371 450.700, 1035.674 472.380, 1032.937 485.678 C 1030.023 499.838, 1027.587 514.794, 1027.057 521.774 C 1026.515 528.913, 1026.518 537.901, 1027.063 544.184 C 1027.564 549.954, 1028.637 556.553, 1029.447 558.849 C 1030.256 561.144, 1032.278 564.997, 1033.938 567.410 C 1035.598 569.823, 1038.731 573.203, 1040.899 574.920 C 1043.067 576.637, 1047.014 579.026, 1049.670 580.229 C 1053.308 581.876, 1056.478 582.426, 1062.514 582.458 L 1070.528 582.500 1080.458 577.699 C 1085.920 575.059, 1093.156 570.924, 1096.538 568.510 C 1099.921 566.096, 1105.053 561.534, 1107.942 558.373 C 1110.832 555.211, 1115.841 549.150, 1119.074 544.903 C 1122.306 540.657, 1127.723 532.783, 1131.111 527.404 C 1134.499 522.026, 1139.492 512.873, 1142.206 507.063 C 1144.920 501.253, 1148.627 491.550, 1150.443 485.500 C 1152.259 479.450, 1154.310 471.423, 1155.002 467.662 C 1155.694 463.901, 1156.025 458.051, 1155.739 454.662 C 1155.453 451.273, 1154.198 445.800, 1152.951 442.500 C 1151.231 437.951, 1149.089 434.924, 1144.091 429.985 C 1140.466 426.401, 1135.019 422.239, 1131.986 420.735 C 1128.295 418.904, 1124.889 418, 1121.686 418 C 1119.054 418, 1115.686 418.632, 1114.200 419.405 C 1112.715 420.178, 1110.538 421.865, 1109.363 423.155 C 1108.187 424.445, 1106.312 427.322, 1105.195 429.550 C 1104.078 431.777, 1100.846 439.202, 1098.014 446.050 C 1095.181 452.897, 1090.375 464.575, 1087.332 472 C 1084.290 479.425, 1081.790 486.536, 1081.776 487.802 C 1081.762 489.069, 1082.772 491.193, 1084.022 492.523 C 1085.272 493.854, 1087.875 495.464, 1089.806 496.101 C 1091.738 496.739, 1095.732 497.239, 1098.682 497.212 C 1102.624 497.177, 1105.248 496.459, 1108.589 494.501 C 1111.089 493.036, 1113.714 492.060, 1114.422 492.332 C 1115.131 492.604, 1117.126 495.334, 1118.856 498.398 C 1120.585 501.462, 1122 504.844, 1122 505.912 C 1122 506.980, 1120.313 509.256, 1118.250 510.970 C 1116.188 512.683, 1111.582 515.528, 1108.016 517.292 L 1101.531 520.500 1090.890 520.500 L 1080.250 520.500 1072.412 516.500 C 1066.891 513.682, 1063.614 511.236, 1061.327 508.225 C 1059.541 505.873, 1057.615 502.273, 1057.048 500.225 C 1056.480 498.176, 1055.513 492.738, 1054.899 488.141 C 1054.285 483.544, 1053.976 473.419, 1054.212 465.641 L 1054.640 451.500 1059.207 432.500 C 1061.720 422.050, 1066.285 402.700, 1069.354 389.500 C 1072.422 376.300, 1076.747 357.732, 1078.966 348.239 C 1081.185 338.745, 1083 329.894, 1083 328.570 C 1083 327.247, 1082.727 325.452, 1082.393 324.582 C 1082.059 323.712, 1081.411 323, 1080.952 323 C 1080.493 323, 1079.754 323.563, 1079.309 324.250 M 298.614 342.072 C 289.327 342.493, 276.952 343.364, 271.114 344.008 C 264.985 344.684, 256.731 346.424, 251.580 348.127 C 246.673 349.749, 239.248 352.856, 235.080 355.031 C 230.911 357.207, 222.775 362.513, 217 366.824 C 211.225 371.134, 204.616 376.721, 202.313 379.240 C 200.009 381.759, 196.947 386.145, 195.506 388.988 C 194.066 391.830, 192.658 396.258, 192.379 398.828 C 192.004 402.268, 192.369 404.403, 193.762 406.923 C 194.803 408.805, 197.188 411.168, 199.062 412.173 C 200.955 413.188, 204.524 414, 207.095 414 C 210.425 414, 212.792 413.273, 215.544 411.405 C 217.647 409.978, 220.349 408.437, 221.549 407.981 C 223.104 407.390, 225.134 407.839, 228.615 409.545 C 231.302 410.861, 235.007 411.952, 236.849 411.969 C 238.691 411.986, 241.756 411.261, 243.660 410.357 C 245.910 409.289, 248.127 406.956, 249.990 403.694 C 251.567 400.933, 253.140 396.610, 253.486 394.087 C 253.870 391.292, 253.603 387.937, 252.803 385.500 C 251.855 382.608, 250.939 381.500, 249.496 381.500 C 247.774 381.500, 247.363 382.506, 246.500 388.832 C 245.766 394.216, 244.969 396.562, 243.500 397.661 C 242.144 398.677, 239.982 399.021, 236.783 398.729 C 234.189 398.493, 231.338 397.696, 230.449 396.957 C 229.186 395.909, 228.976 394.614, 229.495 391.057 C 229.860 388.551, 231.318 383.893, 232.735 380.706 C 234.521 376.692, 234.993 374.593, 234.272 373.872 C 233.551 373.151, 232.465 373.855, 230.737 376.165 C 229.366 377.999, 226.318 383.100, 223.965 387.500 C 221.612 391.900, 218.548 396.738, 217.156 398.250 C 215.359 400.203, 213.651 401, 211.263 401 C 209.414 401, 206.580 400.317, 204.965 399.482 C 203.350 398.647, 201.748 396.844, 201.404 395.475 C 201.019 393.939, 201.388 392.056, 202.369 390.560 C 203.243 389.226, 207.680 385.007, 212.229 381.185 C 216.778 377.362, 221.850 372.790, 223.500 371.026 C 225.150 369.261, 228.239 366.923, 230.363 365.830 C 232.488 364.738, 236.313 363.454, 238.863 362.977 C 241.414 362.500, 249.575 360.214, 257 357.897 L 270.500 353.683 293.500 353.592 C 313.028 353.514, 317.290 353.224, 321.736 351.674 C 324.985 350.542, 327.736 348.775, 328.986 347.020 C 330.094 345.464, 331 343.473, 331 342.596 C 331 341.259, 329.743 341.025, 323.250 341.154 C 318.988 341.238, 307.902 341.651, 298.614 342.072 M 401.969 343.492 C 399.477 344.284, 395.002 346.636, 392.024 348.716 C 388.560 351.138, 384.918 355.020, 381.908 359.500 C 379.321 363.350, 374.977 370.550, 372.255 375.500 C 369.534 380.450, 364.088 390.657, 360.153 398.182 C 355.862 406.390, 353 413.079, 353 414.898 C 353 416.840, 354.076 419.156, 355.993 421.339 C 357.639 423.214, 361.351 425.776, 364.243 427.033 C 367.591 428.489, 372.254 429.486, 377.085 429.778 C 382.321 430.096, 386.395 429.736, 390.239 428.619 C 393.302 427.729, 396.668 427, 397.720 427 C 399.242 427, 400.282 428.921, 402.816 436.412 C 404.567 441.589, 406 447.818, 406 450.255 C 406 452.959, 405.095 456.403, 403.677 459.093 C 402.400 461.517, 399.137 465.197, 396.427 467.271 C 393.717 469.345, 389.094 471.752, 386.153 472.620 C 382.584 473.674, 379.260 473.975, 376.153 473.528 C 373.594 473.160, 365.425 470.823, 358 468.334 C 346.602 464.515, 343.676 463.892, 339.205 464.338 C 336.294 464.627, 332.019 465.781, 329.705 466.902 C 327.392 468.022, 319.815 474.280, 312.868 480.808 C 305.920 487.336, 297.370 494.591, 293.868 496.930 C 290.365 499.270, 283.900 502.922, 279.500 505.047 C 275.100 507.172, 268.887 509.588, 265.693 510.416 C 262.499 511.243, 256.199 512.427, 251.693 513.046 C 247.187 513.665, 240.575 513.890, 237 513.546 C 233.425 513.203, 226.900 512.178, 222.500 511.269 C 216.531 510.037, 210.244 507.484, 197.736 501.215 C 188.516 496.593, 178.616 492.184, 175.736 491.418 C 172.856 490.651, 168.025 490.029, 165 490.036 C 161.975 490.043, 157.475 490.514, 155 491.082 C 152.525 491.650, 146.450 494.155, 141.500 496.649 C 136.550 499.142, 129.800 503.111, 126.500 505.468 C 123.200 507.825, 116.899 513.521, 112.497 518.127 C 108.096 522.732, 98.169 534.375, 90.437 544 C 82.705 553.625, 74.097 564.650, 71.306 568.500 C 68.516 572.350, 63.726 579.646, 60.661 584.713 C 57.596 589.780, 52.595 599.311, 49.549 605.894 C 46.503 612.476, 43.333 620.463, 42.505 623.641 C 41.677 626.820, 41 630.676, 41 632.210 C 41 634.090, 41.517 635, 42.586 635 C 43.458 635, 45.529 633.538, 47.189 631.750 C 48.848 629.962, 52.918 624.225, 56.233 619 C 59.548 613.775, 65.066 605.896, 68.496 601.491 C 71.926 597.087, 78.778 589.632, 83.725 584.925 C 88.671 580.218, 95.818 574.324, 99.609 571.827 C 103.399 569.330, 108.966 566.037, 111.981 564.510 C 115.478 562.737, 119.663 561.556, 123.547 561.244 C 126.895 560.975, 132.062 561.277, 135.032 561.913 C 138.001 562.550, 148.786 566.414, 159 570.500 C 169.214 574.586, 180 578.450, 182.970 579.087 C 186.368 579.816, 191.540 579.988, 196.920 579.551 C 201.622 579.170, 211.327 577.355, 218.485 575.518 C 225.643 573.682, 234.425 571.076, 238 569.728 C 241.575 568.380, 247.875 565.586, 252 563.518 C 256.125 561.451, 261.749 558.126, 264.497 556.130 C 267.245 554.133, 273.095 549.179, 277.497 545.120 C 281.899 541.061, 290.990 533.058, 297.700 527.335 C 304.410 521.613, 311.288 516.447, 312.985 515.855 C 315.643 514.929, 316.792 515.161, 321.285 517.531 C 324.153 519.045, 329.338 521.737, 332.806 523.515 C 336.275 525.292, 341.637 527.254, 344.723 527.873 C 347.809 528.493, 352.864 529, 355.957 529 C 359.049 529, 364.220 528.312, 367.448 527.472 C 370.675 526.631, 376.382 524.332, 380.129 522.363 C 384.837 519.889, 389.192 516.407, 394.221 511.095 C 399.363 505.663, 404.188 498.871, 410.656 487.953 C 415.692 479.454, 424.293 464.619, 429.770 454.986 C 435.246 445.354, 440.919 435.119, 442.377 432.243 C 443.835 429.366, 445.918 423.297, 447.007 418.756 C 448.095 414.215, 448.986 407.125, 448.986 403 C 448.986 398.875, 448.118 391.900, 447.058 387.500 C 445.997 383.100, 444.394 377.752, 443.495 375.615 C 442.596 373.478, 440.099 368.941, 437.946 365.533 C 435.794 362.124, 431.438 356.864, 428.266 353.842 C 425.095 350.821, 420.700 347.165, 418.500 345.718 C 416.300 344.271, 412.700 342.854, 410.500 342.569 C 408.274 342.281, 404.490 342.690, 401.969 343.492 M 1002.776 350.721 C 1000.536 353.017, 996.717 359.499, 993.043 367.240 C 989.718 374.248, 985.873 383.860, 984.498 388.602 C 982.502 395.491, 981.999 399.462, 981.994 408.362 C 981.991 414.488, 981.507 421.235, 980.919 423.355 C 980.330 425.475, 978.083 429.124, 975.926 431.464 C 973.769 433.804, 969.416 437.089, 966.252 438.764 C 963.088 440.439, 958.056 442.527, 955.068 443.405 C 952.081 444.282, 948.385 445, 946.854 445 C 945.153 445, 943.679 444.269, 943.064 443.120 C 942.365 441.813, 942.523 438.384, 943.584 431.870 C 944.423 426.717, 944.821 420.941, 944.469 419.035 C 944.117 417.129, 943.234 414.419, 942.507 413.014 C 941.780 411.608, 939.924 409.197, 938.382 407.654 C 936.839 406.112, 933.985 404.113, 932.039 403.212 C 929.218 401.906, 925.152 401.571, 912 401.557 C 899.608 401.545, 893.570 401.989, 887.746 403.339 C 883.482 404.329, 876.827 406.722, 872.958 408.657 C 869.089 410.593, 863.270 414.633, 860.028 417.634 C 856.786 420.636, 852.440 425.644, 850.369 428.763 C 848.299 431.882, 845.344 437.533, 843.803 441.321 C 842.261 445.108, 841 448.563, 841 448.998 C 841 449.433, 846.288 449.949, 852.750 450.145 L 864.500 450.500 869.238 453.285 C 871.843 454.817, 875.106 457.734, 876.488 459.767 C 878.166 462.237, 879 464.832, 879 467.584 C 879 470.216, 878.175 472.931, 876.716 475.102 C 875.391 477.074, 868.992 482.147, 861.466 487.191 C 852.837 492.976, 845.814 498.662, 840.469 504.191 C 836.052 508.761, 827.046 518.800, 820.454 526.500 C 813.863 534.200, 805.913 543.709, 802.787 547.631 C 799.662 551.553, 794.195 558.799, 790.639 563.733 C 787.083 568.667, 781.438 577.451, 778.095 583.254 C 774.752 589.057, 769.584 599.385, 766.609 606.205 C 763.635 613.026, 759.854 622.632, 758.208 627.553 C 756.562 632.474, 753.617 641.675, 751.665 648 C 749.712 654.325, 747.645 662.200, 747.073 665.500 C 746.500 668.800, 744.868 681.850, 743.445 694.500 C 741.761 709.473, 741.082 719.594, 741.498 723.500 C 741.850 726.800, 743.249 732.822, 744.607 736.883 C 745.964 740.944, 749.145 747.469, 751.675 751.383 C 754.205 755.297, 759.700 762.036, 763.887 766.357 C 768.074 770.678, 774.262 776.195, 777.638 778.615 C 781.014 781.036, 788.512 785.278, 794.301 788.043 C 800.089 790.809, 809.027 794.135, 814.163 795.436 C 819.298 796.736, 827.955 798.359, 833.401 799.042 C 839.625 799.824, 848.351 800.062, 856.901 799.684 C 864.380 799.354, 876.125 798.182, 883 797.080 C 889.875 795.978, 899.100 794.136, 903.500 792.987 C 907.900 791.838, 916.675 789.301, 923 787.349 C 929.325 785.397, 939.450 781.783, 945.500 779.317 C 951.550 776.851, 962.125 771.896, 969 768.306 C 975.875 764.716, 987.125 758.043, 994 753.476 C 1000.875 748.910, 1010.325 742.123, 1015 738.395 C 1019.675 734.666, 1032.874 722.364, 1044.331 711.058 C 1055.788 699.751, 1070.863 684.064, 1077.831 676.199 C 1084.799 668.333, 1092.893 658.433, 1095.818 654.199 C 1098.742 649.964, 1104.223 641.550, 1107.996 635.500 C 1112.857 627.707, 1115.129 622.976, 1115.788 619.273 L 1116.719 614.045 1114.767 613.426 C 1113.265 612.949, 1111.631 614.151, 1107.661 618.653 C 1104.826 621.869, 1095.380 631.925, 1086.670 641 C 1077.961 650.075, 1065.584 662.353, 1059.167 668.285 C 1052.750 674.217, 1043.450 682.117, 1038.500 685.839 C 1033.550 689.562, 1025.900 694.888, 1021.500 697.674 C 1017.100 700.460, 1008.785 705.104, 1003.023 707.993 C 997.260 710.883, 987.360 715.225, 981.023 717.643 C 974.685 720.061, 960.950 724.259, 950.500 726.973 C 940.050 729.687, 927.450 732.583, 922.500 733.408 C 917.550 734.232, 908.325 735.326, 902 735.838 C 895.675 736.350, 888.718 736.842, 886.539 736.930 C 884.360 737.019, 877.385 736.590, 871.039 735.978 C 864.693 735.366, 856.125 734.190, 852 733.365 C 847.875 732.539, 839.923 730.344, 834.329 728.486 C 828.734 726.628, 821.309 723.676, 817.829 721.926 C 814.348 720.176, 808.242 716.498, 804.260 713.754 C 800.277 711.009, 794.202 705.777, 790.760 702.126 C 787.317 698.475, 782.712 692.116, 780.528 687.994 L 776.555 680.500 776.192 669.500 C 775.916 661.116, 776.334 656.003, 777.951 648 C 779.118 642.225, 781.696 632.550, 783.679 626.500 C 785.663 620.450, 789.723 610.618, 792.701 604.651 C 795.679 598.684, 800.611 589.934, 803.660 585.207 C 806.710 580.480, 811.939 572.988, 815.282 568.556 C 818.624 564.125, 823.619 557.800, 826.382 554.500 C 829.144 551.200, 834.351 545.358, 837.952 541.518 C 841.554 537.678, 848.775 530.526, 854 525.626 C 859.225 520.726, 867.550 513.572, 872.500 509.728 C 877.450 505.884, 885.325 500.163, 890 497.015 C 894.675 493.867, 900.300 490.379, 902.500 489.265 C 904.700 488.151, 908.300 486.968, 910.500 486.636 C 912.700 486.305, 917.200 485.777, 920.500 485.464 C 923.800 485.150, 928.975 484.439, 932 483.883 C 935.025 483.327, 940.425 481.938, 944 480.797 C 947.575 479.656, 952.747 477.597, 955.493 476.221 C 958.239 474.846, 964.089 470.981, 968.493 467.634 C 972.897 464.286, 979.465 458.587, 983.090 454.968 C 986.714 451.350, 991.560 445.223, 993.860 441.353 C 996.357 437.149, 999.642 429.181, 1002.019 421.562 C 1004.207 414.548, 1006.924 404.464, 1008.056 399.154 C 1009.382 392.934, 1010.300 383.986, 1010.638 374 C 1010.927 365.475, 1010.783 356.030, 1010.319 353.011 C 1009.764 349.400, 1008.960 347.423, 1007.969 347.233 C 1007.140 347.073, 1004.803 348.643, 1002.776 350.721 M 1252.241 406.035 C 1250.998 406.534, 1247.964 409.018, 1245.498 411.555 C 1243.033 414.092, 1238.585 419.842, 1235.614 424.334 C 1232.644 428.825, 1227.942 437.051, 1225.166 442.613 C 1222.390 448.175, 1218.051 457.850, 1215.523 464.113 C 1212.995 470.376, 1210.667 477.337, 1210.351 479.581 C 1209.958 482.363, 1210.295 484.669, 1211.408 486.822 C 1212.333 488.610, 1214.876 490.937, 1217.271 492.186 C 1220.587 493.916, 1223.690 494.481, 1231.652 494.806 L 1241.803 495.220 1239.832 498.560 C 1238.748 500.397, 1235.065 504.511, 1231.647 507.700 C 1228.229 510.890, 1218.922 519.146, 1210.966 526.046 C 1203.010 532.947, 1193.350 541.104, 1189.500 544.174 C 1185.650 547.243, 1177.325 553.092, 1171 557.170 C 1164.675 561.249, 1156.125 566.640, 1152 569.150 C 1147.875 571.660, 1142.138 575.016, 1139.251 576.607 C 1136.364 578.198, 1134.002 580.036, 1134.001 580.691 C 1134 581.346, 1134.501 582.192, 1135.113 582.570 C 1135.725 582.948, 1141.616 580.641, 1148.204 577.442 L 1160.182 571.627 1166.841 571.517 C 1172.547 571.423, 1175.218 570.657, 1185.500 566.164 C 1192.100 563.280, 1202.450 558.473, 1208.500 555.481 C 1214.550 552.490, 1222.095 547.895, 1225.268 545.271 C 1228.440 542.647, 1233.763 537.350, 1237.097 533.500 C 1240.431 529.650, 1245.866 522.891, 1249.175 518.480 C 1252.483 514.068, 1257.632 506.193, 1260.617 500.980 C 1263.601 495.766, 1267.862 486.849, 1270.084 481.165 C 1272.307 475.481, 1275.058 467.381, 1276.199 463.165 C 1277.793 457.273, 1278.299 452.262, 1278.386 441.500 L 1278.500 427.500 1276.339 422.824 C 1275.151 420.253, 1272.246 416.052, 1269.884 413.490 C 1267.522 410.928, 1263.900 407.969, 1261.835 406.916 C 1259.769 405.862, 1257.274 405.029, 1256.290 405.063 C 1255.305 405.098, 1253.483 405.535, 1252.241 406.035 M 585.632 477.460 C 582.405 478.787, 577.703 481.620, 575.183 483.755 C 572.663 485.891, 569.117 489.794, 567.301 492.428 C 565.200 495.477, 564 498.419, 564 500.520 C 564 502.972, 564.784 504.482, 567.045 506.385 C 568.720 507.794, 571.983 509.482, 574.295 510.136 C 576.608 510.789, 582.325 511.335, 587 511.349 C 594.286 511.370, 596.290 510.982, 601.033 508.631 C 604.075 507.123, 608.244 504.304, 610.296 502.369 C 612.348 500.433, 614.740 497.470, 615.611 495.786 C 616.584 493.905, 616.966 491.581, 616.602 489.762 C 616.277 488.133, 614.607 485.028, 612.891 482.862 C 611.176 480.696, 608.041 478.041, 605.926 476.962 C 603.510 475.729, 600.113 475.009, 596.790 475.024 C 593.535 475.038, 589.243 475.975, 585.632 477.460 M 657.462 565.994 C 628.333 580.240, 597.391 595.407, 588.703 599.698 L 572.905 607.500 574.232 609.309 L 575.559 611.118 580.035 609.199 C 582.496 608.144, 591.171 605.394, 599.312 603.087 C 607.453 600.780, 618.640 597.317, 624.173 595.392 C 629.705 593.466, 640.367 588.695, 647.866 584.789 C 655.365 580.883, 665.550 575.451, 670.500 572.718 C 675.450 569.984, 682.854 565.442, 686.953 562.624 C 691.052 559.806, 698.252 553.831, 702.953 549.348 C 707.654 544.864, 711.258 540.947, 710.962 540.643 C 710.667 540.340, 686.592 551.748, 657.462 565.994 M 954.441 592.087 C 945.673 602.693, 937.685 612.216, 936.689 613.247 C 935.692 614.279, 933.914 614.983, 932.736 614.811 C 931.378 614.614, 926.462 609.378, 919.299 600.500 C 913.086 592.801, 907.526 586.342, 906.944 586.148 C 906.361 585.954, 904.968 586.624, 903.849 587.637 C 902.729 588.650, 897.273 595.783, 891.723 603.489 C 886.172 611.195, 878.339 622.183, 874.316 627.906 C 870.292 633.629, 867 639.124, 867 640.118 C 867 641.111, 870.401 646.011, 874.558 651.006 C 878.716 656, 884.039 662.092, 886.387 664.543 C 889.353 667.639, 891.472 669, 893.326 669 C 895.004 669, 897.537 667.608, 900.150 665.250 C 902.436 663.188, 909.919 655.200, 916.779 647.500 C 923.639 639.800, 929.590 633.368, 930.005 633.207 C 930.419 633.046, 934.717 639.003, 939.556 646.446 C 944.396 653.888, 949.158 660.233, 950.140 660.544 C 951.121 660.856, 952.820 660.631, 953.915 660.046 C 955.009 659.460, 962.746 651.678, 971.108 642.753 C 981.126 632.061, 987.108 624.816, 988.646 621.513 C 989.930 618.756, 990.980 614.700, 990.980 612.500 C 990.980 610.300, 989.854 606.080, 988.477 603.122 C 987.100 600.164, 983.084 592.964, 979.553 587.122 C 976.022 581.280, 972.514 575.668, 971.757 574.651 L 970.382 572.802 954.441 592.087 M 218.834 644.035 C 217.918 644.569, 213.193 650.681, 208.334 657.617 C 203.475 664.554, 197.475 672.953, 195 676.282 C 192.525 679.611, 189.724 682.812, 188.775 683.396 C 187.556 684.146, 186.213 684.142, 184.193 683.379 C 182.622 682.786, 173.640 676.383, 164.233 669.150 C 154.827 661.918, 146.706 656, 146.188 656 C 145.669 656, 141.271 662.413, 136.415 670.250 C 131.559 678.087, 124.081 690.125, 119.799 697 C 115.387 704.082, 112.023 710.584, 112.038 712 C 112.052 713.375, 112.612 715.191, 113.282 716.035 C 113.952 716.879, 119 720.696, 124.500 724.518 C 130 728.340, 137.032 733.162, 140.126 735.233 C 143.220 737.305, 146.630 739, 147.702 739 C 148.774 739, 150.546 737.987, 151.639 736.750 C 152.732 735.513, 159.621 726.063, 166.949 715.750 C 174.277 705.438, 180.549 697.018, 180.887 697.041 C 181.224 697.063, 183.079 699.786, 185.008 703.091 C 186.937 706.397, 193.687 714.896, 200.008 721.979 C 206.329 729.062, 211.950 734.740, 212.500 734.596 C 213.049 734.451, 216.235 730.321, 219.579 725.417 C 222.923 720.513, 230.461 709.090, 236.330 700.034 C 244.848 686.888, 247 682.844, 247 679.980 C 247 677.746, 245.927 674.713, 244.157 671.946 C 242.593 669.501, 236.943 662.100, 231.600 655.500 C 226.258 648.900, 221.575 643.402, 221.193 643.282 C 220.812 643.162, 219.750 643.501, 218.834 644.035" stroke="none" fill="#FF2E31" fill-rule="evenodd"/></svg>